<svg width="1254" height="349" viewBox="0 0 1254 349" fill="none" xmlns="http://www.w3.org/2000/svg">
  <path d="M81.6412 228.271C69.8712 228.057 58.4222 227.094 47.2942 225.382C36.1662 223.456 27.1782 220.888 20.3302 217.678V190.393C27.6062 193.817 36.9152 196.813 48.2572 199.381C59.5992 201.949 70.7272 203.34 81.6412 203.554V138.712C71.1552 135.716 61.9532 132.506 54.0352 129.082C46.3312 125.444 40.0182 121.378 35.0962 116.884C30.1742 112.39 26.4292 107.254 23.8612 101.476C21.5072 95.484 20.3302 88.636 20.3302 80.932C20.3302 70.446 22.7912 61.458 27.7132 53.968C32.8492 46.478 40.0182 40.593 49.2202 36.313C58.4222 31.819 69.2292 29.251 81.6412 28.609V0.36098H102.185V28.288C113.527 28.502 123.799 29.786 133.001 32.14C142.417 34.28 150.977 36.955 158.681 40.165L150.014 63.919C143.166 61.137 135.569 58.783 127.223 56.857C119.091 54.717 110.745 53.326 102.185 52.684V117.205C116.309 121.271 128.079 125.658 137.495 130.366C146.911 134.86 153.973 140.531 158.681 147.379C163.603 154.013 166.064 162.68 166.064 173.38C166.064 188.36 160.5 200.558 149.372 209.974C138.244 219.176 122.515 224.847 102.185 226.987V262.618H81.6412V228.271ZM102.185 201.949C114.811 200.665 124.013 197.776 129.791 193.282C135.569 188.574 138.458 182.582 138.458 175.306C138.458 169.956 137.388 165.569 135.248 162.145C133.108 158.507 129.363 155.404 124.013 152.836C118.877 150.268 111.601 147.807 102.185 145.453V201.949ZM81.6412 53.326C73.9372 53.754 67.6242 55.145 62.7022 57.499C57.7802 59.639 54.0352 62.528 51.4672 66.166C49.1132 69.804 47.9362 73.977 47.9362 78.685C47.9362 84.249 48.8992 89.064 50.8252 93.13C52.9652 96.982 56.4962 100.299 61.4182 103.081C66.3402 105.649 73.0812 108.003 81.6412 110.143V53.326ZM231.312 45.943C243.831 40.486 260.202 37.918 279.462 37.918C297.438 37.918 314.451 40.486 328.254 45.622C320.871 25.399 304.821 15.448 280.425 15.448C254.103 15.448 237.411 28.609 231.312 45.943ZM332.106 87.031H363.243C362.602 67.129 348.798 53.326 328.254 45.622C331.143 53.647 332.748 63.598 332.748 75.154C332.748 79.006 332.427 82.858 332.106 87.031ZM336.6 216.073C354.576 207.727 363.564 193.924 363.564 176.269C363.564 151.873 344.625 135.502 315.414 123.946L272.079 106.933C242.226 95.377 228.744 85.747 228.744 60.709C228.744 55.573 229.707 50.437 231.312 45.943C214.299 53.005 204.669 65.203 204.669 82.537C204.669 105.328 224.892 118.489 252.819 129.403L296.154 146.095C324.723 157.009 339.489 169.849 339.489 199.06C339.489 205.159 338.526 210.937 336.6 216.073ZM235.164 217.678C230.991 208.369 229.065 197.134 229.065 183.652C229.065 179.158 229.065 174.343 229.707 169.528H198.57C198.891 194.566 212.694 209.653 235.164 217.678ZM285.882 247.852C313.167 247.852 330.18 234.37 336.6 216.073C324.402 221.851 308.031 225.061 287.808 225.061C267.906 225.061 249.93 222.814 235.164 217.678C244.152 237.259 261.486 247.852 285.882 247.852ZM439.762 51.721C456.775 44.017 477.64 39.844 500.752 39.844C523.222 39.844 543.124 43.375 559.174 50.758C546.976 28.93 528.037 15.448 500.752 15.448C471.862 15.448 452.281 29.251 439.762 51.721ZM559.174 212.221C590.311 198.418 608.287 170.812 608.287 130.045C608.287 91.204 590.311 64.561 559.174 50.758C570.409 71.302 575.545 99.229 575.545 130.045C575.545 162.466 570.409 191.356 559.174 212.221ZM442.33 212.221C430.132 191.356 423.712 162.466 423.712 130.045C423.712 99.55 428.848 72.265 439.762 51.721C409.588 65.845 390.97 92.488 390.97 130.045C390.97 170.812 410.551 198.097 442.33 212.221ZM500.752 247.852C528.037 247.852 547.297 234.37 559.174 212.221C543.124 219.604 523.222 223.135 500.752 223.135C478.603 223.135 458.701 219.604 442.33 212.221C455.17 234.37 474.751 247.852 500.752 247.852ZM675.077 212.863C673.472 208.369 672.83 203.554 672.83 198.739V19.3H645.224V164.071C645.224 186.862 655.496 203.233 675.077 212.863ZM787.106 212.863C807.329 203.233 817.601 186.541 817.601 164.071V19.3H789.353V198.739C789.353 203.554 788.711 208.369 787.106 212.863ZM730.931 247.852C761.426 247.852 781.007 232.444 787.106 212.863C773.303 219.604 754.364 223.135 730.931 223.135C707.819 223.135 688.88 219.604 675.077 212.863C681.497 232.444 701.078 247.852 730.931 247.852ZM869.047 244H1019.92V221.209H896.011V19.3H869.047V244Z" fill="#FF3E12" />
  <path d="M1123.95 115.921L1123.74 116.899L1125.08 117.184L1124.95 115.828L1123.95 115.921ZM1108.87 72.265L1108.03 72.8055L1108.03 72.8075L1108.87 72.265ZM1074.84 19.3L1075.68 18.7595L1075.39 18.3H1074.84V19.3ZM1040.82 19.3V18.3H1039.82V19.3H1040.82ZM1040.82 19.942H1039.82V20.256L1039.99 20.5136L1040.82 19.942ZM1093.14 95.056L1093.97 94.4956L1093.96 94.4844L1093.14 95.056ZM1151.24 115.921L1150.25 115.78L1150.06 117.127L1151.4 116.908L1151.24 115.921ZM1183.34 95.056L1182.51 94.4956L1182.51 94.4961L1183.34 95.056ZM1234.38 19.621L1235.21 20.1814L1235.38 19.9275V19.621H1234.38ZM1234.38 19.3H1235.38V18.3H1234.38V19.3ZM1202.92 19.3V18.3H1202.38L1202.08 18.7511L1202.92 19.3ZM1167.93 72.586L1168.77 73.1366L1168.77 73.1349L1167.93 72.586ZM1123.63 143.848L1122.64 143.707L1122.44 145.126L1123.84 144.826L1123.63 143.848ZM1151.24 143.848L1151.03 144.826L1152.43 145.126L1152.23 143.707L1151.24 143.848ZM1151.24 115.921L1152.23 116.045L1152.41 114.625L1151.01 114.947L1151.24 115.921ZM1123.95 115.921L1124.18 114.947L1122.77 114.622L1122.96 116.053L1123.95 115.921ZM1032.79 244H1031.79V245H1032.79V244ZM1066.17 244V245H1066.71L1067 244.559L1066.17 244ZM1105.34 185.899L1106.17 186.458L1106.17 186.457L1105.34 185.899ZM1123.63 143.848L1124.62 143.996L1124.83 142.594L1123.44 142.867L1123.63 143.848ZM1083.19 172.738L1082.38 172.152L1082.37 172.159L1083.19 172.738ZM1032.79 243.679L1031.97 243.1L1031.79 243.36V243.679H1032.79ZM1210.3 244L1209.48 244.568L1209.78 245H1210.3V244ZM1243.05 244V245H1244.05V244H1243.05ZM1243.05 243.679H1244.05V243.358L1243.86 243.097L1243.05 243.679ZM1192.01 172.417L1191.19 172.998L1191.19 172.999L1192.01 172.417ZM1151.24 143.848L1151.41 142.862L1150.05 142.63L1150.25 143.996L1151.24 143.848ZM1171.78 188.146L1170.96 188.714L1171.78 188.146ZM1124.95 115.828C1123.65 101.891 1119.76 87.2857 1109.71 71.7225L1108.03 72.8075C1117.88 88.0603 1121.69 102.345 1122.96 116.014L1124.95 115.828ZM1109.71 71.7245L1075.68 18.7595L1074 19.8405L1108.03 72.8055L1109.71 71.7245ZM1074.84 18.3H1040.82V20.3H1074.84V18.3ZM1039.82 19.3V19.942H1041.82V19.3H1039.82ZM1039.99 20.5136L1092.32 95.6276L1093.96 94.4844L1041.64 19.3704L1039.99 20.5136ZM1092.31 95.6163C1099.83 106.736 1110 113.954 1123.74 116.899L1124.16 114.943C1110.94 112.11 1101.21 105.204 1093.97 94.4957L1092.31 95.6163ZM1151.4 116.908C1165.49 114.615 1176 107.711 1184.17 95.6159L1182.51 94.4961C1174.63 106.155 1164.6 112.733 1151.08 114.934L1151.4 116.908ZM1184.17 95.6164L1235.21 20.1814L1233.55 19.0606L1182.51 94.4956L1184.17 95.6164ZM1235.38 19.621V19.3H1233.38V19.621H1235.38ZM1234.38 18.3H1202.92V20.3H1234.38V18.3ZM1202.08 18.7511L1167.1 72.0371L1168.77 73.1349L1203.76 19.8489L1202.08 18.7511ZM1167.1 72.0354C1157.06 87.2546 1152.19 102.162 1150.25 115.78L1152.23 116.062C1154.14 102.716 1158.9 88.0914 1168.77 73.1366L1167.1 72.0354ZM1123.84 144.826C1128.25 143.882 1132.67 143.564 1137.44 143.564V141.564C1132.58 141.564 1128.01 141.888 1123.42 142.87L1123.84 144.826ZM1137.44 143.564C1142.21 143.564 1146.63 143.882 1151.03 144.826L1151.45 142.87C1146.86 141.888 1142.3 141.564 1137.44 141.564V143.564ZM1152.23 143.707C1151.59 139.259 1151.28 134.812 1151.28 130.366H1149.28C1149.28 134.908 1149.6 139.449 1150.25 143.989L1152.23 143.707ZM1151.28 130.366C1151.28 125.919 1151.59 121.146 1152.23 116.045L1150.25 115.797C1149.6 120.968 1149.28 125.825 1149.28 130.366H1151.28ZM1151.01 114.947C1146.95 115.885 1142.22 116.205 1137.44 116.205V118.205C1142.29 118.205 1147.19 117.883 1151.46 116.895L1151.01 114.947ZM1137.44 116.205C1132.66 116.205 1128.25 115.886 1124.18 114.947L1123.73 116.895C1128 117.882 1132.58 118.205 1137.44 118.205V116.205ZM1122.96 116.053C1123.59 120.792 1123.6 125.54 1123.6 130.366H1125.6C1125.6 125.562 1125.6 120.68 1124.95 115.789L1122.96 116.053ZM1123.6 130.366C1123.6 135.131 1123.28 139.257 1122.64 143.707L1124.62 143.989C1125.27 139.451 1125.6 135.23 1125.6 130.366H1123.6ZM1032.79 245H1066.17V243H1032.79V245ZM1067 244.559L1106.17 186.458L1104.51 185.34L1065.34 243.441L1067 244.559ZM1106.17 186.457C1117.45 169.685 1122.67 157.027 1124.62 143.996L1122.64 143.7C1120.75 156.349 1115.69 168.729 1104.51 185.341L1106.17 186.457ZM1123.44 142.867C1108.37 145.815 1095.01 154.664 1082.38 172.152L1084 173.323C1096.41 156.144 1109.36 147.659 1123.83 144.829L1123.44 142.867ZM1082.37 172.159L1031.97 243.1L1033.61 244.258L1084 173.317L1082.37 172.159ZM1031.79 243.679V244H1033.79V243.679H1031.79ZM1210.3 245H1243.05V243H1210.3V245ZM1244.05 244V243.679H1242.05V244H1244.05ZM1243.86 243.097L1192.82 171.835L1191.19 172.999L1242.23 244.261L1243.86 243.097ZM1192.82 171.836C1179.86 153.693 1166.81 145.484 1151.41 142.862L1151.07 144.834C1165.84 147.348 1178.47 155.189 1191.19 172.998L1192.82 171.836ZM1150.25 143.996C1152.21 157.053 1158.08 170.04 1170.96 188.714L1172.61 187.578C1159.8 169.016 1154.12 156.323 1152.23 143.7L1150.25 143.996ZM1170.96 188.714L1209.48 244.568L1211.13 243.432L1172.61 187.578L1170.96 188.714Z" fill="#FF3E12" />
  <path d="M248.204 312.91H259.04C258.868 310.846 257.363 309.9 254.998 309.9H248.204V312.91ZM262.695 312.91H273.531V309.9H266.737C264.372 309.9 262.867 310.846 262.695 312.91ZM259.04 340H262.695V312.91H259.04V340ZM281.525 322.757V309.9H277.827V318.328C277.827 320.779 279.246 322.37 281.525 322.757ZM297.392 322.757C299.671 322.37 301.09 320.779 301.09 318.328V309.9H297.392V322.757ZM281.525 325.939C281.869 325.896 282.299 325.853 282.686 325.853H296.231C296.618 325.853 297.005 325.896 297.392 325.939V322.757C297.005 322.8 296.618 322.843 296.231 322.843H282.686C282.299 322.843 281.869 322.8 281.525 322.757V325.939ZM277.827 340H281.525V325.939C279.246 326.326 277.827 327.874 277.827 330.239V340ZM297.392 340H301.09V330.196C301.09 327.874 299.671 326.326 297.392 325.939V340ZM311.589 322.886V312.996H327.542V309.9H307.977V318.457C307.977 321.252 308.88 322.585 311.589 322.886ZM311.589 326.025C311.976 325.982 312.449 325.939 312.922 325.939H326.725V322.929H312.922C312.449 322.929 311.976 322.929 311.589 322.886V326.025ZM307.977 340H327.972V336.904H311.589V326.025C308.88 326.455 307.977 328.175 307.977 330.497V340ZM344.3 340H347.955V326.025H350.75C351.352 326.025 351.954 326.025 352.556 326.111C352.47 325.552 352.427 325.036 352.427 324.477C352.427 323.918 352.427 323.359 352.47 322.886C351.954 322.972 351.395 322.972 350.75 322.972H347.955V309.9H344.3V340ZM352.47 322.886C353.889 322.671 355.179 321.983 357.028 319.962L366.23 309.986V309.9H361.629L356.297 315.49C353.459 318.457 352.685 320.392 352.47 322.886ZM363.349 340H368.208V339.914L357.501 328.777C355.695 326.885 354.147 326.283 352.556 326.111C353.029 328.906 354.749 331.4 357.845 334.496L363.349 340ZM374.409 322.886V312.996H390.362V309.9H370.797V318.457C370.797 321.252 371.7 322.585 374.409 322.886ZM374.409 326.025C374.796 325.982 375.269 325.939 375.742 325.939H389.545V322.929H375.742C375.269 322.929 374.796 322.929 374.409 322.886V326.025ZM370.797 340H390.792V336.904H374.409V326.025C371.7 326.455 370.797 328.175 370.797 330.497V340ZM404.24 325.079C404.197 323.488 403.982 322.628 402.821 320.521L397.016 309.9H392.931V309.943L400.069 321.983C401.058 323.617 402.477 324.649 404.24 325.079ZM407.637 325.079C409.357 324.692 410.604 323.66 411.636 322.026L419.204 309.943V309.9H415.119L409.056 320.521C407.852 322.628 407.68 323.488 407.637 325.079ZM404.24 340H407.637V325.079C407.121 325.208 406.562 325.251 405.96 325.251C405.358 325.251 404.756 325.208 404.24 325.079V340ZM430.828 312.91H441.664C441.492 310.846 439.987 309.9 437.622 309.9H430.828V312.91ZM445.319 312.91H456.155V309.9H449.361C446.996 309.9 445.491 310.846 445.319 312.91ZM441.664 340H445.319V312.91H441.664V340ZM463.33 314.243C465.609 313.211 468.404 312.652 471.5 312.652C474.51 312.652 477.176 313.125 479.326 314.114C477.692 311.19 475.155 309.384 471.5 309.384C467.63 309.384 465.007 311.233 463.33 314.243ZM479.326 335.743C483.497 333.894 485.905 330.196 485.905 324.735C485.905 319.532 483.497 315.963 479.326 314.114C480.831 316.866 481.519 320.607 481.519 324.735C481.519 329.078 480.831 332.948 479.326 335.743ZM463.674 335.743C462.04 332.948 461.18 329.078 461.18 324.735C461.18 320.65 461.868 316.995 463.33 314.243C459.288 316.135 456.794 319.704 456.794 324.735C456.794 330.196 459.417 333.851 463.674 335.743ZM471.5 340.516C475.155 340.516 477.735 338.71 479.326 335.743C477.176 336.732 474.51 337.205 471.5 337.205C468.533 337.205 465.867 336.732 463.674 335.743C465.394 338.71 468.017 340.516 471.5 340.516ZM504.484 313.469C506.161 312.738 508.354 312.394 510.934 312.394C513.342 312.394 515.621 312.738 517.47 313.426C516.481 310.717 514.331 309.384 511.063 309.384C507.537 309.384 505.301 311.147 504.484 313.469ZM517.986 318.973H522.157C522.071 316.307 520.222 314.458 517.47 313.426C517.857 314.501 518.072 315.834 518.072 317.382C518.072 317.898 518.029 318.414 517.986 318.973ZM518.588 336.259C520.996 335.141 522.2 333.292 522.2 330.927C522.2 327.659 519.663 325.466 515.75 323.918L509.945 321.639C505.946 320.091 504.14 318.801 504.14 315.447C504.14 314.759 504.269 314.071 504.484 313.469C502.205 314.415 500.915 316.049 500.915 318.371C500.915 321.424 503.624 323.187 507.365 324.649L513.17 326.885C516.997 328.347 518.975 330.067 518.975 333.98C518.975 334.797 518.846 335.571 518.588 336.259ZM505 336.474C504.441 335.227 504.183 333.722 504.183 331.916C504.183 331.314 504.183 330.669 504.269 330.024H500.098C500.141 333.378 501.99 335.399 505 336.474ZM511.794 340.516C515.449 340.516 517.728 338.71 518.588 336.259C516.954 337.033 514.761 337.463 512.052 337.463C509.386 337.463 506.978 337.162 505 336.474C506.204 339.097 508.526 340.516 511.794 340.516ZM531.805 335.829C531.59 335.227 531.504 334.582 531.504 333.937V309.9H527.806V329.293C527.806 332.346 529.182 334.539 531.805 335.829ZM546.812 335.829C549.521 334.539 550.897 332.303 550.897 329.293V309.9H547.113V333.937C547.113 334.582 547.027 335.227 546.812 335.829ZM539.287 340.516C543.372 340.516 545.995 338.452 546.812 335.829C544.963 336.732 542.426 337.205 539.287 337.205C536.191 337.205 533.654 336.732 531.805 335.829C532.665 338.452 535.288 340.516 539.287 340.516ZM560.67 313.469C562.347 312.738 564.54 312.394 567.12 312.394C569.528 312.394 571.807 312.738 573.656 313.426C572.667 310.717 570.517 309.384 567.249 309.384C563.723 309.384 561.487 311.147 560.67 313.469ZM574.172 318.973H578.343C578.257 316.307 576.408 314.458 573.656 313.426C574.043 314.501 574.258 315.834 574.258 317.382C574.258 317.898 574.215 318.414 574.172 318.973ZM574.774 336.259C577.182 335.141 578.386 333.292 578.386 330.927C578.386 327.659 575.849 325.466 571.936 323.918L566.131 321.639C562.132 320.091 560.326 318.801 560.326 315.447C560.326 314.759 560.455 314.071 560.67 313.469C558.391 314.415 557.101 316.049 557.101 318.371C557.101 321.424 559.81 323.187 563.551 324.649L569.356 326.885C573.183 328.347 575.161 330.067 575.161 333.98C575.161 334.797 575.032 335.571 574.774 336.259ZM561.186 336.474C560.627 335.227 560.369 333.722 560.369 331.916C560.369 331.314 560.369 330.669 560.455 330.024H556.284C556.327 333.378 558.176 335.399 561.186 336.474ZM567.98 340.516C571.635 340.516 573.914 338.71 574.774 336.259C573.14 337.033 570.947 337.463 568.238 337.463C565.572 337.463 563.164 337.162 561.186 336.474C562.39 339.097 564.712 340.516 567.98 340.516ZM583.992 340H587.776V328.949H594.957C598.569 328.949 600.805 327.616 601.966 325.251C600.633 325.638 599.214 325.724 598.01 325.724H587.776V312.953H598.01C599.171 312.953 600.504 313.039 601.794 313.34C600.547 311.233 598.311 309.9 594.699 309.9H583.992V340ZM601.966 325.251C604.46 324.563 606.696 322.929 606.696 319.274C606.696 315.533 604.374 313.985 601.794 313.34C602.697 314.931 603.084 316.995 603.084 319.274C603.084 321.639 602.74 323.703 601.966 325.251ZM614.605 322.886V312.996H630.558V309.9H610.993V318.457C610.993 321.252 611.896 322.585 614.605 322.886ZM614.605 326.025C614.992 325.982 615.465 325.939 615.938 325.939H629.741V322.929H615.938C615.465 322.929 614.992 322.929 614.605 322.886V326.025ZM610.993 340H630.988V336.904H614.605V326.025C611.896 326.455 610.993 328.175 610.993 330.497V340ZM640.264 313.383C641.081 313.082 642.027 312.953 643.016 312.953C643.661 312.953 644.22 312.996 644.779 313.082L644.349 311.19C644.134 310.201 643.489 309.384 642.285 309.384C640.952 309.384 640.264 310.416 640.264 311.663V313.383ZM658.797 336.517C660.99 335.786 662.495 334.195 662.495 331.83V309.9H658.797V336.517ZM654.282 336.775L649.982 318.457C649.165 314.974 647.402 313.469 644.779 313.082L648.993 331.4C649.767 334.883 651.616 336.388 654.282 336.775ZM636.566 340H640.264V313.383C638.071 314.114 636.566 315.791 636.566 318.758V340ZM656.776 340.516C658.066 340.516 658.797 339.613 658.797 338.194V336.517C657.98 336.775 657.034 336.904 656.045 336.904C655.4 336.904 654.841 336.861 654.282 336.775L654.669 338.495C654.97 339.699 655.529 340.516 656.776 340.516ZM669.362 340H679.037C682.133 340 684.971 338.839 686.992 336.087C685.358 336.689 683.552 336.99 681.574 336.99H673.146V312.91H681.144C683.638 312.91 685.917 313.34 687.809 314.2C685.917 310.889 682.821 309.9 679.037 309.9H669.362V340ZM686.992 336.087C691.378 334.453 694.259 330.669 694.259 324.649C694.259 319.489 691.808 315.963 687.809 314.2C689.142 316.436 689.873 319.79 689.873 324.649C689.873 329.938 688.755 333.636 686.992 336.087ZM702.83 322.886V312.996H718.783V309.9H699.218V318.457C699.218 321.252 700.121 322.585 702.83 322.886ZM702.83 326.025C703.217 325.982 703.69 325.939 704.163 325.939H717.966V322.929H704.163C703.69 322.929 703.217 322.929 702.83 322.886V326.025ZM699.218 340H719.213V336.904H702.83V326.025C700.121 326.455 699.218 328.175 699.218 330.497V340ZM724.792 340H734.467C737.563 340 740.401 338.839 742.422 336.087C740.788 336.689 738.982 336.99 737.004 336.99H728.576V312.91H736.574C739.068 312.91 741.347 313.34 743.239 314.2C741.347 310.889 738.251 309.9 734.467 309.9H724.792V340ZM742.422 336.087C746.808 334.453 749.689 330.669 749.689 324.649C749.689 319.489 747.238 315.963 743.239 314.2C744.572 316.436 745.303 319.79 745.303 324.649C745.303 329.938 744.185 333.636 742.422 336.087ZM768.279 313.469C769.956 312.738 772.149 312.394 774.729 312.394C777.137 312.394 779.416 312.738 781.265 313.426C780.276 310.717 778.126 309.384 774.858 309.384C771.332 309.384 769.096 311.147 768.279 313.469ZM781.781 318.973H785.952C785.866 316.307 784.017 314.458 781.265 313.426C781.652 314.501 781.867 315.834 781.867 317.382C781.867 317.898 781.824 318.414 781.781 318.973ZM782.383 336.259C784.791 335.141 785.995 333.292 785.995 330.927C785.995 327.659 783.458 325.466 779.545 323.918L773.74 321.639C769.741 320.091 767.935 318.801 767.935 315.447C767.935 314.759 768.064 314.071 768.279 313.469C766 314.415 764.71 316.049 764.71 318.371C764.71 321.424 767.419 323.187 771.16 324.649L776.965 326.885C780.792 328.347 782.77 330.067 782.77 333.98C782.77 334.797 782.641 335.571 782.383 336.259ZM768.795 336.474C768.236 335.227 767.978 333.722 767.978 331.916C767.978 331.314 767.978 330.669 768.064 330.024H763.893C763.936 333.378 765.785 335.399 768.795 336.474ZM775.589 340.516C779.244 340.516 781.523 338.71 782.383 336.259C780.749 337.033 778.556 337.463 775.847 337.463C773.181 337.463 770.773 337.162 768.795 336.474C769.999 339.097 772.321 340.516 775.589 340.516ZM796.202 314.243C798.481 313.211 801.276 312.652 804.372 312.652C807.382 312.652 810.048 313.125 812.198 314.114C810.564 311.19 808.027 309.384 804.372 309.384C800.502 309.384 797.879 311.233 796.202 314.243ZM812.198 335.743C816.369 333.894 818.777 330.196 818.777 324.735C818.777 319.532 816.369 315.963 812.198 314.114C813.703 316.866 814.391 320.607 814.391 324.735C814.391 329.078 813.703 332.948 812.198 335.743ZM796.546 335.743C794.912 332.948 794.052 329.078 794.052 324.735C794.052 320.65 794.74 316.995 796.202 314.243C792.16 316.135 789.666 319.704 789.666 324.735C789.666 330.196 792.289 333.851 796.546 335.743ZM804.372 340.516C808.027 340.516 810.607 338.71 812.198 335.743C810.048 336.732 807.382 337.205 804.372 337.205C801.405 337.205 798.739 336.732 796.546 335.743C798.266 338.71 800.889 340.516 804.372 340.516ZM827.724 335.829C827.509 335.227 827.423 334.582 827.423 333.937V309.9H823.725V329.293C823.725 332.346 825.101 334.539 827.724 335.829ZM842.731 335.829C845.44 334.539 846.816 332.303 846.816 329.293V309.9H843.032V333.937C843.032 334.582 842.946 335.227 842.731 335.829ZM835.206 340.516C839.291 340.516 841.914 338.452 842.731 335.829C840.882 336.732 838.345 337.205 835.206 337.205C832.11 337.205 829.573 336.732 827.724 335.829C828.584 338.452 831.207 340.516 835.206 340.516ZM853.708 340H873.918V336.947H857.32V309.9H853.708V340ZM889.401 340H899.076C902.172 340 905.01 338.839 907.031 336.087C905.397 336.689 903.591 336.99 901.613 336.99H893.185V312.91H901.183C903.677 312.91 905.956 313.34 907.848 314.2C905.956 310.889 902.86 309.9 899.076 309.9H889.401V340ZM907.031 336.087C911.417 334.453 914.298 330.669 914.298 324.649C914.298 319.489 911.847 315.963 907.848 314.2C909.181 316.436 909.912 319.79 909.912 324.649C909.912 329.938 908.794 333.636 907.031 336.087ZM927.212 313.297C927.943 313.082 928.76 312.953 929.663 312.953C930.566 312.953 931.383 313.082 932.114 313.297L931.641 311.319C931.34 310.158 930.824 309.384 929.663 309.384C928.502 309.384 927.986 310.158 927.685 311.319L927.212 313.297ZM916.677 340H920.547L922.826 330.798H936.5L938.822 340H942.692L936.715 318.156C936.027 315.662 934.436 313.985 932.114 313.297L935.769 327.788H923.6L927.212 313.297C924.89 313.985 923.299 315.662 922.611 318.156L916.677 340ZM951.573 314.243C953.852 313.211 956.647 312.652 959.743 312.652C962.753 312.652 965.419 313.125 967.569 314.114C965.935 311.19 963.398 309.384 959.743 309.384C955.873 309.384 953.25 311.233 951.573 314.243ZM967.569 335.743C971.74 333.894 974.148 330.196 974.148 324.735C974.148 319.532 971.74 315.963 967.569 314.114C969.074 316.866 969.762 320.607 969.762 324.735C969.762 329.078 969.074 332.948 967.569 335.743ZM951.917 335.743C950.283 332.948 949.423 329.078 949.423 324.735C949.423 320.65 950.111 316.995 951.573 314.243C947.531 316.135 945.037 319.704 945.037 324.735C945.037 330.196 947.66 333.851 951.917 335.743ZM959.743 340.516C963.398 340.516 965.978 338.71 967.569 335.743C965.419 336.732 962.753 337.205 959.743 337.205C956.776 337.205 954.11 336.732 951.917 335.743C953.637 338.71 956.26 340.516 959.743 340.516Z" fill="#FF3E12" />
</svg>
  