<svg width="1347" height="1446" viewBox="0 0 1347 1446" fill="none" xmlns="http://www.w3.org/2000/svg">
  <path d="M84.715 66.585C113.965 52.545 147.895 46.11 184.165 46.11C218.095 46.11 250.27 52.545 277.765 64.83C261.97 26.22 233.89 0.479993 187.675 0.479993C138.535 0.479993 105.19 24.465 84.715 66.585ZM296.485 153.75H360.25C354.4 115.14 322.225 83.55 277.765 64.83C288.295 89.985 294.145 120.405 296.485 153.75ZM88.225 360.84C67.165 319.305 60.145 262.56 60.145 209.325C60.145 151.41 67.75 102.27 84.715 66.585C34.99 90.57 0.475 136.785 0.475 209.325C0.475 290.64 34.405 338.025 88.225 360.84ZM278.935 363.18C322.81 346.8 352.06 316.965 365.515 274.26H299.41C296.485 306.435 290.635 337.44 278.935 363.18ZM187.09 424.02C233.89 424.02 261.97 398.865 278.935 363.18C252.025 372.54 220.435 377.805 183.58 377.805C147.895 377.805 115.72 372.54 88.225 360.84C107.53 398.865 138.535 424.02 187.09 424.02ZM489.297 66.585C520.302 52.545 558.327 44.94 600.447 44.94C641.397 44.94 677.667 51.375 706.917 64.83C684.687 25.05 650.172 0.479993 600.447 0.479993C547.797 0.479993 512.112 25.635 489.297 66.585ZM706.917 359.085C763.662 333.93 796.422 283.62 796.422 209.325C796.422 138.54 763.662 89.985 706.917 64.83C727.392 102.27 736.752 153.165 736.752 209.325C736.752 268.41 727.392 321.06 706.917 359.085ZM493.977 359.085C471.747 321.06 460.047 268.41 460.047 209.325C460.047 153.75 469.407 104.025 489.297 66.585C434.307 92.325 400.377 140.88 400.377 209.325C400.377 283.62 436.062 333.345 493.977 359.085ZM600.447 424.02C650.172 424.02 685.272 399.45 706.917 359.085C677.667 372.54 641.397 378.975 600.447 378.975C560.082 378.975 523.812 372.54 493.977 359.085C517.377 399.45 553.062 424.02 600.447 424.02ZM914.048 54.3C924.578 50.79 936.278 49.035 949.148 49.035C958.508 49.035 966.698 49.62 974.303 51.375L971.378 30.315C968.453 9.83998 957.338 0.479993 941.543 0.479993C925.748 0.479993 914.048 11.595 914.048 31.485V54.3ZM1279.09 54.3V31.485C1279.09 11.595 1267.39 0.479993 1251.59 0.479993C1235.8 0.479993 1224.68 9.83998 1221.76 30.315L1218.83 51.375C1226.44 49.62 1234.63 49.035 1243.99 49.035C1256.86 49.035 1268.56 50.79 1279.09 54.3ZM1065.56 367.86L1036.31 132.69C1030.46 87.645 1010.57 60.15 974.303 51.375L1005.89 295.32C1011.16 336.27 1032.22 359.67 1065.56 367.86ZM1127.57 367.86C1160.33 359.67 1181.98 336.27 1187.24 295.32L1218.83 51.375C1182.56 60.15 1162.67 87.645 1156.82 132.69L1127.57 367.86ZM863.738 417H914.048V54.3C881.873 64.245 863.738 90.57 863.738 129.765V417ZM1279.09 417H1329.4V129.765C1329.4 90.57 1311.26 64.245 1279.09 54.3V417ZM1096.57 424.02C1111.78 424.02 1121.72 414.66 1123.48 400.035L1127.57 367.86C1118.21 370.2 1107.68 371.37 1096.57 371.37C1085.45 371.37 1074.92 370.2 1065.56 367.86L1069.66 400.035C1071.41 414.66 1081.94 424.02 1096.57 424.02ZM77.11 568.3C87.64 564.79 99.34 563.035 112.21 563.035C121.57 563.035 129.76 563.62 137.365 565.375L134.44 544.315C131.515 523.84 120.4 514.48 104.605 514.48C88.81 514.48 77.11 525.595 77.11 545.485V568.3ZM442.15 568.3V545.485C442.15 525.595 430.45 514.48 414.655 514.48C398.86 514.48 387.745 523.84 384.82 544.315L381.895 565.375C389.5 563.62 397.69 563.035 407.05 563.035C419.92 563.035 431.62 564.79 442.15 568.3ZM228.625 881.86L199.375 646.69C193.525 601.645 173.635 574.15 137.365 565.375L168.955 809.32C174.22 850.27 195.28 873.67 228.625 881.86ZM290.635 881.86C323.395 873.67 345.04 850.27 350.305 809.32L381.895 565.375C345.625 574.15 325.735 601.645 319.885 646.69L290.635 881.86ZM26.8 931H77.11V568.3C44.935 578.245 26.8 604.57 26.8 643.765V931ZM442.15 931H492.46V643.765C492.46 604.57 474.325 578.245 442.15 568.3V931ZM259.63 938.02C274.84 938.02 284.785 928.66 286.54 914.035L290.635 881.86C281.275 884.2 270.745 885.37 259.63 885.37C248.515 885.37 237.985 884.2 228.625 881.86L232.72 914.035C234.475 928.66 245.005 938.02 259.63 938.02ZM640.497 874.255C637.572 866.065 636.402 857.29 636.402 848.515V521.5H586.092V785.335C586.092 826.87 604.812 856.705 640.497 874.255ZM844.662 874.255C881.517 856.705 900.237 826.285 900.237 785.335V521.5H848.757V848.515C848.757 857.29 847.587 866.065 844.662 874.255ZM742.287 938.02C797.862 938.02 833.547 909.94 844.662 874.255C819.507 886.54 784.992 892.975 742.287 892.975C700.167 892.975 665.652 886.54 640.497 874.255C652.197 909.94 687.882 938.02 742.287 938.02ZM1044.3 568.885C1055.42 564.79 1068.29 563.035 1081.74 563.035C1090.52 563.035 1098.12 563.62 1105.73 564.79L1099.88 539.05C1096.95 525.595 1088.18 514.48 1071.8 514.48C1053.66 514.48 1044.3 528.52 1044.3 545.485V568.885ZM1296.44 883.615C1326.27 873.67 1346.75 852.025 1346.75 819.85V521.5H1296.44V883.615ZM1235.01 887.125L1176.51 637.915C1165.4 590.53 1141.41 570.055 1105.73 564.79L1163.06 814C1173.59 861.385 1198.74 881.86 1235.01 887.125ZM993.992 931H1044.3V568.885C1014.47 578.83 993.992 601.645 993.992 642.01V931ZM1268.94 938.02C1286.49 938.02 1296.44 925.735 1296.44 906.43V883.615C1285.32 887.125 1272.45 888.88 1259 888.88C1250.22 888.88 1242.62 888.295 1235.01 887.125L1240.28 910.525C1244.37 926.905 1251.98 938.02 1268.94 938.02ZM32.065 1446H81.205V1036.5H32.065V1446ZM145.377 1077.45H292.797C290.457 1049.37 269.982 1036.5 237.807 1036.5H145.377V1077.45ZM342.522 1077.45H489.942V1036.5H397.512C365.337 1036.5 344.862 1049.37 342.522 1077.45ZM292.797 1446H342.522V1077.45H292.797V1446ZM655.442 1243C654.857 1221.36 651.932 1209.66 636.137 1180.99L557.162 1036.5H501.587V1037.08L598.697 1200.88C612.152 1223.11 631.457 1237.15 655.442 1243ZM701.657 1243C725.057 1237.74 742.022 1223.7 756.062 1201.47L859.022 1037.08V1036.5H803.447L720.962 1180.99C704.582 1209.66 702.242 1221.36 701.657 1243ZM655.442 1446H701.657V1243C694.637 1244.76 687.032 1245.34 678.842 1245.34C670.652 1245.34 662.462 1244.76 655.442 1243V1446Z" fill="#FF3E12"/>
</svg>
