<svg width="1122" height="492" viewBox="0 0 1122 492" fill="none" xmlns="http://www.w3.org/2000/svg">
  <path d="M0.603455 2.96484H29.08C34.1191 2.96484 38.1035 4.01953 41.0331 6.12891C43.9628 8.17969 45.6035 11.3437 45.955 15.6211H0.603455V2.96484ZM61.248 15.6211C61.5995 11.3437 63.2402 8.17969 66.1699 6.12891C69.0995 4.01953 73.1132 2.96484 78.2109 2.96484H106.6V15.6211H61.248ZM45.955 15.6211H61.248V129H45.955V15.6211ZM140.086 56.8418C135.223 56.0215 131.414 54 128.66 50.7773C125.965 47.5547 124.617 43.3945 124.617 38.2969V2.96484H140.086V56.8418ZM206.531 2.96484H222V38.2969C222 43.3945 220.623 47.5547 217.869 50.7773C215.115 54 211.336 56.0215 206.531 56.8418V2.96484ZM140.086 56.8418C141.961 57.0762 143.572 57.1934 144.92 57.1934H201.609C202.664 57.1934 204.305 57.0762 206.531 56.8418V70.1133C204.305 69.8789 202.664 69.7617 201.609 69.7617H144.92C143.572 69.7617 141.961 69.8789 140.086 70.1133V56.8418ZM124.617 88.1309C124.617 83.209 125.965 79.1953 128.66 76.0898C131.414 72.9258 135.223 70.9336 140.086 70.1133V129H124.617V88.1309ZM206.531 70.1133C211.336 70.9336 215.115 72.9258 217.869 76.0898C220.623 79.1953 222 83.1504 222 87.9551V129H206.531V70.1133ZM250.828 2.96484H303.562C309.949 2.96484 314.959 4.13672 318.592 6.48047C322.283 8.76562 324.832 12.1641 326.238 16.6758C322.137 15.5039 317.332 14.918 311.824 14.918H266.297V62.5547H319.559C322.078 62.5547 324.715 62.2617 327.469 61.6758V76.0898C324.949 75.5039 322.312 75.2109 319.559 75.2109H266.297V129H250.828V2.96484ZM327.469 27.3105C327.469 23.0918 327.059 19.5469 326.238 16.6758C331.98 18.2578 336.404 20.9531 339.51 24.7617C342.674 28.5117 344.256 33.375 344.256 39.3516C344.256 45.1523 342.762 49.9863 339.773 53.8535C336.844 57.6621 332.742 60.2695 327.469 61.6758V27.3105ZM327.469 76.0898C332.684 77.3203 336.697 79.8398 339.51 83.6484C342.322 87.3984 343.728 92.4375 343.728 98.7656V128.824H327.469V76.0898ZM382.312 57.3691C376.746 56.7832 372.82 55.0547 370.535 52.1836C368.309 49.2539 367.195 44.8008 367.195 38.8242V2.96484H449.109V15.9727H382.312V57.3691ZM382.312 57.3691C383.367 57.4863 385.213 57.5449 387.85 57.5449H445.682V70.1133H387.85C386.268 70.1133 384.422 70.2305 382.312 70.4648V57.3691ZM367.195 89.1855C367.195 84.0293 368.367 79.8398 370.711 76.6172C373.055 73.3945 376.922 71.3438 382.312 70.4648V116.08H450.867V129H367.195V89.1855ZM486.463 17.9062C488.279 12.8086 491.531 8.70703 496.219 5.60156C500.965 2.4375 506.883 0.855469 513.973 0.855469C527.742 0.855469 536.707 6.48047 540.867 17.7305C532.898 14.8594 523.758 13.4238 513.445 13.4238C502.488 13.4238 493.494 14.918 486.463 17.9062ZM542.977 41.0215C543.211 37.8574 543.328 35.6309 543.328 34.3418C543.328 28.0137 542.508 22.4766 540.867 17.7305C546.844 19.957 551.56 23.0625 555.018 27.0469C558.475 30.9727 560.291 35.6309 560.467 41.0215H542.977ZM545.525 113.355C546.58 110.426 547.107 107.232 547.107 103.775C547.107 98.4434 546.199 93.9609 544.383 90.3281C542.625 86.6953 539.988 83.6191 536.473 81.0996C533.016 78.5801 528.475 76.2363 522.85 74.0684L498.504 64.752C489.773 61.3535 483.094 57.6035 478.465 53.502C473.836 49.4004 471.521 44.3906 471.521 38.4727C471.521 33.668 472.81 29.5371 475.389 26.0801C477.967 22.623 481.658 19.8984 486.463 17.9062C485.525 20.6016 485.057 23.3848 485.057 26.2559C485.057 30.8262 485.877 34.6348 487.518 37.6816C489.217 40.6699 491.766 43.248 495.164 45.416C498.621 47.584 503.338 49.8398 509.314 52.1836L533.66 61.6758C542.273 65.1328 548.924 69.2637 553.611 74.0684C558.299 78.8145 560.643 84.4688 560.643 91.0312C560.643 96.0117 559.353 100.406 556.775 104.215C554.256 107.965 550.506 111.012 545.525 113.355ZM488.66 114.234C475.125 109.43 468.269 100.436 468.094 87.252H485.584C485.35 89.0684 485.232 91.7051 485.232 95.1621C485.232 102.896 486.375 109.254 488.66 114.234ZM517.049 131.197C510.252 131.197 504.451 129.762 499.646 126.891C494.842 123.961 491.18 119.742 488.66 114.234C496.512 116.988 506.355 118.365 518.191 118.365C529.383 118.365 538.494 116.695 545.525 113.355C543.65 118.746 540.281 123.082 535.418 126.363C530.555 129.586 524.432 131.197 517.049 131.197ZM599.578 56.8418C594.715 56.0215 590.906 54 588.152 50.7773C585.457 47.5547 584.109 43.3945 584.109 38.2969V2.96484H599.578V56.8418ZM666.023 2.96484H681.492V38.2969C681.492 43.3945 680.115 47.5547 677.361 50.7773C674.607 54 670.828 56.0215 666.023 56.8418V2.96484ZM599.578 56.8418C601.453 57.0762 603.064 57.1934 604.412 57.1934H661.102C662.156 57.1934 663.797 57.0762 666.023 56.8418V70.1133C663.797 69.8789 662.156 69.7617 661.102 69.7617H604.412C603.064 69.7617 601.453 69.8789 599.578 70.1133V56.8418ZM584.109 88.1309C584.109 83.209 585.457 79.1953 588.152 76.0898C590.906 72.9258 594.715 70.9336 599.578 70.1133V129H584.109V88.1309ZM666.023 70.1133C670.828 70.9336 674.607 72.9258 677.361 76.0898C680.115 79.1953 681.492 83.1504 681.492 87.9551V129H666.023V70.1133ZM729.568 21.1582C737.127 7.62305 748.523 0.855469 763.758 0.855469C771.199 0.855469 777.615 2.58398 783.006 6.04102C788.455 9.43945 792.967 14.3027 796.541 20.6309C787.576 16.5293 776.648 14.4785 763.758 14.4785C750.867 14.4785 739.471 16.7051 729.568 21.1582ZM796.541 111.158C799.646 105.475 801.932 98.7363 803.396 90.9434C804.92 83.0918 805.682 74.4785 805.682 65.1035C805.682 56.1973 804.92 47.9648 803.396 40.4062C801.932 32.8477 799.646 26.2559 796.541 20.6309C805.389 24.5566 812.185 30.2695 816.932 37.7695C821.678 45.2695 824.051 54.3809 824.051 65.1035C824.051 76.3535 821.678 85.875 816.932 93.668C812.185 101.402 805.389 107.232 796.541 111.158ZM730.975 111.158C721.834 107.115 714.744 101.227 709.705 93.4922C704.725 85.6992 702.234 76.2363 702.234 65.1035C702.234 54.791 704.607 45.9141 709.353 38.4727C714.158 30.9727 720.896 25.2012 729.568 21.1582C726.58 26.7832 724.324 33.3164 722.801 40.7578C721.336 48.1992 720.603 56.3145 720.603 65.1035C720.603 74.2441 721.482 82.7402 723.24 90.5918C724.998 98.4434 727.576 105.299 730.975 111.158ZM763.758 131.197C756.609 131.197 750.281 129.469 744.773 126.012C739.266 122.496 734.666 117.545 730.975 111.158C740.115 115.26 751.043 117.311 763.758 117.311C776.648 117.311 787.576 115.26 796.541 111.158C793.084 117.604 788.602 122.555 783.094 126.012C777.644 129.469 771.199 131.197 763.758 131.197ZM844.793 2.96484H859.91V116.256H929.344V129H844.793V2.96484ZM949.207 2.96484H989.725C998.221 2.96484 1005.52 4.3418 1011.61 7.0957C1017.7 9.79102 1022.62 14.4199 1026.37 20.9824C1018.52 17.4082 1009.24 15.6211 998.514 15.6211H965.027V116.432H1000.27C1008.42 116.432 1016 115.172 1023.04 112.652C1018.93 118.219 1014.04 122.35 1008.36 125.045C1002.67 127.682 996.463 129 989.725 129H949.207V2.96484ZM1023.04 112.652C1031.06 101.344 1035.08 85.377 1035.08 64.752C1035.08 45.2988 1032.18 30.709 1026.37 20.9824C1034.99 24.7324 1041.64 30.3281 1046.33 37.7695C1051.07 45.1523 1053.45 54.1465 1053.45 64.752C1053.45 76.998 1050.75 87.1641 1045.36 95.25C1039.97 103.277 1032.53 109.078 1023.04 112.652ZM30.662 201.158C38.2206 187.623 49.6171 180.855 64.8515 180.855C72.2929 180.855 78.7089 182.584 84.0995 186.041C89.5488 189.439 94.0605 194.303 97.6347 200.631C88.6699 196.529 77.7421 194.479 64.8515 194.479C51.9609 194.479 40.5644 196.705 30.662 201.158ZM97.6347 291.158C100.74 285.475 103.025 278.736 104.49 270.943C106.014 263.092 106.775 254.479 106.775 245.104C106.775 236.197 106.014 227.965 104.49 220.406C103.025 212.848 100.74 206.256 97.6347 200.631C106.482 204.557 113.279 210.27 118.025 217.77C122.771 225.27 125.144 234.381 125.144 245.104C125.144 256.354 122.771 265.875 118.025 273.668C113.279 281.402 106.482 287.232 97.6347 291.158ZM32.0683 291.158C22.9277 287.115 15.8378 281.227 10.7988 273.492C5.8183 265.699 3.32806 256.236 3.32806 245.104C3.32806 234.791 5.70111 225.914 10.4472 218.473C15.2519 210.973 21.9902 205.201 30.662 201.158C27.6738 206.783 25.4179 213.316 23.8945 220.758C22.4296 228.199 21.6972 236.314 21.6972 245.104C21.6972 254.244 22.5761 262.74 24.3339 270.592C26.0917 278.443 28.6699 285.299 32.0683 291.158ZM64.8515 311.197C57.7031 311.197 51.3749 309.469 45.8671 306.012C40.3593 302.496 35.7597 297.545 32.0683 291.158C41.2089 295.26 52.1367 297.311 64.8515 297.311C77.7421 297.311 88.6699 295.26 97.6347 291.158C94.1777 297.604 89.6953 302.555 84.1874 306.012C78.7382 309.469 72.2929 311.197 64.8515 311.197ZM161.531 237.369C151.102 236.373 145.887 231.041 145.887 221.373V182.965H227.449V195.797H161.531V237.369ZM161.531 237.369C162.352 237.486 163.611 237.545 165.31 237.545H224.197V250.289H165.31C163.611 250.289 162.352 250.348 161.531 250.465V237.369ZM145.887 267.076C145.887 261.744 147.117 257.76 149.578 255.123C152.039 252.486 156.023 250.934 161.531 250.465V309H145.887V267.076ZM292.312 182.965H332.83C341.326 182.965 348.621 184.342 354.715 187.096C360.809 189.791 365.73 194.42 369.48 200.982C361.629 197.408 352.342 195.621 341.619 195.621H308.133V296.432H343.377C351.521 296.432 359.109 295.172 366.141 292.652C362.039 298.219 357.146 302.35 351.463 305.045C345.779 307.682 339.568 309 332.83 309H292.312V182.965ZM366.141 292.652C374.168 281.344 378.182 265.377 378.182 244.752C378.182 225.299 375.281 210.709 369.48 200.982C378.094 204.732 384.744 210.328 389.432 217.77C394.178 225.152 396.551 234.146 396.551 244.752C396.551 256.998 393.855 267.164 388.465 275.25C383.074 283.277 375.633 289.078 366.141 292.652ZM432.41 237.369C426.844 236.783 422.918 235.055 420.633 232.184C418.406 229.254 417.293 224.801 417.293 218.824V182.965H499.207V195.973H432.41V237.369ZM432.41 237.369C433.465 237.486 435.31 237.545 437.947 237.545H495.779V250.113H437.947C436.365 250.113 434.519 250.23 432.41 250.465V237.369ZM417.293 269.186C417.293 264.029 418.465 259.84 420.809 256.617C423.152 253.395 427.019 251.344 432.41 250.465V296.08H500.965V309H417.293V269.186ZM542.361 201.158C548.924 187.623 559.471 180.855 574.002 180.855C587.068 180.855 596.297 187.447 601.687 200.631C593.191 196.822 583.611 194.918 572.947 194.918C561.228 194.918 551.033 196.998 542.361 201.158ZM607.488 227.965C606.727 217.184 604.793 208.072 601.687 200.631C608.719 203.619 614.49 207.486 619.002 212.232C623.514 216.92 626.209 222.164 627.088 227.965H607.488ZM543.416 291.686C534.803 288.053 528.152 282.428 523.465 274.811C518.777 267.135 516.434 257.232 516.434 245.104C516.434 234.381 518.748 225.357 523.377 218.033C528.006 210.65 534.334 205.025 542.361 201.158C537.322 211.646 534.803 226.295 534.803 245.104C534.803 254.068 535.477 262.594 536.824 270.68C538.172 278.707 540.369 285.709 543.416 291.686ZM602.127 292.477C605.291 285.211 607.371 276.07 608.367 265.055H628.758C624.656 278.18 615.779 287.32 602.127 292.477ZM573.826 311.197C560.057 311.197 549.92 304.693 543.416 291.686C551.619 295.201 561.404 296.959 572.771 296.959C583.494 296.959 593.279 295.465 602.127 292.477C596.15 304.957 586.717 311.197 573.826 311.197ZM662.859 237.369C657.293 236.783 653.367 235.055 651.082 232.184C648.855 229.254 647.742 224.801 647.742 218.824V182.965H729.656V195.973H662.859V237.369ZM662.859 237.369C663.914 237.486 665.76 237.545 668.396 237.545H726.228V250.113H668.396C666.814 250.113 664.969 250.23 662.859 250.465V237.369ZM647.742 269.186C647.742 264.029 648.914 259.84 651.258 256.617C653.602 253.395 657.469 251.344 662.859 250.465V296.08H731.414V309H647.742V269.186ZM770.437 190.348C770.437 187.652 771.17 185.396 772.635 183.58C774.158 181.764 776.238 180.855 778.875 180.855C781.277 180.855 783.182 181.559 784.588 182.965C786.053 184.371 787.049 186.188 787.576 188.414L789.334 196.324C786.932 195.973 784.471 195.797 781.951 195.797C777.557 195.797 773.719 196.383 770.437 197.555V190.348ZM848.045 182.965H863.514V274.811C863.514 279.615 862.107 283.688 859.295 287.027C856.541 290.367 852.791 292.828 848.045 294.41V182.965ZM829.148 295.465C823.348 294.645 818.602 292.447 814.91 288.873C811.219 285.299 808.582 279.996 807 272.965L789.334 196.324C795.018 197.145 799.646 199.342 803.221 202.916C806.853 206.432 809.49 211.734 811.131 218.824L829.148 295.465ZM754.969 220.055C754.969 214.137 756.346 209.332 759.1 205.641C761.853 201.891 765.633 199.195 770.437 197.555V309H754.969V220.055ZM839.519 311.197C837.059 311.197 835.125 310.465 833.719 309C832.371 307.535 831.375 305.426 830.73 302.672L829.148 295.465C831.844 295.875 834.305 296.08 836.531 296.08C840.574 296.08 844.412 295.523 848.045 294.41V301.441C848.045 304.488 847.283 306.891 845.76 308.648C844.295 310.348 842.215 311.197 839.519 311.197ZM886.98 239.654H942.791V252.311H886.98V239.654ZM0.603455 362.965H29.08C34.1191 362.965 38.1035 364.02 41.0331 366.129C43.9628 368.18 45.6035 371.344 45.955 375.621H0.603455V362.965ZM61.248 375.621C61.5995 371.344 63.2402 368.18 66.1699 366.129C69.0995 364.02 73.1132 362.965 78.2109 362.965H106.6V375.621H61.248ZM45.955 375.621H61.248V489H45.955V375.621ZM124.617 362.965H177.352C183.738 362.965 188.748 364.137 192.381 366.48C196.072 368.766 198.621 372.164 200.027 376.676C195.926 375.504 191.121 374.918 185.613 374.918H140.086V422.555H193.348C195.867 422.555 198.504 422.262 201.258 421.676V436.09C198.738 435.504 196.102 435.211 193.348 435.211H140.086V489H124.617V362.965ZM201.258 387.311C201.258 383.092 200.848 379.547 200.027 376.676C205.769 378.258 210.193 380.953 213.299 384.762C216.463 388.512 218.045 393.375 218.045 399.352C218.045 405.152 216.551 409.986 213.562 413.854C210.633 417.662 206.531 420.27 201.258 421.676V387.311ZM201.258 436.09C206.473 437.32 210.486 439.84 213.299 443.648C216.111 447.398 217.518 452.438 217.518 458.766V488.824H201.258V436.09ZM276.228 368.941C276.932 366.305 277.898 364.312 279.129 362.965C280.418 361.559 282.205 360.855 284.49 360.855C286.775 360.855 288.562 361.559 289.852 362.965C291.141 364.312 292.137 366.305 292.84 368.941L294.773 377.203C291.492 376.266 288.064 375.797 284.49 375.797C280.975 375.797 277.576 376.266 274.295 377.203L276.228 368.941ZM255.047 397.594C256.453 392.379 258.797 388.043 262.078 384.586C265.359 381.129 269.432 378.668 274.295 377.203L259.178 437.848H310.066L294.773 377.203C299.637 378.668 303.709 381.129 306.99 384.586C310.271 388.043 312.615 392.379 314.021 397.594L339.07 489H322.898L313.143 450.504H255.926L246.346 489H230.174L255.047 397.594ZM357.176 362.965H372.293V476.256H441.727V489H357.176V362.965ZM463.172 362.965H478.289V489H463.172V362.965ZM546.316 425.279C551.238 419.479 555.164 414.557 558.094 410.514C561.082 406.412 563.894 401.432 566.531 395.572C569.168 389.713 571.189 383.004 572.596 375.445H506.15V362.965H589.295V373.6C586.248 382.682 582.469 390.387 577.957 396.715C573.504 403.043 568.875 408.199 564.07 412.184C559.324 416.168 553.406 420.533 546.316 425.279ZM505.447 478.893C507.322 469.459 510.164 461.578 513.973 455.25C517.84 448.863 522.059 443.707 526.629 439.781C531.258 435.855 537.322 431.373 544.822 426.334L546.316 425.279C541.629 430.787 537.791 435.709 534.803 440.045C531.873 444.322 529.266 449.479 526.98 455.514C524.754 461.49 523.26 468.404 522.498 476.256H589.295V488.824L505.447 489V478.893ZM648.006 368.941C648.709 366.305 649.676 364.312 650.906 362.965C652.195 361.559 653.982 360.855 656.268 360.855C658.553 360.855 660.34 361.559 661.629 362.965C662.918 364.312 663.914 366.305 664.617 368.941L666.551 377.203C663.269 376.266 659.842 375.797 656.268 375.797C652.752 375.797 649.353 376.266 646.072 377.203L648.006 368.941ZM626.824 397.594C628.23 392.379 630.574 388.043 633.855 384.586C637.137 381.129 641.209 378.668 646.072 377.203L630.955 437.848H681.844L666.551 377.203C671.414 378.668 675.486 381.129 678.768 384.586C682.049 388.043 684.393 392.379 685.799 397.594L710.848 489H694.676L684.92 450.504H627.703L618.123 489H601.951L626.824 397.594ZM707.244 362.965H735.721C740.76 362.965 744.744 364.02 747.674 366.129C750.603 368.18 752.244 371.344 752.596 375.621H707.244V362.965ZM767.889 375.621C768.24 371.344 769.881 368.18 772.81 366.129C775.74 364.02 779.754 362.965 784.852 362.965H813.24V375.621H767.889ZM752.596 375.621H767.889V489H752.596V375.621ZM832.84 362.965H847.957V489H832.84V362.965ZM897.967 381.158C905.525 367.623 916.922 360.855 932.156 360.855C939.598 360.855 946.014 362.584 951.404 366.041C956.853 369.439 961.365 374.303 964.939 380.631C955.975 376.529 945.047 374.479 932.156 374.479C919.266 374.479 907.869 376.705 897.967 381.158ZM964.939 471.158C968.045 465.475 970.33 458.736 971.795 450.943C973.318 443.092 974.08 434.479 974.08 425.104C974.08 416.197 973.318 407.965 971.795 400.406C970.33 392.848 968.045 386.256 964.939 380.631C973.787 384.557 980.584 390.27 985.33 397.77C990.076 405.27 992.449 414.381 992.449 425.104C992.449 436.354 990.076 445.875 985.33 453.668C980.584 461.402 973.787 467.232 964.939 471.158ZM899.373 471.158C890.232 467.115 883.143 461.227 878.103 453.492C873.123 445.699 870.633 436.236 870.633 425.104C870.633 414.791 873.006 405.914 877.752 398.473C882.557 390.973 889.295 385.201 897.967 381.158C894.978 386.783 892.723 393.316 891.199 400.758C889.734 408.199 889.002 416.314 889.002 425.104C889.002 434.244 889.881 442.74 891.639 450.592C893.396 458.443 895.975 465.299 899.373 471.158ZM932.156 491.197C925.008 491.197 918.68 489.469 913.172 486.012C907.664 482.496 903.064 477.545 899.373 471.158C908.514 475.26 919.441 477.311 932.156 477.311C945.047 477.311 955.975 475.26 964.939 471.158C961.482 477.604 957 482.555 951.492 486.012C946.043 489.469 939.598 491.197 932.156 491.197ZM1028.66 370.348C1028.66 367.652 1029.39 365.396 1030.86 363.58C1032.38 361.764 1034.46 360.855 1037.1 360.855C1039.5 360.855 1041.4 361.559 1042.81 362.965C1044.28 364.371 1045.27 366.188 1045.8 368.414L1047.56 376.324C1045.15 375.973 1042.69 375.797 1040.17 375.797C1035.78 375.797 1031.94 376.383 1028.66 377.555V370.348ZM1106.27 362.965H1121.74V454.811C1121.74 459.615 1120.33 463.688 1117.52 467.027C1114.76 470.367 1111.01 472.828 1106.27 474.41V362.965ZM1087.37 475.465C1081.57 474.645 1076.82 472.447 1073.13 468.873C1069.44 465.299 1066.8 459.996 1065.22 452.965L1047.56 376.324C1053.24 377.145 1057.87 379.342 1061.44 382.916C1065.08 386.432 1067.71 391.734 1069.35 398.824L1087.37 475.465ZM1013.19 400.055C1013.19 394.137 1014.57 389.332 1017.32 385.641C1020.08 381.891 1023.86 379.195 1028.66 377.555V489H1013.19V400.055ZM1097.74 491.197C1095.28 491.197 1093.35 490.465 1091.94 489C1090.59 487.535 1089.6 485.426 1088.95 482.672L1087.37 475.465C1090.07 475.875 1092.53 476.08 1094.75 476.08C1098.8 476.08 1102.63 475.523 1106.27 474.41V481.441C1106.27 484.488 1105.51 486.891 1103.98 488.648C1102.52 490.348 1100.44 491.197 1097.74 491.197Z" fill="#FF3E12" />
</svg>