<svg width="305" height="396" viewBox="0 0 305 396" fill="none" xmlns="http://www.w3.org/2000/svg">
<path d="M111.999 92L12.2866 92.0008C6.05262 92.0009 0.999022 97.0545 0.999021 103.288L0.998973 324.712C0.998971 330.946 6.05262 336 12.2866 336L34.999 336" stroke="#FF3E12"/>
<path d="M29 330.5L34.926 336.149L29 341.5" stroke="#FF3E12" stroke-linecap="round" stroke-linejoin="round"/>
<rect x="92.5049" y="0.5" width="144.923" height="39" rx="4.01506" fill="#ECECEC"/>
<path d="M125.445 19.6133C124.48 19.3359 123.777 18.9961 123.336 18.5938C122.898 18.1875 122.68 17.6875 122.68 17.0938C122.68 16.4219 122.947 15.8672 123.482 15.4297C124.021 14.9883 124.721 14.7676 125.58 14.7676C126.166 14.7676 126.688 14.8809 127.145 15.1074C127.605 15.334 127.961 15.6465 128.211 16.0449C128.465 16.4434 128.592 16.8789 128.592 17.3516H127.461C127.461 16.8359 127.297 16.4316 126.969 16.1387C126.641 15.8418 126.178 15.6934 125.58 15.6934C125.025 15.6934 124.592 15.8164 124.279 16.0625C123.971 16.3047 123.816 16.6426 123.816 17.0762C123.816 17.4238 123.963 17.7188 124.256 17.9609C124.553 18.1992 125.055 18.418 125.762 18.6172C126.473 18.8164 127.027 19.0371 127.426 19.2793C127.828 19.5176 128.125 19.7969 128.316 20.1172C128.512 20.4375 128.609 20.8145 128.609 21.248C128.609 21.9395 128.34 22.4941 127.801 22.9121C127.262 23.3262 126.541 23.5332 125.639 23.5332C125.053 23.5332 124.506 23.4219 123.998 23.1992C123.49 22.9727 123.098 22.6641 122.82 22.2734C122.547 21.8828 122.41 21.4395 122.41 20.9434H123.541C123.541 21.459 123.73 21.8672 124.109 22.168C124.492 22.4648 125.002 22.6133 125.639 22.6133C126.232 22.6133 126.688 22.4922 127.004 22.25C127.32 22.0078 127.479 21.6777 127.479 21.2598C127.479 20.8418 127.332 20.5195 127.039 20.293C126.746 20.0625 126.215 19.8359 125.445 19.6133ZM133.801 22.7891C133.379 23.2852 132.76 23.5332 131.943 23.5332C131.268 23.5332 130.752 23.3379 130.396 22.9473C130.045 22.5527 129.867 21.9707 129.863 21.2012V17.0762H130.947V21.1719C130.947 22.1328 131.338 22.6133 132.119 22.6133C132.947 22.6133 133.498 22.3047 133.771 21.6875V17.0762H134.855V23.416H133.824L133.801 22.7891ZM140.199 21.7344C140.199 21.4414 140.088 21.2148 139.865 21.0547C139.646 20.8906 139.262 20.75 138.711 20.6328C138.164 20.5156 137.729 20.375 137.404 20.2109C137.084 20.0469 136.846 19.8516 136.689 19.625C136.537 19.3984 136.461 19.1289 136.461 18.8164C136.461 18.2969 136.68 17.8574 137.117 17.498C137.559 17.1387 138.121 16.959 138.805 16.959C139.523 16.959 140.105 17.1445 140.551 17.5156C141 17.8867 141.225 18.3613 141.225 18.9395H140.135C140.135 18.6426 140.008 18.3867 139.754 18.1719C139.504 17.957 139.188 17.8496 138.805 17.8496C138.41 17.8496 138.102 17.9355 137.879 18.1074C137.656 18.2793 137.545 18.5039 137.545 18.7812C137.545 19.043 137.648 19.2402 137.855 19.373C138.062 19.5059 138.436 19.6328 138.975 19.7539C139.518 19.875 139.957 20.0195 140.293 20.1875C140.629 20.3555 140.877 20.5586 141.037 20.7969C141.201 21.0312 141.283 21.3184 141.283 21.6582C141.283 22.2246 141.057 22.6797 140.604 23.0234C140.15 23.3633 139.562 23.5332 138.84 23.5332C138.332 23.5332 137.883 23.4434 137.492 23.2637C137.102 23.084 136.795 22.834 136.572 22.5137C136.354 22.1895 136.244 21.8398 136.244 21.4648H137.328C137.348 21.8281 137.492 22.1172 137.762 22.332C138.035 22.543 138.395 22.6484 138.84 22.6484C139.25 22.6484 139.578 22.5664 139.824 22.4023C140.074 22.2344 140.199 22.0117 140.199 21.7344ZM148.051 20.3164C148.051 21.2812 147.83 22.0586 147.389 22.6484C146.947 23.2383 146.35 23.5332 145.596 23.5332C144.826 23.5332 144.221 23.2891 143.779 22.8008V25.8535H142.695V17.0762H143.686L143.738 17.7793C144.18 17.2324 144.793 16.959 145.578 16.959C146.34 16.959 146.941 17.2461 147.383 17.8203C147.828 18.3945 148.051 19.1934 148.051 20.2168V20.3164ZM146.967 20.1934C146.967 19.4785 146.814 18.9141 146.51 18.5C146.205 18.0859 145.787 17.8789 145.256 17.8789C144.6 17.8789 144.107 18.1699 143.779 18.752V21.7812C144.104 22.3594 144.6 22.6484 145.268 22.6484C145.787 22.6484 146.199 22.4434 146.504 22.0332C146.812 21.6191 146.967 21.0059 146.967 20.1934ZM152.064 23.5332C151.205 23.5332 150.506 23.252 149.967 22.6895C149.428 22.123 149.158 21.3672 149.158 20.4219V20.2227C149.158 19.5938 149.277 19.0332 149.516 18.541C149.758 18.0449 150.094 17.6582 150.523 17.3809C150.957 17.0996 151.426 16.959 151.93 16.959C152.754 16.959 153.395 17.2305 153.852 17.7734C154.309 18.3164 154.537 19.0938 154.537 20.1055V20.5566H150.242C150.258 21.1816 150.439 21.6875 150.787 22.0742C151.139 22.457 151.584 22.6484 152.123 22.6484C152.506 22.6484 152.83 22.5703 153.096 22.4141C153.361 22.2578 153.594 22.0508 153.793 21.793L154.455 22.3086C153.924 23.125 153.127 23.5332 152.064 23.5332ZM151.93 17.8496C151.492 17.8496 151.125 18.0098 150.828 18.3301C150.531 18.6465 150.348 19.0918 150.277 19.666H153.453V19.584C153.422 19.0332 153.273 18.6074 153.008 18.3066C152.742 18.002 152.383 17.8496 151.93 17.8496ZM156.822 17.0762L156.857 17.873C157.342 17.2637 157.975 16.959 158.756 16.959C160.096 16.959 160.771 17.7148 160.783 19.2266V23.416H159.699V19.2207C159.695 18.7637 159.59 18.4258 159.383 18.207C159.18 17.9883 158.861 17.8789 158.428 17.8789C158.076 17.8789 157.768 17.9727 157.502 18.1602C157.236 18.3477 157.029 18.5938 156.881 18.8984V23.416H155.797V17.0762H156.822ZM162.154 20.1934C162.154 19.2207 162.385 18.4395 162.846 17.8496C163.307 17.2559 163.91 16.959 164.656 16.959C165.398 16.959 165.986 17.2129 166.42 17.7207V14.416H167.504V23.416H166.508L166.455 22.7363C166.021 23.2676 165.418 23.5332 164.645 23.5332C163.91 23.5332 163.311 23.2324 162.846 22.6309C162.385 22.0293 162.154 21.2441 162.154 20.2754V20.1934ZM163.238 20.3164C163.238 21.0352 163.387 21.5977 163.684 22.0039C163.98 22.4102 164.391 22.6133 164.914 22.6133C165.602 22.6133 166.104 22.3047 166.42 21.6875V18.7754C166.096 18.1777 165.598 17.8789 164.926 17.8789C164.395 17.8789 163.98 18.084 163.684 18.4941C163.387 18.9043 163.238 19.5117 163.238 20.3164ZM171.822 23.5332C170.963 23.5332 170.264 23.252 169.725 22.6895C169.186 22.123 168.916 21.3672 168.916 20.4219V20.2227C168.916 19.5938 169.035 19.0332 169.273 18.541C169.516 18.0449 169.852 17.6582 170.281 17.3809C170.715 17.0996 171.184 16.959 171.688 16.959C172.512 16.959 173.152 17.2305 173.609 17.7734C174.066 18.3164 174.295 19.0938 174.295 20.1055V20.5566H170C170.016 21.1816 170.197 21.6875 170.545 22.0742C170.896 22.457 171.342 22.6484 171.881 22.6484C172.264 22.6484 172.588 22.5703 172.854 22.4141C173.119 22.2578 173.352 22.0508 173.551 21.793L174.213 22.3086C173.682 23.125 172.885 23.5332 171.822 23.5332ZM171.688 17.8496C171.25 17.8496 170.883 18.0098 170.586 18.3301C170.289 18.6465 170.105 19.0918 170.035 19.666H173.211V19.584C173.18 19.0332 173.031 18.6074 172.766 18.3066C172.5 18.002 172.141 17.8496 171.688 17.8496ZM175.291 20.1934C175.291 19.2207 175.521 18.4395 175.982 17.8496C176.443 17.2559 177.047 16.959 177.793 16.959C178.535 16.959 179.123 17.2129 179.557 17.7207V14.416H180.641V23.416H179.645L179.592 22.7363C179.158 23.2676 178.555 23.5332 177.781 23.5332C177.047 23.5332 176.447 23.2324 175.982 22.6309C175.521 22.0293 175.291 21.2441 175.291 20.2754V20.1934ZM176.375 20.3164C176.375 21.0352 176.523 21.5977 176.82 22.0039C177.117 22.4102 177.527 22.6133 178.051 22.6133C178.738 22.6133 179.24 22.3047 179.557 21.6875V18.7754C179.232 18.1777 178.734 17.8789 178.062 17.8789C177.531 17.8789 177.117 18.084 176.82 18.4941C176.523 18.9043 176.375 19.5117 176.375 20.3164ZM187.988 19.6133C187.023 19.3359 186.32 18.9961 185.879 18.5938C185.441 18.1875 185.223 17.6875 185.223 17.0938C185.223 16.4219 185.49 15.8672 186.025 15.4297C186.564 14.9883 187.264 14.7676 188.123 14.7676C188.709 14.7676 189.23 14.8809 189.688 15.1074C190.148 15.334 190.504 15.6465 190.754 16.0449C191.008 16.4434 191.135 16.8789 191.135 17.3516H190.004C190.004 16.8359 189.84 16.4316 189.512 16.1387C189.184 15.8418 188.721 15.6934 188.123 15.6934C187.568 15.6934 187.135 15.8164 186.822 16.0625C186.514 16.3047 186.359 16.6426 186.359 17.0762C186.359 17.4238 186.506 17.7188 186.799 17.9609C187.096 18.1992 187.598 18.418 188.305 18.6172C189.016 18.8164 189.57 19.0371 189.969 19.2793C190.371 19.5176 190.668 19.7969 190.859 20.1172C191.055 20.4375 191.152 20.8145 191.152 21.248C191.152 21.9395 190.883 22.4941 190.344 22.9121C189.805 23.3262 189.084 23.5332 188.182 23.5332C187.596 23.5332 187.049 23.4219 186.541 23.1992C186.033 22.9727 185.641 22.6641 185.363 22.2734C185.09 21.8828 184.953 21.4395 184.953 20.9434H186.084C186.084 21.459 186.273 21.8672 186.652 22.168C187.035 22.4648 187.545 22.6133 188.182 22.6133C188.775 22.6133 189.23 22.4922 189.547 22.25C189.863 22.0078 190.021 21.6777 190.021 21.2598C190.021 20.8418 189.875 20.5195 189.582 20.293C189.289 20.0625 188.758 19.8359 187.988 19.6133ZM192.143 20.1875C192.143 19.5664 192.264 19.0078 192.506 18.5117C192.752 18.0156 193.092 17.6328 193.525 17.3633C193.963 17.0938 194.461 16.959 195.02 16.959C195.883 16.959 196.58 17.2578 197.111 17.8555C197.646 18.4531 197.914 19.248 197.914 20.2402V20.3164C197.914 20.9336 197.795 21.4883 197.557 21.9805C197.322 22.4688 196.984 22.8496 196.543 23.123C196.105 23.3965 195.602 23.5332 195.031 23.5332C194.172 23.5332 193.475 23.2344 192.939 22.6367C192.408 22.0391 192.143 21.248 192.143 20.2637V20.1875ZM193.232 20.3164C193.232 21.0195 193.395 21.584 193.719 22.0098C194.047 22.4355 194.484 22.6484 195.031 22.6484C195.582 22.6484 196.02 22.4336 196.344 22.0039C196.668 21.5703 196.83 20.9648 196.83 20.1875C196.83 19.4922 196.664 18.9297 196.332 18.5C196.004 18.0664 195.566 17.8496 195.02 17.8496C194.484 17.8496 194.053 18.0625 193.725 18.4883C193.396 18.9141 193.232 19.5234 193.232 20.3164ZM203.188 22.7891C202.766 23.2852 202.146 23.5332 201.33 23.5332C200.654 23.5332 200.139 23.3379 199.783 22.9473C199.432 22.5527 199.254 21.9707 199.25 21.2012V17.0762H200.334V21.1719C200.334 22.1328 200.725 22.6133 201.506 22.6133C202.334 22.6133 202.885 22.3047 203.158 21.6875V17.0762H204.242V23.416H203.211L203.188 22.7891ZM207.072 23.416H205.988V14.416H207.072V23.416Z" fill="#FF3E12"/>
<rect x="92.5049" y="0.5" width="144.923" height="39" rx="4.01506" stroke="#FF3E12"/>
<rect x="92.5078" y="216.5" width="144.923" height="39" rx="4.01506" fill="#ECECEC"/>
<path d="M145.089 236.076V239.416H143.964V230.885H147.11C148.044 230.885 148.774 231.123 149.302 231.6C149.833 232.076 150.099 232.707 150.099 233.492C150.099 234.32 149.839 234.959 149.319 235.408C148.804 235.854 148.063 236.076 147.099 236.076H145.089ZM145.089 235.156H147.11C147.712 235.156 148.173 235.016 148.493 234.734C148.813 234.449 148.974 234.039 148.974 233.504C148.974 232.996 148.813 232.59 148.493 232.285C148.173 231.98 147.733 231.822 147.175 231.811H145.089V235.156ZM154.429 234.049C154.265 234.021 154.087 234.008 153.896 234.008C153.185 234.008 152.702 234.311 152.448 234.916V239.416H151.364V233.076H152.419L152.437 233.809C152.792 233.242 153.296 232.959 153.948 232.959C154.159 232.959 154.319 232.986 154.429 233.041V234.049ZM155.026 236.188C155.026 235.566 155.147 235.008 155.39 234.512C155.636 234.016 155.976 233.633 156.409 233.363C156.847 233.094 157.345 232.959 157.903 232.959C158.767 232.959 159.464 233.258 159.995 233.855C160.53 234.453 160.798 235.248 160.798 236.24V236.316C160.798 236.934 160.679 237.488 160.44 237.98C160.206 238.469 159.868 238.85 159.427 239.123C158.989 239.396 158.485 239.533 157.915 239.533C157.056 239.533 156.358 239.234 155.823 238.637C155.292 238.039 155.026 237.248 155.026 236.264V236.188ZM156.116 236.316C156.116 237.02 156.278 237.584 156.603 238.01C156.931 238.436 157.368 238.648 157.915 238.648C158.466 238.648 158.903 238.434 159.228 238.004C159.552 237.57 159.714 236.965 159.714 236.188C159.714 235.492 159.548 234.93 159.216 234.5C158.888 234.066 158.45 233.85 157.903 233.85C157.368 233.85 156.937 234.062 156.608 234.488C156.28 234.914 156.116 235.523 156.116 236.316ZM163.276 233.076V240.148C163.276 241.367 162.724 241.977 161.618 241.977C161.38 241.977 161.159 241.941 160.956 241.871V241.004C161.081 241.035 161.245 241.051 161.448 241.051C161.69 241.051 161.874 240.984 161.999 240.852C162.128 240.723 162.192 240.496 162.192 240.172V233.076H163.276ZM162.081 231.395C162.081 231.223 162.134 231.076 162.239 230.955C162.349 230.83 162.507 230.768 162.714 230.768C162.925 230.768 163.085 230.828 163.194 230.949C163.304 231.07 163.358 231.219 163.358 231.395C163.358 231.57 163.304 231.717 163.194 231.834C163.085 231.951 162.925 232.01 162.714 232.01C162.503 232.01 162.345 231.951 162.239 231.834C162.134 231.717 162.081 231.57 162.081 231.395ZM167.659 239.533C166.8 239.533 166.101 239.252 165.562 238.689C165.022 238.123 164.753 237.367 164.753 236.422V236.223C164.753 235.594 164.872 235.033 165.11 234.541C165.353 234.045 165.688 233.658 166.118 233.381C166.552 233.1 167.021 232.959 167.524 232.959C168.349 232.959 168.989 233.23 169.446 233.773C169.903 234.316 170.132 235.094 170.132 236.105V236.557H165.837C165.853 237.182 166.034 237.688 166.382 238.074C166.733 238.457 167.179 238.648 167.718 238.648C168.101 238.648 168.425 238.57 168.69 238.414C168.956 238.258 169.188 238.051 169.388 237.793L170.05 238.309C169.519 239.125 168.722 239.533 167.659 239.533ZM167.524 233.85C167.087 233.85 166.72 234.01 166.423 234.33C166.126 234.646 165.942 235.092 165.872 235.666H169.048V235.584C169.017 235.033 168.868 234.607 168.603 234.307C168.337 234.002 167.978 233.85 167.524 233.85ZM173.935 238.648C174.321 238.648 174.659 238.531 174.948 238.297C175.237 238.062 175.397 237.77 175.429 237.418H176.454C176.435 237.781 176.31 238.127 176.079 238.455C175.849 238.783 175.54 239.045 175.153 239.24C174.771 239.436 174.364 239.533 173.935 239.533C173.071 239.533 172.384 239.246 171.872 238.672C171.364 238.094 171.11 237.305 171.11 236.305V236.123C171.11 235.506 171.224 234.957 171.45 234.477C171.677 233.996 172.001 233.623 172.423 233.357C172.849 233.092 173.351 232.959 173.929 232.959C174.64 232.959 175.229 233.172 175.698 233.598C176.171 234.023 176.423 234.576 176.454 235.256H175.429C175.397 234.846 175.241 234.51 174.96 234.248C174.683 233.982 174.339 233.85 173.929 233.85C173.378 233.85 172.95 234.049 172.646 234.447C172.345 234.842 172.194 235.414 172.194 236.164V236.369C172.194 237.1 172.345 237.662 172.646 238.057C172.946 238.451 173.376 238.648 173.935 238.648ZM179.144 231.541V233.076H180.327V233.914H179.144V237.846C179.144 238.1 179.196 238.291 179.302 238.42C179.407 238.545 179.587 238.607 179.841 238.607C179.966 238.607 180.138 238.584 180.356 238.537V239.416C180.071 239.494 179.794 239.533 179.524 239.533C179.04 239.533 178.675 239.387 178.429 239.094C178.183 238.801 178.06 238.385 178.06 237.846V233.914H176.905V233.076H178.06V231.541H179.144ZM185.29 237.734C185.29 237.441 185.179 237.215 184.956 237.055C184.737 236.891 184.353 236.75 183.802 236.633C183.255 236.516 182.819 236.375 182.495 236.211C182.175 236.047 181.937 235.852 181.78 235.625C181.628 235.398 181.552 235.129 181.552 234.816C181.552 234.297 181.771 233.857 182.208 233.498C182.649 233.139 183.212 232.959 183.896 232.959C184.614 232.959 185.196 233.145 185.642 233.516C186.091 233.887 186.315 234.361 186.315 234.939H185.226C185.226 234.643 185.099 234.387 184.845 234.172C184.595 233.957 184.278 233.85 183.896 233.85C183.501 233.85 183.192 233.936 182.97 234.107C182.747 234.279 182.636 234.504 182.636 234.781C182.636 235.043 182.739 235.24 182.946 235.373C183.153 235.506 183.526 235.633 184.065 235.754C184.608 235.875 185.048 236.02 185.384 236.188C185.72 236.355 185.968 236.559 186.128 236.797C186.292 237.031 186.374 237.318 186.374 237.658C186.374 238.225 186.147 238.68 185.694 239.023C185.241 239.363 184.653 239.533 183.931 239.533C183.423 239.533 182.974 239.443 182.583 239.264C182.192 239.084 181.886 238.834 181.663 238.514C181.444 238.189 181.335 237.84 181.335 237.465H182.419C182.438 237.828 182.583 238.117 182.853 238.332C183.126 238.543 183.485 238.648 183.931 238.648C184.341 238.648 184.669 238.566 184.915 238.402C185.165 238.234 185.29 238.012 185.29 237.734Z" fill="#FF3E12"/>
<rect x="92.5078" y="216.5" width="144.923" height="39" rx="4.01506" stroke="#FF3E12"/>
<rect x="112.501" y="72.5" width="105.378" height="40.5452" rx="20.2726" fill="#ECECEC"/>
<path d="M146.728 86.0049H143.147V89.7725H142.022V81.2412H147.308V82.167H143.147V85.085H146.728V86.0049ZM150.987 89.8896C150.128 89.8896 149.429 89.6084 148.89 89.0459C148.351 88.4795 148.081 87.7236 148.081 86.7783V86.5791C148.081 85.9502 148.2 85.3896 148.438 84.8975C148.681 84.4014 149.017 84.0146 149.446 83.7373C149.88 83.4561 150.349 83.3154 150.853 83.3154C151.677 83.3154 152.317 83.5869 152.774 84.1299C153.231 84.6729 153.46 85.4502 153.46 86.4619V86.9131H149.165C149.181 87.5381 149.362 88.0439 149.71 88.4307C150.062 88.8135 150.507 89.0049 151.046 89.0049C151.429 89.0049 151.753 88.9268 152.019 88.7705C152.284 88.6143 152.517 88.4072 152.716 88.1494L153.378 88.665C152.847 89.4814 152.05 89.8896 150.987 89.8896ZM150.853 84.2061C150.415 84.2061 150.048 84.3662 149.751 84.6865C149.454 85.0029 149.271 85.4482 149.2 86.0225H152.376V85.9404C152.345 85.3896 152.196 84.9639 151.931 84.6631C151.665 84.3584 151.306 84.2061 150.853 84.2061ZM157.351 89.8896C156.491 89.8896 155.792 89.6084 155.253 89.0459C154.714 88.4795 154.444 87.7236 154.444 86.7783V86.5791C154.444 85.9502 154.563 85.3896 154.802 84.8975C155.044 84.4014 155.38 84.0146 155.81 83.7373C156.243 83.4561 156.712 83.3154 157.216 83.3154C158.04 83.3154 158.681 83.5869 159.138 84.1299C159.595 84.6729 159.823 85.4502 159.823 86.4619V86.9131H155.528C155.544 87.5381 155.726 88.0439 156.073 88.4307C156.425 88.8135 156.87 89.0049 157.409 89.0049C157.792 89.0049 158.116 88.9268 158.382 88.7705C158.647 88.6143 158.88 88.4072 159.079 88.1494L159.741 88.665C159.21 89.4814 158.413 89.8896 157.351 89.8896ZM157.216 84.2061C156.778 84.2061 156.411 84.3662 156.114 84.6865C155.817 85.0029 155.634 85.4482 155.563 86.0225H158.739V85.9404C158.708 85.3896 158.56 84.9639 158.294 84.6631C158.028 84.3584 157.669 84.2061 157.216 84.2061ZM164.774 88.0908C164.774 87.7979 164.663 87.5713 164.44 87.4111C164.222 87.2471 163.837 87.1064 163.286 86.9893C162.739 86.8721 162.304 86.7314 161.979 86.5674C161.659 86.4033 161.421 86.208 161.265 85.9814C161.112 85.7549 161.036 85.4854 161.036 85.1729C161.036 84.6533 161.255 84.2139 161.692 83.8545C162.134 83.4951 162.696 83.3154 163.38 83.3154C164.099 83.3154 164.681 83.501 165.126 83.8721C165.575 84.2432 165.8 84.7178 165.8 85.2959H164.71C164.71 84.999 164.583 84.7432 164.329 84.5283C164.079 84.3135 163.763 84.2061 163.38 84.2061C162.985 84.2061 162.677 84.292 162.454 84.4639C162.231 84.6357 162.12 84.8604 162.12 85.1377C162.12 85.3994 162.224 85.5967 162.431 85.7295C162.638 85.8623 163.011 85.9893 163.55 86.1104C164.093 86.2314 164.532 86.376 164.868 86.5439C165.204 86.7119 165.452 86.915 165.612 87.1533C165.776 87.3877 165.858 87.6748 165.858 88.0146C165.858 88.5811 165.632 89.0361 165.179 89.3799C164.726 89.7197 164.138 89.8896 163.415 89.8896C162.907 89.8896 162.458 89.7998 162.067 89.6201C161.677 89.4404 161.37 89.1904 161.147 88.8701C160.929 88.5459 160.819 88.1963 160.819 87.8213H161.903C161.923 88.1846 162.067 88.4736 162.337 88.6885C162.61 88.8994 162.97 89.0049 163.415 89.0049C163.825 89.0049 164.153 88.9229 164.399 88.7588C164.649 88.5908 164.774 88.3682 164.774 88.0908ZM174.161 89.7725C174.099 89.6475 174.048 89.4248 174.009 89.1045C173.505 89.6279 172.903 89.8896 172.204 89.8896C171.579 89.8896 171.065 89.7139 170.663 89.3623C170.265 89.0068 170.065 88.5576 170.065 88.0146C170.065 87.3545 170.315 86.8428 170.815 86.4795C171.319 86.1123 172.026 85.9287 172.937 85.9287H173.991V85.4307C173.991 85.0518 173.878 84.751 173.651 84.5283C173.425 84.3018 173.091 84.1885 172.649 84.1885C172.263 84.1885 171.938 84.2861 171.677 84.4814C171.415 84.6768 171.284 84.9131 171.284 85.1904H170.194C170.194 84.874 170.306 84.5693 170.528 84.2764C170.755 83.9795 171.06 83.7451 171.442 83.5732C171.829 83.4014 172.253 83.3154 172.714 83.3154C173.444 83.3154 174.017 83.499 174.431 83.8662C174.845 84.2295 175.06 84.7314 175.075 85.3721V88.29C175.075 88.8721 175.149 89.335 175.298 89.6787V89.7725H174.161ZM172.362 88.9463C172.702 88.9463 173.024 88.8584 173.329 88.6826C173.634 88.5068 173.854 88.2783 173.991 87.9971V86.6963H173.142C171.813 86.6963 171.149 87.085 171.149 87.8623C171.149 88.2021 171.263 88.4678 171.489 88.6592C171.716 88.8506 172.007 88.9463 172.362 88.9463ZM177.8 83.4326L177.835 84.2295C178.319 83.6201 178.952 83.3154 179.733 83.3154C181.073 83.3154 181.749 84.0713 181.761 85.583V89.7725H180.677V85.5771C180.673 85.1201 180.567 84.7822 180.36 84.5635C180.157 84.3447 179.839 84.2354 179.405 84.2354C179.054 84.2354 178.745 84.3291 178.479 84.5166C178.214 84.7041 178.007 84.9502 177.858 85.2549V89.7725H176.774V83.4326H177.8ZM183.132 86.5498C183.132 85.5771 183.362 84.7959 183.823 84.2061C184.284 83.6123 184.888 83.3154 185.634 83.3154C186.376 83.3154 186.964 83.5693 187.397 84.0771V80.7725H188.481V89.7725H187.485L187.433 89.0928C186.999 89.624 186.396 89.8896 185.622 89.8896C184.888 89.8896 184.288 89.5889 183.823 88.9873C183.362 88.3857 183.132 87.6006 183.132 86.6318V86.5498ZM184.216 86.6729C184.216 87.3916 184.364 87.9541 184.661 88.3604C184.958 88.7666 185.368 88.9697 185.892 88.9697C186.579 88.9697 187.081 88.6611 187.397 88.0439V85.1318C187.073 84.5342 186.575 84.2354 185.903 84.2354C185.372 84.2354 184.958 84.4404 184.661 84.8506C184.364 85.2607 184.216 85.8682 184.216 86.6729ZM138.765 101.065C138.659 101.968 138.325 102.665 137.763 103.157C137.204 103.646 136.46 103.89 135.53 103.89C134.522 103.89 133.714 103.528 133.104 102.806C132.499 102.083 132.196 101.116 132.196 99.9053V99.085C132.196 98.292 132.337 97.5947 132.618 96.9932C132.903 96.3916 133.306 95.9307 133.825 95.6104C134.345 95.2861 134.946 95.124 135.63 95.124C136.536 95.124 137.263 95.3779 137.81 95.8857C138.356 96.3896 138.675 97.0889 138.765 97.9834H137.634C137.536 97.3037 137.323 96.8115 136.995 96.5068C136.671 96.2021 136.216 96.0498 135.63 96.0498C134.911 96.0498 134.347 96.3154 133.937 96.8467C133.53 97.3779 133.327 98.1338 133.327 99.1143V99.9404C133.327 100.866 133.521 101.603 133.907 102.149C134.294 102.696 134.835 102.97 135.53 102.97C136.155 102.97 136.634 102.829 136.966 102.548C137.302 102.263 137.524 101.769 137.634 101.065H138.765ZM139.849 100.544C139.849 99.9229 139.97 99.3643 140.212 98.8682C140.458 98.3721 140.798 97.9893 141.231 97.7197C141.669 97.4502 142.167 97.3154 142.726 97.3154C143.589 97.3154 144.286 97.6143 144.817 98.2119C145.353 98.8096 145.62 99.6045 145.62 100.597V100.673C145.62 101.29 145.501 101.845 145.263 102.337C145.028 102.825 144.69 103.206 144.249 103.479C143.812 103.753 143.308 103.89 142.737 103.89C141.878 103.89 141.181 103.591 140.646 102.993C140.114 102.396 139.849 101.604 139.849 100.62V100.544ZM140.938 100.673C140.938 101.376 141.101 101.94 141.425 102.366C141.753 102.792 142.19 103.005 142.737 103.005C143.288 103.005 143.726 102.79 144.05 102.36C144.374 101.927 144.536 101.321 144.536 100.544C144.536 99.8486 144.37 99.2861 144.038 98.8564C143.71 98.4229 143.272 98.2061 142.726 98.2061C142.19 98.2061 141.759 98.4189 141.431 98.8447C141.103 99.2705 140.938 99.8799 140.938 100.673ZM147.999 97.4326L148.028 98.1357C148.493 97.5889 149.12 97.3154 149.909 97.3154C150.796 97.3154 151.399 97.6553 151.72 98.335C151.931 98.0303 152.204 97.7842 152.54 97.5967C152.88 97.4092 153.28 97.3154 153.741 97.3154C155.132 97.3154 155.839 98.0518 155.862 99.5244V103.772H154.778V99.5889C154.778 99.1357 154.675 98.7979 154.468 98.5752C154.261 98.3486 153.913 98.2354 153.425 98.2354C153.022 98.2354 152.688 98.3564 152.423 98.5986C152.157 98.8369 152.003 99.1592 151.96 99.5654V103.772H150.87V99.6182C150.87 98.6963 150.419 98.2354 149.517 98.2354C148.806 98.2354 148.319 98.5381 148.058 99.1436V103.772H146.974V97.4326H147.999ZM158.522 97.4326L158.552 98.1357C159.017 97.5889 159.644 97.3154 160.433 97.3154C161.319 97.3154 161.923 97.6553 162.243 98.335C162.454 98.0303 162.728 97.7842 163.063 97.5967C163.403 97.4092 163.804 97.3154 164.265 97.3154C165.655 97.3154 166.362 98.0518 166.386 99.5244V103.772H165.302V99.5889C165.302 99.1357 165.198 98.7979 164.991 98.5752C164.784 98.3486 164.437 98.2354 163.948 98.2354C163.546 98.2354 163.212 98.3564 162.946 98.5986C162.681 98.8369 162.526 99.1592 162.483 99.5654V103.772H161.394V99.6182C161.394 98.6963 160.942 98.2354 160.04 98.2354C159.329 98.2354 158.843 98.5381 158.581 99.1436V103.772H157.497V97.4326H158.522ZM169.204 103.772H168.12V97.4326H169.204V103.772ZM168.032 95.751C168.032 95.5752 168.085 95.4268 168.19 95.3057C168.3 95.1846 168.46 95.124 168.671 95.124C168.882 95.124 169.042 95.1846 169.151 95.3057C169.261 95.4268 169.315 95.5752 169.315 95.751C169.315 95.9268 169.261 96.0732 169.151 96.1904C169.042 96.3076 168.882 96.3662 168.671 96.3662C168.46 96.3662 168.3 96.3076 168.19 96.1904C168.085 96.0732 168.032 95.9268 168.032 95.751ZM174.636 102.091C174.636 101.798 174.524 101.571 174.302 101.411C174.083 101.247 173.698 101.106 173.147 100.989C172.601 100.872 172.165 100.731 171.841 100.567C171.521 100.403 171.282 100.208 171.126 99.9814C170.974 99.7549 170.897 99.4854 170.897 99.1729C170.897 98.6533 171.116 98.2139 171.554 97.8545C171.995 97.4951 172.558 97.3154 173.241 97.3154C173.96 97.3154 174.542 97.501 174.987 97.8721C175.437 98.2432 175.661 98.7178 175.661 99.2959H174.571C174.571 98.999 174.444 98.7432 174.19 98.5283C173.94 98.3135 173.624 98.2061 173.241 98.2061C172.847 98.2061 172.538 98.292 172.315 98.4639C172.093 98.6357 171.981 98.8604 171.981 99.1377C171.981 99.3994 172.085 99.5967 172.292 99.7295C172.499 99.8623 172.872 99.9893 173.411 100.11C173.954 100.231 174.394 100.376 174.729 100.544C175.065 100.712 175.313 100.915 175.474 101.153C175.638 101.388 175.72 101.675 175.72 102.015C175.72 102.581 175.493 103.036 175.04 103.38C174.587 103.72 173.999 103.89 173.276 103.89C172.769 103.89 172.319 103.8 171.929 103.62C171.538 103.44 171.231 103.19 171.009 102.87C170.79 102.546 170.681 102.196 170.681 101.821H171.765C171.784 102.185 171.929 102.474 172.198 102.688C172.472 102.899 172.831 103.005 173.276 103.005C173.687 103.005 174.015 102.923 174.261 102.759C174.511 102.591 174.636 102.368 174.636 102.091ZM178.31 103.772H177.226V97.4326H178.31V103.772ZM177.138 95.751C177.138 95.5752 177.19 95.4268 177.296 95.3057C177.405 95.1846 177.565 95.124 177.776 95.124C177.987 95.124 178.147 95.1846 178.257 95.3057C178.366 95.4268 178.421 95.5752 178.421 95.751C178.421 95.9268 178.366 96.0732 178.257 96.1904C178.147 96.3076 177.987 96.3662 177.776 96.3662C177.565 96.3662 177.405 96.3076 177.296 96.1904C177.19 96.0732 177.138 95.9268 177.138 95.751ZM179.763 100.544C179.763 99.9229 179.884 99.3643 180.126 98.8682C180.372 98.3721 180.712 97.9893 181.146 97.7197C181.583 97.4502 182.081 97.3154 182.64 97.3154C183.503 97.3154 184.2 97.6143 184.731 98.2119C185.267 98.8096 185.534 99.6045 185.534 100.597V100.673C185.534 101.29 185.415 101.845 185.177 102.337C184.942 102.825 184.604 103.206 184.163 103.479C183.726 103.753 183.222 103.89 182.651 103.89C181.792 103.89 181.095 103.591 180.56 102.993C180.028 102.396 179.763 101.604 179.763 100.62V100.544ZM180.853 100.673C180.853 101.376 181.015 101.94 181.339 102.366C181.667 102.792 182.104 103.005 182.651 103.005C183.202 103.005 183.64 102.79 183.964 102.36C184.288 101.927 184.45 101.321 184.45 100.544C184.45 99.8486 184.284 99.2861 183.952 98.8564C183.624 98.4229 183.187 98.2061 182.64 98.2061C182.104 98.2061 181.673 98.4189 181.345 98.8447C181.017 99.2705 180.853 99.8799 180.853 100.673ZM187.919 97.4326L187.954 98.2295C188.438 97.6201 189.071 97.3154 189.853 97.3154C191.192 97.3154 191.868 98.0713 191.88 99.583V103.772H190.796V99.5771C190.792 99.1201 190.687 98.7822 190.479 98.5635C190.276 98.3447 189.958 98.2354 189.524 98.2354C189.173 98.2354 188.864 98.3291 188.599 98.5166C188.333 98.7041 188.126 98.9502 187.978 99.2549V103.772H186.894V97.4326H187.919ZM197.206 102.091C197.206 101.798 197.095 101.571 196.872 101.411C196.653 101.247 196.269 101.106 195.718 100.989C195.171 100.872 194.735 100.731 194.411 100.567C194.091 100.403 193.853 100.208 193.696 99.9814C193.544 99.7549 193.468 99.4854 193.468 99.1729C193.468 98.6533 193.687 98.2139 194.124 97.8545C194.565 97.4951 195.128 97.3154 195.812 97.3154C196.53 97.3154 197.112 97.501 197.558 97.8721C198.007 98.2432 198.231 98.7178 198.231 99.2959H197.142C197.142 98.999 197.015 98.7432 196.761 98.5283C196.511 98.3135 196.194 98.2061 195.812 98.2061C195.417 98.2061 195.108 98.292 194.886 98.4639C194.663 98.6357 194.552 98.8604 194.552 99.1377C194.552 99.3994 194.655 99.5967 194.862 99.7295C195.069 99.8623 195.442 99.9893 195.981 100.11C196.524 100.231 196.964 100.376 197.3 100.544C197.636 100.712 197.884 100.915 198.044 101.153C198.208 101.388 198.29 101.675 198.29 102.015C198.29 102.581 198.063 103.036 197.61 103.38C197.157 103.72 196.569 103.89 195.847 103.89C195.339 103.89 194.89 103.8 194.499 103.62C194.108 103.44 193.802 103.19 193.579 102.87C193.36 102.546 193.251 102.196 193.251 101.821H194.335C194.354 102.185 194.499 102.474 194.769 102.688C195.042 102.899 195.401 103.005 195.847 103.005C196.257 103.005 196.585 102.923 196.831 102.759C197.081 102.591 197.206 102.368 197.206 102.091Z" fill="#FF3E12"/>
<rect x="112.501" y="72.5" width="105.378" height="40.5452" rx="20.2726" stroke="#FF3E12" stroke-linecap="round" stroke-linejoin="round" stroke-dasharray="2.82 4.52"/>
<rect x="118.501" y="144.5" width="99.378" height="40.5452" rx="20.2726" fill="#ECECEC"/>
<path d="M144.718 159.065C144.612 159.968 144.278 160.665 143.716 161.157C143.157 161.646 142.413 161.89 141.483 161.89C140.476 161.89 139.667 161.528 139.058 160.806C138.452 160.083 138.149 159.116 138.149 157.905V157.085C138.149 156.292 138.29 155.595 138.571 154.993C138.856 154.392 139.259 153.931 139.778 153.61C140.298 153.286 140.899 153.124 141.583 153.124C142.489 153.124 143.216 153.378 143.763 153.886C144.31 154.39 144.628 155.089 144.718 155.983H143.587C143.489 155.304 143.276 154.812 142.948 154.507C142.624 154.202 142.169 154.05 141.583 154.05C140.864 154.05 140.3 154.315 139.89 154.847C139.483 155.378 139.28 156.134 139.28 157.114V157.94C139.28 158.866 139.474 159.603 139.86 160.149C140.247 160.696 140.788 160.97 141.483 160.97C142.108 160.97 142.587 160.829 142.919 160.548C143.255 160.263 143.478 159.769 143.587 159.065H144.718ZM145.802 158.544C145.802 157.923 145.923 157.364 146.165 156.868C146.411 156.372 146.751 155.989 147.185 155.72C147.622 155.45 148.12 155.315 148.679 155.315C149.542 155.315 150.239 155.614 150.771 156.212C151.306 156.81 151.573 157.604 151.573 158.597V158.673C151.573 159.29 151.454 159.845 151.216 160.337C150.981 160.825 150.644 161.206 150.202 161.479C149.765 161.753 149.261 161.89 148.69 161.89C147.831 161.89 147.134 161.591 146.599 160.993C146.067 160.396 145.802 159.604 145.802 158.62V158.544ZM146.892 158.673C146.892 159.376 147.054 159.94 147.378 160.366C147.706 160.792 148.144 161.005 148.69 161.005C149.241 161.005 149.679 160.79 150.003 160.36C150.327 159.927 150.489 159.321 150.489 158.544C150.489 157.849 150.323 157.286 149.991 156.856C149.663 156.423 149.226 156.206 148.679 156.206C148.144 156.206 147.712 156.419 147.384 156.845C147.056 157.271 146.892 157.88 146.892 158.673ZM153.952 155.433L153.981 156.136C154.446 155.589 155.073 155.315 155.862 155.315C156.749 155.315 157.353 155.655 157.673 156.335C157.884 156.03 158.157 155.784 158.493 155.597C158.833 155.409 159.233 155.315 159.694 155.315C161.085 155.315 161.792 156.052 161.815 157.524V161.772H160.731V157.589C160.731 157.136 160.628 156.798 160.421 156.575C160.214 156.349 159.866 156.235 159.378 156.235C158.976 156.235 158.642 156.356 158.376 156.599C158.11 156.837 157.956 157.159 157.913 157.565V161.772H156.823V157.618C156.823 156.696 156.372 156.235 155.47 156.235C154.759 156.235 154.272 156.538 154.011 157.144V161.772H152.927V155.433H153.952ZM164.476 155.433L164.505 156.136C164.97 155.589 165.597 155.315 166.386 155.315C167.272 155.315 167.876 155.655 168.196 156.335C168.407 156.03 168.681 155.784 169.017 155.597C169.356 155.409 169.757 155.315 170.218 155.315C171.608 155.315 172.315 156.052 172.339 157.524V161.772H171.255V157.589C171.255 157.136 171.151 156.798 170.944 156.575C170.737 156.349 170.39 156.235 169.901 156.235C169.499 156.235 169.165 156.356 168.899 156.599C168.634 156.837 168.479 157.159 168.437 157.565V161.772H167.347V157.618C167.347 156.696 166.896 156.235 165.993 156.235C165.282 156.235 164.796 156.538 164.534 157.144V161.772H163.45V155.433H164.476ZM177.894 161.146C177.472 161.642 176.853 161.89 176.036 161.89C175.36 161.89 174.845 161.694 174.489 161.304C174.138 160.909 173.96 160.327 173.956 159.558V155.433H175.04V159.528C175.04 160.489 175.431 160.97 176.212 160.97C177.04 160.97 177.591 160.661 177.864 160.044V155.433H178.948V161.772H177.917L177.894 161.146ZM181.626 155.433L181.661 156.229C182.146 155.62 182.778 155.315 183.56 155.315C184.899 155.315 185.575 156.071 185.587 157.583V161.772H184.503V157.577C184.499 157.12 184.394 156.782 184.187 156.563C183.983 156.345 183.665 156.235 183.231 156.235C182.88 156.235 182.571 156.329 182.306 156.517C182.04 156.704 181.833 156.95 181.685 157.255V161.772H180.601V155.433H181.626ZM188.399 161.772H187.315V155.433H188.399V161.772ZM187.228 153.751C187.228 153.575 187.28 153.427 187.386 153.306C187.495 153.185 187.655 153.124 187.866 153.124C188.077 153.124 188.237 153.185 188.347 153.306C188.456 153.427 188.511 153.575 188.511 153.751C188.511 153.927 188.456 154.073 188.347 154.19C188.237 154.308 188.077 154.366 187.866 154.366C187.655 154.366 187.495 154.308 187.386 154.19C187.28 154.073 187.228 153.927 187.228 153.751ZM191.61 153.897V155.433H192.794V156.271H191.61V160.202C191.61 160.456 191.663 160.647 191.769 160.776C191.874 160.901 192.054 160.964 192.308 160.964C192.433 160.964 192.604 160.94 192.823 160.894V161.772C192.538 161.851 192.261 161.89 191.991 161.89C191.507 161.89 191.142 161.743 190.896 161.45C190.649 161.157 190.526 160.741 190.526 160.202V156.271H189.372V155.433H190.526V153.897H191.61ZM196.14 160.185L197.616 155.433H198.776L196.228 162.751C195.833 163.806 195.206 164.333 194.347 164.333L194.142 164.315L193.737 164.239V163.36L194.03 163.384C194.397 163.384 194.683 163.31 194.886 163.161C195.093 163.013 195.263 162.741 195.396 162.347L195.636 161.702L193.374 155.433H194.558L196.14 160.185ZM151.737 168.167H148.995V175.772H147.876V168.167H145.14V167.241H151.737V168.167ZM155.452 170.405C155.288 170.378 155.11 170.364 154.919 170.364C154.208 170.364 153.726 170.667 153.472 171.272V175.772H152.388V169.433H153.442L153.46 170.165C153.815 169.599 154.319 169.315 154.972 169.315C155.183 169.315 155.343 169.343 155.452 169.397V170.405ZM158.968 175.89C158.108 175.89 157.409 175.608 156.87 175.046C156.331 174.479 156.062 173.724 156.062 172.778V172.579C156.062 171.95 156.181 171.39 156.419 170.897C156.661 170.401 156.997 170.015 157.427 169.737C157.86 169.456 158.329 169.315 158.833 169.315C159.657 169.315 160.298 169.587 160.755 170.13C161.212 170.673 161.44 171.45 161.44 172.462V172.913H157.146C157.161 173.538 157.343 174.044 157.69 174.431C158.042 174.813 158.487 175.005 159.026 175.005C159.409 175.005 159.733 174.927 159.999 174.771C160.265 174.614 160.497 174.407 160.696 174.149L161.358 174.665C160.827 175.481 160.03 175.89 158.968 175.89ZM158.833 170.206C158.396 170.206 158.028 170.366 157.731 170.687C157.435 171.003 157.251 171.448 157.181 172.022H160.356V171.94C160.325 171.39 160.177 170.964 159.911 170.663C159.646 170.358 159.286 170.206 158.833 170.206ZM166.614 175.772C166.552 175.647 166.501 175.425 166.462 175.104C165.958 175.628 165.356 175.89 164.657 175.89C164.032 175.89 163.519 175.714 163.116 175.362C162.718 175.007 162.519 174.558 162.519 174.015C162.519 173.354 162.769 172.843 163.269 172.479C163.772 172.112 164.479 171.929 165.39 171.929H166.444V171.431C166.444 171.052 166.331 170.751 166.104 170.528C165.878 170.302 165.544 170.188 165.103 170.188C164.716 170.188 164.392 170.286 164.13 170.481C163.868 170.677 163.737 170.913 163.737 171.19H162.647C162.647 170.874 162.759 170.569 162.981 170.276C163.208 169.979 163.513 169.745 163.896 169.573C164.282 169.401 164.706 169.315 165.167 169.315C165.897 169.315 166.47 169.499 166.884 169.866C167.298 170.229 167.513 170.731 167.528 171.372V174.29C167.528 174.872 167.603 175.335 167.751 175.679V175.772H166.614ZM164.815 174.946C165.155 174.946 165.478 174.858 165.782 174.683C166.087 174.507 166.308 174.278 166.444 173.997V172.696H165.595C164.267 172.696 163.603 173.085 163.603 173.862C163.603 174.202 163.716 174.468 163.942 174.659C164.169 174.851 164.46 174.946 164.815 174.946ZM172.919 174.091C172.919 173.798 172.808 173.571 172.585 173.411C172.366 173.247 171.981 173.106 171.431 172.989C170.884 172.872 170.448 172.731 170.124 172.567C169.804 172.403 169.565 172.208 169.409 171.981C169.257 171.755 169.181 171.485 169.181 171.173C169.181 170.653 169.399 170.214 169.837 169.854C170.278 169.495 170.841 169.315 171.524 169.315C172.243 169.315 172.825 169.501 173.271 169.872C173.72 170.243 173.944 170.718 173.944 171.296H172.854C172.854 170.999 172.728 170.743 172.474 170.528C172.224 170.313 171.907 170.206 171.524 170.206C171.13 170.206 170.821 170.292 170.599 170.464C170.376 170.636 170.265 170.86 170.265 171.138C170.265 171.399 170.368 171.597 170.575 171.729C170.782 171.862 171.155 171.989 171.694 172.11C172.237 172.231 172.677 172.376 173.013 172.544C173.349 172.712 173.597 172.915 173.757 173.153C173.921 173.388 174.003 173.675 174.003 174.015C174.003 174.581 173.776 175.036 173.323 175.38C172.87 175.72 172.282 175.89 171.56 175.89C171.052 175.89 170.603 175.8 170.212 175.62C169.821 175.44 169.515 175.19 169.292 174.87C169.073 174.546 168.964 174.196 168.964 173.821H170.048C170.067 174.185 170.212 174.474 170.481 174.688C170.755 174.899 171.114 175.005 171.56 175.005C171.97 175.005 172.298 174.923 172.544 174.759C172.794 174.591 172.919 174.368 172.919 174.091ZM179.329 175.146C178.907 175.642 178.288 175.89 177.472 175.89C176.796 175.89 176.28 175.694 175.925 175.304C175.573 174.909 175.396 174.327 175.392 173.558V169.433H176.476V173.528C176.476 174.489 176.866 174.97 177.647 174.97C178.476 174.97 179.026 174.661 179.3 174.044V169.433H180.384V175.772H179.353L179.329 175.146ZM185.101 170.405C184.937 170.378 184.759 170.364 184.567 170.364C183.856 170.364 183.374 170.667 183.12 171.272V175.772H182.036V169.433H183.091L183.108 170.165C183.464 169.599 183.968 169.315 184.62 169.315C184.831 169.315 184.991 169.343 185.101 169.397V170.405ZM188.616 175.89C187.757 175.89 187.058 175.608 186.519 175.046C185.979 174.479 185.71 173.724 185.71 172.778V172.579C185.71 171.95 185.829 171.39 186.067 170.897C186.31 170.401 186.646 170.015 187.075 169.737C187.509 169.456 187.978 169.315 188.481 169.315C189.306 169.315 189.946 169.587 190.403 170.13C190.86 170.673 191.089 171.45 191.089 172.462V172.913H186.794C186.81 173.538 186.991 174.044 187.339 174.431C187.69 174.813 188.136 175.005 188.675 175.005C189.058 175.005 189.382 174.927 189.647 174.771C189.913 174.614 190.146 174.407 190.345 174.149L191.007 174.665C190.476 175.481 189.679 175.89 188.616 175.89ZM188.481 170.206C188.044 170.206 187.677 170.366 187.38 170.687C187.083 171.003 186.899 171.448 186.829 172.022H190.005V171.94C189.974 171.39 189.825 170.964 189.56 170.663C189.294 170.358 188.935 170.206 188.481 170.206Z" fill="#FF3E12"/>
<rect x="118.501" y="144.5" width="99.378" height="40.5452" rx="20.2726" stroke="#FF3E12" stroke-linecap="round" stroke-linejoin="round" stroke-dasharray="2.82 4.52"/>
<line x1="165.622" y1="40" x2="165.622" y2="70.4766" stroke="#FF3E12"/>
<path d="M171.048 64.833L165.375 70.759L160.001 64.833" stroke="#FF3E12" stroke-linecap="round" stroke-linejoin="round"/>
<line x1="165.623" y1="113" x2="165.623" y2="143.477" stroke="#FF3E12"/>
<line x1="165.623" y1="185" x2="165.623" y2="215.477" stroke="#FF3E12"/>
<path d="M171.049 137.833L165.376 143.759L160.001 137.833" stroke="#FF3E12" stroke-linecap="round" stroke-linejoin="round"/>
<path d="M171.049 209.833L165.376 215.759L160.001 209.833" stroke="#FF3E12" stroke-linecap="round" stroke-linejoin="round"/>
<path d="M106.002 86L111.928 91.673L106.002 97.0473" stroke="#FF3E12" stroke-linecap="round" stroke-linejoin="round"/>
<rect x="52.502" y="272.5" width="93.2518" height="34.5561" rx="4.01506" fill="#ECECEC"/>
<path d="M73.6162 285.885L76.4053 292.846L79.1943 285.885H80.6533V294.416H79.5283V291.094L79.6338 287.508L76.833 294.416H75.9717L73.1768 287.525L73.2881 291.094V294.416H72.1631V285.885H73.6162ZM85.1006 294.533C84.2412 294.533 83.542 294.252 83.0029 293.689C82.4639 293.123 82.1943 292.367 82.1943 291.422V291.223C82.1943 290.594 82.3135 290.033 82.5518 289.541C82.7939 289.045 83.1299 288.658 83.5596 288.381C83.9932 288.1 84.4619 287.959 84.9658 287.959C85.79 287.959 86.4307 288.23 86.8877 288.773C87.3447 289.316 87.5732 290.094 87.5732 291.105V291.557H83.2783C83.2939 292.182 83.4756 292.688 83.8232 293.074C84.1748 293.457 84.6201 293.648 85.1592 293.648C85.542 293.648 85.8662 293.57 86.1318 293.414C86.3975 293.258 86.6299 293.051 86.8291 292.793L87.4912 293.309C86.96 294.125 86.1631 294.533 85.1006 294.533ZM84.9658 288.85C84.5283 288.85 84.1611 289.01 83.8643 289.33C83.5674 289.646 83.3838 290.092 83.3135 290.666H86.4893V290.584C86.458 290.033 86.3096 289.607 86.0439 289.307C85.7783 289.002 85.4189 288.85 84.9658 288.85ZM90.3037 286.541V288.076H91.4873V288.914H90.3037V292.846C90.3037 293.1 90.3564 293.291 90.4619 293.42C90.5674 293.545 90.7471 293.607 91.001 293.607C91.126 293.607 91.2979 293.584 91.5166 293.537V294.416C91.2314 294.494 90.9541 294.533 90.6846 294.533C90.2002 294.533 89.835 294.387 89.5889 294.094C89.3428 293.801 89.2197 293.385 89.2197 292.846V288.914H88.0654V288.076H89.2197V286.541H90.3037ZM96.6729 294.416C96.6104 294.291 96.5596 294.068 96.5205 293.748C96.0166 294.271 95.415 294.533 94.7158 294.533C94.0908 294.533 93.5771 294.357 93.1748 294.006C92.7764 293.65 92.5771 293.201 92.5771 292.658C92.5771 291.998 92.8271 291.486 93.3271 291.123C93.8311 290.756 94.5381 290.572 95.4482 290.572H96.5029V290.074C96.5029 289.695 96.3896 289.395 96.1631 289.172C95.9365 288.945 95.6025 288.832 95.1611 288.832C94.7744 288.832 94.4502 288.93 94.1885 289.125C93.9268 289.32 93.7959 289.557 93.7959 289.834H92.7061C92.7061 289.518 92.8174 289.213 93.04 288.92C93.2666 288.623 93.5713 288.389 93.9541 288.217C94.3408 288.045 94.7646 287.959 95.2256 287.959C95.9561 287.959 96.5283 288.143 96.9424 288.51C97.3564 288.873 97.5713 289.375 97.5869 290.016V292.934C97.5869 293.516 97.6611 293.979 97.8096 294.322V294.416H96.6729ZM94.874 293.59C95.2139 293.59 95.5361 293.502 95.8408 293.326C96.1455 293.15 96.3662 292.922 96.5029 292.641V291.34H95.6533C94.3252 291.34 93.6611 291.729 93.6611 292.506C93.6611 292.846 93.7744 293.111 94.001 293.303C94.2275 293.494 94.5186 293.59 94.874 293.59ZM101.284 292.945L102.854 288.076H103.962L101.688 294.416H100.862L98.5654 288.076H99.6729L101.284 292.945ZM107.554 294.533C106.694 294.533 105.995 294.252 105.456 293.689C104.917 293.123 104.647 292.367 104.647 291.422V291.223C104.647 290.594 104.767 290.033 105.005 289.541C105.247 289.045 105.583 288.658 106.013 288.381C106.446 288.1 106.915 287.959 107.419 287.959C108.243 287.959 108.884 288.23 109.341 288.773C109.798 289.316 110.026 290.094 110.026 291.105V291.557H105.731C105.747 292.182 105.929 292.688 106.276 293.074C106.628 293.457 107.073 293.648 107.612 293.648C107.995 293.648 108.319 293.57 108.585 293.414C108.851 293.258 109.083 293.051 109.282 292.793L109.944 293.309C109.413 294.125 108.616 294.533 107.554 294.533ZM107.419 288.85C106.981 288.85 106.614 289.01 106.317 289.33C106.021 289.646 105.837 290.092 105.767 290.666H108.942V290.584C108.911 290.033 108.763 289.607 108.497 289.307C108.231 289.002 107.872 288.85 107.419 288.85ZM114.351 289.049C114.187 289.021 114.009 289.008 113.817 289.008C113.106 289.008 112.624 289.311 112.37 289.916V294.416H111.286V288.076H112.341L112.358 288.809C112.714 288.242 113.218 287.959 113.87 287.959C114.081 287.959 114.241 287.986 114.351 288.041V289.049ZM119.044 292.734C119.044 292.441 118.933 292.215 118.71 292.055C118.491 291.891 118.106 291.75 117.556 291.633C117.009 291.516 116.573 291.375 116.249 291.211C115.929 291.047 115.69 290.852 115.534 290.625C115.382 290.398 115.306 290.129 115.306 289.816C115.306 289.297 115.524 288.857 115.962 288.498C116.403 288.139 116.966 287.959 117.649 287.959C118.368 287.959 118.95 288.145 119.396 288.516C119.845 288.887 120.069 289.361 120.069 289.939H118.979C118.979 289.643 118.853 289.387 118.599 289.172C118.349 288.957 118.032 288.85 117.649 288.85C117.255 288.85 116.946 288.936 116.724 289.107C116.501 289.279 116.39 289.504 116.39 289.781C116.39 290.043 116.493 290.24 116.7 290.373C116.907 290.506 117.28 290.633 117.819 290.754C118.362 290.875 118.802 291.02 119.138 291.188C119.474 291.355 119.722 291.559 119.882 291.797C120.046 292.031 120.128 292.318 120.128 292.658C120.128 293.225 119.901 293.68 119.448 294.023C118.995 294.363 118.407 294.533 117.685 294.533C117.177 294.533 116.728 294.443 116.337 294.264C115.946 294.084 115.64 293.834 115.417 293.514C115.198 293.189 115.089 292.84 115.089 292.465H116.173C116.192 292.828 116.337 293.117 116.606 293.332C116.88 293.543 117.239 293.648 117.685 293.648C118.095 293.648 118.423 293.566 118.669 293.402C118.919 293.234 119.044 293.012 119.044 292.734ZM124.171 294.533C123.312 294.533 122.612 294.252 122.073 293.689C121.534 293.123 121.265 292.367 121.265 291.422V291.223C121.265 290.594 121.384 290.033 121.622 289.541C121.864 289.045 122.2 288.658 122.63 288.381C123.063 288.1 123.532 287.959 124.036 287.959C124.86 287.959 125.501 288.23 125.958 288.773C126.415 289.316 126.644 290.094 126.644 291.105V291.557H122.349C122.364 292.182 122.546 292.688 122.894 293.074C123.245 293.457 123.69 293.648 124.229 293.648C124.612 293.648 124.937 293.57 125.202 293.414C125.468 293.258 125.7 293.051 125.899 292.793L126.562 293.309C126.03 294.125 125.233 294.533 124.171 294.533ZM124.036 288.85C123.599 288.85 123.231 289.01 122.935 289.33C122.638 289.646 122.454 290.092 122.384 290.666H125.56V290.584C125.528 290.033 125.38 289.607 125.114 289.307C124.849 289.002 124.489 288.85 124.036 288.85Z" fill="#FF3E12"/>
<rect x="52.502" y="272.5" width="93.2518" height="34.5561" rx="4.01506" stroke="#FF3E12" stroke-dasharray="1.13 1.13"/>
<rect x="52.5" y="360.5" width="144.046" height="34.5561" rx="4.01506" fill="#ECECEC"/>
<path d="M64.916 378.076V381.416H63.791V372.885H66.9375C67.8711 372.885 68.6016 373.123 69.1289 373.6C69.6602 374.076 69.9258 374.707 69.9258 375.492C69.9258 376.32 69.666 376.959 69.1465 377.408C68.6309 377.854 67.8906 378.076 66.9258 378.076H64.916ZM64.916 377.156H66.9375C67.5391 377.156 68 377.016 68.3203 376.734C68.6406 376.449 68.8008 376.039 68.8008 375.504C68.8008 374.996 68.6406 374.59 68.3203 374.285C68 373.98 67.5605 373.822 67.002 373.811H64.916V377.156ZM72.3691 381.416H71.2852V372.416H72.3691V381.416ZM78.0234 381.416C77.9609 381.291 77.9102 381.068 77.8711 380.748C77.3672 381.271 76.7656 381.533 76.0664 381.533C75.4414 381.533 74.9277 381.357 74.5254 381.006C74.127 380.65 73.9277 380.201 73.9277 379.658C73.9277 378.998 74.1777 378.486 74.6777 378.123C75.1816 377.756 75.8887 377.572 76.7988 377.572H77.8535V377.074C77.8535 376.695 77.7402 376.395 77.5137 376.172C77.2871 375.945 76.9531 375.832 76.5117 375.832C76.125 375.832 75.8008 375.93 75.5391 376.125C75.2773 376.32 75.1465 376.557 75.1465 376.834H74.0566C74.0566 376.518 74.168 376.213 74.3906 375.92C74.6172 375.623 74.9219 375.389 75.3047 375.217C75.6914 375.045 76.1152 374.959 76.5762 374.959C77.3066 374.959 77.8789 375.143 78.293 375.51C78.707 375.873 78.9219 376.375 78.9375 377.016V379.934C78.9375 380.516 79.0117 380.979 79.1602 381.322V381.416H78.0234ZM76.2246 380.59C76.5645 380.59 76.8867 380.502 77.1914 380.326C77.4961 380.15 77.7168 379.922 77.8535 379.641V378.34H77.0039C75.6758 378.34 75.0117 378.729 75.0117 379.506C75.0117 379.846 75.125 380.111 75.3516 380.303C75.5781 380.494 75.8691 380.59 76.2246 380.59ZM82.1074 373.541V375.076H83.291V375.914H82.1074V379.846C82.1074 380.1 82.1602 380.291 82.2656 380.42C82.3711 380.545 82.5508 380.607 82.8047 380.607C82.9297 380.607 83.1016 380.584 83.3203 380.537V381.416C83.0352 381.494 82.7578 381.533 82.4883 381.533C82.0039 381.533 81.6387 381.387 81.3926 381.094C81.1465 380.801 81.0234 380.385 81.0234 379.846V375.914H79.8691V375.076H81.0234V373.541H82.1074ZM85.0957 381.416V375.914H84.0938V375.076H85.0957V374.426C85.0957 373.746 85.2773 373.221 85.6406 372.85C86.0039 372.479 86.5176 372.293 87.1816 372.293C87.4316 372.293 87.6797 372.326 87.9258 372.393L87.8672 373.271C87.6836 373.236 87.4883 373.219 87.2812 373.219C86.9297 373.219 86.6582 373.322 86.4668 373.529C86.2754 373.732 86.1797 374.025 86.1797 374.408V375.076H87.5332V375.914H86.1797V381.416H85.0957ZM88.4473 378.188C88.4473 377.566 88.5684 377.008 88.8105 376.512C89.0566 376.016 89.3965 375.633 89.8301 375.363C90.2676 375.094 90.7656 374.959 91.3242 374.959C92.1875 374.959 92.8848 375.258 93.416 375.855C93.9512 376.453 94.2188 377.248 94.2188 378.24V378.316C94.2188 378.934 94.0996 379.488 93.8613 379.98C93.627 380.469 93.2891 380.85 92.8477 381.123C92.4102 381.396 91.9062 381.533 91.3359 381.533C90.4766 381.533 89.7793 381.234 89.2441 380.637C88.7129 380.039 88.4473 379.248 88.4473 378.264V378.188ZM89.5371 378.316C89.5371 379.02 89.6992 379.584 90.0234 380.01C90.3516 380.436 90.7891 380.648 91.3359 380.648C91.8867 380.648 92.3242 380.434 92.6484 380.004C92.9727 379.57 93.1348 378.965 93.1348 378.188C93.1348 377.492 92.9688 376.93 92.6367 376.5C92.3086 376.066 91.8711 375.85 91.3242 375.85C90.7891 375.85 90.3574 376.062 90.0293 376.488C89.7012 376.914 89.5371 377.523 89.5371 378.316ZM98.6426 376.049C98.4785 376.021 98.3008 376.008 98.1094 376.008C97.3984 376.008 96.916 376.311 96.6621 376.916V381.416H95.5781V375.076H96.6328L96.6504 375.809C97.0059 375.242 97.5098 374.959 98.1621 374.959C98.373 374.959 98.5332 374.986 98.6426 375.041V376.049ZM100.664 375.076L100.693 375.779C101.158 375.232 101.785 374.959 102.574 374.959C103.461 374.959 104.064 375.299 104.385 375.979C104.596 375.674 104.869 375.428 105.205 375.24C105.545 375.053 105.945 374.959 106.406 374.959C107.797 374.959 108.504 375.695 108.527 377.168V381.416H107.443V377.232C107.443 376.779 107.34 376.441 107.133 376.219C106.926 375.992 106.578 375.879 106.09 375.879C105.688 375.879 105.354 376 105.088 376.242C104.822 376.48 104.668 376.803 104.625 377.209V381.416H103.535V377.262C103.535 376.34 103.084 375.879 102.182 375.879C101.471 375.879 100.984 376.182 100.723 376.787V381.416H99.6387V375.076H100.664ZM119.59 378.709C119.484 379.611 119.15 380.309 118.588 380.801C118.029 381.289 117.285 381.533 116.355 381.533C115.348 381.533 114.539 381.172 113.93 380.449C113.324 379.727 113.021 378.76 113.021 377.549V376.729C113.021 375.936 113.162 375.238 113.443 374.637C113.729 374.035 114.131 373.574 114.65 373.254C115.17 372.93 115.771 372.768 116.455 372.768C117.361 372.768 118.088 373.021 118.635 373.529C119.182 374.033 119.5 374.732 119.59 375.627H118.459C118.361 374.947 118.148 374.455 117.82 374.15C117.496 373.846 117.041 373.693 116.455 373.693C115.736 373.693 115.172 373.959 114.762 374.49C114.355 375.021 114.152 375.777 114.152 376.758V377.584C114.152 378.51 114.346 379.246 114.732 379.793C115.119 380.34 115.66 380.613 116.355 380.613C116.98 380.613 117.459 380.473 117.791 380.191C118.127 379.906 118.35 379.412 118.459 378.709H119.59ZM124.875 380.789C124.453 381.285 123.834 381.533 123.018 381.533C122.342 381.533 121.826 381.338 121.471 380.947C121.119 380.553 120.941 379.971 120.938 379.201V375.076H122.021V379.172C122.021 380.133 122.412 380.613 123.193 380.613C124.021 380.613 124.572 380.305 124.846 379.688V375.076H125.93V381.416H124.898L124.875 380.789ZM131.273 379.734C131.273 379.441 131.162 379.215 130.939 379.055C130.721 378.891 130.336 378.75 129.785 378.633C129.238 378.516 128.803 378.375 128.479 378.211C128.158 378.047 127.92 377.852 127.764 377.625C127.611 377.398 127.535 377.129 127.535 376.816C127.535 376.297 127.754 375.857 128.191 375.498C128.633 375.139 129.195 374.959 129.879 374.959C130.598 374.959 131.18 375.145 131.625 375.516C132.074 375.887 132.299 376.361 132.299 376.939H131.209C131.209 376.643 131.082 376.387 130.828 376.172C130.578 375.957 130.262 375.85 129.879 375.85C129.484 375.85 129.176 375.936 128.953 376.107C128.73 376.279 128.619 376.504 128.619 376.781C128.619 377.043 128.723 377.24 128.93 377.373C129.137 377.506 129.51 377.633 130.049 377.754C130.592 377.875 131.031 378.02 131.367 378.188C131.703 378.355 131.951 378.559 132.111 378.797C132.275 379.031 132.357 379.318 132.357 379.658C132.357 380.225 132.131 380.68 131.678 381.023C131.225 381.363 130.637 381.533 129.914 381.533C129.406 381.533 128.957 381.443 128.566 381.264C128.176 381.084 127.869 380.834 127.646 380.514C127.428 380.189 127.318 379.84 127.318 379.465H128.402C128.422 379.828 128.566 380.117 128.836 380.332C129.109 380.543 129.469 380.648 129.914 380.648C130.324 380.648 130.652 380.566 130.898 380.402C131.148 380.234 131.273 380.012 131.273 379.734ZM135.24 373.541V375.076H136.424V375.914H135.24V379.846C135.24 380.1 135.293 380.291 135.398 380.42C135.504 380.545 135.684 380.607 135.938 380.607C136.062 380.607 136.234 380.584 136.453 380.537V381.416C136.168 381.494 135.891 381.533 135.621 381.533C135.137 381.533 134.771 381.387 134.525 381.094C134.279 380.801 134.156 380.385 134.156 379.846V375.914H133.002V375.076H134.156V373.541H135.24ZM137.291 378.188C137.291 377.566 137.412 377.008 137.654 376.512C137.9 376.016 138.24 375.633 138.674 375.363C139.111 375.094 139.609 374.959 140.168 374.959C141.031 374.959 141.729 375.258 142.26 375.855C142.795 376.453 143.062 377.248 143.062 378.24V378.316C143.062 378.934 142.943 379.488 142.705 379.98C142.471 380.469 142.133 380.85 141.691 381.123C141.254 381.396 140.75 381.533 140.18 381.533C139.32 381.533 138.623 381.234 138.088 380.637C137.557 380.039 137.291 379.248 137.291 378.264V378.188ZM138.381 378.316C138.381 379.02 138.543 379.584 138.867 380.01C139.195 380.436 139.633 380.648 140.18 380.648C140.73 380.648 141.168 380.434 141.492 380.004C141.816 379.57 141.979 378.965 141.979 378.188C141.979 377.492 141.812 376.93 141.48 376.5C141.152 376.066 140.715 375.85 140.168 375.85C139.633 375.85 139.201 376.062 138.873 376.488C138.545 376.914 138.381 377.523 138.381 378.316ZM145.441 375.076L145.471 375.779C145.936 375.232 146.562 374.959 147.352 374.959C148.238 374.959 148.842 375.299 149.162 375.979C149.373 375.674 149.646 375.428 149.982 375.24C150.322 375.053 150.723 374.959 151.184 374.959C152.574 374.959 153.281 375.695 153.305 377.168V381.416H152.221V377.232C152.221 376.779 152.117 376.441 151.91 376.219C151.703 375.992 151.355 375.879 150.867 375.879C150.465 375.879 150.131 376 149.865 376.242C149.6 376.48 149.445 376.803 149.402 377.209V381.416H148.312V377.262C148.312 376.34 147.861 375.879 146.959 375.879C146.248 375.879 145.762 376.182 145.5 376.787V381.416H144.416V375.076H145.441ZM162.803 379.189H159.229L158.426 381.416H157.266L160.523 372.885H161.508L164.771 381.416H163.617L162.803 379.189ZM159.568 378.264H162.469L161.016 374.273L159.568 378.264ZM168.814 376.049C168.65 376.021 168.473 376.008 168.281 376.008C167.57 376.008 167.088 376.311 166.834 376.916V381.416H165.75V375.076H166.805L166.822 375.809C167.178 375.242 167.682 374.959 168.334 374.959C168.545 374.959 168.705 374.986 168.814 375.041V376.049ZM171.58 373.541V375.076H172.764V375.914H171.58V379.846C171.58 380.1 171.633 380.291 171.738 380.42C171.844 380.545 172.023 380.607 172.277 380.607C172.402 380.607 172.574 380.584 172.793 380.537V381.416C172.508 381.494 172.23 381.533 171.961 381.533C171.477 381.533 171.111 381.387 170.865 381.094C170.619 380.801 170.496 380.385 170.496 379.846V375.914H169.342V375.076H170.496V373.541H171.58ZM175.213 381.416H174.129V375.076H175.213V381.416ZM174.041 373.395C174.041 373.219 174.094 373.07 174.199 372.949C174.309 372.828 174.469 372.768 174.68 372.768C174.891 372.768 175.051 372.828 175.16 372.949C175.27 373.07 175.324 373.219 175.324 373.395C175.324 373.57 175.27 373.717 175.16 373.834C175.051 373.951 174.891 374.01 174.68 374.01C174.469 374.01 174.309 373.951 174.199 373.834C174.094 373.717 174.041 373.57 174.041 373.395ZM180.645 379.734C180.645 379.441 180.533 379.215 180.311 379.055C180.092 378.891 179.707 378.75 179.156 378.633C178.609 378.516 178.174 378.375 177.85 378.211C177.529 378.047 177.291 377.852 177.135 377.625C176.982 377.398 176.906 377.129 176.906 376.816C176.906 376.297 177.125 375.857 177.562 375.498C178.004 375.139 178.566 374.959 179.25 374.959C179.969 374.959 180.551 375.145 180.996 375.516C181.445 375.887 181.67 376.361 181.67 376.939H180.58C180.58 376.643 180.453 376.387 180.199 376.172C179.949 375.957 179.633 375.85 179.25 375.85C178.855 375.85 178.547 375.936 178.324 376.107C178.102 376.279 177.99 376.504 177.99 376.781C177.99 377.043 178.094 377.24 178.301 377.373C178.508 377.506 178.881 377.633 179.42 377.754C179.963 377.875 180.402 378.02 180.738 378.188C181.074 378.355 181.322 378.559 181.482 378.797C181.646 379.031 181.729 379.318 181.729 379.658C181.729 380.225 181.502 380.68 181.049 381.023C180.596 381.363 180.008 381.533 179.285 381.533C178.777 381.533 178.328 381.443 177.938 381.264C177.547 381.084 177.24 380.834 177.018 380.514C176.799 380.189 176.689 379.84 176.689 379.465H177.773C177.793 379.828 177.938 380.117 178.207 380.332C178.48 380.543 178.84 380.648 179.285 380.648C179.695 380.648 180.023 380.566 180.27 380.402C180.52 380.234 180.645 380.012 180.645 379.734ZM184.611 373.541V375.076H185.795V375.914H184.611V379.846C184.611 380.1 184.664 380.291 184.77 380.42C184.875 380.545 185.055 380.607 185.309 380.607C185.434 380.607 185.605 380.584 185.824 380.537V381.416C185.539 381.494 185.262 381.533 184.992 381.533C184.508 381.533 184.143 381.387 183.896 381.094C183.65 380.801 183.527 380.385 183.527 379.846V375.914H182.373V375.076H183.527V373.541H184.611Z" fill="#FF3E12"/>
<rect x="52.5" y="360.5" width="144.046" height="34.5561" rx="4.01506" stroke="#FF3E12" stroke-dasharray="1.13 1.13"/>
<rect x="52.5039" y="316.5" width="79.1422" height="34.5561" rx="4.01506" fill="#ECECEC"/>
<path d="M75.5107 336.496H79.5537V337.416H74.3799V328.885H75.5107V336.496ZM80.3799 334.188C80.3799 333.566 80.501 333.008 80.7432 332.512C80.9893 332.016 81.3291 331.633 81.7627 331.363C82.2002 331.094 82.6982 330.959 83.2568 330.959C84.1201 330.959 84.8174 331.258 85.3486 331.855C85.8838 332.453 86.1514 333.248 86.1514 334.24V334.316C86.1514 334.934 86.0322 335.488 85.7939 335.98C85.5596 336.469 85.2217 336.85 84.7803 337.123C84.3428 337.396 83.8389 337.533 83.2686 337.533C82.4092 337.533 81.7119 337.234 81.1768 336.637C80.6455 336.039 80.3799 335.248 80.3799 334.264V334.188ZM81.4697 334.316C81.4697 335.02 81.6318 335.584 81.9561 336.01C82.2842 336.436 82.7217 336.648 83.2686 336.648C83.8193 336.648 84.2568 336.434 84.5811 336.004C84.9053 335.57 85.0674 334.965 85.0674 334.188C85.0674 333.492 84.9014 332.93 84.5693 332.5C84.2412 332.066 83.8037 331.85 83.2568 331.85C82.7217 331.85 82.29 332.062 81.9619 332.488C81.6338 332.914 81.4697 333.523 81.4697 334.316ZM88.9814 329.541V331.076H90.165V331.914H88.9814V335.846C88.9814 336.1 89.0342 336.291 89.1396 336.42C89.2451 336.545 89.4248 336.607 89.6787 336.607C89.8037 336.607 89.9756 336.584 90.1943 336.537V337.416C89.9092 337.494 89.6318 337.533 89.3623 337.533C88.8779 337.533 88.5127 337.387 88.2666 337.094C88.0205 336.801 87.8975 336.385 87.8975 335.846V331.914H86.7432V331.076H87.8975V329.541H88.9814ZM92.9072 329.541V331.076H94.0908V331.914H92.9072V335.846C92.9072 336.1 92.96 336.291 93.0654 336.42C93.1709 336.545 93.3506 336.607 93.6045 336.607C93.7295 336.607 93.9014 336.584 94.1201 336.537V337.416C93.835 337.494 93.5576 337.533 93.2881 337.533C92.8037 337.533 92.4385 337.387 92.1924 337.094C91.9463 336.801 91.8232 336.385 91.8232 335.846V331.914H90.6689V331.076H91.8232V329.541H92.9072ZM97.9932 337.533C97.1338 337.533 96.4346 337.252 95.8955 336.689C95.3564 336.123 95.0869 335.367 95.0869 334.422V334.223C95.0869 333.594 95.2061 333.033 95.4443 332.541C95.6865 332.045 96.0225 331.658 96.4521 331.381C96.8857 331.1 97.3545 330.959 97.8584 330.959C98.6826 330.959 99.3232 331.23 99.7803 331.773C100.237 332.316 100.466 333.094 100.466 334.105V334.557H96.1709C96.1865 335.182 96.3682 335.688 96.7158 336.074C97.0674 336.457 97.5127 336.648 98.0518 336.648C98.4346 336.648 98.7588 336.57 99.0244 336.414C99.29 336.258 99.5225 336.051 99.7217 335.793L100.384 336.309C99.8525 337.125 99.0557 337.533 97.9932 337.533ZM97.8584 331.85C97.4209 331.85 97.0537 332.01 96.7568 332.33C96.46 332.646 96.2764 333.092 96.2061 333.666H99.3818V333.584C99.3506 333.033 99.2021 332.607 98.9365 332.307C98.6709 332.002 98.3115 331.85 97.8584 331.85ZM104.79 332.049C104.626 332.021 104.448 332.008 104.257 332.008C103.546 332.008 103.063 332.311 102.81 332.916V337.416H101.726V331.076H102.78L102.798 331.809C103.153 331.242 103.657 330.959 104.31 330.959C104.521 330.959 104.681 330.986 104.79 331.041V332.049ZM107.972 335.828L109.448 331.076H110.608L108.06 338.395C107.665 339.449 107.038 339.977 106.179 339.977L105.974 339.959L105.569 339.883V339.004L105.862 339.027C106.229 339.027 106.515 338.953 106.718 338.805C106.925 338.656 107.095 338.385 107.228 337.99L107.468 337.346L105.206 331.076H106.39L107.972 335.828Z" fill="#FF3E12"/>
<rect x="52.5039" y="316.5" width="79.1422" height="34.5561" rx="4.01506" stroke="#FF3E12" stroke-dasharray="1.13 1.13"/>
<rect x="141.113" y="316.5" width="75.7559" height="34.5561" rx="4.01506" fill="#ECECEC"/>
<path d="M164.794 336.496H168.837V337.416H163.663V328.885H164.794V336.496ZM169.663 334.188C169.663 333.566 169.784 333.008 170.026 332.512C170.272 332.016 170.612 331.633 171.046 331.363C171.483 331.094 171.981 330.959 172.54 330.959C173.403 330.959 174.101 331.258 174.632 331.855C175.167 332.453 175.435 333.248 175.435 334.24V334.316C175.435 334.934 175.315 335.488 175.077 335.98C174.843 336.469 174.505 336.85 174.063 337.123C173.626 337.396 173.122 337.533 172.552 337.533C171.692 337.533 170.995 337.234 170.46 336.637C169.929 336.039 169.663 335.248 169.663 334.264V334.188ZM170.753 334.316C170.753 335.02 170.915 335.584 171.239 336.01C171.567 336.436 172.005 336.648 172.552 336.648C173.103 336.648 173.54 336.434 173.864 336.004C174.188 335.57 174.351 334.965 174.351 334.188C174.351 333.492 174.185 332.93 173.853 332.5C173.524 332.066 173.087 331.85 172.54 331.85C172.005 331.85 171.573 332.062 171.245 332.488C170.917 332.914 170.753 333.523 170.753 334.316ZM180.708 337.416C180.646 337.291 180.595 337.068 180.556 336.748C180.052 337.271 179.45 337.533 178.751 337.533C178.126 337.533 177.612 337.357 177.21 337.006C176.812 336.65 176.612 336.201 176.612 335.658C176.612 334.998 176.862 334.486 177.362 334.123C177.866 333.756 178.573 333.572 179.483 333.572H180.538V333.074C180.538 332.695 180.425 332.395 180.198 332.172C179.972 331.945 179.638 331.832 179.196 331.832C178.81 331.832 178.485 331.93 178.224 332.125C177.962 332.32 177.831 332.557 177.831 332.834H176.741C176.741 332.518 176.853 332.213 177.075 331.92C177.302 331.623 177.606 331.389 177.989 331.217C178.376 331.045 178.8 330.959 179.261 330.959C179.991 330.959 180.563 331.143 180.978 331.51C181.392 331.873 181.606 332.375 181.622 333.016V335.934C181.622 336.516 181.696 336.979 181.845 337.322V337.416H180.708ZM178.909 336.59C179.249 336.59 179.571 336.502 179.876 336.326C180.181 336.15 180.401 335.922 180.538 335.641V334.34H179.688C178.36 334.34 177.696 334.729 177.696 335.506C177.696 335.846 177.81 336.111 178.036 336.303C178.263 336.494 178.554 336.59 178.909 336.59ZM184.347 331.076L184.382 331.873C184.866 331.264 185.499 330.959 186.28 330.959C187.62 330.959 188.296 331.715 188.308 333.227V337.416H187.224V333.221C187.22 332.764 187.114 332.426 186.907 332.207C186.704 331.988 186.386 331.879 185.952 331.879C185.601 331.879 185.292 331.973 185.026 332.16C184.761 332.348 184.554 332.594 184.405 332.898V337.416H183.321V331.076H184.347ZM193.634 335.734C193.634 335.441 193.522 335.215 193.3 335.055C193.081 334.891 192.696 334.75 192.146 334.633C191.599 334.516 191.163 334.375 190.839 334.211C190.519 334.047 190.28 333.852 190.124 333.625C189.972 333.398 189.896 333.129 189.896 332.816C189.896 332.297 190.114 331.857 190.552 331.498C190.993 331.139 191.556 330.959 192.239 330.959C192.958 330.959 193.54 331.145 193.985 331.516C194.435 331.887 194.659 332.361 194.659 332.939H193.569C193.569 332.643 193.442 332.387 193.188 332.172C192.938 331.957 192.622 331.85 192.239 331.85C191.845 331.85 191.536 331.936 191.313 332.107C191.091 332.279 190.979 332.504 190.979 332.781C190.979 333.043 191.083 333.24 191.29 333.373C191.497 333.506 191.87 333.633 192.409 333.754C192.952 333.875 193.392 334.02 193.728 334.188C194.063 334.355 194.312 334.559 194.472 334.797C194.636 335.031 194.718 335.318 194.718 335.658C194.718 336.225 194.491 336.68 194.038 337.023C193.585 337.363 192.997 337.533 192.274 337.533C191.767 337.533 191.317 337.443 190.927 337.264C190.536 337.084 190.229 336.834 190.007 336.514C189.788 336.189 189.679 335.84 189.679 335.465H190.763C190.782 335.828 190.927 336.117 191.196 336.332C191.47 336.543 191.829 336.648 192.274 336.648C192.685 336.648 193.013 336.566 193.259 336.402C193.509 336.234 193.634 336.012 193.634 335.734Z" fill="#FF3E12"/>
<rect x="141.113" y="316.5" width="75.7559" height="34.5561" rx="4.01506" stroke="#FF3E12" stroke-dasharray="1.13 1.13"/>
<rect x="226.338" y="316.5" width="78.0135" height="34.5561" rx="4.01506" fill="#ECECEC"/>
<path d="M253.409 335.473H249.712V338.496H254.007V339.416H248.587V330.885H253.948V331.811H249.712V334.553H253.409V335.473ZM257.177 337.945L258.747 333.076H259.854L257.581 339.416H256.755L254.458 333.076H255.565L257.177 337.945ZM263.446 339.533C262.587 339.533 261.888 339.252 261.349 338.689C260.81 338.123 260.54 337.367 260.54 336.422V336.223C260.54 335.594 260.659 335.033 260.897 334.541C261.14 334.045 261.476 333.658 261.905 333.381C262.339 333.1 262.808 332.959 263.312 332.959C264.136 332.959 264.776 333.23 265.233 333.773C265.69 334.316 265.919 335.094 265.919 336.105V336.557H261.624C261.64 337.182 261.821 337.688 262.169 338.074C262.521 338.457 262.966 338.648 263.505 338.648C263.888 338.648 264.212 338.57 264.478 338.414C264.743 338.258 264.976 338.051 265.175 337.793L265.837 338.309C265.306 339.125 264.509 339.533 263.446 339.533ZM263.312 333.85C262.874 333.85 262.507 334.01 262.21 334.33C261.913 334.646 261.729 335.092 261.659 335.666H264.835V335.584C264.804 335.033 264.655 334.607 264.39 334.307C264.124 334.002 263.765 333.85 263.312 333.85ZM268.204 333.076L268.239 333.873C268.724 333.264 269.356 332.959 270.138 332.959C271.478 332.959 272.153 333.715 272.165 335.227V339.416H271.081V335.221C271.077 334.764 270.972 334.426 270.765 334.207C270.562 333.988 270.243 333.879 269.81 333.879C269.458 333.879 269.149 333.973 268.884 334.16C268.618 334.348 268.411 334.594 268.263 334.898V339.416H267.179V333.076H268.204ZM275.271 331.541V333.076H276.454V333.914H275.271V337.846C275.271 338.1 275.323 338.291 275.429 338.42C275.534 338.545 275.714 338.607 275.968 338.607C276.093 338.607 276.265 338.584 276.483 338.537V339.416C276.198 339.494 275.921 339.533 275.651 339.533C275.167 339.533 274.802 339.387 274.556 339.094C274.31 338.801 274.187 338.385 274.187 337.846V333.914H273.032V333.076H274.187V331.541H275.271ZM281.417 337.734C281.417 337.441 281.306 337.215 281.083 337.055C280.864 336.891 280.479 336.75 279.929 336.633C279.382 336.516 278.946 336.375 278.622 336.211C278.302 336.047 278.063 335.852 277.907 335.625C277.755 335.398 277.679 335.129 277.679 334.816C277.679 334.297 277.897 333.857 278.335 333.498C278.776 333.139 279.339 332.959 280.022 332.959C280.741 332.959 281.323 333.145 281.769 333.516C282.218 333.887 282.442 334.361 282.442 334.939H281.353C281.353 334.643 281.226 334.387 280.972 334.172C280.722 333.957 280.405 333.85 280.022 333.85C279.628 333.85 279.319 333.936 279.097 334.107C278.874 334.279 278.763 334.504 278.763 334.781C278.763 335.043 278.866 335.24 279.073 335.373C279.28 335.506 279.653 335.633 280.192 335.754C280.735 335.875 281.175 336.02 281.511 336.188C281.847 336.355 282.095 336.559 282.255 336.797C282.419 337.031 282.501 337.318 282.501 337.658C282.501 338.225 282.274 338.68 281.821 339.023C281.368 339.363 280.78 339.533 280.058 339.533C279.55 339.533 279.101 339.443 278.71 339.264C278.319 339.084 278.013 338.834 277.79 338.514C277.571 338.189 277.462 337.84 277.462 337.465H278.546C278.565 337.828 278.71 338.117 278.979 338.332C279.253 338.543 279.612 338.648 280.058 338.648C280.468 338.648 280.796 338.566 281.042 338.402C281.292 338.234 281.417 338.012 281.417 337.734Z" fill="#FF3E12"/>
<rect x="226.338" y="316.5" width="78.0135" height="34.5561" rx="4.01506" stroke="#FF3E12" stroke-dasharray="1.13 1.13"/>
<rect x="154.089" y="272.5" width="115.263" height="34.5561" rx="4.01506" fill="#ECECEC"/>
<path d="M171.325 291.076V294.416H170.2V285.885H173.347C174.28 285.885 175.011 286.123 175.538 286.6C176.069 287.076 176.335 287.707 176.335 288.492C176.335 289.32 176.075 289.959 175.556 290.408C175.04 290.854 174.3 291.076 173.335 291.076H171.325ZM171.325 290.156H173.347C173.948 290.156 174.409 290.016 174.729 289.734C175.05 289.449 175.21 289.039 175.21 288.504C175.21 287.996 175.05 287.59 174.729 287.285C174.409 286.98 173.97 286.822 173.411 286.811H171.325V290.156ZM178.685 288.844C179.165 288.254 179.79 287.959 180.56 287.959C181.899 287.959 182.575 288.715 182.587 290.227V294.416H181.503V290.221C181.499 289.764 181.394 289.426 181.187 289.207C180.983 288.988 180.665 288.879 180.231 288.879C179.88 288.879 179.571 288.973 179.306 289.16C179.04 289.348 178.833 289.594 178.685 289.898V294.416H177.601V285.416H178.685V288.844ZM186.284 292.828L187.761 288.076H188.921L186.372 295.395C185.978 296.449 185.351 296.977 184.491 296.977L184.286 296.959L183.882 296.883V296.004L184.175 296.027C184.542 296.027 184.827 295.953 185.03 295.805C185.237 295.656 185.407 295.385 185.54 294.99L185.78 294.346L183.519 288.076H184.702L186.284 292.828ZM193.585 292.734C193.585 292.441 193.474 292.215 193.251 292.055C193.032 291.891 192.647 291.75 192.097 291.633C191.55 291.516 191.114 291.375 190.79 291.211C190.47 291.047 190.231 290.852 190.075 290.625C189.923 290.398 189.847 290.129 189.847 289.816C189.847 289.297 190.065 288.857 190.503 288.498C190.944 288.139 191.507 287.959 192.19 287.959C192.909 287.959 193.491 288.145 193.937 288.516C194.386 288.887 194.61 289.361 194.61 289.939H193.521C193.521 289.643 193.394 289.387 193.14 289.172C192.89 288.957 192.573 288.85 192.19 288.85C191.796 288.85 191.487 288.936 191.265 289.107C191.042 289.279 190.931 289.504 190.931 289.781C190.931 290.043 191.034 290.24 191.241 290.373C191.448 290.506 191.821 290.633 192.36 290.754C192.903 290.875 193.343 291.02 193.679 291.188C194.015 291.355 194.263 291.559 194.423 291.797C194.587 292.031 194.669 292.318 194.669 292.658C194.669 293.225 194.442 293.68 193.989 294.023C193.536 294.363 192.948 294.533 192.226 294.533C191.718 294.533 191.269 294.443 190.878 294.264C190.487 294.084 190.181 293.834 189.958 293.514C189.739 293.189 189.63 292.84 189.63 292.465H190.714C190.733 292.828 190.878 293.117 191.147 293.332C191.421 293.543 191.78 293.648 192.226 293.648C192.636 293.648 192.964 293.566 193.21 293.402C193.46 293.234 193.585 293.012 193.585 292.734ZM197.259 294.416H196.175V288.076H197.259V294.416ZM196.087 286.395C196.087 286.219 196.14 286.07 196.245 285.949C196.354 285.828 196.515 285.768 196.726 285.768C196.937 285.768 197.097 285.828 197.206 285.949C197.315 286.07 197.37 286.219 197.37 286.395C197.37 286.57 197.315 286.717 197.206 286.834C197.097 286.951 196.937 287.01 196.726 287.01C196.515 287.01 196.354 286.951 196.245 286.834C196.14 286.717 196.087 286.57 196.087 286.395ZM201.542 293.648C201.929 293.648 202.267 293.531 202.556 293.297C202.845 293.062 203.005 292.77 203.036 292.418H204.062C204.042 292.781 203.917 293.127 203.687 293.455C203.456 293.783 203.147 294.045 202.761 294.24C202.378 294.436 201.972 294.533 201.542 294.533C200.679 294.533 199.991 294.246 199.479 293.672C198.972 293.094 198.718 292.305 198.718 291.305V291.123C198.718 290.506 198.831 289.957 199.058 289.477C199.284 288.996 199.608 288.623 200.03 288.357C200.456 288.092 200.958 287.959 201.536 287.959C202.247 287.959 202.837 288.172 203.306 288.598C203.778 289.023 204.03 289.576 204.062 290.256H203.036C203.005 289.846 202.849 289.51 202.567 289.248C202.29 288.982 201.946 288.85 201.536 288.85C200.985 288.85 200.558 289.049 200.253 289.447C199.952 289.842 199.802 290.414 199.802 291.164V291.369C199.802 292.1 199.952 292.662 200.253 293.057C200.554 293.451 200.983 293.648 201.542 293.648ZM209.88 285.885L212.669 292.846L215.458 285.885H216.917V294.416H215.792V291.094L215.897 287.508L213.097 294.416H212.235L209.44 287.525L209.552 291.094V294.416H208.427V285.885H209.88ZM222.647 293.789C222.226 294.285 221.606 294.533 220.79 294.533C220.114 294.533 219.599 294.338 219.243 293.947C218.892 293.553 218.714 292.971 218.71 292.201V288.076H219.794V292.172C219.794 293.133 220.185 293.613 220.966 293.613C221.794 293.613 222.345 293.305 222.618 292.688V288.076H223.702V294.416H222.671L222.647 293.789ZM229.046 292.734C229.046 292.441 228.935 292.215 228.712 292.055C228.493 291.891 228.108 291.75 227.558 291.633C227.011 291.516 226.575 291.375 226.251 291.211C225.931 291.047 225.692 290.852 225.536 290.625C225.384 290.398 225.308 290.129 225.308 289.816C225.308 289.297 225.526 288.857 225.964 288.498C226.405 288.139 226.968 287.959 227.651 287.959C228.37 287.959 228.952 288.145 229.397 288.516C229.847 288.887 230.071 289.361 230.071 289.939H228.981C228.981 289.643 228.854 289.387 228.601 289.172C228.351 288.957 228.034 288.85 227.651 288.85C227.257 288.85 226.948 288.936 226.726 289.107C226.503 289.279 226.392 289.504 226.392 289.781C226.392 290.043 226.495 290.24 226.702 290.373C226.909 290.506 227.282 290.633 227.821 290.754C228.364 290.875 228.804 291.02 229.14 291.188C229.476 291.355 229.724 291.559 229.884 291.797C230.048 292.031 230.13 292.318 230.13 292.658C230.13 293.225 229.903 293.68 229.45 294.023C228.997 294.363 228.409 294.533 227.687 294.533C227.179 294.533 226.729 294.443 226.339 294.264C225.948 294.084 225.642 293.834 225.419 293.514C225.2 293.189 225.091 292.84 225.091 292.465H226.175C226.194 292.828 226.339 293.117 226.608 293.332C226.882 293.543 227.241 293.648 227.687 293.648C228.097 293.648 228.425 293.566 228.671 293.402C228.921 293.234 229.046 293.012 229.046 292.734ZM234.173 294.533C233.313 294.533 232.614 294.252 232.075 293.689C231.536 293.123 231.267 292.367 231.267 291.422V291.223C231.267 290.594 231.386 290.033 231.624 289.541C231.866 289.045 232.202 288.658 232.632 288.381C233.065 288.1 233.534 287.959 234.038 287.959C234.862 287.959 235.503 288.23 235.96 288.773C236.417 289.316 236.646 290.094 236.646 291.105V291.557H232.351C232.366 292.182 232.548 292.688 232.896 293.074C233.247 293.457 233.692 293.648 234.231 293.648C234.614 293.648 234.938 293.57 235.204 293.414C235.47 293.258 235.702 293.051 235.901 292.793L236.563 293.309C236.032 294.125 235.235 294.533 234.173 294.533ZM234.038 288.85C233.601 288.85 233.233 289.01 232.937 289.33C232.64 289.646 232.456 290.092 232.386 290.666H235.562V290.584C235.53 290.033 235.382 289.607 235.116 289.307C234.851 289.002 234.491 288.85 234.038 288.85ZM241.819 293.789C241.397 294.285 240.778 294.533 239.962 294.533C239.286 294.533 238.771 294.338 238.415 293.947C238.063 293.553 237.886 292.971 237.882 292.201V288.076H238.966V292.172C238.966 293.133 239.356 293.613 240.138 293.613C240.966 293.613 241.517 293.305 241.79 292.688V288.076H242.874V294.416H241.843L241.819 293.789ZM245.546 288.076L245.575 288.779C246.04 288.232 246.667 287.959 247.456 287.959C248.343 287.959 248.946 288.299 249.267 288.979C249.478 288.674 249.751 288.428 250.087 288.24C250.427 288.053 250.827 287.959 251.288 287.959C252.679 287.959 253.386 288.695 253.409 290.168V294.416H252.325V290.232C252.325 289.779 252.222 289.441 252.015 289.219C251.808 288.992 251.46 288.879 250.972 288.879C250.569 288.879 250.235 289 249.97 289.242C249.704 289.48 249.55 289.803 249.507 290.209V294.416H248.417V290.262C248.417 289.34 247.966 288.879 247.063 288.879C246.353 288.879 245.866 289.182 245.604 289.787V294.416H244.521V288.076H245.546Z" fill="#FF3E12"/>
<rect x="154.089" y="272.5" width="115.263" height="34.5561" rx="4.01506" stroke="#FF3E12" stroke-dasharray="1.13 1.13"/>
</svg>
