<svg width="1157" height="415" viewBox="0 0 1157 415" fill="none" xmlns="http://www.w3.org/2000/svg">
<path d="M339 7.99995L339.001 394C339.001 405.046 347.956 414 359.001 414L720 414C731.046 414 740 405.046 740 394L740 379.507" stroke="#FF3E12" stroke-width="2"/>
<path d="M730 388.5L740.052 378L749.574 388.5" stroke="#FF3E12" stroke-width="2" stroke-linecap="round" stroke-linejoin="round"/>
<rect x="0.5" y="0.5" width="206" height="62" rx="7.5" fill="#ECECEC"/>
<path d="M50.8047 31.9297C49.5182 31.5599 48.5807 31.1068 47.9922 30.5703C47.4089 30.0286 47.1172 29.362 47.1172 28.5703C47.1172 27.6745 47.474 26.9349 48.1875 26.3516C48.9062 25.763 49.8385 25.4688 50.9844 25.4688C51.7656 25.4688 52.4609 25.6198 53.0703 25.9219C53.6849 26.224 54.1589 26.6406 54.4922 27.1719C54.8307 27.7031 55 28.2839 55 28.9141H53.4922C53.4922 28.2266 53.2734 27.6875 52.8359 27.2969C52.3984 26.901 51.7812 26.7031 50.9844 26.7031C50.2448 26.7031 49.6667 26.8672 49.25 27.1953C48.8385 27.5182 48.6328 27.9688 48.6328 28.5469C48.6328 29.0104 48.8281 29.4036 49.2188 29.7266C49.6146 30.0443 50.2839 30.3359 51.2266 30.6016C52.1745 30.8672 52.9141 31.1615 53.4453 31.4844C53.9818 31.8021 54.3776 32.1745 54.6328 32.6016C54.8932 33.0286 55.0234 33.5312 55.0234 34.1094C55.0234 35.0312 54.6641 35.7708 53.9453 36.3281C53.2266 36.8802 52.2656 37.1562 51.0625 37.1562C50.2812 37.1562 49.5521 37.0078 48.875 36.7109C48.1979 36.4089 47.6745 35.9974 47.3047 35.4766C46.9401 34.9557 46.7578 34.3646 46.7578 33.7031H48.2656C48.2656 34.3906 48.5182 34.9349 49.0234 35.3359C49.5339 35.7318 50.2135 35.9297 51.0625 35.9297C51.8542 35.9297 52.4609 35.7682 52.8828 35.4453C53.3047 35.1224 53.5156 34.6823 53.5156 34.125C53.5156 33.5677 53.3203 33.138 52.9297 32.8359C52.5391 32.5286 51.8307 32.2266 50.8047 31.9297ZM61.9453 36.1641C61.3828 36.8255 60.5573 37.1562 59.4688 37.1562C58.5677 37.1562 57.8802 36.8958 57.4062 36.375C56.9375 35.849 56.7005 35.0729 56.6953 34.0469V28.5469H58.1406V34.0078C58.1406 35.2891 58.6615 35.9297 59.7031 35.9297C60.8073 35.9297 61.5417 35.5182 61.9062 34.6953V28.5469H63.3516V37H61.9766L61.9453 36.1641ZM70.4766 34.7578C70.4766 34.3672 70.3281 34.0651 70.0312 33.8516C69.7396 33.6328 69.2266 33.4453 68.4922 33.2891C67.763 33.1328 67.1823 32.9453 66.75 32.7266C66.3229 32.5078 66.0052 32.2474 65.7969 31.9453C65.5938 31.6432 65.4922 31.2839 65.4922 30.8672C65.4922 30.1745 65.7839 29.5885 66.3672 29.1094C66.9557 28.6302 67.7057 28.3906 68.6172 28.3906C69.5755 28.3906 70.3516 28.638 70.9453 29.1328C71.5443 29.6276 71.8438 30.2604 71.8438 31.0312H70.3906C70.3906 30.6354 70.2214 30.2943 69.8828 30.0078C69.5495 29.7214 69.1276 29.5781 68.6172 29.5781C68.0911 29.5781 67.6797 29.6927 67.3828 29.9219C67.0859 30.151 66.9375 30.4505 66.9375 30.8203C66.9375 31.1693 67.0755 31.4323 67.3516 31.6094C67.6276 31.7865 68.125 31.9557 68.8438 32.1172C69.5677 32.2786 70.1536 32.4714 70.6016 32.6953C71.0495 32.9193 71.3802 33.1901 71.5938 33.5078C71.8125 33.8203 71.9219 34.2031 71.9219 34.6562C71.9219 35.4115 71.6198 36.0182 71.0156 36.4766C70.4115 36.9297 69.6276 37.1562 68.6641 37.1562C67.987 37.1562 67.388 37.0365 66.8672 36.7969C66.3464 36.5573 65.9375 36.224 65.6406 35.7969C65.349 35.3646 65.2031 34.8984 65.2031 34.3984H66.6484C66.6745 34.8828 66.8672 35.2682 67.2266 35.5547C67.5911 35.8359 68.0703 35.9766 68.6641 35.9766C69.2109 35.9766 69.6484 35.8672 69.9766 35.6484C70.3099 35.4245 70.4766 35.1276 70.4766 34.7578ZM80.9453 32.8672C80.9453 34.1536 80.651 35.1901 80.0625 35.9766C79.474 36.763 78.6771 37.1562 77.6719 37.1562C76.6458 37.1562 75.8385 36.8307 75.25 36.1797V40.25H73.8047V28.5469H75.125L75.1953 29.4844C75.7839 28.7552 76.6016 28.3906 77.6484 28.3906C78.6641 28.3906 79.4661 28.7734 80.0547 29.5391C80.6484 30.3047 80.9453 31.3698 80.9453 32.7344V32.8672ZM79.5 32.7031C79.5 31.75 79.2969 30.9974 78.8906 30.4453C78.4844 29.8932 77.9271 29.6172 77.2188 29.6172C76.3438 29.6172 75.6875 30.0052 75.25 30.7812V34.8203C75.6823 35.5911 76.3438 35.9766 77.2344 35.9766C77.9271 35.9766 78.4766 35.7031 78.8828 35.1562C79.2943 34.6042 79.5 33.7865 79.5 32.7031ZM86.2969 37.1562C85.151 37.1562 84.2188 36.7812 83.5 36.0312C82.7812 35.276 82.4219 34.2682 82.4219 33.0078V32.7422C82.4219 31.9036 82.5807 31.1562 82.8984 30.5C83.2214 29.8385 83.6693 29.3229 84.2422 28.9531C84.8203 28.5781 85.4453 28.3906 86.1172 28.3906C87.2161 28.3906 88.0703 28.7526 88.6797 29.4766C89.2891 30.2005 89.5938 31.237 89.5938 32.5859V33.1875H83.8672C83.888 34.0208 84.1302 34.6953 84.5938 35.2109C85.0625 35.7214 85.6562 35.9766 86.375 35.9766C86.8854 35.9766 87.3177 35.8724 87.6719 35.6641C88.026 35.4557 88.3359 35.1797 88.6016 34.8359L89.4844 35.5234C88.776 36.612 87.7135 37.1562 86.2969 37.1562ZM86.1172 29.5781C85.5339 29.5781 85.0443 29.7917 84.6484 30.2188C84.2526 30.6406 84.0078 31.2344 83.9141 32H88.1484V31.8906C88.1068 31.1562 87.9089 30.5885 87.5547 30.1875C87.2005 29.7812 86.7214 29.5781 86.1172 29.5781ZM92.6406 28.5469L92.6875 29.6094C93.3333 28.7969 94.1771 28.3906 95.2188 28.3906C97.0052 28.3906 97.9062 29.3984 97.9219 31.4141V37H96.4766V31.4062C96.4714 30.7969 96.3307 30.3464 96.0547 30.0547C95.7839 29.763 95.3594 29.6172 94.7812 29.6172C94.3125 29.6172 93.901 29.7422 93.5469 29.9922C93.1927 30.2422 92.9167 30.5703 92.7188 30.9766V37H91.2734V28.5469H92.6406ZM99.75 32.7031C99.75 31.4062 100.057 30.3646 100.672 29.5781C101.286 28.7865 102.091 28.3906 103.086 28.3906C104.076 28.3906 104.859 28.7292 105.438 29.4062V25H106.883V37H105.555L105.484 36.0938C104.906 36.8021 104.102 37.1562 103.07 37.1562C102.091 37.1562 101.292 36.7552 100.672 35.9531C100.057 35.151 99.75 34.1042 99.75 32.8125V32.7031ZM101.195 32.8672C101.195 33.8255 101.393 34.5755 101.789 35.1172C102.185 35.6589 102.732 35.9297 103.43 35.9297C104.346 35.9297 105.016 35.5182 105.438 34.6953V30.8125C105.005 30.0156 104.341 29.6172 103.445 29.6172C102.737 29.6172 102.185 29.8906 101.789 30.4375C101.393 30.9844 101.195 31.7943 101.195 32.8672ZM112.641 37.1562C111.495 37.1562 110.562 36.7812 109.844 36.0312C109.125 35.276 108.766 34.2682 108.766 33.0078V32.7422C108.766 31.9036 108.924 31.1562 109.242 30.5C109.565 29.8385 110.013 29.3229 110.586 28.9531C111.164 28.5781 111.789 28.3906 112.461 28.3906C113.56 28.3906 114.414 28.7526 115.023 29.4766C115.633 30.2005 115.938 31.237 115.938 32.5859V33.1875H110.211C110.232 34.0208 110.474 34.6953 110.938 35.2109C111.406 35.7214 112 35.9766 112.719 35.9766C113.229 35.9766 113.661 35.8724 114.016 35.6641C114.37 35.4557 114.68 35.1797 114.945 34.8359L115.828 35.5234C115.12 36.612 114.057 37.1562 112.641 37.1562ZM112.461 29.5781C111.878 29.5781 111.388 29.7917 110.992 30.2188C110.596 30.6406 110.352 31.2344 110.258 32H114.492V31.8906C114.451 31.1562 114.253 30.5885 113.898 30.1875C113.544 29.7812 113.065 29.5781 112.461 29.5781ZM117.266 32.7031C117.266 31.4062 117.573 30.3646 118.188 29.5781C118.802 28.7865 119.607 28.3906 120.602 28.3906C121.591 28.3906 122.375 28.7292 122.953 29.4062V25H124.398V37H123.07L123 36.0938C122.422 36.8021 121.617 37.1562 120.586 37.1562C119.607 37.1562 118.807 36.7552 118.188 35.9531C117.573 35.151 117.266 34.1042 117.266 32.8125V32.7031ZM118.711 32.8672C118.711 33.8255 118.909 34.5755 119.305 35.1172C119.701 35.6589 120.247 35.9297 120.945 35.9297C121.862 35.9297 122.531 35.5182 122.953 34.6953V30.8125C122.521 30.0156 121.857 29.6172 120.961 29.6172C120.253 29.6172 119.701 29.8906 119.305 30.4375C118.909 30.9844 118.711 31.7943 118.711 32.8672ZM134.195 31.9297C132.909 31.5599 131.971 31.1068 131.383 30.5703C130.799 30.0286 130.508 29.362 130.508 28.5703C130.508 27.6745 130.865 26.9349 131.578 26.3516C132.297 25.763 133.229 25.4688 134.375 25.4688C135.156 25.4688 135.852 25.6198 136.461 25.9219C137.076 26.224 137.549 26.6406 137.883 27.1719C138.221 27.7031 138.391 28.2839 138.391 28.9141H136.883C136.883 28.2266 136.664 27.6875 136.227 27.2969C135.789 26.901 135.172 26.7031 134.375 26.7031C133.635 26.7031 133.057 26.8672 132.641 27.1953C132.229 27.5182 132.023 27.9688 132.023 28.5469C132.023 29.0104 132.219 29.4036 132.609 29.7266C133.005 30.0443 133.674 30.3359 134.617 30.6016C135.565 30.8672 136.305 31.1615 136.836 31.4844C137.372 31.8021 137.768 32.1745 138.023 32.6016C138.284 33.0286 138.414 33.5312 138.414 34.1094C138.414 35.0312 138.055 35.7708 137.336 36.3281C136.617 36.8802 135.656 37.1562 134.453 37.1562C133.672 37.1562 132.943 37.0078 132.266 36.7109C131.589 36.4089 131.065 35.9974 130.695 35.4766C130.331 34.9557 130.148 34.3646 130.148 33.7031H131.656C131.656 34.3906 131.909 34.9349 132.414 35.3359C132.924 35.7318 133.604 35.9297 134.453 35.9297C135.245 35.9297 135.852 35.7682 136.273 35.4453C136.695 35.1224 136.906 34.6823 136.906 34.125C136.906 33.5677 136.711 33.138 136.32 32.8359C135.93 32.5286 135.221 32.2266 134.195 31.9297ZM139.734 32.6953C139.734 31.8672 139.896 31.1224 140.219 30.4609C140.547 29.7995 141 29.2891 141.578 28.9297C142.161 28.5703 142.826 28.3906 143.57 28.3906C144.721 28.3906 145.651 28.7891 146.359 29.5859C147.073 30.3828 147.43 31.4427 147.43 32.7656V32.8672C147.43 33.6901 147.271 34.4297 146.953 35.0859C146.641 35.737 146.19 36.2448 145.602 36.6094C145.018 36.974 144.346 37.1562 143.586 37.1562C142.44 37.1562 141.51 36.7578 140.797 35.9609C140.089 35.1641 139.734 34.1094 139.734 32.7969V32.6953ZM141.188 32.8672C141.188 33.8047 141.404 34.5573 141.836 35.125C142.273 35.6927 142.857 35.9766 143.586 35.9766C144.32 35.9766 144.904 35.6901 145.336 35.1172C145.768 34.5391 145.984 33.7318 145.984 32.6953C145.984 31.7682 145.763 31.0182 145.32 30.4453C144.883 29.8672 144.299 29.5781 143.57 29.5781C142.857 29.5781 142.281 29.862 141.844 30.4297C141.406 30.9974 141.188 31.8099 141.188 32.8672ZM154.461 36.1641C153.898 36.8255 153.073 37.1562 151.984 37.1562C151.083 37.1562 150.396 36.8958 149.922 36.375C149.453 35.849 149.216 35.0729 149.211 34.0469V28.5469H150.656V34.0078C150.656 35.2891 151.177 35.9297 152.219 35.9297C153.323 35.9297 154.057 35.5182 154.422 34.6953V28.5469H155.867V37H154.492L154.461 36.1641ZM159.641 37H158.195V25H159.641V37Z" fill="#FF3E12"/>
<rect x="0.5" y="0.5" width="206" height="62" rx="7.5" stroke="#FF3E12"/>
<rect x="262.5" y="4.49805" width="152" height="55" rx="27.5" fill="#ECECEC"/>
<path d="M316.96 24.6025H312.783V28.998H311.471V19.0449H317.637V20.125H312.783V23.5293H316.96V24.6025ZM321.93 29.1348C320.927 29.1348 320.111 28.8066 319.482 28.1504C318.854 27.4896 318.539 26.6077 318.539 25.5049V25.2725C318.539 24.5387 318.678 23.8848 318.956 23.3105C319.239 22.7318 319.631 22.2806 320.132 21.957C320.638 21.6289 321.185 21.4648 321.772 21.4648C322.734 21.4648 323.481 21.7816 324.015 22.415C324.548 23.0485 324.814 23.9554 324.814 25.1357V25.6621H319.804C319.822 26.3913 320.034 26.9814 320.439 27.4326C320.85 27.8792 321.369 28.1025 321.998 28.1025C322.445 28.1025 322.823 28.0114 323.133 27.8291C323.443 27.6468 323.714 27.4053 323.946 27.1045L324.719 27.7061C324.099 28.6585 323.169 29.1348 321.93 29.1348ZM321.772 22.5039C321.262 22.5039 320.834 22.6908 320.487 23.0645C320.141 23.4336 319.927 23.9531 319.845 24.623H323.55V24.5273C323.513 23.8848 323.34 23.388 323.03 23.0371C322.72 22.6816 322.301 22.5039 321.772 22.5039ZM329.354 29.1348C328.351 29.1348 327.535 28.8066 326.906 28.1504C326.277 27.4896 325.963 26.6077 325.963 25.5049V25.2725C325.963 24.5387 326.102 23.8848 326.38 23.3105C326.662 22.7318 327.054 22.2806 327.556 21.957C328.062 21.6289 328.608 21.4648 329.196 21.4648C330.158 21.4648 330.905 21.7816 331.438 22.415C331.972 23.0485 332.238 23.9554 332.238 25.1357V25.6621H327.228C327.246 26.3913 327.458 26.9814 327.863 27.4326C328.273 27.8792 328.793 28.1025 329.422 28.1025C329.868 28.1025 330.247 28.0114 330.557 27.8291C330.867 27.6468 331.138 27.4053 331.37 27.1045L332.143 27.7061C331.523 28.6585 330.593 29.1348 329.354 29.1348ZM329.196 22.5039C328.686 22.5039 328.257 22.6908 327.911 23.0645C327.565 23.4336 327.351 23.9531 327.269 24.623H330.974V24.5273C330.937 23.8848 330.764 23.388 330.454 23.0371C330.144 22.6816 329.725 22.5039 329.196 22.5039ZM338.015 27.0361C338.015 26.6943 337.885 26.43 337.625 26.2432C337.37 26.0518 336.921 25.8877 336.278 25.751C335.64 25.6143 335.132 25.4502 334.754 25.2588C334.38 25.0674 334.102 24.8395 333.92 24.5752C333.742 24.3109 333.653 23.9964 333.653 23.6318C333.653 23.0257 333.909 22.513 334.419 22.0938C334.934 21.6745 335.59 21.4648 336.388 21.4648C337.226 21.4648 337.905 21.6813 338.425 22.1143C338.949 22.5472 339.211 23.1009 339.211 23.7754H337.939C337.939 23.429 337.791 23.1305 337.495 22.8799C337.203 22.6292 336.834 22.5039 336.388 22.5039C335.927 22.5039 335.567 22.6042 335.308 22.8047C335.048 23.0052 334.918 23.2673 334.918 23.5908C334.918 23.8962 335.039 24.1263 335.28 24.2812C335.522 24.4362 335.957 24.5843 336.586 24.7256C337.219 24.8669 337.732 25.0355 338.124 25.2314C338.516 25.4274 338.805 25.6644 338.992 25.9424C339.184 26.2158 339.279 26.5508 339.279 26.9473C339.279 27.6081 339.015 28.139 338.486 28.54C337.958 28.9365 337.272 29.1348 336.429 29.1348C335.836 29.1348 335.312 29.0299 334.856 28.8203C334.401 28.6107 334.043 28.319 333.783 27.9453C333.528 27.5671 333.4 27.1592 333.4 26.7217H334.665C334.688 27.1455 334.856 27.4827 335.171 27.7334C335.49 27.9795 335.909 28.1025 336.429 28.1025C336.907 28.1025 337.29 28.0068 337.577 27.8154C337.869 27.6195 338.015 27.3597 338.015 27.0361ZM348.966 28.998C348.893 28.8522 348.834 28.5924 348.788 28.2188C348.2 28.8294 347.498 29.1348 346.683 29.1348C345.953 29.1348 345.354 28.9297 344.885 28.5195C344.42 28.1048 344.188 27.5807 344.188 26.9473C344.188 26.1771 344.479 25.5801 345.062 25.1562C345.65 24.7279 346.475 24.5137 347.537 24.5137H348.768V23.9326C348.768 23.4906 348.635 23.1396 348.371 22.8799C348.107 22.6156 347.717 22.4834 347.202 22.4834C346.751 22.4834 346.373 22.5973 346.067 22.8252C345.762 23.0531 345.609 23.3288 345.609 23.6523H344.338C344.338 23.2832 344.468 22.9277 344.728 22.5859C344.992 22.2396 345.347 21.9661 345.794 21.7656C346.245 21.5651 346.74 21.4648 347.277 21.4648C348.13 21.4648 348.797 21.679 349.28 22.1074C349.763 22.5312 350.014 23.1169 350.032 23.8643V27.2686C350.032 27.9476 350.119 28.4876 350.292 28.8887V28.998H348.966ZM346.867 28.0342C347.264 28.0342 347.64 27.9316 347.995 27.7266C348.351 27.5215 348.608 27.2549 348.768 26.9268V25.4092H347.776C346.227 25.4092 345.452 25.8626 345.452 26.7695C345.452 27.166 345.584 27.4759 345.849 27.6992C346.113 27.9225 346.452 28.0342 346.867 28.0342ZM353.211 21.6016L353.252 22.5312C353.817 21.8203 354.555 21.4648 355.467 21.4648C357.03 21.4648 357.818 22.3467 357.832 24.1104V28.998H356.567V24.1035C356.563 23.5703 356.44 23.1761 356.198 22.9209C355.961 22.6657 355.59 22.5381 355.084 22.5381C354.674 22.5381 354.314 22.6475 354.004 22.8662C353.694 23.085 353.452 23.3721 353.279 23.7275V28.998H352.015V21.6016H353.211ZM359.432 25.2383C359.432 24.1035 359.701 23.1921 360.238 22.5039C360.776 21.8112 361.48 21.4648 362.351 21.4648C363.216 21.4648 363.902 21.7611 364.408 22.3535V18.498H365.673V28.998H364.511L364.449 28.2051C363.943 28.8249 363.239 29.1348 362.337 29.1348C361.48 29.1348 360.781 28.7839 360.238 28.082C359.701 27.3802 359.432 26.4642 359.432 25.334V25.2383ZM360.696 25.3818C360.696 26.2204 360.869 26.8766 361.216 27.3506C361.562 27.8245 362.041 28.0615 362.651 28.0615C363.453 28.0615 364.039 27.7015 364.408 26.9814V23.584C364.03 22.8867 363.449 22.5381 362.665 22.5381C362.045 22.5381 361.562 22.7773 361.216 23.2559C360.869 23.7344 360.696 24.443 360.696 25.3818ZM300.403 44.1025C300.854 44.1025 301.249 43.9658 301.586 43.6924C301.923 43.4189 302.11 43.0771 302.146 42.667H303.343C303.32 43.0908 303.174 43.4941 302.905 43.877C302.636 44.2598 302.276 44.5651 301.825 44.793C301.379 45.0208 300.905 45.1348 300.403 45.1348C299.396 45.1348 298.594 44.7998 297.997 44.1299C297.405 43.4554 297.108 42.5348 297.108 41.3682V41.1562C297.108 40.4362 297.241 39.7959 297.505 39.2354C297.769 38.6748 298.147 38.2396 298.64 37.9297C299.136 37.6198 299.722 37.4648 300.396 37.4648C301.226 37.4648 301.914 37.7132 302.461 38.21C303.012 38.7067 303.306 39.3516 303.343 40.1445H302.146C302.11 39.666 301.928 39.2741 301.6 38.9688C301.276 38.6589 300.875 38.5039 300.396 38.5039C299.754 38.5039 299.255 38.7363 298.899 39.2012C298.549 39.6615 298.373 40.3291 298.373 41.2041V41.4434C298.373 42.2956 298.549 42.9518 298.899 43.4121C299.25 43.8724 299.752 44.1025 300.403 44.1025ZM304.43 41.2314C304.43 40.5068 304.571 39.8551 304.854 39.2764C305.141 38.6976 305.537 38.251 306.043 37.9365C306.553 37.6221 307.134 37.4648 307.786 37.4648C308.793 37.4648 309.607 37.8135 310.227 38.5107C310.851 39.208 311.163 40.1354 311.163 41.293V41.3818C311.163 42.1019 311.024 42.749 310.746 43.3232C310.473 43.8929 310.078 44.3372 309.563 44.6562C309.053 44.9753 308.465 45.1348 307.8 45.1348C306.797 45.1348 305.984 44.7861 305.359 44.0889C304.74 43.3916 304.43 42.4688 304.43 41.3203V41.2314ZM305.701 41.3818C305.701 42.2021 305.89 42.8607 306.269 43.3574C306.651 43.8542 307.162 44.1025 307.8 44.1025C308.442 44.1025 308.953 43.8519 309.331 43.3506C309.709 42.8447 309.898 42.1383 309.898 41.2314C309.898 40.4202 309.705 39.764 309.317 39.2627C308.935 38.7568 308.424 38.5039 307.786 38.5039C307.162 38.5039 306.658 38.7523 306.275 39.249C305.893 39.7458 305.701 40.4567 305.701 41.3818ZM313.938 37.6016L313.973 38.4219C314.515 37.7839 315.246 37.4648 316.167 37.4648C317.201 37.4648 317.906 37.8613 318.279 38.6543C318.525 38.2988 318.844 38.0117 319.236 37.793C319.633 37.5742 320.1 37.4648 320.638 37.4648C322.26 37.4648 323.085 38.3239 323.112 40.042V44.998H321.848V40.1172C321.848 39.5885 321.727 39.1943 321.485 38.9346C321.244 38.6702 320.838 38.5381 320.269 38.5381C319.799 38.5381 319.41 38.6794 319.1 38.9619C318.79 39.2399 318.61 39.6159 318.56 40.0898V44.998H317.288V40.1514C317.288 39.0758 316.762 38.5381 315.709 38.5381C314.88 38.5381 314.312 38.8913 314.007 39.5977V44.998H312.742V37.6016H313.938ZM326.216 37.6016L326.25 38.4219C326.792 37.7839 327.524 37.4648 328.444 37.4648C329.479 37.4648 330.183 37.8613 330.557 38.6543C330.803 38.2988 331.122 38.0117 331.514 37.793C331.91 37.5742 332.377 37.4648 332.915 37.4648C334.537 37.4648 335.362 38.3239 335.39 40.042V44.998H334.125V40.1172C334.125 39.5885 334.004 39.1943 333.763 38.9346C333.521 38.6702 333.116 38.5381 332.546 38.5381C332.076 38.5381 331.687 38.6794 331.377 38.9619C331.067 39.2399 330.887 39.6159 330.837 40.0898V44.998H329.565V40.1514C329.565 39.0758 329.039 38.5381 327.986 38.5381C327.157 38.5381 326.59 38.8913 326.284 39.5977V44.998H325.02V37.6016H326.216ZM338.678 44.998H337.413V37.6016H338.678V44.998ZM337.311 35.6396C337.311 35.4346 337.372 35.2614 337.495 35.1201C337.623 34.9788 337.81 34.9082 338.056 34.9082C338.302 34.9082 338.489 34.9788 338.616 35.1201C338.744 35.2614 338.808 35.4346 338.808 35.6396C338.808 35.8447 338.744 36.0156 338.616 36.1523C338.489 36.2891 338.302 36.3574 338.056 36.3574C337.81 36.3574 337.623 36.2891 337.495 36.1523C337.372 36.0156 337.311 35.8447 337.311 35.6396ZM345.015 43.0361C345.015 42.6943 344.885 42.43 344.625 42.2432C344.37 42.0518 343.921 41.8877 343.278 41.751C342.64 41.6143 342.132 41.4502 341.754 41.2588C341.38 41.0674 341.102 40.8395 340.92 40.5752C340.742 40.3109 340.653 39.9964 340.653 39.6318C340.653 39.0257 340.909 38.513 341.419 38.0938C341.934 37.6745 342.59 37.4648 343.388 37.4648C344.226 37.4648 344.905 37.6813 345.425 38.1143C345.949 38.5472 346.211 39.1009 346.211 39.7754H344.939C344.939 39.429 344.791 39.1305 344.495 38.8799C344.203 38.6292 343.834 38.5039 343.388 38.5039C342.927 38.5039 342.567 38.6042 342.308 38.8047C342.048 39.0052 341.918 39.2673 341.918 39.5908C341.918 39.8962 342.039 40.1263 342.28 40.2812C342.522 40.4362 342.957 40.5843 343.586 40.7256C344.219 40.8669 344.732 41.0355 345.124 41.2314C345.516 41.4274 345.805 41.6644 345.992 41.9424C346.184 42.2158 346.279 42.5508 346.279 42.9473C346.279 43.6081 346.015 44.139 345.486 44.54C344.958 44.9365 344.272 45.1348 343.429 45.1348C342.836 45.1348 342.312 45.0299 341.856 44.8203C341.401 44.6107 341.043 44.319 340.783 43.9453C340.528 43.5671 340.4 43.1592 340.4 42.7217H341.665C341.688 43.1455 341.856 43.4827 342.171 43.7334C342.49 43.9795 342.909 44.1025 343.429 44.1025C343.907 44.1025 344.29 44.0068 344.577 43.8154C344.869 43.6195 345.015 43.3597 345.015 43.0361ZM352.233 43.0361C352.233 42.6943 352.104 42.43 351.844 42.2432C351.589 42.0518 351.14 41.8877 350.497 41.751C349.859 41.6143 349.351 41.4502 348.973 41.2588C348.599 41.0674 348.321 40.8395 348.139 40.5752C347.961 40.3109 347.872 39.9964 347.872 39.6318C347.872 39.0257 348.127 38.513 348.638 38.0938C349.153 37.6745 349.809 37.4648 350.606 37.4648C351.445 37.4648 352.124 37.6813 352.644 38.1143C353.168 38.5472 353.43 39.1009 353.43 39.7754H352.158C352.158 39.429 352.01 39.1305 351.714 38.8799C351.422 38.6292 351.053 38.5039 350.606 38.5039C350.146 38.5039 349.786 38.6042 349.526 38.8047C349.267 39.0052 349.137 39.2673 349.137 39.5908C349.137 39.8962 349.257 40.1263 349.499 40.2812C349.741 40.4362 350.176 40.5843 350.805 40.7256C351.438 40.8669 351.951 41.0355 352.343 41.2314C352.735 41.4274 353.024 41.6644 353.211 41.9424C353.402 42.2158 353.498 42.5508 353.498 42.9473C353.498 43.6081 353.234 44.139 352.705 44.54C352.176 44.9365 351.491 45.1348 350.647 45.1348C350.055 45.1348 349.531 45.0299 349.075 44.8203C348.619 44.6107 348.262 44.319 348.002 43.9453C347.747 43.5671 347.619 43.1592 347.619 42.7217H348.884C348.907 43.1455 349.075 43.4827 349.39 43.7334C349.709 43.9795 350.128 44.1025 350.647 44.1025C351.126 44.1025 351.509 44.0068 351.796 43.8154C352.088 43.6195 352.233 43.3597 352.233 43.0361ZM356.52 44.998H355.255V37.6016H356.52V44.998ZM355.152 35.6396C355.152 35.4346 355.214 35.2614 355.337 35.1201C355.465 34.9788 355.651 34.9082 355.897 34.9082C356.144 34.9082 356.33 34.9788 356.458 35.1201C356.586 35.2614 356.649 35.4346 356.649 35.6396C356.649 35.8447 356.586 36.0156 356.458 36.1523C356.33 36.2891 356.144 36.3574 355.897 36.3574C355.651 36.3574 355.465 36.2891 355.337 36.1523C355.214 36.0156 355.152 35.8447 355.152 35.6396ZM358.215 41.2314C358.215 40.5068 358.356 39.8551 358.639 39.2764C358.926 38.6976 359.322 38.251 359.828 37.9365C360.339 37.6221 360.92 37.4648 361.571 37.4648C362.578 37.4648 363.392 37.8135 364.012 38.5107C364.636 39.208 364.948 40.1354 364.948 41.293V41.3818C364.948 42.1019 364.809 42.749 364.531 43.3232C364.258 43.8929 363.864 44.3372 363.349 44.6562C362.838 44.9753 362.25 45.1348 361.585 45.1348C360.582 45.1348 359.769 44.7861 359.145 44.0889C358.525 43.3916 358.215 42.4688 358.215 41.3203V41.2314ZM359.486 41.3818C359.486 42.2021 359.675 42.8607 360.054 43.3574C360.437 43.8542 360.947 44.1025 361.585 44.1025C362.228 44.1025 362.738 43.8519 363.116 43.3506C363.494 42.8447 363.684 42.1383 363.684 41.2314C363.684 40.4202 363.49 39.764 363.103 39.2627C362.72 38.7568 362.209 38.5039 361.571 38.5039C360.947 38.5039 360.443 38.7523 360.061 39.249C359.678 39.7458 359.486 40.4567 359.486 41.3818ZM367.73 37.6016L367.771 38.5312C368.337 37.8203 369.075 37.4648 369.986 37.4648C371.549 37.4648 372.338 38.3467 372.352 40.1104V44.998H371.087V40.1035C371.082 39.5703 370.959 39.1761 370.718 38.9209C370.481 38.6657 370.109 38.5381 369.604 38.5381C369.193 38.5381 368.833 38.6475 368.523 38.8662C368.214 39.085 367.972 39.3721 367.799 39.7275V44.998H366.534V37.6016H367.73ZM378.565 43.0361C378.565 42.6943 378.436 42.43 378.176 42.2432C377.921 42.0518 377.472 41.8877 376.829 41.751C376.191 41.6143 375.683 41.4502 375.305 41.2588C374.931 41.0674 374.653 40.8395 374.471 40.5752C374.293 40.3109 374.204 39.9964 374.204 39.6318C374.204 39.0257 374.459 38.513 374.97 38.0938C375.485 37.6745 376.141 37.4648 376.938 37.4648C377.777 37.4648 378.456 37.6813 378.976 38.1143C379.5 38.5472 379.762 39.1009 379.762 39.7754H378.49C378.49 39.429 378.342 39.1305 378.046 38.8799C377.754 38.6292 377.385 38.5039 376.938 38.5039C376.478 38.5039 376.118 38.6042 375.858 38.8047C375.599 39.0052 375.469 39.2673 375.469 39.5908C375.469 39.8962 375.59 40.1263 375.831 40.2812C376.073 40.4362 376.508 40.5843 377.137 40.7256C377.77 40.8669 378.283 41.0355 378.675 41.2314C379.067 41.4274 379.356 41.6644 379.543 41.9424C379.734 42.2158 379.83 42.5508 379.83 42.9473C379.83 43.6081 379.566 44.139 379.037 44.54C378.508 44.9365 377.823 45.1348 376.979 45.1348C376.387 45.1348 375.863 45.0299 375.407 44.8203C374.951 44.6107 374.594 44.319 374.334 43.9453C374.079 43.5671 373.951 43.1592 373.951 42.7217H375.216C375.239 43.1455 375.407 43.4827 375.722 43.7334C376.041 43.9795 376.46 44.1025 376.979 44.1025C377.458 44.1025 377.841 44.0068 378.128 43.8154C378.42 43.6195 378.565 43.3597 378.565 43.0361Z" fill="#FF3E12"/>
<rect x="262.5" y="4.49805" width="152" height="55" rx="27.5" stroke="#FF3E12" stroke-linecap="round" stroke-linejoin="round" stroke-dasharray="5 8"/>
<rect x="464.5" y="4.49805" width="143" height="55" rx="27.5" fill="#ECECEC"/>
<path d="M506.879 25.8398C506.756 26.8926 506.366 27.7061 505.71 28.2803C505.058 28.8499 504.19 29.1348 503.105 29.1348C501.93 29.1348 500.986 28.7132 500.275 27.8701C499.569 27.027 499.216 25.8991 499.216 24.4863V23.5293C499.216 22.6042 499.38 21.7907 499.708 21.0889C500.041 20.387 500.51 19.8493 501.116 19.4756C501.722 19.0973 502.424 18.9082 503.222 18.9082C504.279 18.9082 505.127 19.2044 505.765 19.7969C506.403 20.3848 506.774 21.2005 506.879 22.2441H505.56C505.446 21.4512 505.197 20.877 504.814 20.5215C504.436 20.166 503.905 19.9883 503.222 19.9883C502.383 19.9883 501.725 20.2982 501.246 20.918C500.772 21.5378 500.535 22.4196 500.535 23.5635V24.5273C500.535 25.6074 500.761 26.4665 501.212 27.1045C501.663 27.7425 502.294 28.0615 503.105 28.0615C503.835 28.0615 504.393 27.8975 504.78 27.5693C505.172 27.2367 505.432 26.6602 505.56 25.8398H506.879ZM508.144 25.2314C508.144 24.5068 508.285 23.8551 508.567 23.2764C508.854 22.6976 509.251 22.251 509.757 21.9365C510.267 21.6221 510.848 21.4648 511.5 21.4648C512.507 21.4648 513.321 21.8135 513.94 22.5107C514.565 23.208 514.877 24.1354 514.877 25.293V25.3818C514.877 26.1019 514.738 26.749 514.46 27.3232C514.187 27.8929 513.792 28.3372 513.277 28.6562C512.767 28.9753 512.179 29.1348 511.514 29.1348C510.511 29.1348 509.698 28.7861 509.073 28.0889C508.453 27.3916 508.144 26.4688 508.144 25.3203V25.2314ZM509.415 25.3818C509.415 26.2021 509.604 26.8607 509.982 27.3574C510.365 27.8542 510.876 28.1025 511.514 28.1025C512.156 28.1025 512.667 27.8519 513.045 27.3506C513.423 26.8447 513.612 26.1383 513.612 25.2314C513.612 24.4202 513.419 23.764 513.031 23.2627C512.648 22.7568 512.138 22.5039 511.5 22.5039C510.876 22.5039 510.372 22.7523 509.989 23.249C509.606 23.7458 509.415 24.4567 509.415 25.3818ZM517.652 21.6016L517.687 22.4219C518.229 21.7839 518.96 21.4648 519.881 21.4648C520.915 21.4648 521.619 21.8613 521.993 22.6543C522.239 22.2988 522.558 22.0117 522.95 21.793C523.347 21.5742 523.814 21.4648 524.352 21.4648C525.974 21.4648 526.799 22.3239 526.826 24.042V28.998H525.562V24.1172C525.562 23.5885 525.441 23.1943 525.199 22.9346C524.958 22.6702 524.552 22.5381 523.982 22.5381C523.513 22.5381 523.123 22.6794 522.813 22.9619C522.504 23.2399 522.324 23.6159 522.273 24.0898V28.998H521.002V24.1514C521.002 23.0758 520.476 22.5381 519.423 22.5381C518.593 22.5381 518.026 22.8913 517.721 23.5977V28.998H516.456V21.6016H517.652ZM529.93 21.6016L529.964 22.4219C530.506 21.7839 531.238 21.4648 532.158 21.4648C533.193 21.4648 533.897 21.8613 534.271 22.6543C534.517 22.2988 534.836 22.0117 535.228 21.793C535.624 21.5742 536.091 21.4648 536.629 21.4648C538.251 21.4648 539.076 22.3239 539.104 24.042V28.998H537.839V24.1172C537.839 23.5885 537.718 23.1943 537.477 22.9346C537.235 22.6702 536.829 22.5381 536.26 22.5381C535.79 22.5381 535.401 22.6794 535.091 22.9619C534.781 23.2399 534.601 23.6159 534.551 24.0898V28.998H533.279V24.1514C533.279 23.0758 532.753 22.5381 531.7 22.5381C530.871 22.5381 530.303 22.8913 529.998 23.5977V28.998H528.733V21.6016H529.93ZM545.584 28.2666C545.092 28.8454 544.369 29.1348 543.417 29.1348C542.629 29.1348 542.027 28.9069 541.612 28.4512C541.202 27.9909 540.995 27.3118 540.99 26.4141V21.6016H542.255V26.3799C542.255 27.501 542.711 28.0615 543.622 28.0615C544.588 28.0615 545.231 27.7015 545.55 26.9814V21.6016H546.814V28.998H545.611L545.584 28.2666ZM549.938 21.6016L549.979 22.5312C550.545 21.8203 551.283 21.4648 552.194 21.4648C553.757 21.4648 554.546 22.3467 554.56 24.1104V28.998H553.295V24.1035C553.29 23.5703 553.167 23.1761 552.926 22.9209C552.689 22.6657 552.317 22.5381 551.812 22.5381C551.401 22.5381 551.041 22.6475 550.731 22.8662C550.422 23.085 550.18 23.3721 550.007 23.7275V28.998H548.742V21.6016H549.938ZM557.841 28.998H556.576V21.6016H557.841V28.998ZM556.474 19.6396C556.474 19.4346 556.535 19.2614 556.658 19.1201C556.786 18.9788 556.973 18.9082 557.219 18.9082C557.465 18.9082 557.652 18.9788 557.779 19.1201C557.907 19.2614 557.971 19.4346 557.971 19.6396C557.971 19.8447 557.907 20.0156 557.779 20.1523C557.652 20.2891 557.465 20.3574 557.219 20.3574C556.973 20.3574 556.786 20.2891 556.658 20.1523C556.535 20.0156 556.474 19.8447 556.474 19.6396ZM561.587 19.8105V21.6016H562.968V22.5791H561.587V27.166C561.587 27.4622 561.648 27.6855 561.771 27.8359C561.895 27.9818 562.104 28.0547 562.4 28.0547C562.546 28.0547 562.747 28.0273 563.002 27.9727V28.998C562.669 29.0892 562.346 29.1348 562.031 29.1348C561.466 29.1348 561.04 28.9639 560.753 28.6221C560.466 28.2803 560.322 27.7949 560.322 27.166V22.5791H558.976V21.6016H560.322V19.8105H561.587ZM566.871 27.1455L568.594 21.6016H569.947L566.974 30.1396C566.513 31.3701 565.782 31.9854 564.779 31.9854L564.54 31.9648L564.068 31.876V30.8506L564.41 30.8779C564.839 30.8779 565.171 30.7913 565.408 30.6182C565.65 30.445 565.848 30.1283 566.003 29.668L566.283 28.916L563.645 21.6016H565.025L566.871 27.1455ZM517.071 36.125H513.872V44.998H512.566V36.125H509.374V35.0449H517.071V36.125ZM521.405 38.7363C521.214 38.7044 521.007 38.6885 520.783 38.6885C519.954 38.6885 519.391 39.0417 519.095 39.748V44.998H517.83V37.6016H519.061L519.081 38.4561C519.496 37.7952 520.084 37.4648 520.845 37.4648C521.091 37.4648 521.278 37.4967 521.405 37.5605V38.7363ZM525.507 45.1348C524.504 45.1348 523.688 44.8066 523.06 44.1504C522.431 43.4896 522.116 42.6077 522.116 41.5049V41.2725C522.116 40.5387 522.255 39.8848 522.533 39.3105C522.816 38.7318 523.208 38.2806 523.709 37.957C524.215 37.6289 524.762 37.4648 525.35 37.4648C526.311 37.4648 527.059 37.7816 527.592 38.415C528.125 39.0485 528.392 39.9554 528.392 41.1357V41.6621H523.381C523.399 42.3913 523.611 42.9814 524.017 43.4326C524.427 43.8792 524.946 44.1025 525.575 44.1025C526.022 44.1025 526.4 44.0114 526.71 43.8291C527.02 43.6468 527.291 43.4053 527.523 43.1045L528.296 43.7061C527.676 44.6585 526.746 45.1348 525.507 45.1348ZM525.35 38.5039C524.839 38.5039 524.411 38.6908 524.064 39.0645C523.718 39.4336 523.504 39.9531 523.422 40.623H527.127V40.5273C527.09 39.8848 526.917 39.388 526.607 39.0371C526.298 38.6816 525.878 38.5039 525.35 38.5039ZM534.428 44.998C534.355 44.8522 534.296 44.5924 534.25 44.2188C533.662 44.8294 532.96 45.1348 532.145 45.1348C531.415 45.1348 530.816 44.9297 530.347 44.5195C529.882 44.1048 529.649 43.5807 529.649 42.9473C529.649 42.1771 529.941 41.5801 530.524 41.1562C531.112 40.7279 531.937 40.5137 532.999 40.5137H534.229V39.9326C534.229 39.4906 534.097 39.1396 533.833 38.8799C533.569 38.6156 533.179 38.4834 532.664 38.4834C532.213 38.4834 531.835 38.5973 531.529 38.8252C531.224 39.0531 531.071 39.3288 531.071 39.6523H529.8C529.8 39.2832 529.93 38.9277 530.189 38.5859C530.454 38.2396 530.809 37.9661 531.256 37.7656C531.707 37.5651 532.201 37.4648 532.739 37.4648C533.591 37.4648 534.259 37.679 534.742 38.1074C535.225 38.5312 535.476 39.1169 535.494 39.8643V43.2686C535.494 43.9476 535.581 44.4876 535.754 44.8887V44.998H534.428ZM532.329 44.0342C532.726 44.0342 533.102 43.9316 533.457 43.7266C533.812 43.5215 534.07 43.2549 534.229 42.9268V41.4092H533.238C531.689 41.4092 530.914 41.8626 530.914 42.7695C530.914 43.166 531.046 43.4759 531.311 43.6992C531.575 43.9225 531.914 44.0342 532.329 44.0342ZM541.783 43.0361C541.783 42.6943 541.653 42.43 541.394 42.2432C541.138 42.0518 540.689 41.8877 540.047 41.751C539.409 41.6143 538.901 41.4502 538.522 41.2588C538.149 41.0674 537.871 40.8395 537.688 40.5752C537.511 40.3109 537.422 39.9964 537.422 39.6318C537.422 39.0257 537.677 38.513 538.188 38.0938C538.702 37.6745 539.359 37.4648 540.156 37.4648C540.995 37.4648 541.674 37.6813 542.193 38.1143C542.717 38.5472 542.979 39.1009 542.979 39.7754H541.708C541.708 39.429 541.56 39.1305 541.264 38.8799C540.972 38.6292 540.603 38.5039 540.156 38.5039C539.696 38.5039 539.336 38.6042 539.076 38.8047C538.816 39.0052 538.687 39.2673 538.687 39.5908C538.687 39.8962 538.807 40.1263 539.049 40.2812C539.29 40.4362 539.726 40.5843 540.354 40.7256C540.988 40.8669 541.501 41.0355 541.893 41.2314C542.285 41.4274 542.574 41.6644 542.761 41.9424C542.952 42.2158 543.048 42.5508 543.048 42.9473C543.048 43.6081 542.784 44.139 542.255 44.54C541.726 44.9365 541.04 45.1348 540.197 45.1348C539.605 45.1348 539.081 45.0299 538.625 44.8203C538.169 44.6107 537.812 44.319 537.552 43.9453C537.297 43.5671 537.169 43.1592 537.169 42.7217H538.434C538.456 43.1455 538.625 43.4827 538.939 43.7334C539.258 43.9795 539.678 44.1025 540.197 44.1025C540.676 44.1025 541.059 44.0068 541.346 43.8154C541.637 43.6195 541.783 43.3597 541.783 43.0361ZM549.262 44.2666C548.77 44.8454 548.047 45.1348 547.095 45.1348C546.306 45.1348 545.705 44.9069 545.29 44.4512C544.88 43.9909 544.673 43.3118 544.668 42.4141V37.6016H545.933V42.3799C545.933 43.501 546.388 44.0615 547.3 44.0615C548.266 44.0615 548.909 43.7015 549.228 42.9814V37.6016H550.492V44.998H549.289L549.262 44.2666ZM555.995 38.7363C555.804 38.7044 555.596 38.6885 555.373 38.6885C554.544 38.6885 553.981 39.0417 553.685 39.748V44.998H552.42V37.6016H553.65L553.671 38.4561C554.086 37.7952 554.674 37.4648 555.435 37.4648C555.681 37.4648 555.868 37.4967 555.995 37.5605V38.7363ZM559.707 43.1455L561.43 37.6016H562.783L559.81 46.1396C559.349 47.3701 558.618 47.9854 557.615 47.9854L557.376 47.9648L556.904 47.876V46.8506L557.246 46.8779C557.674 46.8779 558.007 46.7913 558.244 46.6182C558.486 46.445 558.684 46.1283 558.839 45.668L559.119 44.916L556.48 37.6016H557.861L559.707 43.1455Z" fill="#FF3E12"/>
<rect x="464.5" y="4.49805" width="143" height="55" rx="27.5" stroke="#FF3E12" stroke-linecap="round" stroke-linejoin="round" stroke-dasharray="5 8"/>
<line x1="207" y1="32.498" x2="261" y2="32.498" stroke="#FF3E12" stroke-width="2"/>
<path d="M251 23L261.5 33.0516L251 42.5742" stroke="#FF3E12" stroke-width="2" stroke-linecap="round" stroke-linejoin="round"/>
<line x1="413.99" y1="33.0001" x2="462.99" y2="32.4981" stroke="#FF3E12" stroke-width="2"/>
<path d="M453 23L463.5 33.0516L453 42.5742" stroke="#FF3E12" stroke-width="2" stroke-linecap="round" stroke-linejoin="round"/>
<path d="M329 70.499907L339.052 60.0007L348.574 70.499907" stroke="#FF3E12" stroke-width="2" stroke-linecap="round" stroke-linejoin="round"/>
<line x1="609" y1="32.498" x2="663" y2="32.498" stroke="#FF3E12" stroke-width="2"/>
<path d="M653 23L663.5 33.0516L653 42.5742" stroke="#FF3E12" stroke-width="2" stroke-linecap="round" stroke-linejoin="round"/>
<rect x="664.5" y="1.5" width="150" height="62" rx="7.5" fill="#ECECEC"/>
<path d="M712.992 33.5469V38H711.492V26.625H715.688C716.932 26.625 717.906 26.9427 718.609 27.5781C719.318 28.2135 719.672 29.0547 719.672 30.1016C719.672 31.2057 719.326 32.0573 718.633 32.6562C717.945 33.25 716.958 33.5469 715.672 33.5469H712.992ZM712.992 32.3203H715.688C716.49 32.3203 717.104 32.1328 717.531 31.7578C717.958 31.3776 718.172 30.8307 718.172 30.1172C718.172 29.4401 717.958 28.8984 717.531 28.4922C717.104 28.0859 716.518 27.875 715.773 27.8594H712.992V32.3203ZM725.445 30.8438C725.227 30.8073 724.99 30.7891 724.734 30.7891C723.786 30.7891 723.143 31.1927 722.805 32V38H721.359V29.5469H722.766L722.789 30.5234C723.263 29.7682 723.935 29.3906 724.805 29.3906C725.086 29.3906 725.299 29.4271 725.445 29.5V30.8438ZM726.242 33.6953C726.242 32.8672 726.404 32.1224 726.727 31.4609C727.055 30.7995 727.508 30.2891 728.086 29.9297C728.669 29.5703 729.333 29.3906 730.078 29.3906C731.229 29.3906 732.159 29.7891 732.867 30.5859C733.581 31.3828 733.938 32.4427 733.938 33.7656V33.8672C733.938 34.6901 733.779 35.4297 733.461 36.0859C733.148 36.737 732.698 37.2448 732.109 37.6094C731.526 37.974 730.854 38.1562 730.094 38.1562C728.948 38.1562 728.018 37.7578 727.305 36.9609C726.596 36.1641 726.242 35.1094 726.242 33.7969V33.6953ZM727.695 33.8672C727.695 34.8047 727.911 35.5573 728.344 36.125C728.781 36.6927 729.365 36.9766 730.094 36.9766C730.828 36.9766 731.411 36.6901 731.844 36.1172C732.276 35.5391 732.492 34.7318 732.492 33.6953C732.492 32.7682 732.271 32.0182 731.828 31.4453C731.391 30.8672 730.807 30.5781 730.078 30.5781C729.365 30.5781 728.789 30.862 728.352 31.4297C727.914 31.9974 727.695 32.8099 727.695 33.8672ZM737.242 29.5469V38.9766C737.242 40.6016 736.505 41.4141 735.031 41.4141C734.714 41.4141 734.419 41.3672 734.148 41.2734V40.1172C734.315 40.1589 734.534 40.1797 734.805 40.1797C735.128 40.1797 735.372 40.0911 735.539 39.9141C735.711 39.7422 735.797 39.4401 735.797 39.0078V29.5469H737.242ZM735.648 27.3047C735.648 27.0755 735.719 26.8802 735.859 26.7188C736.005 26.5521 736.216 26.4688 736.492 26.4688C736.773 26.4688 736.987 26.5495 737.133 26.7109C737.279 26.8724 737.352 27.0703 737.352 27.3047C737.352 27.5391 737.279 27.7344 737.133 27.8906C736.987 28.0469 736.773 28.125 736.492 28.125C736.211 28.125 736 28.0469 735.859 27.8906C735.719 27.7344 735.648 27.5391 735.648 27.3047ZM743.086 38.1562C741.94 38.1562 741.008 37.7812 740.289 37.0312C739.57 36.276 739.211 35.2682 739.211 34.0078V33.7422C739.211 32.9036 739.37 32.1562 739.688 31.5C740.01 30.8385 740.458 30.3229 741.031 29.9531C741.609 29.5781 742.234 29.3906 742.906 29.3906C744.005 29.3906 744.859 29.7526 745.469 30.4766C746.078 31.2005 746.383 32.237 746.383 33.5859V34.1875H740.656C740.677 35.0208 740.919 35.6953 741.383 36.2109C741.852 36.7214 742.445 36.9766 743.164 36.9766C743.674 36.9766 744.107 36.8724 744.461 36.6641C744.815 36.4557 745.125 36.1797 745.391 35.8359L746.273 36.5234C745.565 37.612 744.503 38.1562 743.086 38.1562ZM742.906 30.5781C742.323 30.5781 741.833 30.7917 741.438 31.2188C741.042 31.6406 740.797 32.2344 740.703 33H744.938V32.8906C744.896 32.1562 744.698 31.5885 744.344 31.1875C743.99 30.7812 743.51 30.5781 742.906 30.5781ZM751.453 36.9766C751.969 36.9766 752.419 36.8203 752.805 36.5078C753.19 36.1953 753.404 35.8047 753.445 35.3359H754.812C754.786 35.8203 754.62 36.2812 754.312 36.7188C754.005 37.1562 753.594 37.5052 753.078 37.7656C752.568 38.026 752.026 38.1562 751.453 38.1562C750.302 38.1562 749.385 37.7734 748.703 37.0078C748.026 36.237 747.688 35.1849 747.688 33.8516V33.6094C747.688 32.7865 747.839 32.0547 748.141 31.4141C748.443 30.7734 748.875 30.276 749.438 29.9219C750.005 29.5677 750.674 29.3906 751.445 29.3906C752.393 29.3906 753.18 29.6745 753.805 30.2422C754.435 30.8099 754.771 31.5469 754.812 32.4531H753.445C753.404 31.9062 753.195 31.4583 752.82 31.1094C752.451 30.7552 751.992 30.5781 751.445 30.5781C750.711 30.5781 750.141 30.8438 749.734 31.375C749.333 31.901 749.133 32.6641 749.133 33.6641V33.9375C749.133 34.9115 749.333 35.6615 749.734 36.1875C750.135 36.7135 750.708 36.9766 751.453 36.9766ZM758.398 27.5V29.5469H759.977V30.6641H758.398V35.9062C758.398 36.2448 758.469 36.5 758.609 36.6719C758.75 36.8385 758.99 36.9219 759.328 36.9219C759.495 36.9219 759.724 36.8906 760.016 36.8281V38C759.635 38.1042 759.266 38.1562 758.906 38.1562C758.26 38.1562 757.773 37.9609 757.445 37.5703C757.117 37.1797 756.953 36.625 756.953 35.9062V30.6641H755.414V29.5469H756.953V27.5H758.398ZM766.594 35.7578C766.594 35.3672 766.445 35.0651 766.148 34.8516C765.857 34.6328 765.344 34.4453 764.609 34.2891C763.88 34.1328 763.299 33.9453 762.867 33.7266C762.44 33.5078 762.122 33.2474 761.914 32.9453C761.711 32.6432 761.609 32.2839 761.609 31.8672C761.609 31.1745 761.901 30.5885 762.484 30.1094C763.073 29.6302 763.823 29.3906 764.734 29.3906C765.693 29.3906 766.469 29.638 767.062 30.1328C767.661 30.6276 767.961 31.2604 767.961 32.0312H766.508C766.508 31.6354 766.339 31.2943 766 31.0078C765.667 30.7214 765.245 30.5781 764.734 30.5781C764.208 30.5781 763.797 30.6927 763.5 30.9219C763.203 31.151 763.055 31.4505 763.055 31.8203C763.055 32.1693 763.193 32.4323 763.469 32.6094C763.745 32.7865 764.242 32.9557 764.961 33.1172C765.685 33.2786 766.271 33.4714 766.719 33.6953C767.167 33.9193 767.497 34.1901 767.711 34.5078C767.93 34.8203 768.039 35.2031 768.039 35.6562C768.039 36.4115 767.737 37.0182 767.133 37.4766C766.529 37.9297 765.745 38.1562 764.781 38.1562C764.104 38.1562 763.505 38.0365 762.984 37.7969C762.464 37.5573 762.055 37.224 761.758 36.7969C761.466 36.3646 761.32 35.8984 761.32 35.3984H762.766C762.792 35.8828 762.984 36.2682 763.344 36.5547C763.708 36.8359 764.188 36.9766 764.781 36.9766C765.328 36.9766 765.766 36.8672 766.094 36.6484C766.427 36.4245 766.594 36.1276 766.594 35.7578Z" fill="#FF3E12"/>
<rect x="664.5" y="1.5" width="150" height="62" rx="7.5" stroke="#FF3E12"/>
<rect x="894.5" y="112.5" width="166" height="62" rx="7.5" fill="#ECECEC"/>
<path d="M943.484 137.625L947.203 146.906L950.922 137.625H952.867V149H951.367V144.57L951.508 139.789L947.773 149H946.625L942.898 139.812L943.047 144.57V149H941.547V137.625H943.484ZM958.797 149.156C957.651 149.156 956.719 148.781 956 148.031C955.281 147.276 954.922 146.268 954.922 145.008V144.742C954.922 143.904 955.081 143.156 955.398 142.5C955.721 141.839 956.169 141.323 956.742 140.953C957.32 140.578 957.945 140.391 958.617 140.391C959.716 140.391 960.57 140.753 961.18 141.477C961.789 142.201 962.094 143.237 962.094 144.586V145.188H956.367C956.388 146.021 956.63 146.695 957.094 147.211C957.562 147.721 958.156 147.977 958.875 147.977C959.385 147.977 959.818 147.872 960.172 147.664C960.526 147.456 960.836 147.18 961.102 146.836L961.984 147.523C961.276 148.612 960.214 149.156 958.797 149.156ZM958.617 141.578C958.034 141.578 957.544 141.792 957.148 142.219C956.753 142.641 956.508 143.234 956.414 144H960.648V143.891C960.607 143.156 960.409 142.589 960.055 142.188C959.701 141.781 959.221 141.578 958.617 141.578ZM965.734 138.5V140.547H967.312V141.664H965.734V146.906C965.734 147.245 965.805 147.5 965.945 147.672C966.086 147.839 966.326 147.922 966.664 147.922C966.831 147.922 967.06 147.891 967.352 147.828V149C966.971 149.104 966.602 149.156 966.242 149.156C965.596 149.156 965.109 148.961 964.781 148.57C964.453 148.18 964.289 147.625 964.289 146.906V141.664H962.75V140.547H964.289V138.5H965.734ZM974.227 149C974.143 148.833 974.076 148.536 974.023 148.109C973.352 148.807 972.549 149.156 971.617 149.156C970.784 149.156 970.099 148.922 969.562 148.453C969.031 147.979 968.766 147.38 968.766 146.656C968.766 145.776 969.099 145.094 969.766 144.609C970.438 144.12 971.38 143.875 972.594 143.875H974V143.211C974 142.706 973.849 142.305 973.547 142.008C973.245 141.706 972.799 141.555 972.211 141.555C971.695 141.555 971.263 141.685 970.914 141.945C970.565 142.206 970.391 142.521 970.391 142.891H968.938C968.938 142.469 969.086 142.062 969.383 141.672C969.685 141.276 970.091 140.964 970.602 140.734C971.117 140.505 971.682 140.391 972.297 140.391C973.271 140.391 974.034 140.635 974.586 141.125C975.138 141.609 975.424 142.279 975.445 143.133V147.023C975.445 147.799 975.544 148.417 975.742 148.875V149H974.227ZM971.828 147.898C972.281 147.898 972.711 147.781 973.117 147.547C973.523 147.312 973.818 147.008 974 146.633V144.898H972.867C971.096 144.898 970.211 145.417 970.211 146.453C970.211 146.906 970.362 147.26 970.664 147.516C970.966 147.771 971.354 147.898 971.828 147.898ZM980.375 147.039L982.469 140.547H983.945L980.914 149H979.812L976.75 140.547H978.227L980.375 147.039ZM988.734 149.156C987.589 149.156 986.656 148.781 985.938 148.031C985.219 147.276 984.859 146.268 984.859 145.008V144.742C984.859 143.904 985.018 143.156 985.336 142.5C985.659 141.839 986.107 141.323 986.68 140.953C987.258 140.578 987.883 140.391 988.555 140.391C989.654 140.391 990.508 140.753 991.117 141.477C991.727 142.201 992.031 143.237 992.031 144.586V145.188H986.305C986.326 146.021 986.568 146.695 987.031 147.211C987.5 147.721 988.094 147.977 988.812 147.977C989.323 147.977 989.755 147.872 990.109 147.664C990.464 147.456 990.773 147.18 991.039 146.836L991.922 147.523C991.214 148.612 990.151 149.156 988.734 149.156ZM988.555 141.578C987.971 141.578 987.482 141.792 987.086 142.219C986.69 142.641 986.445 143.234 986.352 144H990.586V143.891C990.544 143.156 990.346 142.589 989.992 142.188C989.638 141.781 989.159 141.578 988.555 141.578ZM997.797 141.844C997.578 141.807 997.341 141.789 997.086 141.789C996.138 141.789 995.495 142.193 995.156 143V149H993.711V140.547H995.117L995.141 141.523C995.615 140.768 996.286 140.391 997.156 140.391C997.438 140.391 997.651 140.427 997.797 140.5V141.844ZM1004.05 146.758C1004.05 146.367 1003.91 146.065 1003.61 145.852C1003.32 145.633 1002.8 145.445 1002.07 145.289C1001.34 145.133 1000.76 144.945 1000.33 144.727C999.901 144.508 999.583 144.247 999.375 143.945C999.172 143.643 999.07 143.284 999.07 142.867C999.07 142.174 999.362 141.589 999.945 141.109C1000.53 140.63 1001.28 140.391 1002.2 140.391C1003.15 140.391 1003.93 140.638 1004.52 141.133C1005.12 141.628 1005.42 142.26 1005.42 143.031H1003.97C1003.97 142.635 1003.8 142.294 1003.46 142.008C1003.13 141.721 1002.71 141.578 1002.2 141.578C1001.67 141.578 1001.26 141.693 1000.96 141.922C1000.66 142.151 1000.52 142.451 1000.52 142.82C1000.52 143.169 1000.65 143.432 1000.93 143.609C1001.21 143.786 1001.7 143.956 1002.42 144.117C1003.15 144.279 1003.73 144.471 1004.18 144.695C1004.63 144.919 1004.96 145.19 1005.17 145.508C1005.39 145.82 1005.5 146.203 1005.5 146.656C1005.5 147.411 1005.2 148.018 1004.59 148.477C1003.99 148.93 1003.21 149.156 1002.24 149.156C1001.57 149.156 1000.97 149.036 1000.45 148.797C999.924 148.557 999.516 148.224 999.219 147.797C998.927 147.365 998.781 146.898 998.781 146.398H1000.23C1000.25 146.883 1000.45 147.268 1000.8 147.555C1001.17 147.836 1001.65 147.977 1002.24 147.977C1002.79 147.977 1003.23 147.867 1003.55 147.648C1003.89 147.424 1004.05 147.128 1004.05 146.758ZM1010.89 149.156C1009.74 149.156 1008.81 148.781 1008.09 148.031C1007.38 147.276 1007.02 146.268 1007.02 145.008V144.742C1007.02 143.904 1007.17 143.156 1007.49 142.5C1007.82 141.839 1008.26 141.323 1008.84 140.953C1009.41 140.578 1010.04 140.391 1010.71 140.391C1011.81 140.391 1012.66 140.753 1013.27 141.477C1013.88 142.201 1014.19 143.237 1014.19 144.586V145.188H1008.46C1008.48 146.021 1008.72 146.695 1009.19 147.211C1009.66 147.721 1010.25 147.977 1010.97 147.977C1011.48 147.977 1011.91 147.872 1012.27 147.664C1012.62 147.456 1012.93 147.18 1013.2 146.836L1014.08 147.523C1013.37 148.612 1012.31 149.156 1010.89 149.156ZM1010.71 141.578C1010.13 141.578 1009.64 141.792 1009.24 142.219C1008.85 142.641 1008.6 143.234 1008.51 144H1012.74V143.891C1012.7 143.156 1012.5 142.589 1012.15 142.188C1011.79 141.781 1011.32 141.578 1010.71 141.578Z" fill="#FF3E12"/>
<rect x="894.5" y="112.5" width="166" height="62" rx="7.5" stroke="#FF3E12" stroke-dasharray="2 2"/>
<rect x="664.5" y="112.5" width="216" height="62" rx="7.5" fill="#ECECEC"/>
<path d="M720.086 149H718.578L712.852 140.234V149H711.344V137.625H712.852L718.594 146.43V137.625H720.086V149ZM729.023 143.977H724.25V149H722.75V137.625H729.797V138.859H724.25V142.75H729.023V143.977ZM739.609 138.859H735.953V149H734.461V138.859H730.812V137.625H739.609V138.859ZM751.234 146.031H746.469L745.398 149H743.852L748.195 137.625H749.508L753.859 149H752.32L751.234 146.031ZM746.922 144.797H750.789L748.852 139.477L746.922 144.797ZM758.555 147.977C759.07 147.977 759.521 147.82 759.906 147.508C760.292 147.195 760.505 146.805 760.547 146.336H761.914C761.888 146.82 761.721 147.281 761.414 147.719C761.107 148.156 760.695 148.505 760.18 148.766C759.669 149.026 759.128 149.156 758.555 149.156C757.404 149.156 756.487 148.773 755.805 148.008C755.128 147.237 754.789 146.185 754.789 144.852V144.609C754.789 143.786 754.94 143.055 755.242 142.414C755.544 141.773 755.977 141.276 756.539 140.922C757.107 140.568 757.776 140.391 758.547 140.391C759.495 140.391 760.281 140.674 760.906 141.242C761.536 141.81 761.872 142.547 761.914 143.453H760.547C760.505 142.906 760.297 142.458 759.922 142.109C759.552 141.755 759.094 141.578 758.547 141.578C757.812 141.578 757.242 141.844 756.836 142.375C756.435 142.901 756.234 143.664 756.234 144.664V144.938C756.234 145.911 756.435 146.661 756.836 147.188C757.237 147.714 757.81 147.977 758.555 147.977ZM766.93 147.977C767.445 147.977 767.896 147.82 768.281 147.508C768.667 147.195 768.88 146.805 768.922 146.336H770.289C770.263 146.82 770.096 147.281 769.789 147.719C769.482 148.156 769.07 148.505 768.555 148.766C768.044 149.026 767.503 149.156 766.93 149.156C765.779 149.156 764.862 148.773 764.18 148.008C763.503 147.237 763.164 146.185 763.164 144.852V144.609C763.164 143.786 763.315 143.055 763.617 142.414C763.919 141.773 764.352 141.276 764.914 140.922C765.482 140.568 766.151 140.391 766.922 140.391C767.87 140.391 768.656 140.674 769.281 141.242C769.911 141.81 770.247 142.547 770.289 143.453H768.922C768.88 142.906 768.672 142.458 768.297 142.109C767.927 141.755 767.469 141.578 766.922 141.578C766.188 141.578 765.617 141.844 765.211 142.375C764.81 142.901 764.609 143.664 764.609 144.664V144.938C764.609 145.911 764.81 146.661 765.211 147.188C765.612 147.714 766.185 147.977 766.93 147.977ZM775.422 149.156C774.276 149.156 773.344 148.781 772.625 148.031C771.906 147.276 771.547 146.268 771.547 145.008V144.742C771.547 143.904 771.706 143.156 772.023 142.5C772.346 141.839 772.794 141.323 773.367 140.953C773.945 140.578 774.57 140.391 775.242 140.391C776.341 140.391 777.195 140.753 777.805 141.477C778.414 142.201 778.719 143.237 778.719 144.586V145.188H772.992C773.013 146.021 773.255 146.695 773.719 147.211C774.188 147.721 774.781 147.977 775.5 147.977C776.01 147.977 776.443 147.872 776.797 147.664C777.151 147.456 777.461 147.18 777.727 146.836L778.609 147.523C777.901 148.612 776.839 149.156 775.422 149.156ZM775.242 141.578C774.659 141.578 774.169 141.792 773.773 142.219C773.378 142.641 773.133 143.234 773.039 144H777.273V143.891C777.232 143.156 777.034 142.589 776.68 142.188C776.326 141.781 775.846 141.578 775.242 141.578ZM785.32 146.758C785.32 146.367 785.172 146.065 784.875 145.852C784.583 145.633 784.07 145.445 783.336 145.289C782.607 145.133 782.026 144.945 781.594 144.727C781.167 144.508 780.849 144.247 780.641 143.945C780.438 143.643 780.336 143.284 780.336 142.867C780.336 142.174 780.628 141.589 781.211 141.109C781.799 140.63 782.549 140.391 783.461 140.391C784.419 140.391 785.195 140.638 785.789 141.133C786.388 141.628 786.688 142.26 786.688 143.031H785.234C785.234 142.635 785.065 142.294 784.727 142.008C784.393 141.721 783.971 141.578 783.461 141.578C782.935 141.578 782.523 141.693 782.227 141.922C781.93 142.151 781.781 142.451 781.781 142.82C781.781 143.169 781.919 143.432 782.195 143.609C782.471 143.786 782.969 143.956 783.688 144.117C784.411 144.279 784.997 144.471 785.445 144.695C785.893 144.919 786.224 145.19 786.438 145.508C786.656 145.82 786.766 146.203 786.766 146.656C786.766 147.411 786.464 148.018 785.859 148.477C785.255 148.93 784.471 149.156 783.508 149.156C782.831 149.156 782.232 149.036 781.711 148.797C781.19 148.557 780.781 148.224 780.484 147.797C780.193 147.365 780.047 146.898 780.047 146.398H781.492C781.518 146.883 781.711 147.268 782.07 147.555C782.435 147.836 782.914 147.977 783.508 147.977C784.055 147.977 784.492 147.867 784.82 147.648C785.154 147.424 785.32 147.128 785.32 146.758ZM793.57 146.758C793.57 146.367 793.422 146.065 793.125 145.852C792.833 145.633 792.32 145.445 791.586 145.289C790.857 145.133 790.276 144.945 789.844 144.727C789.417 144.508 789.099 144.247 788.891 143.945C788.688 143.643 788.586 143.284 788.586 142.867C788.586 142.174 788.878 141.589 789.461 141.109C790.049 140.63 790.799 140.391 791.711 140.391C792.669 140.391 793.445 140.638 794.039 141.133C794.638 141.628 794.938 142.26 794.938 143.031H793.484C793.484 142.635 793.315 142.294 792.977 142.008C792.643 141.721 792.221 141.578 791.711 141.578C791.185 141.578 790.773 141.693 790.477 141.922C790.18 142.151 790.031 142.451 790.031 142.82C790.031 143.169 790.169 143.432 790.445 143.609C790.721 143.786 791.219 143.956 791.938 144.117C792.661 144.279 793.247 144.471 793.695 144.695C794.143 144.919 794.474 145.19 794.688 145.508C794.906 145.82 795.016 146.203 795.016 146.656C795.016 147.411 794.714 148.018 794.109 148.477C793.505 148.93 792.721 149.156 791.758 149.156C791.081 149.156 790.482 149.036 789.961 148.797C789.44 148.557 789.031 148.224 788.734 147.797C788.443 147.365 788.297 146.898 788.297 146.398H789.742C789.768 146.883 789.961 147.268 790.32 147.555C790.685 147.836 791.164 147.977 791.758 147.977C792.305 147.977 792.742 147.867 793.07 147.648C793.404 147.424 793.57 147.128 793.57 146.758ZM802.594 144.547V149H801.094V137.625H805.289C806.534 137.625 807.508 137.943 808.211 138.578C808.919 139.214 809.273 140.055 809.273 141.102C809.273 142.206 808.927 143.057 808.234 143.656C807.547 144.25 806.56 144.547 805.273 144.547H802.594ZM802.594 143.32H805.289C806.091 143.32 806.706 143.133 807.133 142.758C807.56 142.378 807.773 141.831 807.773 141.117C807.773 140.44 807.56 139.898 807.133 139.492C806.706 139.086 806.12 138.875 805.375 138.859H802.594V143.32ZM816.086 149C816.003 148.833 815.935 148.536 815.883 148.109C815.211 148.807 814.409 149.156 813.477 149.156C812.643 149.156 811.958 148.922 811.422 148.453C810.891 147.979 810.625 147.38 810.625 146.656C810.625 145.776 810.958 145.094 811.625 144.609C812.297 144.12 813.24 143.875 814.453 143.875H815.859V143.211C815.859 142.706 815.708 142.305 815.406 142.008C815.104 141.706 814.659 141.555 814.07 141.555C813.555 141.555 813.122 141.685 812.773 141.945C812.424 142.206 812.25 142.521 812.25 142.891H810.797C810.797 142.469 810.945 142.062 811.242 141.672C811.544 141.276 811.951 140.964 812.461 140.734C812.977 140.505 813.542 140.391 814.156 140.391C815.13 140.391 815.893 140.635 816.445 141.125C816.997 141.609 817.284 142.279 817.305 143.133V147.023C817.305 147.799 817.404 148.417 817.602 148.875V149H816.086ZM813.688 147.898C814.141 147.898 814.57 147.781 814.977 147.547C815.383 147.312 815.677 147.008 815.859 146.633V144.898H814.727C812.956 144.898 812.07 145.417 812.07 146.453C812.07 146.906 812.221 147.26 812.523 147.516C812.826 147.771 813.214 147.898 813.688 147.898ZM824.492 146.758C824.492 146.367 824.344 146.065 824.047 145.852C823.755 145.633 823.242 145.445 822.508 145.289C821.779 145.133 821.198 144.945 820.766 144.727C820.339 144.508 820.021 144.247 819.812 143.945C819.609 143.643 819.508 143.284 819.508 142.867C819.508 142.174 819.799 141.589 820.383 141.109C820.971 140.63 821.721 140.391 822.633 140.391C823.591 140.391 824.367 140.638 824.961 141.133C825.56 141.628 825.859 142.26 825.859 143.031H824.406C824.406 142.635 824.237 142.294 823.898 142.008C823.565 141.721 823.143 141.578 822.633 141.578C822.107 141.578 821.695 141.693 821.398 141.922C821.102 142.151 820.953 142.451 820.953 142.82C820.953 143.169 821.091 143.432 821.367 143.609C821.643 143.786 822.141 143.956 822.859 144.117C823.583 144.279 824.169 144.471 824.617 144.695C825.065 144.919 825.396 145.19 825.609 145.508C825.828 145.82 825.938 146.203 825.938 146.656C825.938 147.411 825.635 148.018 825.031 148.477C824.427 148.93 823.643 149.156 822.68 149.156C822.003 149.156 821.404 149.036 820.883 148.797C820.362 148.557 819.953 148.224 819.656 147.797C819.365 147.365 819.219 146.898 819.219 146.398H820.664C820.69 146.883 820.883 147.268 821.242 147.555C821.607 147.836 822.086 147.977 822.68 147.977C823.227 147.977 823.664 147.867 823.992 147.648C824.326 147.424 824.492 147.128 824.492 146.758ZM832.742 146.758C832.742 146.367 832.594 146.065 832.297 145.852C832.005 145.633 831.492 145.445 830.758 145.289C830.029 145.133 829.448 144.945 829.016 144.727C828.589 144.508 828.271 144.247 828.062 143.945C827.859 143.643 827.758 143.284 827.758 142.867C827.758 142.174 828.049 141.589 828.633 141.109C829.221 140.63 829.971 140.391 830.883 140.391C831.841 140.391 832.617 140.638 833.211 141.133C833.81 141.628 834.109 142.26 834.109 143.031H832.656C832.656 142.635 832.487 142.294 832.148 142.008C831.815 141.721 831.393 141.578 830.883 141.578C830.357 141.578 829.945 141.693 829.648 141.922C829.352 142.151 829.203 142.451 829.203 142.82C829.203 143.169 829.341 143.432 829.617 143.609C829.893 143.786 830.391 143.956 831.109 144.117C831.833 144.279 832.419 144.471 832.867 144.695C833.315 144.919 833.646 145.19 833.859 145.508C834.078 145.82 834.188 146.203 834.188 146.656C834.188 147.411 833.885 148.018 833.281 148.477C832.677 148.93 831.893 149.156 830.93 149.156C830.253 149.156 829.654 149.036 829.133 148.797C828.612 148.557 828.203 148.224 827.906 147.797C827.615 147.365 827.469 146.898 827.469 146.398H828.914C828.94 146.883 829.133 147.268 829.492 147.555C829.857 147.836 830.336 147.977 830.93 147.977C831.477 147.977 831.914 147.867 832.242 147.648C832.576 147.424 832.742 147.128 832.742 146.758Z" fill="#FF3E12"/>
<rect x="664.5" y="112.5" width="216" height="62" rx="7.5" stroke="#FF3E12" stroke-dasharray="2 2"/>
<rect x="664.5" y="190.5" width="340" height="62" rx="7.5" fill="#ECECEC"/>
<path d="M712.914 222.547V227H711.414V215.625H715.609C716.854 215.625 717.828 215.943 718.531 216.578C719.24 217.214 719.594 218.055 719.594 219.102C719.594 220.206 719.247 221.057 718.555 221.656C717.867 222.25 716.88 222.547 715.594 222.547H712.914ZM712.914 221.32H715.609C716.411 221.32 717.026 221.133 717.453 220.758C717.88 220.378 718.094 219.831 718.094 219.117C718.094 218.44 717.88 217.898 717.453 217.492C717.026 217.086 716.44 216.875 715.695 216.859H712.914V221.32ZM722.852 227H721.406V215H722.852V227ZM730.391 227C730.307 226.833 730.24 226.536 730.188 226.109C729.516 226.807 728.714 227.156 727.781 227.156C726.948 227.156 726.263 226.922 725.727 226.453C725.195 225.979 724.93 225.38 724.93 224.656C724.93 223.776 725.263 223.094 725.93 222.609C726.602 222.12 727.544 221.875 728.758 221.875H730.164V221.211C730.164 220.706 730.013 220.305 729.711 220.008C729.409 219.706 728.964 219.555 728.375 219.555C727.859 219.555 727.427 219.685 727.078 219.945C726.729 220.206 726.555 220.521 726.555 220.891H725.102C725.102 220.469 725.25 220.062 725.547 219.672C725.849 219.276 726.255 218.964 726.766 218.734C727.281 218.505 727.846 218.391 728.461 218.391C729.435 218.391 730.198 218.635 730.75 219.125C731.302 219.609 731.589 220.279 731.609 221.133V225.023C731.609 225.799 731.708 226.417 731.906 226.875V227H730.391ZM727.992 225.898C728.445 225.898 728.875 225.781 729.281 225.547C729.688 225.312 729.982 225.008 730.164 224.633V222.898H729.031C727.26 222.898 726.375 223.417 726.375 224.453C726.375 224.906 726.526 225.26 726.828 225.516C727.13 225.771 727.518 225.898 727.992 225.898ZM735.836 216.5V218.547H737.414V219.664H735.836V224.906C735.836 225.245 735.906 225.5 736.047 225.672C736.188 225.839 736.427 225.922 736.766 225.922C736.932 225.922 737.161 225.891 737.453 225.828V227C737.073 227.104 736.703 227.156 736.344 227.156C735.698 227.156 735.211 226.961 734.883 226.57C734.555 226.18 734.391 225.625 734.391 224.906V219.664H732.852V218.547H734.391V216.5H735.836ZM739.82 227V219.664H738.484V218.547H739.82V217.68C739.82 216.773 740.062 216.073 740.547 215.578C741.031 215.083 741.716 214.836 742.602 214.836C742.935 214.836 743.266 214.88 743.594 214.969L743.516 216.141C743.271 216.094 743.01 216.07 742.734 216.07C742.266 216.07 741.904 216.208 741.648 216.484C741.393 216.755 741.266 217.146 741.266 217.656V218.547H743.07V219.664H741.266V227H739.82ZM744.289 222.695C744.289 221.867 744.451 221.122 744.773 220.461C745.102 219.799 745.555 219.289 746.133 218.93C746.716 218.57 747.38 218.391 748.125 218.391C749.276 218.391 750.206 218.789 750.914 219.586C751.628 220.383 751.984 221.443 751.984 222.766V222.867C751.984 223.69 751.826 224.43 751.508 225.086C751.195 225.737 750.745 226.245 750.156 226.609C749.573 226.974 748.901 227.156 748.141 227.156C746.995 227.156 746.065 226.758 745.352 225.961C744.643 225.164 744.289 224.109 744.289 222.797V222.695ZM745.742 222.867C745.742 223.805 745.958 224.557 746.391 225.125C746.828 225.693 747.411 225.977 748.141 225.977C748.875 225.977 749.458 225.69 749.891 225.117C750.323 224.539 750.539 223.732 750.539 222.695C750.539 221.768 750.318 221.018 749.875 220.445C749.438 219.867 748.854 219.578 748.125 219.578C747.411 219.578 746.836 219.862 746.398 220.43C745.961 220.997 745.742 221.81 745.742 222.867ZM757.883 219.844C757.664 219.807 757.427 219.789 757.172 219.789C756.224 219.789 755.581 220.193 755.242 221V227H753.797V218.547H755.203L755.227 219.523C755.701 218.768 756.372 218.391 757.242 218.391C757.523 218.391 757.737 218.427 757.883 218.5V219.844ZM760.578 218.547L760.617 219.484C761.237 218.755 762.073 218.391 763.125 218.391C764.307 218.391 765.112 218.844 765.539 219.75C765.82 219.344 766.185 219.016 766.633 218.766C767.086 218.516 767.62 218.391 768.234 218.391C770.089 218.391 771.031 219.372 771.062 221.336V227H769.617V221.422C769.617 220.818 769.479 220.367 769.203 220.07C768.927 219.768 768.464 219.617 767.812 219.617C767.276 219.617 766.831 219.779 766.477 220.102C766.122 220.419 765.917 220.849 765.859 221.391V227H764.406V221.461C764.406 220.232 763.805 219.617 762.602 219.617C761.654 219.617 761.005 220.021 760.656 220.828V227H759.211V218.547H760.578ZM780.609 225.977C781.125 225.977 781.576 225.82 781.961 225.508C782.346 225.195 782.56 224.805 782.602 224.336H783.969C783.943 224.82 783.776 225.281 783.469 225.719C783.161 226.156 782.75 226.505 782.234 226.766C781.724 227.026 781.182 227.156 780.609 227.156C779.458 227.156 778.542 226.773 777.859 226.008C777.182 225.237 776.844 224.185 776.844 222.852V222.609C776.844 221.786 776.995 221.055 777.297 220.414C777.599 219.773 778.031 219.276 778.594 218.922C779.161 218.568 779.831 218.391 780.602 218.391C781.549 218.391 782.336 218.674 782.961 219.242C783.591 219.81 783.927 220.547 783.969 221.453H782.602C782.56 220.906 782.352 220.458 781.977 220.109C781.607 219.755 781.148 219.578 780.602 219.578C779.867 219.578 779.297 219.844 778.891 220.375C778.49 220.901 778.289 221.664 778.289 222.664V222.938C778.289 223.911 778.49 224.661 778.891 225.188C779.292 225.714 779.865 225.977 780.609 225.977ZM790.812 226.164C790.25 226.826 789.424 227.156 788.336 227.156C787.435 227.156 786.747 226.896 786.273 226.375C785.805 225.849 785.568 225.073 785.562 224.047V218.547H787.008V224.008C787.008 225.289 787.529 225.93 788.57 225.93C789.674 225.93 790.409 225.518 790.773 224.695V218.547H792.219V227H790.844L790.812 226.164ZM799.344 224.758C799.344 224.367 799.195 224.065 798.898 223.852C798.607 223.633 798.094 223.445 797.359 223.289C796.63 223.133 796.049 222.945 795.617 222.727C795.19 222.508 794.872 222.247 794.664 221.945C794.461 221.643 794.359 221.284 794.359 220.867C794.359 220.174 794.651 219.589 795.234 219.109C795.823 218.63 796.573 218.391 797.484 218.391C798.443 218.391 799.219 218.638 799.812 219.133C800.411 219.628 800.711 220.26 800.711 221.031H799.258C799.258 220.635 799.089 220.294 798.75 220.008C798.417 219.721 797.995 219.578 797.484 219.578C796.958 219.578 796.547 219.693 796.25 219.922C795.953 220.151 795.805 220.451 795.805 220.82C795.805 221.169 795.943 221.432 796.219 221.609C796.495 221.786 796.992 221.956 797.711 222.117C798.435 222.279 799.021 222.471 799.469 222.695C799.917 222.919 800.247 223.19 800.461 223.508C800.68 223.82 800.789 224.203 800.789 224.656C800.789 225.411 800.487 226.018 799.883 226.477C799.279 226.93 798.495 227.156 797.531 227.156C796.854 227.156 796.255 227.036 795.734 226.797C795.214 226.557 794.805 226.224 794.508 225.797C794.216 225.365 794.07 224.898 794.07 224.398H795.516C795.542 224.883 795.734 225.268 796.094 225.555C796.458 225.836 796.938 225.977 797.531 225.977C798.078 225.977 798.516 225.867 798.844 225.648C799.177 225.424 799.344 225.128 799.344 224.758ZM804.633 216.5V218.547H806.211V219.664H804.633V224.906C804.633 225.245 804.703 225.5 804.844 225.672C804.984 225.839 805.224 225.922 805.562 225.922C805.729 225.922 805.958 225.891 806.25 225.828V227C805.87 227.104 805.5 227.156 805.141 227.156C804.495 227.156 804.008 226.961 803.68 226.57C803.352 226.18 803.188 225.625 803.188 224.906V219.664H801.648V218.547H803.188V216.5H804.633ZM807.367 222.695C807.367 221.867 807.529 221.122 807.852 220.461C808.18 219.799 808.633 219.289 809.211 218.93C809.794 218.57 810.458 218.391 811.203 218.391C812.354 218.391 813.284 218.789 813.992 219.586C814.706 220.383 815.062 221.443 815.062 222.766V222.867C815.062 223.69 814.904 224.43 814.586 225.086C814.273 225.737 813.823 226.245 813.234 226.609C812.651 226.974 811.979 227.156 811.219 227.156C810.073 227.156 809.143 226.758 808.43 225.961C807.721 225.164 807.367 224.109 807.367 222.797V222.695ZM808.82 222.867C808.82 223.805 809.036 224.557 809.469 225.125C809.906 225.693 810.49 225.977 811.219 225.977C811.953 225.977 812.536 225.69 812.969 225.117C813.401 224.539 813.617 223.732 813.617 222.695C813.617 221.768 813.396 221.018 812.953 220.445C812.516 219.867 811.932 219.578 811.203 219.578C810.49 219.578 809.914 219.862 809.477 220.43C809.039 220.997 808.82 221.81 808.82 222.867ZM818.234 218.547L818.273 219.484C818.893 218.755 819.729 218.391 820.781 218.391C821.964 218.391 822.768 218.844 823.195 219.75C823.477 219.344 823.841 219.016 824.289 218.766C824.742 218.516 825.276 218.391 825.891 218.391C827.745 218.391 828.688 219.372 828.719 221.336V227H827.273V221.422C827.273 220.818 827.135 220.367 826.859 220.07C826.583 219.768 826.12 219.617 825.469 219.617C824.932 219.617 824.487 219.779 824.133 220.102C823.779 220.419 823.573 220.849 823.516 221.391V227H822.062V221.461C822.062 220.232 821.461 219.617 820.258 219.617C819.31 219.617 818.661 220.021 818.312 220.828V227H816.867V218.547H818.234ZM832.477 227H831.031V218.547H832.477V227ZM830.914 216.305C830.914 216.07 830.984 215.872 831.125 215.711C831.271 215.549 831.484 215.469 831.766 215.469C832.047 215.469 832.26 215.549 832.406 215.711C832.552 215.872 832.625 216.07 832.625 216.305C832.625 216.539 832.552 216.734 832.406 216.891C832.26 217.047 832.047 217.125 831.766 217.125C831.484 217.125 831.271 217.047 831.125 216.891C830.984 216.734 830.914 216.539 830.914 216.305ZM836.156 225.82H841.102V227H834.391V225.938L839.055 219.742H834.461V218.547H840.867V219.57L836.156 225.82ZM846.117 227.156C844.971 227.156 844.039 226.781 843.32 226.031C842.602 225.276 842.242 224.268 842.242 223.008V222.742C842.242 221.904 842.401 221.156 842.719 220.5C843.042 219.839 843.49 219.323 844.062 218.953C844.641 218.578 845.266 218.391 845.938 218.391C847.036 218.391 847.891 218.753 848.5 219.477C849.109 220.201 849.414 221.237 849.414 222.586V223.188H843.688C843.708 224.021 843.951 224.695 844.414 225.211C844.883 225.721 845.477 225.977 846.195 225.977C846.706 225.977 847.138 225.872 847.492 225.664C847.846 225.456 848.156 225.18 848.422 224.836L849.305 225.523C848.596 226.612 847.534 227.156 846.117 227.156ZM845.938 219.578C845.354 219.578 844.865 219.792 844.469 220.219C844.073 220.641 843.828 221.234 843.734 222H847.969V221.891C847.927 221.156 847.729 220.589 847.375 220.188C847.021 219.781 846.542 219.578 845.938 219.578ZM850.742 222.703C850.742 221.406 851.049 220.365 851.664 219.578C852.279 218.786 853.083 218.391 854.078 218.391C855.068 218.391 855.852 218.729 856.43 219.406V215H857.875V227H856.547L856.477 226.094C855.898 226.802 855.094 227.156 854.062 227.156C853.083 227.156 852.284 226.755 851.664 225.953C851.049 225.151 850.742 224.104 850.742 222.812V222.703ZM852.188 222.867C852.188 223.826 852.385 224.576 852.781 225.117C853.177 225.659 853.724 225.93 854.422 225.93C855.339 225.93 856.008 225.518 856.43 224.695V220.812C855.997 220.016 855.333 219.617 854.438 219.617C853.729 219.617 853.177 219.891 852.781 220.438C852.385 220.984 852.188 221.794 852.188 222.867ZM871.25 222.867C871.25 224.159 870.953 225.198 870.359 225.984C869.766 226.766 868.969 227.156 867.969 227.156C866.901 227.156 866.076 226.779 865.492 226.023L865.422 227H864.094V215H865.539V219.477C866.122 218.753 866.927 218.391 867.953 218.391C868.979 218.391 869.784 218.779 870.367 219.555C870.956 220.331 871.25 221.393 871.25 222.742V222.867ZM869.805 222.703C869.805 221.719 869.615 220.958 869.234 220.422C868.854 219.885 868.307 219.617 867.594 219.617C866.641 219.617 865.956 220.06 865.539 220.945V224.602C865.982 225.487 866.672 225.93 867.609 225.93C868.302 225.93 868.841 225.661 869.227 225.125C869.612 224.589 869.805 223.781 869.805 222.703ZM875.75 224.883L877.719 218.547H879.266L875.867 228.305C875.341 229.711 874.505 230.414 873.359 230.414L873.086 230.391L872.547 230.289V229.117L872.938 229.148C873.427 229.148 873.807 229.049 874.078 228.852C874.354 228.654 874.581 228.292 874.758 227.766L875.078 226.906L872.062 218.547H873.641L875.75 224.883ZM888.039 227.156C886.893 227.156 885.961 226.781 885.242 226.031C884.523 225.276 884.164 224.268 884.164 223.008V222.742C884.164 221.904 884.323 221.156 884.641 220.5C884.964 219.839 885.411 219.323 885.984 218.953C886.562 218.578 887.188 218.391 887.859 218.391C888.958 218.391 889.812 218.753 890.422 219.477C891.031 220.201 891.336 221.237 891.336 222.586V223.188H885.609C885.63 224.021 885.872 224.695 886.336 225.211C886.805 225.721 887.398 225.977 888.117 225.977C888.628 225.977 889.06 225.872 889.414 225.664C889.768 225.456 890.078 225.18 890.344 224.836L891.227 225.523C890.518 226.612 889.456 227.156 888.039 227.156ZM887.859 219.578C887.276 219.578 886.786 219.792 886.391 220.219C885.995 220.641 885.75 221.234 885.656 222H889.891V221.891C889.849 221.156 889.651 220.589 889.297 220.188C888.943 219.781 888.464 219.578 887.859 219.578ZM898.234 227C898.151 226.833 898.083 226.536 898.031 226.109C897.359 226.807 896.557 227.156 895.625 227.156C894.792 227.156 894.107 226.922 893.57 226.453C893.039 225.979 892.773 225.38 892.773 224.656C892.773 223.776 893.107 223.094 893.773 222.609C894.445 222.12 895.388 221.875 896.602 221.875H898.008V221.211C898.008 220.706 897.857 220.305 897.555 220.008C897.253 219.706 896.807 219.555 896.219 219.555C895.703 219.555 895.271 219.685 894.922 219.945C894.573 220.206 894.398 220.521 894.398 220.891H892.945C892.945 220.469 893.094 220.062 893.391 219.672C893.693 219.276 894.099 218.964 894.609 218.734C895.125 218.505 895.69 218.391 896.305 218.391C897.279 218.391 898.042 218.635 898.594 219.125C899.146 219.609 899.432 220.279 899.453 221.133V225.023C899.453 225.799 899.552 226.417 899.75 226.875V227H898.234ZM895.836 225.898C896.289 225.898 896.719 225.781 897.125 225.547C897.531 225.312 897.826 225.008 898.008 224.633V222.898H896.875C895.104 222.898 894.219 223.417 894.219 224.453C894.219 224.906 894.37 225.26 894.672 225.516C894.974 225.771 895.362 225.898 895.836 225.898ZM905.109 225.977C905.625 225.977 906.076 225.82 906.461 225.508C906.846 225.195 907.06 224.805 907.102 224.336H908.469C908.443 224.82 908.276 225.281 907.969 225.719C907.661 226.156 907.25 226.505 906.734 226.766C906.224 227.026 905.682 227.156 905.109 227.156C903.958 227.156 903.042 226.773 902.359 226.008C901.682 225.237 901.344 224.185 901.344 222.852V222.609C901.344 221.786 901.495 221.055 901.797 220.414C902.099 219.773 902.531 219.276 903.094 218.922C903.661 218.568 904.331 218.391 905.102 218.391C906.049 218.391 906.836 218.674 907.461 219.242C908.091 219.81 908.427 220.547 908.469 221.453H907.102C907.06 220.906 906.852 220.458 906.477 220.109C906.107 219.755 905.648 219.578 905.102 219.578C904.367 219.578 903.797 219.844 903.391 220.375C902.99 220.901 902.789 221.664 902.789 222.664V222.938C902.789 223.911 902.99 224.661 903.391 225.188C903.792 225.714 904.365 225.977 905.109 225.977ZM911.539 219.57C912.18 218.784 913.013 218.391 914.039 218.391C915.826 218.391 916.727 219.398 916.742 221.414V227H915.297V221.406C915.292 220.797 915.151 220.346 914.875 220.055C914.604 219.763 914.18 219.617 913.602 219.617C913.133 219.617 912.721 219.742 912.367 219.992C912.013 220.242 911.737 220.57 911.539 220.977V227H910.094V215H911.539V219.57ZM928.094 227C928.01 226.833 927.943 226.536 927.891 226.109C927.219 226.807 926.417 227.156 925.484 227.156C924.651 227.156 923.966 226.922 923.43 226.453C922.898 225.979 922.633 225.38 922.633 224.656C922.633 223.776 922.966 223.094 923.633 222.609C924.305 222.12 925.247 221.875 926.461 221.875H927.867V221.211C927.867 220.706 927.716 220.305 927.414 220.008C927.112 219.706 926.667 219.555 926.078 219.555C925.562 219.555 925.13 219.685 924.781 219.945C924.432 220.206 924.258 220.521 924.258 220.891H922.805C922.805 220.469 922.953 220.062 923.25 219.672C923.552 219.276 923.958 218.964 924.469 218.734C924.984 218.505 925.549 218.391 926.164 218.391C927.138 218.391 927.901 218.635 928.453 219.125C929.005 219.609 929.292 220.279 929.312 221.133V225.023C929.312 225.799 929.411 226.417 929.609 226.875V227H928.094ZM925.695 225.898C926.148 225.898 926.578 225.781 926.984 225.547C927.391 225.312 927.685 225.008 927.867 224.633V222.898H926.734C924.964 222.898 924.078 223.417 924.078 224.453C924.078 224.906 924.229 225.26 924.531 225.516C924.833 225.771 925.221 225.898 925.695 225.898ZM935.664 219.844C935.445 219.807 935.208 219.789 934.953 219.789C934.005 219.789 933.362 220.193 933.023 221V227H931.578V218.547H932.984L933.008 219.523C933.482 218.768 934.154 218.391 935.023 218.391C935.305 218.391 935.518 218.427 935.664 218.5V219.844ZM939.352 216.5V218.547H940.93V219.664H939.352V224.906C939.352 225.245 939.422 225.5 939.562 225.672C939.703 225.839 939.943 225.922 940.281 225.922C940.448 225.922 940.677 225.891 940.969 225.828V227C940.589 227.104 940.219 227.156 939.859 227.156C939.214 227.156 938.727 226.961 938.398 226.57C938.07 226.18 937.906 225.625 937.906 224.906V219.664H936.367V218.547H937.906V216.5H939.352ZM944.195 227H942.75V218.547H944.195V227ZM942.633 216.305C942.633 216.07 942.703 215.872 942.844 215.711C942.99 215.549 943.203 215.469 943.484 215.469C943.766 215.469 943.979 215.549 944.125 215.711C944.271 215.872 944.344 216.07 944.344 216.305C944.344 216.539 944.271 216.734 944.125 216.891C943.979 217.047 943.766 217.125 943.484 217.125C943.203 217.125 942.99 217.047 942.844 216.891C942.703 216.734 942.633 216.539 942.633 216.305ZM951.438 224.758C951.438 224.367 951.289 224.065 950.992 223.852C950.701 223.633 950.188 223.445 949.453 223.289C948.724 223.133 948.143 222.945 947.711 222.727C947.284 222.508 946.966 222.247 946.758 221.945C946.555 221.643 946.453 221.284 946.453 220.867C946.453 220.174 946.745 219.589 947.328 219.109C947.917 218.63 948.667 218.391 949.578 218.391C950.536 218.391 951.312 218.638 951.906 219.133C952.505 219.628 952.805 220.26 952.805 221.031H951.352C951.352 220.635 951.182 220.294 950.844 220.008C950.51 219.721 950.089 219.578 949.578 219.578C949.052 219.578 948.641 219.693 948.344 219.922C948.047 220.151 947.898 220.451 947.898 220.82C947.898 221.169 948.036 221.432 948.312 221.609C948.589 221.786 949.086 221.956 949.805 222.117C950.529 222.279 951.115 222.471 951.562 222.695C952.01 222.919 952.341 223.19 952.555 223.508C952.773 223.82 952.883 224.203 952.883 224.656C952.883 225.411 952.581 226.018 951.977 226.477C951.372 226.93 950.589 227.156 949.625 227.156C948.948 227.156 948.349 227.036 947.828 226.797C947.307 226.557 946.898 226.224 946.602 225.797C946.31 225.365 946.164 224.898 946.164 224.398H947.609C947.635 224.883 947.828 225.268 948.188 225.555C948.552 225.836 949.031 225.977 949.625 225.977C950.172 225.977 950.609 225.867 950.938 225.648C951.271 225.424 951.438 225.128 951.438 224.758ZM956.727 216.5V218.547H958.305V219.664H956.727V224.906C956.727 225.245 956.797 225.5 956.938 225.672C957.078 225.839 957.318 225.922 957.656 225.922C957.823 225.922 958.052 225.891 958.344 225.828V227C957.964 227.104 957.594 227.156 957.234 227.156C956.589 227.156 956.102 226.961 955.773 226.57C955.445 226.18 955.281 225.625 955.281 224.906V219.664H953.742V218.547H955.281V216.5H956.727Z" fill="#FF3E12"/>
<rect x="664.5" y="190.5" width="340" height="62" rx="7.5" stroke="#FF3E12" stroke-dasharray="2 2"/>
<rect x="1015.5" y="190.5" width="141" height="62" rx="7.5" fill="#ECECEC"/>
<path d="M1063.91 225.773H1069.3V227H1062.41V215.625H1063.91V225.773ZM1070.41 222.695C1070.41 221.867 1070.57 221.122 1070.89 220.461C1071.22 219.799 1071.67 219.289 1072.25 218.93C1072.83 218.57 1073.5 218.391 1074.24 218.391C1075.39 218.391 1076.32 218.789 1077.03 219.586C1077.74 220.383 1078.1 221.443 1078.1 222.766V222.867C1078.1 223.69 1077.94 224.43 1077.62 225.086C1077.31 225.737 1076.86 226.245 1076.27 226.609C1075.69 226.974 1075.02 227.156 1074.26 227.156C1073.11 227.156 1072.18 226.758 1071.47 225.961C1070.76 225.164 1070.41 224.109 1070.41 222.797V222.695ZM1071.86 222.867C1071.86 223.805 1072.08 224.557 1072.51 225.125C1072.95 225.693 1073.53 225.977 1074.26 225.977C1074.99 225.977 1075.58 225.69 1076.01 225.117C1076.44 224.539 1076.66 223.732 1076.66 222.695C1076.66 221.768 1076.43 221.018 1075.99 220.445C1075.55 219.867 1074.97 219.578 1074.24 219.578C1073.53 219.578 1072.95 219.862 1072.52 220.43C1072.08 220.997 1071.86 221.81 1071.86 222.867ZM1081.88 216.5V218.547H1083.45V219.664H1081.88V224.906C1081.88 225.245 1081.95 225.5 1082.09 225.672C1082.23 225.839 1082.47 225.922 1082.8 225.922C1082.97 225.922 1083.2 225.891 1083.49 225.828V227C1083.11 227.104 1082.74 227.156 1082.38 227.156C1081.74 227.156 1081.25 226.961 1080.92 226.57C1080.59 226.18 1080.43 225.625 1080.43 224.906V219.664H1078.89V218.547H1080.43V216.5H1081.88ZM1087.11 216.5V218.547H1088.69V219.664H1087.11V224.906C1087.11 225.245 1087.18 225.5 1087.32 225.672C1087.46 225.839 1087.7 225.922 1088.04 225.922C1088.21 225.922 1088.43 225.891 1088.73 225.828V227C1088.35 227.104 1087.98 227.156 1087.62 227.156C1086.97 227.156 1086.48 226.961 1086.16 226.57C1085.83 226.18 1085.66 225.625 1085.66 224.906V219.664H1084.12V218.547H1085.66V216.5H1087.11ZM1093.89 227.156C1092.74 227.156 1091.81 226.781 1091.09 226.031C1090.38 225.276 1090.02 224.268 1090.02 223.008V222.742C1090.02 221.904 1090.17 221.156 1090.49 220.5C1090.82 219.839 1091.26 219.323 1091.84 218.953C1092.41 218.578 1093.04 218.391 1093.71 218.391C1094.81 218.391 1095.66 218.753 1096.27 219.477C1096.88 220.201 1097.19 221.237 1097.19 222.586V223.188H1091.46C1091.48 224.021 1091.72 224.695 1092.19 225.211C1092.66 225.721 1093.25 225.977 1093.97 225.977C1094.48 225.977 1094.91 225.872 1095.27 225.664C1095.62 225.456 1095.93 225.18 1096.2 224.836L1097.08 225.523C1096.37 226.612 1095.31 227.156 1093.89 227.156ZM1093.71 219.578C1093.13 219.578 1092.64 219.792 1092.24 220.219C1091.85 220.641 1091.6 221.234 1091.51 222H1095.74V221.891C1095.7 221.156 1095.5 220.589 1095.15 220.188C1094.79 219.781 1094.32 219.578 1093.71 219.578ZM1102.95 219.844C1102.73 219.807 1102.5 219.789 1102.24 219.789C1101.29 219.789 1100.65 220.193 1100.31 221V227H1098.87V218.547H1100.27L1100.3 219.523C1100.77 218.768 1101.44 218.391 1102.31 218.391C1102.59 218.391 1102.81 218.427 1102.95 218.5V219.844ZM1107.2 224.883L1109.16 218.547H1110.71L1107.31 228.305C1106.79 229.711 1105.95 230.414 1104.8 230.414L1104.53 230.391L1103.99 230.289V229.117L1104.38 229.148C1104.87 229.148 1105.25 229.049 1105.52 228.852C1105.8 228.654 1106.03 228.292 1106.2 227.766L1106.52 226.906L1103.51 218.547H1105.09L1107.2 224.883Z" fill="#FF3E12"/>
<rect x="1015.5" y="190.5" width="141" height="62" rx="7.5" stroke="#FF3E12" stroke-dasharray="2 2"/>
<rect x="897.5" y="268.5" width="226" height="62" rx="7.5" fill="#ECECEC"/>
<path d="M950.938 302.031H946.172L945.102 305H943.555L947.898 293.625H949.211L953.562 305H952.023L950.938 302.031ZM946.625 300.797H950.492L948.555 295.477L946.625 300.797ZM958.953 297.844C958.734 297.807 958.497 297.789 958.242 297.789C957.294 297.789 956.651 298.193 956.312 299V305H954.867V296.547H956.273L956.297 297.523C956.771 296.768 957.443 296.391 958.312 296.391C958.594 296.391 958.807 296.427 958.953 296.5V297.844ZM962.641 294.5V296.547H964.219V297.664H962.641V302.906C962.641 303.245 962.711 303.5 962.852 303.672C962.992 303.839 963.232 303.922 963.57 303.922C963.737 303.922 963.966 303.891 964.258 303.828V305C963.878 305.104 963.508 305.156 963.148 305.156C962.503 305.156 962.016 304.961 961.688 304.57C961.359 304.18 961.195 303.625 961.195 302.906V297.664H959.656V296.547H961.195V294.5H962.641ZM967.484 305H966.039V296.547H967.484V305ZM965.922 294.305C965.922 294.07 965.992 293.872 966.133 293.711C966.279 293.549 966.492 293.469 966.773 293.469C967.055 293.469 967.268 293.549 967.414 293.711C967.56 293.872 967.633 294.07 967.633 294.305C967.633 294.539 967.56 294.734 967.414 294.891C967.268 295.047 967.055 295.125 966.773 295.125C966.492 295.125 966.279 295.047 966.133 294.891C965.992 294.734 965.922 294.539 965.922 294.305ZM974.727 302.758C974.727 302.367 974.578 302.065 974.281 301.852C973.99 301.633 973.477 301.445 972.742 301.289C972.013 301.133 971.432 300.945 971 300.727C970.573 300.508 970.255 300.247 970.047 299.945C969.844 299.643 969.742 299.284 969.742 298.867C969.742 298.174 970.034 297.589 970.617 297.109C971.206 296.63 971.956 296.391 972.867 296.391C973.826 296.391 974.602 296.638 975.195 297.133C975.794 297.628 976.094 298.26 976.094 299.031H974.641C974.641 298.635 974.471 298.294 974.133 298.008C973.799 297.721 973.378 297.578 972.867 297.578C972.341 297.578 971.93 297.693 971.633 297.922C971.336 298.151 971.188 298.451 971.188 298.82C971.188 299.169 971.326 299.432 971.602 299.609C971.878 299.786 972.375 299.956 973.094 300.117C973.818 300.279 974.404 300.471 974.852 300.695C975.299 300.919 975.63 301.19 975.844 301.508C976.062 301.82 976.172 302.203 976.172 302.656C976.172 303.411 975.87 304.018 975.266 304.477C974.661 304.93 973.878 305.156 972.914 305.156C972.237 305.156 971.638 305.036 971.117 304.797C970.596 304.557 970.188 304.224 969.891 303.797C969.599 303.365 969.453 302.898 969.453 302.398H970.898C970.924 302.883 971.117 303.268 971.477 303.555C971.841 303.836 972.32 303.977 972.914 303.977C973.461 303.977 973.898 303.867 974.227 303.648C974.56 303.424 974.727 303.128 974.727 302.758ZM980.016 294.5V296.547H981.594V297.664H980.016V302.906C980.016 303.245 980.086 303.5 980.227 303.672C980.367 303.839 980.607 303.922 980.945 303.922C981.112 303.922 981.341 303.891 981.633 303.828V305C981.253 305.104 980.883 305.156 980.523 305.156C979.878 305.156 979.391 304.961 979.062 304.57C978.734 304.18 978.57 303.625 978.57 302.906V297.664H977.031V296.547H978.57V294.5H980.016ZM984.859 305H983.414V296.547H984.859V305ZM983.297 294.305C983.297 294.07 983.367 293.872 983.508 293.711C983.654 293.549 983.867 293.469 984.148 293.469C984.43 293.469 984.643 293.549 984.789 293.711C984.935 293.872 985.008 294.07 985.008 294.305C985.008 294.539 984.935 294.734 984.789 294.891C984.643 295.047 984.43 295.125 984.148 295.125C983.867 295.125 983.654 295.047 983.508 294.891C983.367 294.734 983.297 294.539 983.297 294.305ZM990.57 303.977C991.086 303.977 991.536 303.82 991.922 303.508C992.307 303.195 992.521 302.805 992.562 302.336H993.93C993.904 302.82 993.737 303.281 993.43 303.719C993.122 304.156 992.711 304.505 992.195 304.766C991.685 305.026 991.143 305.156 990.57 305.156C989.419 305.156 988.503 304.773 987.82 304.008C987.143 303.237 986.805 302.185 986.805 300.852V300.609C986.805 299.786 986.956 299.055 987.258 298.414C987.56 297.773 987.992 297.276 988.555 296.922C989.122 296.568 989.792 296.391 990.562 296.391C991.51 296.391 992.297 296.674 992.922 297.242C993.552 297.81 993.888 298.547 993.93 299.453H992.562C992.521 298.906 992.312 298.458 991.938 298.109C991.568 297.755 991.109 297.578 990.562 297.578C989.828 297.578 989.258 297.844 988.852 298.375C988.451 298.901 988.25 299.664 988.25 300.664V300.938C988.25 301.911 988.451 302.661 988.852 303.188C989.253 303.714 989.826 303.977 990.57 303.977ZM1003.46 297.984L1006.19 293.625H1007.95L1004.36 299.266L1008.04 305H1006.26L1003.46 300.562L1000.65 305H998.875L1002.56 299.266L998.961 293.625H1000.72L1003.46 297.984ZM1016.7 300.867C1016.7 302.154 1016.4 303.19 1015.81 303.977C1015.22 304.763 1014.43 305.156 1013.42 305.156C1012.4 305.156 1011.59 304.831 1011 304.18V308.25H1009.55V296.547H1010.88L1010.95 297.484C1011.53 296.755 1012.35 296.391 1013.4 296.391C1014.41 296.391 1015.22 296.773 1015.8 297.539C1016.4 298.305 1016.7 299.37 1016.7 300.734V300.867ZM1015.25 300.703C1015.25 299.75 1015.05 298.997 1014.64 298.445C1014.23 297.893 1013.68 297.617 1012.97 297.617C1012.09 297.617 1011.44 298.005 1011 298.781V302.82C1011.43 303.591 1012.09 303.977 1012.98 303.977C1013.68 303.977 1014.23 303.703 1014.63 303.156C1015.04 302.604 1015.25 301.786 1015.25 300.703ZM1022.05 305.156C1020.9 305.156 1019.97 304.781 1019.25 304.031C1018.53 303.276 1018.17 302.268 1018.17 301.008V300.742C1018.17 299.904 1018.33 299.156 1018.65 298.5C1018.97 297.839 1019.42 297.323 1019.99 296.953C1020.57 296.578 1021.2 296.391 1021.87 296.391C1022.97 296.391 1023.82 296.753 1024.43 297.477C1025.04 298.201 1025.34 299.237 1025.34 300.586V301.188H1019.62C1019.64 302.021 1019.88 302.695 1020.34 303.211C1020.81 303.721 1021.41 303.977 1022.12 303.977C1022.64 303.977 1023.07 303.872 1023.42 303.664C1023.78 303.456 1024.09 303.18 1024.35 302.836L1025.23 303.523C1024.53 304.612 1023.46 305.156 1022.05 305.156ZM1021.87 297.578C1021.28 297.578 1020.79 297.792 1020.4 298.219C1020 298.641 1019.76 299.234 1019.66 300H1023.9V299.891C1023.86 299.156 1023.66 298.589 1023.3 298.188C1022.95 297.781 1022.47 297.578 1021.87 297.578ZM1031.11 297.844C1030.89 297.807 1030.65 297.789 1030.4 297.789C1029.45 297.789 1028.81 298.193 1028.47 299V305H1027.02V296.547H1028.43L1028.45 297.523C1028.93 296.768 1029.6 296.391 1030.47 296.391C1030.75 296.391 1030.96 296.427 1031.11 296.5V297.844ZM1034.02 305H1032.57V296.547H1034.02V305ZM1032.45 294.305C1032.45 294.07 1032.52 293.872 1032.66 293.711C1032.81 293.549 1033.02 293.469 1033.3 293.469C1033.59 293.469 1033.8 293.549 1033.95 293.711C1034.09 293.872 1034.16 294.07 1034.16 294.305C1034.16 294.539 1034.09 294.734 1033.95 294.891C1033.8 295.047 1033.59 295.125 1033.3 295.125C1033.02 295.125 1032.81 295.047 1032.66 294.891C1032.52 294.734 1032.45 294.539 1032.45 294.305ZM1039.84 305.156C1038.7 305.156 1037.77 304.781 1037.05 304.031C1036.33 303.276 1035.97 302.268 1035.97 301.008V300.742C1035.97 299.904 1036.13 299.156 1036.45 298.5C1036.77 297.839 1037.22 297.323 1037.79 296.953C1038.37 296.578 1038.99 296.391 1039.66 296.391C1040.76 296.391 1041.62 296.753 1042.23 297.477C1042.84 298.201 1043.14 299.237 1043.14 300.586V301.188H1037.41C1037.43 302.021 1037.68 302.695 1038.14 303.211C1038.61 303.721 1039.2 303.977 1039.92 303.977C1040.43 303.977 1040.86 303.872 1041.22 303.664C1041.57 303.456 1041.88 303.18 1042.15 302.836L1043.03 303.523C1042.32 304.612 1041.26 305.156 1039.84 305.156ZM1039.66 297.578C1039.08 297.578 1038.59 297.792 1038.2 298.219C1037.8 298.641 1037.55 299.234 1037.46 300H1041.7V299.891C1041.65 299.156 1041.46 298.589 1041.1 298.188C1040.75 297.781 1040.27 297.578 1039.66 297.578ZM1046.19 296.547L1046.23 297.609C1046.88 296.797 1047.72 296.391 1048.77 296.391C1050.55 296.391 1051.45 297.398 1051.47 299.414V305H1050.02V299.406C1050.02 298.797 1049.88 298.346 1049.6 298.055C1049.33 297.763 1048.91 297.617 1048.33 297.617C1047.86 297.617 1047.45 297.742 1047.09 297.992C1046.74 298.242 1046.46 298.57 1046.27 298.977V305H1044.82V296.547H1046.19ZM1057.04 303.977C1057.55 303.977 1058.01 303.82 1058.39 303.508C1058.78 303.195 1058.99 302.805 1059.03 302.336H1060.4C1060.37 302.82 1060.21 303.281 1059.9 303.719C1059.59 304.156 1059.18 304.505 1058.66 304.766C1058.15 305.026 1057.61 305.156 1057.04 305.156C1055.89 305.156 1054.97 304.773 1054.29 304.008C1053.61 303.237 1053.27 302.185 1053.27 300.852V300.609C1053.27 299.786 1053.42 299.055 1053.73 298.414C1054.03 297.773 1054.46 297.276 1055.02 296.922C1055.59 296.568 1056.26 296.391 1057.03 296.391C1057.98 296.391 1058.77 296.674 1059.39 297.242C1060.02 297.81 1060.36 298.547 1060.4 299.453H1059.03C1058.99 298.906 1058.78 298.458 1058.41 298.109C1058.04 297.755 1057.58 297.578 1057.03 297.578C1056.3 297.578 1055.73 297.844 1055.32 298.375C1054.92 298.901 1054.72 299.664 1054.72 300.664V300.938C1054.72 301.911 1054.92 302.661 1055.32 303.188C1055.72 303.714 1056.29 303.977 1057.04 303.977ZM1065.53 305.156C1064.39 305.156 1063.45 304.781 1062.73 304.031C1062.02 303.276 1061.66 302.268 1061.66 301.008V300.742C1061.66 299.904 1061.82 299.156 1062.13 298.5C1062.46 297.839 1062.9 297.323 1063.48 296.953C1064.05 296.578 1064.68 296.391 1065.35 296.391C1066.45 296.391 1067.3 296.753 1067.91 297.477C1068.52 298.201 1068.83 299.237 1068.83 300.586V301.188H1063.1C1063.12 302.021 1063.36 302.695 1063.83 303.211C1064.3 303.721 1064.89 303.977 1065.61 303.977C1066.12 303.977 1066.55 303.872 1066.91 303.664C1067.26 303.456 1067.57 303.18 1067.84 302.836L1068.72 303.523C1068.01 304.612 1066.95 305.156 1065.53 305.156ZM1065.35 297.578C1064.77 297.578 1064.28 297.792 1063.88 298.219C1063.49 298.641 1063.24 299.234 1063.15 300H1067.38V299.891C1067.34 299.156 1067.14 298.589 1066.79 298.188C1066.43 297.781 1065.96 297.578 1065.35 297.578ZM1075.43 302.758C1075.43 302.367 1075.28 302.065 1074.98 301.852C1074.69 301.633 1074.18 301.445 1073.45 301.289C1072.72 301.133 1072.14 300.945 1071.7 300.727C1071.28 300.508 1070.96 300.247 1070.75 299.945C1070.55 299.643 1070.45 299.284 1070.45 298.867C1070.45 298.174 1070.74 297.589 1071.32 297.109C1071.91 296.63 1072.66 296.391 1073.57 296.391C1074.53 296.391 1075.3 296.638 1075.9 297.133C1076.5 297.628 1076.8 298.26 1076.8 299.031H1075.34C1075.34 298.635 1075.17 298.294 1074.84 298.008C1074.5 297.721 1074.08 297.578 1073.57 297.578C1073.04 297.578 1072.63 297.693 1072.34 297.922C1072.04 298.151 1071.89 298.451 1071.89 298.82C1071.89 299.169 1072.03 299.432 1072.3 299.609C1072.58 299.786 1073.08 299.956 1073.8 300.117C1074.52 300.279 1075.11 300.471 1075.55 300.695C1076 300.919 1076.33 301.19 1076.55 301.508C1076.77 301.82 1076.88 302.203 1076.88 302.656C1076.88 303.411 1076.57 304.018 1075.97 304.477C1075.36 304.93 1074.58 305.156 1073.62 305.156C1072.94 305.156 1072.34 305.036 1071.82 304.797C1071.3 304.557 1070.89 304.224 1070.59 303.797C1070.3 303.365 1070.16 302.898 1070.16 302.398H1071.6C1071.63 302.883 1071.82 303.268 1072.18 303.555C1072.54 303.836 1073.02 303.977 1073.62 303.977C1074.16 303.977 1074.6 303.867 1074.93 303.648C1075.26 303.424 1075.43 303.128 1075.43 302.758Z" fill="#FF3E12"/>
<rect x="897.5" y="268.5" width="226" height="62" rx="7.5" stroke="#FF3E12" stroke-dasharray="2 2"/>
<rect x="664.5" y="268.5" width="219" height="62" rx="7.5" fill="#ECECEC"/>
<path d="M713.141 305H711.641V293.625H713.141V305ZM717.023 296.547L717.062 297.484C717.682 296.755 718.518 296.391 719.57 296.391C720.753 296.391 721.557 296.844 721.984 297.75C722.266 297.344 722.63 297.016 723.078 296.766C723.531 296.516 724.065 296.391 724.68 296.391C726.534 296.391 727.477 297.372 727.508 299.336V305H726.062V299.422C726.062 298.818 725.924 298.367 725.648 298.07C725.372 297.768 724.909 297.617 724.258 297.617C723.721 297.617 723.276 297.779 722.922 298.102C722.568 298.419 722.362 298.849 722.305 299.391V305H720.852V299.461C720.852 298.232 720.25 297.617 719.047 297.617C718.099 297.617 717.451 298.021 717.102 298.828V305H715.656V296.547H717.023ZM731.055 296.547L731.094 297.484C731.714 296.755 732.549 296.391 733.602 296.391C734.784 296.391 735.589 296.844 736.016 297.75C736.297 297.344 736.661 297.016 737.109 296.766C737.562 296.516 738.096 296.391 738.711 296.391C740.565 296.391 741.508 297.372 741.539 299.336V305H740.094V299.422C740.094 298.818 739.956 298.367 739.68 298.07C739.404 297.768 738.94 297.617 738.289 297.617C737.753 297.617 737.307 297.779 736.953 298.102C736.599 298.419 736.393 298.849 736.336 299.391V305H734.883V299.461C734.883 298.232 734.281 297.617 733.078 297.617C732.13 297.617 731.482 298.021 731.133 298.828V305H729.688V296.547H731.055ZM747.234 305.156C746.089 305.156 745.156 304.781 744.438 304.031C743.719 303.276 743.359 302.268 743.359 301.008V300.742C743.359 299.904 743.518 299.156 743.836 298.5C744.159 297.839 744.607 297.323 745.18 296.953C745.758 296.578 746.383 296.391 747.055 296.391C748.154 296.391 749.008 296.753 749.617 297.477C750.227 298.201 750.531 299.237 750.531 300.586V301.188H744.805C744.826 302.021 745.068 302.695 745.531 303.211C746 303.721 746.594 303.977 747.312 303.977C747.823 303.977 748.255 303.872 748.609 303.664C748.964 303.456 749.273 303.18 749.539 302.836L750.422 303.523C749.714 304.612 748.651 305.156 747.234 305.156ZM747.055 297.578C746.471 297.578 745.982 297.792 745.586 298.219C745.19 298.641 744.945 299.234 744.852 300H749.086V299.891C749.044 299.156 748.846 298.589 748.492 298.188C748.138 297.781 747.659 297.578 747.055 297.578ZM756.297 297.844C756.078 297.807 755.841 297.789 755.586 297.789C754.638 297.789 753.995 298.193 753.656 299V305H752.211V296.547H753.617L753.641 297.523C754.115 296.768 754.786 296.391 755.656 296.391C755.938 296.391 756.151 296.427 756.297 296.5V297.844ZM762.555 302.758C762.555 302.367 762.406 302.065 762.109 301.852C761.818 301.633 761.305 301.445 760.57 301.289C759.841 301.133 759.26 300.945 758.828 300.727C758.401 300.508 758.083 300.247 757.875 299.945C757.672 299.643 757.57 299.284 757.57 298.867C757.57 298.174 757.862 297.589 758.445 297.109C759.034 296.63 759.784 296.391 760.695 296.391C761.654 296.391 762.43 296.638 763.023 297.133C763.622 297.628 763.922 298.26 763.922 299.031H762.469C762.469 298.635 762.299 298.294 761.961 298.008C761.628 297.721 761.206 297.578 760.695 297.578C760.169 297.578 759.758 297.693 759.461 297.922C759.164 298.151 759.016 298.451 759.016 298.82C759.016 299.169 759.154 299.432 759.43 299.609C759.706 299.786 760.203 299.956 760.922 300.117C761.646 300.279 762.232 300.471 762.68 300.695C763.128 300.919 763.458 301.19 763.672 301.508C763.891 301.82 764 302.203 764 302.656C764 303.411 763.698 304.018 763.094 304.477C762.49 304.93 761.706 305.156 760.742 305.156C760.065 305.156 759.466 305.036 758.945 304.797C758.424 304.557 758.016 304.224 757.719 303.797C757.427 303.365 757.281 302.898 757.281 302.398H758.727C758.753 302.883 758.945 303.268 759.305 303.555C759.669 303.836 760.148 303.977 760.742 303.977C761.289 303.977 761.727 303.867 762.055 303.648C762.388 303.424 762.555 303.128 762.555 302.758ZM767.453 305H766.008V296.547H767.453V305ZM765.891 294.305C765.891 294.07 765.961 293.872 766.102 293.711C766.247 293.549 766.461 293.469 766.742 293.469C767.023 293.469 767.237 293.549 767.383 293.711C767.529 293.872 767.602 294.07 767.602 294.305C767.602 294.539 767.529 294.734 767.383 294.891C767.237 295.047 767.023 295.125 766.742 295.125C766.461 295.125 766.247 295.047 766.102 294.891C765.961 294.734 765.891 294.539 765.891 294.305ZM772.562 303.039L774.656 296.547H776.133L773.102 305H772L768.938 296.547H770.414L772.562 303.039ZM780.922 305.156C779.776 305.156 778.844 304.781 778.125 304.031C777.406 303.276 777.047 302.268 777.047 301.008V300.742C777.047 299.904 777.206 299.156 777.523 298.5C777.846 297.839 778.294 297.323 778.867 296.953C779.445 296.578 780.07 296.391 780.742 296.391C781.841 296.391 782.695 296.753 783.305 297.477C783.914 298.201 784.219 299.237 784.219 300.586V301.188H778.492C778.513 302.021 778.755 302.695 779.219 303.211C779.688 303.721 780.281 303.977 781 303.977C781.51 303.977 781.943 303.872 782.297 303.664C782.651 303.456 782.961 303.18 783.227 302.836L784.109 303.523C783.401 304.612 782.339 305.156 780.922 305.156ZM780.742 297.578C780.159 297.578 779.669 297.792 779.273 298.219C778.878 298.641 778.633 299.234 778.539 300H782.773V299.891C782.732 299.156 782.534 298.589 782.18 298.188C781.826 297.781 781.346 297.578 780.742 297.578ZM798.492 303.508C798.107 304.06 797.568 304.474 796.875 304.75C796.188 305.021 795.385 305.156 794.469 305.156C793.542 305.156 792.719 304.94 792 304.508C791.281 304.07 790.724 303.451 790.328 302.648C789.938 301.846 789.737 300.917 789.727 299.859V298.867C789.727 297.154 790.125 295.826 790.922 294.883C791.724 293.94 792.849 293.469 794.297 293.469C795.484 293.469 796.44 293.773 797.164 294.383C797.888 294.987 798.331 295.846 798.492 296.961H796.992C796.711 295.456 795.815 294.703 794.305 294.703C793.299 294.703 792.536 295.057 792.016 295.766C791.5 296.469 791.24 297.49 791.234 298.828V299.758C791.234 301.034 791.526 302.049 792.109 302.805C792.693 303.555 793.482 303.93 794.477 303.93C795.039 303.93 795.531 303.867 795.953 303.742C796.375 303.617 796.724 303.406 797 303.109V300.555H794.367V299.336H798.492V303.508ZM805.992 305C805.909 304.833 805.841 304.536 805.789 304.109C805.117 304.807 804.315 305.156 803.383 305.156C802.549 305.156 801.865 304.922 801.328 304.453C800.797 303.979 800.531 303.38 800.531 302.656C800.531 301.776 800.865 301.094 801.531 300.609C802.203 300.12 803.146 299.875 804.359 299.875H805.766V299.211C805.766 298.706 805.615 298.305 805.312 298.008C805.01 297.706 804.565 297.555 803.977 297.555C803.461 297.555 803.029 297.685 802.68 297.945C802.331 298.206 802.156 298.521 802.156 298.891H800.703C800.703 298.469 800.852 298.062 801.148 297.672C801.451 297.276 801.857 296.964 802.367 296.734C802.883 296.505 803.448 296.391 804.062 296.391C805.036 296.391 805.799 296.635 806.352 297.125C806.904 297.609 807.19 298.279 807.211 299.133V303.023C807.211 303.799 807.31 304.417 807.508 304.875V305H805.992ZM803.594 303.898C804.047 303.898 804.477 303.781 804.883 303.547C805.289 303.312 805.583 303.008 805.766 302.633V300.898H804.633C802.862 300.898 801.977 301.417 801.977 302.453C801.977 302.906 802.128 303.26 802.43 303.516C802.732 303.771 803.12 303.898 803.594 303.898ZM811.047 305H809.602V293H811.047V305ZM814.938 305H813.492V293H814.938V305ZM820.766 305.156C819.62 305.156 818.688 304.781 817.969 304.031C817.25 303.276 816.891 302.268 816.891 301.008V300.742C816.891 299.904 817.049 299.156 817.367 298.5C817.69 297.839 818.138 297.323 818.711 296.953C819.289 296.578 819.914 296.391 820.586 296.391C821.685 296.391 822.539 296.753 823.148 297.477C823.758 298.201 824.062 299.237 824.062 300.586V301.188H818.336C818.357 302.021 818.599 302.695 819.062 303.211C819.531 303.721 820.125 303.977 820.844 303.977C821.354 303.977 821.786 303.872 822.141 303.664C822.495 303.456 822.805 303.18 823.07 302.836L823.953 303.523C823.245 304.612 822.182 305.156 820.766 305.156ZM820.586 297.578C820.003 297.578 819.513 297.792 819.117 298.219C818.721 298.641 818.477 299.234 818.383 300H822.617V299.891C822.576 299.156 822.378 298.589 822.023 298.188C821.669 297.781 821.19 297.578 820.586 297.578ZM829.828 297.844C829.609 297.807 829.372 297.789 829.117 297.789C828.169 297.789 827.526 298.193 827.188 299V305H825.742V296.547H827.148L827.172 297.523C827.646 296.768 828.318 296.391 829.188 296.391C829.469 296.391 829.682 296.427 829.828 296.5V297.844ZM834.07 302.883L836.039 296.547H837.586L834.188 306.305C833.661 307.711 832.826 308.414 831.68 308.414L831.406 308.391L830.867 308.289V307.117L831.258 307.148C831.747 307.148 832.128 307.049 832.398 306.852C832.674 306.654 832.901 306.292 833.078 305.766L833.398 304.906L830.383 296.547H831.961L834.07 302.883Z" fill="#FF3E12"/>
<rect x="664.5" y="268.5" width="219" height="62" rx="7.5" stroke="#FF3E12" stroke-dasharray="2 2"/>
</svg>
