<svg width="578" height="174" viewBox="0 0 578 174" fill="none" xmlns="http://www.w3.org/2000/svg">
<path d="M20.7441 75.2881C6.95378 73.971 0.0585938 66.9209 0.0585938 54.1377V3.35352H107.902V20.3203H20.7441V75.2881ZM20.7441 75.2881C21.8288 75.443 23.4945 75.5205 25.7412 75.5205H103.603V92.3711H25.7412C23.4945 92.3711 21.8288 92.4486 20.7441 92.6035V75.2881ZM0.0585938 114.567C0.0585938 107.517 1.68555 102.249 4.93945 98.7627C8.19336 95.2764 13.4616 93.2233 20.7441 92.6035V170H0.0585938V114.567ZM172.399 11.2559C173.329 7.76953 174.607 5.13542 176.234 3.35352C177.939 1.49414 180.302 0.564453 183.323 0.564453C186.345 0.564453 188.708 1.49414 190.412 3.35352C192.117 5.13542 193.434 7.76953 194.363 11.2559L196.92 22.1797C192.581 20.9401 188.049 20.3203 183.323 20.3203C178.675 20.3203 174.181 20.9401 169.843 22.1797L172.399 11.2559ZM144.393 49.1406C146.252 42.2454 149.351 36.5124 153.689 31.9414C158.028 27.3704 163.412 24.1165 169.843 22.1797L149.854 102.365H217.141L196.92 22.1797C203.35 24.1165 208.735 27.3704 213.073 31.9414C217.412 36.5124 220.511 42.2454 222.37 49.1406L255.49 170H234.107L221.208 119.1H145.555L132.888 170H111.505L144.393 49.1406ZM304.88 27.4092C314.874 9.5127 329.943 0.564453 350.086 0.564453C359.925 0.564453 368.409 2.84993 375.536 7.4209C382.741 11.9144 388.707 18.3447 393.433 26.7119C381.579 21.2887 367.13 18.5771 350.086 18.5771C333.042 18.5771 317.973 21.5212 304.88 27.4092ZM393.665 146.409C401.567 131.844 405.519 111.546 405.519 85.5146C405.519 73.7386 404.511 62.8535 402.497 52.8594C400.56 42.8652 397.539 34.1494 393.433 26.7119C405.131 31.9027 414.118 39.4564 420.394 49.373C426.669 59.2897 429.807 71.3369 429.807 85.5146C429.807 100.312 426.669 112.824 420.394 123.051C414.196 133.277 405.286 141.063 393.665 146.409ZM306.739 146.409C294.653 141.063 285.279 133.277 278.616 123.051C272.031 112.747 268.738 100.235 268.738 85.5146C268.738 71.8792 271.876 60.1419 278.151 50.3027C284.504 40.3861 293.414 32.7549 304.88 27.4092C300.929 34.8467 297.946 43.485 295.932 53.3242C293.995 63.1634 293.026 73.8936 293.026 85.5146C293.026 97.6006 294.188 108.834 296.513 119.216C298.837 129.597 302.246 138.662 306.739 146.409ZM350.086 172.905C340.634 172.905 332.267 170.62 324.984 166.049C317.702 161.4 311.62 154.854 306.739 146.409C318.825 151.832 333.274 154.544 350.086 154.544C367.053 154.544 381.579 151.832 393.665 146.409C384.213 164.073 369.687 172.905 350.086 172.905ZM436.198 172.905C426.049 173.138 417.101 171.201 409.354 167.095C401.606 162.911 396.454 156.093 393.897 146.642C402.962 150.593 413.731 152.568 426.204 152.568C428.528 152.568 431.86 152.413 436.198 152.104V172.905ZM479.661 23.1094C482.063 16.3691 486.363 10.946 492.561 6.83984C498.836 2.65625 506.661 0.564453 516.035 0.564453C534.242 0.564453 546.095 8.00195 551.596 22.877C541.059 19.0807 528.973 17.1826 515.338 17.1826C500.85 17.1826 488.958 19.1582 479.661 23.1094ZM554.385 53.6729C554.695 49.4893 554.85 46.5452 554.85 44.8408C554.85 36.4736 553.765 29.1523 551.596 22.877C559.498 25.821 565.735 29.9271 570.306 35.1953C574.877 40.3861 577.278 46.5452 577.511 53.6729H554.385ZM557.755 149.314C559.149 145.441 559.847 141.218 559.847 136.647C559.847 129.597 558.646 123.671 556.244 118.867C553.92 114.064 550.434 109.996 545.785 106.665C541.214 103.334 535.21 100.235 527.772 97.3682L495.582 85.0498C484.038 80.5563 475.206 75.598 469.086 70.1748C462.965 64.7516 459.905 58.1276 459.905 50.3027C459.905 43.9499 461.61 38.488 465.019 33.917C468.427 29.346 473.308 25.7435 479.661 23.1094C478.422 26.6732 477.802 30.3532 477.802 34.1494C477.802 40.1924 478.886 45.2282 481.056 49.2568C483.302 53.208 486.673 56.6169 491.166 59.4834C495.737 62.3499 501.974 65.3327 509.876 68.4316L542.066 80.9824C553.455 85.5534 562.248 91.0153 568.446 97.3682C574.644 103.644 577.743 111.12 577.743 119.797C577.743 126.382 576.039 132.193 572.63 137.229C569.299 142.187 564.34 146.215 557.755 149.314ZM482.566 150.477C464.67 144.124 455.605 132.231 455.373 114.8H478.499C478.189 117.201 478.034 120.688 478.034 125.259C478.034 135.485 479.545 143.891 482.566 150.477ZM520.103 172.905C511.116 172.905 503.446 171.007 497.093 167.211C490.74 163.337 485.898 157.759 482.566 150.477C492.948 154.118 505.964 155.938 521.613 155.938C536.411 155.938 548.458 153.73 557.755 149.314C555.276 156.442 550.821 162.175 544.391 166.514C537.96 170.775 529.864 172.905 520.103 172.905Z" fill="#FF3E12"/>
</svg>