<svg width="1356" height="1094" viewBox="0 0 1356 1094" fill="none" xmlns="http://www.w3.org/2000/svg">
<path d="M104.168 74.9414C117.449 51.0352 134.051 32.7734 153.973 20.1562C174.116 7.31771 197.358 0.898438 223.699 0.898438C276.824 0.898438 314.454 24.2513 336.59 70.957C319.988 64.5378 301.727 59.7786 281.805 56.6797C262.104 53.3594 241.85 51.6992 221.043 51.6992C200.014 51.6992 179.539 53.6914 159.617 57.6758C139.695 61.4388 121.212 67.194 104.168 74.9414ZM357.176 157.949C354.962 124.303 348.1 95.306 336.59 70.957C359.389 79.8112 378.204 91.543 393.035 106.152C408.087 120.54 417.827 137.806 422.254 157.949H357.176ZM107.488 418.926C73.8424 404.095 47.6119 382.292 28.7968 353.516C10.2031 324.518 0.906189 288.77 0.906189 246.27C0.906189 203.991 10.0924 168.685 28.4648 140.352C46.8372 111.797 72.0716 89.9935 104.168 74.9414C81.5898 117.663 70.3007 174.772 70.3007 246.27C70.3007 278.145 73.289 309.245 79.2656 339.57C85.4635 369.896 94.871 396.348 107.488 418.926ZM347.547 418.262C360.828 391.699 367.469 360.267 367.469 323.965V282.461H228.016V240.293H425.906V298.066C425.906 325.293 419.376 349.199 406.316 369.785C393.256 390.15 373.667 406.309 347.547 418.262ZM224.363 493.301C198.243 493.301 175.444 486.771 155.965 473.711C136.707 460.651 120.548 442.389 107.488 418.926C140.249 433.535 178.764 440.84 223.035 440.84C273.061 440.84 314.565 433.314 347.547 418.262C336.7 441.725 320.874 460.098 300.066 473.379C279.259 486.66 254.025 493.301 224.363 493.301ZM561.375 214.395C540.346 212.181 525.516 205.651 516.883 194.805C508.471 183.737 504.266 166.914 504.266 144.336V8.86719H813.719V58.0078H561.375V214.395ZM561.375 214.395C565.359 214.837 572.332 215.059 582.293 215.059H800.769V262.539H582.293C576.316 262.539 569.344 262.982 561.375 263.867V214.395ZM504.266 334.59C504.266 315.111 508.693 299.284 517.547 287.109C526.401 274.935 541.01 267.188 561.375 263.867V436.191H820.359V485H504.266V334.59ZM967.781 36.7578C967.781 26.5755 970.548 18.0534 976.082 11.1914C981.837 4.32943 989.695 0.898438 999.656 0.898438C1008.73 0.898438 1015.93 3.55469 1021.24 8.86719C1026.77 14.1797 1030.54 21.0417 1032.53 29.4531L1039.17 59.3359C1030.09 58.0078 1020.8 57.3438 1011.28 57.3438C994.676 57.3438 980.177 59.5573 967.781 63.9844V36.7578ZM1260.96 8.86719H1319.4V355.84C1319.4 373.991 1314.09 389.375 1303.46 401.992C1293.06 414.609 1278.89 423.906 1260.96 429.883V8.86719ZM1189.58 433.867C1167.66 430.768 1149.73 422.467 1135.79 408.965C1121.84 395.462 1111.88 375.43 1105.91 348.867L1039.17 59.3359C1060.64 62.4349 1078.13 70.7357 1091.63 84.2383C1105.35 97.5195 1115.31 117.552 1121.51 144.336L1189.58 433.867ZM909.344 148.984C909.344 126.628 914.546 108.477 924.949 94.5312C935.353 80.3646 949.63 70.1823 967.781 63.9844V485H909.344V148.984ZM1228.76 493.301C1219.46 493.301 1212.16 490.534 1206.84 485C1201.75 479.466 1197.99 471.497 1195.55 461.094L1189.58 433.867C1199.76 435.417 1209.06 436.191 1217.47 436.191C1232.74 436.191 1247.24 434.089 1260.96 429.883V456.445C1260.96 467.956 1258.09 477.031 1252.33 483.672C1246.8 490.091 1238.94 493.301 1228.76 493.301ZM88.5624 814.395C67.5338 812.181 52.7031 805.651 44.0703 794.805C35.6588 783.737 31.4531 766.914 31.4531 744.336V608.867H340.906V658.008H88.5624V814.395ZM88.5624 814.395C92.5468 814.837 99.5195 815.059 109.48 815.059H327.957V862.539H109.48C103.504 862.539 96.5312 862.982 88.5624 863.867V814.395ZM31.4531 934.59C31.4531 915.111 35.8801 899.284 44.7343 887.109C53.5885 874.935 68.1979 867.188 88.5624 863.867V1036.19H347.547V1085H31.4531V934.59ZM482.019 665.312C488.881 646.055 501.167 630.56 518.875 618.828C536.805 606.875 559.161 600.898 585.945 600.898C637.963 600.898 671.831 622.148 687.547 664.648C657.443 653.802 622.911 648.379 583.953 648.379C542.56 648.379 508.582 654.023 482.019 665.312ZM695.516 752.637C696.401 740.684 696.844 732.272 696.844 727.402C696.844 703.496 693.745 682.578 687.547 664.648C710.125 673.06 727.944 684.792 741.004 699.844C754.064 714.674 760.926 732.272 761.59 752.637H695.516ZM705.144 1025.9C709.129 1014.83 711.121 1002.77 711.121 989.707C711.121 969.564 707.69 952.63 700.828 938.906C694.187 925.182 684.227 913.561 670.945 904.043C657.885 894.525 640.73 885.671 619.48 877.48L527.508 842.285C494.526 829.447 469.292 815.28 451.805 799.785C434.318 784.29 425.574 765.365 425.574 743.008C425.574 724.857 430.444 709.251 440.184 696.191C449.923 683.132 463.868 672.839 482.019 665.312C478.478 675.495 476.707 686.009 476.707 696.855C476.707 714.121 479.806 728.509 486.004 740.02C492.423 751.309 502.052 761.048 514.891 769.238C527.95 777.428 545.769 785.951 568.348 794.805L660.32 830.664C692.859 843.724 717.983 859.329 735.691 877.48C753.4 895.41 762.254 916.771 762.254 941.562C762.254 960.378 757.384 976.979 747.644 991.367C738.126 1005.53 723.96 1017.04 705.144 1025.9ZM490.32 1029.22C439.187 1011.07 413.289 977.09 412.625 927.285H478.699C477.814 934.147 477.371 944.108 477.371 957.168C477.371 986.387 481.687 1010.4 490.32 1029.22ZM597.566 1093.3C571.889 1093.3 549.975 1087.88 531.824 1077.03C513.673 1065.96 499.838 1050.03 490.32 1029.22C519.982 1039.62 557.169 1044.82 601.883 1044.82C644.161 1044.82 678.582 1038.52 705.144 1025.9C698.061 1046.26 685.333 1062.64 666.961 1075.04C648.588 1087.21 625.457 1093.3 597.566 1093.3ZM856.883 608.867H913.992V1085H856.883V608.867ZM1075.69 665.312C1082.55 646.055 1094.84 630.56 1112.55 618.828C1130.48 606.875 1152.83 600.898 1179.62 600.898C1231.64 600.898 1265.5 622.148 1281.22 664.648C1251.11 653.802 1216.58 648.379 1177.62 648.379C1136.23 648.379 1102.25 654.023 1075.69 665.312ZM1289.19 752.637C1290.07 740.684 1290.52 732.272 1290.52 727.402C1290.52 703.496 1287.42 682.578 1281.22 664.648C1303.8 673.06 1321.62 684.792 1334.68 699.844C1347.74 714.674 1354.6 732.272 1355.26 752.637H1289.19ZM1298.82 1025.9C1302.8 1014.83 1304.79 1002.77 1304.79 989.707C1304.79 969.564 1301.36 952.63 1294.5 938.906C1287.86 925.182 1277.9 913.561 1264.62 904.043C1251.56 894.525 1234.4 885.671 1213.15 877.48L1121.18 842.285C1088.2 829.447 1062.96 815.28 1045.48 799.785C1027.99 784.29 1019.25 765.365 1019.25 743.008C1019.25 724.857 1024.12 709.251 1033.86 696.191C1043.59 683.132 1057.54 672.839 1075.69 665.312C1072.15 675.495 1070.38 686.009 1070.38 696.855C1070.38 714.121 1073.48 728.509 1079.68 740.02C1086.09 751.309 1095.72 761.048 1108.56 769.238C1121.62 777.428 1139.44 785.951 1162.02 794.805L1253.99 830.664C1286.53 843.724 1311.65 859.329 1329.36 877.48C1347.07 895.41 1355.93 916.771 1355.93 941.562C1355.93 960.378 1351.06 976.979 1341.32 991.367C1331.8 1005.53 1317.63 1017.04 1298.82 1025.9ZM1083.99 1029.22C1032.86 1011.07 1006.96 977.09 1006.3 927.285H1072.37C1071.49 934.147 1071.04 944.108 1071.04 957.168C1071.04 986.387 1075.36 1010.4 1083.99 1029.22ZM1191.24 1093.3C1165.56 1093.3 1143.65 1087.88 1125.5 1077.03C1107.34 1065.96 1093.51 1050.03 1083.99 1029.22C1113.65 1039.62 1150.84 1044.82 1195.55 1044.82C1237.83 1044.82 1272.25 1038.52 1298.82 1025.9C1291.73 1046.26 1279.01 1062.64 1260.63 1075.04C1242.26 1087.21 1219.13 1093.3 1191.24 1093.3Z" fill="#FF3E12"/>
</svg>
