<svg xmlns="http://www.w3.org/2000/svg" fill="none" viewBox="163.58 10.76 1036.83 256.65">
  <path d="M335.836 26.565C343.231 23.23 351.931 21.635 360.776 21.635C369.476 21.635 378.176 22.94 385.426 25.695C381.221 16.85 373.826 10.76 361.356 10.76C349.901 10.76 341.346 16.56 335.836 26.565ZM389.776 44.255H403.696C401.666 35.265 394.706 29.32 385.426 25.695C388.036 31.205 389.341 37.585 389.776 44.255ZM336.561 99.935C330.906 89.785 328.586 75.865 328.586 63.105C328.586 48.17 331.051 35.7 335.836 26.565C322.931 32.655 313.796 44.255 313.796 63.105C313.796 81.81 322.641 93.845 336.561 99.935ZM387.746 99.79C399.056 94.57 404.421 85.58 404.421 74.125V61.8H362.226V70.79H391.951V79.635C391.951 87.03 390.646 93.99 387.746 99.79ZM361.501 115.74C374.551 115.74 383.251 109.36 387.746 99.79C381.076 102.835 372.231 104.575 361.211 104.575C352.076 104.575 343.666 103.125 336.561 99.935C341.781 109.36 349.756 115.74 361.501 115.74ZM433.321 56.29V22.94H487.116V12.5H421.141V41.355C421.141 50.78 424.186 55.275 433.321 56.29ZM433.321 66.875C434.626 66.73 436.221 66.585 437.816 66.585H484.361V56.435H437.816C436.221 56.435 434.626 56.435 433.321 56.29V66.875ZM421.141 114H488.566V103.56H433.321V66.875C424.186 68.325 421.141 74.125 421.141 81.955V114ZM498.676 22.65H535.216C534.636 15.69 529.561 12.5 521.586 12.5H498.676V22.65ZM547.541 22.65H584.081V12.5H561.171C553.196 12.5 548.121 15.69 547.541 22.65ZM535.216 114H547.541V22.65H535.216V114ZM661.353 63.685C661.208 58.32 660.483 55.42 656.568 48.315L636.993 12.5H623.218V12.645L647.288 53.245C650.623 58.755 655.408 62.235 661.353 63.685ZM672.808 63.685C678.608 62.38 682.813 58.9 686.293 53.39L711.813 12.645V12.5H698.038L677.593 48.315C673.533 55.42 672.953 58.32 672.808 63.685ZM661.353 114H672.808V63.685C671.068 64.12 669.183 64.265 667.153 64.265C665.123 64.265 663.093 64.12 661.353 63.685V114ZM738.975 27.145C746.66 23.665 756.085 21.78 766.525 21.78C776.675 21.78 785.665 23.375 792.915 26.71C787.405 16.85 778.85 10.76 766.525 10.76C753.475 10.76 744.63 16.995 738.975 27.145ZM792.915 99.645C806.98 93.41 815.1 80.94 815.1 62.525C815.1 44.98 806.98 32.945 792.915 26.71C797.99 35.99 800.31 48.605 800.31 62.525C800.31 77.17 797.99 90.22 792.915 99.645ZM740.135 99.645C734.625 90.22 731.725 77.17 731.725 62.525C731.725 48.75 734.045 36.425 738.975 27.145C725.345 33.525 716.935 45.56 716.935 62.525C716.935 80.94 725.78 93.265 740.135 99.645ZM766.525 115.74C778.85 115.74 787.55 109.65 792.915 99.645C785.665 102.98 776.675 104.575 766.525 104.575C756.52 104.575 747.53 102.98 740.135 99.645C745.935 109.65 754.78 115.74 766.525 115.74ZM845.271 99.935C844.546 97.905 844.256 95.73 844.256 93.555V12.5H831.786V77.895C831.786 88.19 836.426 95.585 845.271 99.935ZM895.876 99.935C905.011 95.585 909.651 88.045 909.651 77.895V12.5H896.891V93.555C896.891 95.73 896.601 97.905 895.876 99.935ZM870.501 115.74C884.276 115.74 893.121 108.78 895.876 99.935C889.641 102.98 881.086 104.575 870.501 104.575C860.061 104.575 851.506 102.98 845.271 99.935C848.171 108.78 857.016 115.74 870.501 115.74ZM932.889 114H945.359V70.645H988.279C990.599 70.645 992.774 70.935 994.659 71.37V59.77C992.629 60.205 990.599 60.495 988.279 60.495H945.359V22.07H982.044C986.249 22.07 990.164 22.505 993.644 23.52C991.469 16.415 985.959 12.5 975.374 12.5H932.889V114ZM994.659 59.77C1002.92 57.595 1008.14 51.36 1008.14 41.79C1008.14 31.93 1002.63 25.985 993.644 23.52C994.369 25.985 994.659 28.885 994.659 32.075V59.77ZM994.659 113.855H1007.71V89.64C1007.71 79.2 1002.78 73.255 994.659 71.37V113.855ZM191.272 251.895C185.956 251.798 180.784 251.363 175.757 250.59C170.731 249.72 166.671 248.56 163.577 247.11V234.785C166.864 236.332 171.069 237.685 176.192 238.845C181.316 240.005 186.342 240.633 191.272 240.73V211.44C181.702 208.83 174.694 205.543 170.247 201.58C165.801 197.617 163.577 192.203 163.577 185.34C163.577 178.187 166.042 172.58 170.972 168.52C175.999 164.46 182.766 162.188 191.272 161.705V148.945H200.552V161.56C205.676 161.657 210.316 162.237 214.472 163.3C218.726 164.267 222.592 165.475 226.072 166.925L222.157 177.655C219.064 176.398 215.632 175.335 211.862 174.465C208.189 173.498 204.419 172.87 200.552 172.58V201.725C206.932 203.562 212.249 205.543 216.502 207.67C220.756 209.7 223.946 212.262 226.072 215.355C228.296 218.352 229.407 222.267 229.407 227.1C229.407 233.867 226.894 239.377 221.867 243.63C216.841 247.787 209.736 250.348 200.552 251.315V267.41H191.272V251.895ZM191.272 172.87C186.052 173.257 182.186 174.465 179.672 176.495C177.256 178.525 176.047 181.135 176.047 184.325C176.047 188.192 177.111 191.188 179.237 193.315C181.461 195.345 185.472 197.085 191.272 198.535V172.87ZM200.552 240.005C206.256 239.425 210.412 238.12 213.022 236.09C215.632 233.963 216.937 231.257 216.937 227.97C216.937 224.297 215.777 221.542 213.457 219.705C211.137 217.772 206.836 216.032 200.552 214.485V240.005ZM258.881 169.535C264.536 167.07 271.931 165.91 280.631 165.91C288.751 165.91 296.436 167.07 302.671 169.39C299.336 160.255 292.086 155.76 281.066 155.76C269.176 155.76 261.636 161.705 258.881 169.535ZM304.411 188.095H318.476C318.186 179.105 311.951 172.87 302.671 169.39C303.976 173.015 304.701 177.51 304.701 182.73C304.701 184.47 304.556 186.21 304.411 188.095ZM306.441 246.385C314.561 242.615 318.621 236.38 318.621 228.405C318.621 217.385 310.066 209.99 296.871 204.77L277.296 197.085C263.811 191.865 257.721 187.515 257.721 176.205C257.721 173.885 258.156 171.565 258.881 169.535C251.196 172.725 246.846 178.235 246.846 186.065C246.846 196.36 255.981 202.305 268.596 207.235L288.171 214.775C301.076 219.705 307.746 225.505 307.746 238.7C307.746 241.455 307.311 244.065 306.441 246.385ZM260.621 247.11C258.736 242.905 257.866 237.83 257.866 231.74C257.866 229.71 257.866 227.535 258.156 225.36H244.091C244.236 236.67 250.471 243.485 260.621 247.11ZM283.531 260.74C295.856 260.74 303.541 254.65 306.441 246.385C300.931 248.995 293.536 250.445 284.401 250.445C275.411 250.445 267.291 249.43 260.621 247.11C264.681 255.955 272.511 260.74 283.531 260.74ZM353.04 172.145C360.725 168.665 370.15 166.78 380.59 166.78C390.74 166.78 399.73 168.375 406.98 171.71C401.47 161.85 392.915 155.76 380.59 155.76C367.54 155.76 358.695 161.995 353.04 172.145ZM406.98 244.645C421.045 238.41 429.165 225.94 429.165 207.525C429.165 189.98 421.045 177.945 406.98 171.71C412.055 180.99 414.375 193.605 414.375 207.525C414.375 222.17 412.055 235.22 406.98 244.645ZM354.2 244.645C348.69 235.22 345.79 222.17 345.79 207.525C345.79 193.75 348.11 181.425 353.04 172.145C339.41 178.525 331 190.56 331 207.525C331 225.94 339.845 238.265 354.2 244.645ZM380.59 260.74C392.915 260.74 401.615 254.65 406.98 244.645C399.73 247.98 390.74 249.575 380.59 249.575C370.585 249.575 361.595 247.98 354.2 244.645C360 254.65 368.845 260.74 380.59 260.74ZM459.335 244.935C458.61 242.905 458.32 240.73 458.32 238.555V157.5H445.85V222.895C445.85 233.19 450.49 240.585 459.335 244.935ZM509.94 244.935C519.075 240.585 523.715 233.045 523.715 222.895V157.5H510.955V238.555C510.955 240.73 510.665 242.905 509.94 244.935ZM484.565 260.74C498.34 260.74 507.185 253.78 509.94 244.935C503.705 247.98 495.15 249.575 484.565 249.575C474.125 249.575 465.57 247.98 459.335 244.935C462.235 253.78 471.08 260.74 484.565 260.74ZM546.954 259H615.104V248.705H559.134V157.5H546.954V259ZM643.157 208.685C643.012 203.32 642.287 200.42 638.372 193.315L618.797 157.5H605.022V157.645L629.092 198.245C632.427 203.755 637.212 207.235 643.157 208.685ZM654.612 208.685C660.412 207.38 664.617 203.9 668.097 198.39L693.617 157.645V157.5H679.842L659.397 193.315C655.337 200.42 654.757 203.32 654.612 208.685ZM643.157 259H654.612V208.685C652.872 209.12 650.987 209.265 648.957 209.265C646.927 209.265 644.897 209.12 643.157 208.685V259ZM862.735 169.245C865.49 168.23 868.68 167.795 872.015 167.795C874.19 167.795 876.075 167.94 877.96 168.23L876.51 161.85C875.785 158.515 873.61 155.76 869.55 155.76C865.055 155.76 862.735 159.24 862.735 163.445V169.245ZM925.23 247.255C932.625 244.79 937.7 239.425 937.7 231.45V157.5H925.23V247.255ZM910.005 248.125L895.505 186.355C892.75 174.61 886.805 169.535 877.96 168.23L892.17 230C894.78 241.745 901.015 246.82 910.005 248.125ZM850.265 259H862.735V169.245C855.34 171.71 850.265 177.365 850.265 187.37V259ZM918.415 260.74C922.765 260.74 925.23 257.695 925.23 252.91V247.255C922.475 248.125 919.285 248.56 915.95 248.56C913.775 248.56 911.89 248.415 910.005 248.125L911.31 253.925C912.325 257.985 914.21 260.74 918.415 260.74ZM976.37 172.145C984.055 168.665 993.48 166.78 1003.92 166.78C1014.07 166.78 1023.06 168.375 1030.31 171.71C1024.8 161.85 1016.25 155.76 1003.92 155.76C990.87 155.76 982.025 161.995 976.37 172.145ZM1030.31 244.645C1044.38 238.41 1052.5 225.94 1052.5 207.525C1052.5 189.98 1044.38 177.945 1030.31 171.71C1035.39 180.99 1037.71 193.605 1037.71 207.525C1037.71 222.17 1035.39 235.22 1030.31 244.645ZM977.53 244.645C972.02 235.22 969.12 222.17 969.12 207.525C969.12 193.75 971.44 181.425 976.37 172.145C962.74 178.525 954.33 190.56 954.33 207.525C954.33 225.94 963.175 238.265 977.53 244.645ZM1003.92 260.74C1016.25 260.74 1024.95 254.65 1030.31 244.645C1023.06 247.98 1014.07 249.575 1003.92 249.575C993.915 249.575 984.925 247.98 977.53 244.645C983.33 254.65 992.175 260.74 1003.92 260.74ZM1124.14 169.535C1126.46 169.1 1128.92 168.81 1131.53 168.81C1134.14 168.81 1136.61 169.1 1138.93 169.535L1138.2 162.14C1137.77 158.37 1135.16 155.76 1131.53 155.76C1127.76 155.76 1125.3 158.37 1124.86 162.14L1124.14 169.535ZM1088.47 247.98L1076.14 157.5H1062.66L1073.1 228.695C1074.69 239.135 1079.33 245.805 1088.47 247.98ZM1174.6 247.98C1183.73 245.805 1188.37 239.135 1189.97 228.695L1200.41 157.5H1186.92L1174.6 247.98ZM1103.84 247.69C1112.54 245.225 1117.32 238.41 1118.34 227.97L1124.14 169.535C1115.58 171.565 1109.93 177.365 1109.06 187.66L1103.84 247.69ZM1159.23 247.69L1154.01 187.66C1153.14 177.365 1147.48 171.565 1138.93 169.535L1144.73 227.97C1145.74 238.41 1150.53 245.225 1159.23 247.69ZM1096.3 260.74C1100.07 260.74 1102.97 258.42 1103.4 253.345L1103.84 247.69C1101.37 248.415 1098.62 248.705 1095.57 248.705C1092.96 248.705 1090.64 248.415 1088.47 247.98L1089.19 253.055C1089.92 257.985 1092.24 260.74 1096.3 260.74ZM1166.77 260.74C1170.83 260.74 1173.15 257.985 1173.87 253.055L1174.6 247.98C1172.42 248.415 1170.1 248.705 1167.49 248.705C1164.45 248.705 1161.69 248.415 1159.23 247.69L1159.66 253.345C1160.1 258.42 1163 260.74 1166.77 260.74Z" fill="#FF3E12"/>
  <path d="M742.709 201.145L742.5 202.123L743.831 202.408L743.705 201.052L742.709 201.145ZM735.894 181.425L735.053 181.965L735.054 181.968L735.894 181.425ZM720.524 157.5L721.366 156.959L721.071 156.5H720.524V157.5ZM705.154 157.5V156.5H704.154V157.5H705.154ZM705.154 157.79H704.154V158.104L704.334 158.362L705.154 157.79ZM728.789 191.72L729.618 191.16L729.61 191.148L728.789 191.72ZM755.034 201.145L754.045 201.004L753.852 202.351L755.195 202.132L755.034 201.145ZM769.534 191.72L768.706 191.16L768.706 191.16L769.534 191.72ZM792.589 157.645L793.418 158.205L793.589 157.952V157.645H792.589ZM792.589 157.5H793.589V156.5H792.589V157.5ZM778.38 157.5V156.5H777.84L777.544 156.951L778.38 157.5ZM762.575 181.57L763.409 182.121L763.41 182.119L762.575 181.57ZM742.565 213.76L741.575 213.619L741.372 215.038L742.774 214.738L742.565 213.76ZM755.034 213.76L754.825 214.738L756.227 215.038L756.024 213.619L755.034 213.76ZM755.034 201.145L756.027 201.269L756.204 199.849L754.81 200.171L755.034 201.145ZM742.709 201.145L742.934 200.171L741.527 199.846L741.718 201.277L742.709 201.145ZM701.529 259H700.529V260H701.529V259ZM716.609 259V260H717.141L717.439 259.559L716.609 259ZM734.299 232.755L735.129 233.314L735.129 233.313L734.299 232.755ZM742.565 213.76L743.553 213.908L743.764 212.506L742.372 212.779L742.565 213.76ZM724.294 226.81L723.484 226.224L723.479 226.231L724.294 226.81ZM701.529 258.855L700.714 258.276L700.529 258.536V258.855H701.529ZM781.714 259L780.891 259.568L781.189 260H781.714V259ZM796.505 259V260H797.505V259H796.505ZM796.505 258.855H797.505V258.534L797.318 258.273L796.505 258.855ZM773.45 226.665L772.636 227.246L772.637 227.247L773.45 226.665ZM755.034 213.76L755.202 212.774L753.841 212.542L754.046 213.908L755.034 213.76ZM764.315 233.77L763.491 234.338L764.315 233.77ZM743.705 201.052C743.113 194.683 741.33 187.998 736.735 180.882L735.054 181.968C739.449 188.772 741.146 195.137 741.714 201.238L743.705 201.052ZM736.736 180.884L721.366 156.959L719.683 158.04L735.053 181.965L736.736 180.884ZM720.524 156.5H705.154V158.5H720.524V156.5ZM704.154 157.5V157.79H706.154V157.5H704.154ZM704.334 158.362L727.969 192.292L729.61 191.148L705.975 157.218L704.334 158.362ZM727.961 192.28C731.435 197.416 736.148 200.762 742.5 202.123L742.919 200.167C737.091 198.918 732.814 195.884 729.618 191.16L727.961 192.28ZM755.195 202.132C761.714 201.071 766.591 197.863 770.363 192.28L768.706 191.16C765.228 196.307 760.825 199.189 754.874 200.158L755.195 202.132ZM770.363 192.28L793.418 158.205L791.761 157.085L768.706 191.16L770.363 192.28ZM793.589 157.645V157.5H791.589V157.645H793.589ZM792.589 156.5H778.38V158.5H792.589V156.5ZM777.544 156.951L761.739 181.021L763.41 182.119L779.215 158.049L777.544 156.951ZM761.74 181.019C757.158 187.967 754.934 194.778 754.045 201.004L756.024 201.286C756.875 195.332 759.001 188.803 763.409 182.121L761.74 181.019ZM742.774 214.738C744.714 214.322 746.669 214.18 748.799 214.18V212.18C746.58 212.18 744.475 212.328 742.355 212.782L742.774 214.738ZM748.799 214.18C750.93 214.18 752.885 214.322 754.825 214.738L755.244 212.782C753.124 212.328 751.019 212.18 748.799 212.18V214.18ZM756.024 213.619C755.741 211.635 755.599 209.652 755.599 207.67H753.599C753.599 209.748 753.748 211.825 754.045 213.901L756.024 213.619ZM755.599 207.67C755.599 205.687 755.741 203.554 756.027 201.269L754.042 201.021C753.748 203.376 753.599 205.593 753.599 207.67H755.599ZM754.81 200.171C753.03 200.581 750.94 200.725 748.799 200.725V202.725C751.009 202.725 753.269 202.579 755.259 202.119L754.81 200.171ZM748.799 200.725C746.664 200.725 744.717 200.582 742.934 200.171L742.485 202.119C744.472 202.578 746.585 202.725 748.799 202.725V200.725ZM741.718 201.277C741.998 203.376 742 205.484 742 207.67H744C744 205.506 744.001 203.264 743.701 201.013L741.718 201.277ZM742 207.67C742 209.795 741.858 211.633 741.575 213.619L743.554 213.901C743.851 211.827 744 209.895 744 207.67H742ZM701.529 260H716.609V258H701.529V260ZM717.439 259.559L735.129 233.314L733.47 232.196L715.78 258.441L717.439 259.559ZM735.129 233.313C740.258 225.693 742.655 219.899 743.553 213.908L741.576 213.612C740.734 219.221 738.491 224.737 733.47 232.197L735.129 233.313ZM742.372 212.779C735.398 214.143 729.25 218.24 723.484 226.225L725.105 227.395C730.649 219.72 736.391 215.987 742.757 214.741L742.372 212.779ZM723.479 226.231L700.714 258.276L702.345 259.434L725.11 227.389L723.479 226.231ZM700.529 258.855V259H702.529V258.855H700.529ZM781.714 260H796.505V258H781.714V260ZM797.505 259V258.855H795.505V259H797.505ZM797.318 258.273L774.263 226.083L772.637 227.247L795.692 259.437L797.318 258.273ZM774.263 226.084C768.344 217.797 762.331 213.988 755.202 212.774L754.867 214.746C761.368 215.852 766.955 219.293 772.636 227.246L774.263 226.084ZM754.046 213.908C754.948 219.925 757.653 225.872 763.491 234.338L765.138 233.202C759.376 224.848 756.861 219.195 756.023 213.612L754.046 213.908ZM763.491 234.338L780.891 259.568L782.538 258.432L765.138 233.202L763.491 234.338Z" fill="#FF3E12"/>
</svg>