<svg width="894" height="290" viewBox="0 0 894 290" fill="none" xmlns="http://www.w3.org/2000/svg">
<path d="M430.199 210.156L429.986 211.133L431.321 211.424L431.194 210.063L430.199 210.156ZM416.322 200.739L417.149 200.177L417.143 200.168L416.322 200.739ZM392.674 166.755H391.674V167.069L391.853 167.326L392.674 166.755ZM392.674 166.472V165.472H391.674V166.472H392.674ZM408.038 166.472L408.88 165.931L408.584 165.472H408.038V166.472ZM423.402 190.402L424.246 189.866L424.243 189.862L423.402 190.402ZM442.518 210.156L441.53 210.003L441.322 211.348L442.668 211.144L442.518 210.156ZM450.094 190.544L450.93 191.093L450.93 191.092L450.094 190.544ZM465.882 166.472V165.472H465.342L465.046 165.923L465.882 166.472ZM480.113 166.472H481.113V165.472H480.113V166.472ZM480.113 166.613L480.942 167.174L481.113 166.92V166.613H480.113ZM457.032 200.739L456.204 200.179L456.2 200.185L457.032 200.739ZM450.731 207.111L450.188 206.272L450.18 206.277L450.731 207.111ZM430.057 222.758L429.066 222.623L428.876 224.021L430.258 223.738L430.057 222.758ZM430.199 210.156L430.416 209.18L429.025 208.87L429.207 210.284L430.199 210.156ZM442.518 210.156L443.511 210.277L443.684 208.864L442.295 209.181L442.518 210.156ZM442.518 222.758L442.307 223.736L443.702 224.037L443.509 222.623L442.518 222.758ZM389.063 267.858L388.248 267.28L388.063 267.54V267.858H389.063ZM411.791 235.786L410.982 235.197L410.975 235.207L411.791 235.786ZM420.428 226.936L421.001 227.755L421.003 227.754L420.428 226.936ZM430.057 222.758L431.047 222.9L431.246 221.508L429.866 221.777L430.057 222.758ZM427.438 231.75L426.521 231.349L426.518 231.356L427.438 231.75ZM421.773 241.733L420.946 241.171L420.943 241.176L421.773 241.733ZM404.144 268V269H404.677L404.974 268.557L404.144 268ZM389.063 268H388.063V269H389.063V268ZM451.793 242.795L450.967 243.358L450.97 243.363L451.793 242.795ZM445.35 231.892L444.44 232.305L444.445 232.317L445.35 231.892ZM442.518 222.758L442.678 221.771L441.314 221.55L441.53 222.915L442.518 222.758ZM452.218 226.723L451.645 227.543L451.654 227.549L452.218 226.723ZM460.926 235.644L461.739 235.062L461.737 235.058L460.926 235.644ZM484.007 267.858H485.007V267.537L484.82 267.276L484.007 267.858ZM484.007 268V269H485.007V268H484.007ZM469.21 268L468.387 268.568L468.685 269H469.21V268ZM430.411 209.179C424.812 207.959 420.405 204.971 417.149 200.177L415.495 201.301C419.035 206.514 423.88 209.803 429.986 211.133L430.411 209.179ZM417.143 200.168L393.495 166.184L391.853 167.326L415.501 201.31L417.143 200.168ZM393.674 166.755V166.472H391.674V166.755H393.674ZM392.674 167.472H408.038V165.472H392.674V167.472ZM407.197 167.012L422.56 190.943L424.243 189.862L408.88 165.931L407.197 167.012ZM422.558 190.939C426.345 196.896 428.557 203.329 429.203 210.249L431.194 210.063C430.519 202.823 428.2 196.086 424.246 189.866L422.558 190.939ZM443.506 210.308C444.57 203.419 447.042 197.017 450.93 191.093L449.258 189.995C445.216 196.155 442.638 202.827 441.53 210.003L443.506 210.308ZM450.93 191.092L466.719 167.02L465.046 165.923L449.258 189.996L450.93 191.092ZM465.882 167.472H480.113V165.472H465.882V167.472ZM479.113 166.472V166.613H481.113V166.472H479.113ZM479.285 166.053L456.204 200.179L457.861 201.299L480.942 167.174L479.285 166.053ZM456.2 200.185C454.473 202.776 452.466 204.797 450.188 206.272L451.274 207.951C453.81 206.31 456.005 204.084 457.864 201.294L456.2 200.185ZM450.18 206.277C447.954 207.746 445.357 208.714 442.368 209.167L442.668 211.144C445.91 210.653 448.788 209.592 451.282 207.946L450.18 206.277ZM431.048 222.893C431.337 220.774 431.482 218.7 431.482 216.669H429.482C429.482 218.604 429.344 220.589 429.066 222.623L431.048 222.893ZM431.482 216.669C431.482 213.78 431.388 211.556 431.191 210.028L429.207 210.284C429.387 211.681 429.482 213.801 429.482 216.669H431.482ZM429.982 211.132C431.772 211.53 433.879 211.722 436.288 211.722V209.722C433.977 209.722 432.024 209.537 430.416 209.18L429.982 211.132ZM436.288 211.722C438.832 211.722 440.99 211.531 442.741 211.131L442.295 209.181C440.742 209.536 438.746 209.722 436.288 209.722V211.722ZM441.525 210.034C441.238 212.382 441.093 214.594 441.093 216.669H443.093C443.093 214.686 443.232 212.556 443.511 210.277L441.525 210.034ZM441.093 216.669C441.093 218.7 441.238 220.774 441.527 222.893L443.509 222.623C443.231 220.589 443.093 218.604 443.093 216.669H441.093ZM442.729 221.781C440.894 221.384 438.743 221.192 436.288 221.192V223.192C438.647 223.192 440.649 223.377 442.307 223.736L442.729 221.781ZM436.288 221.192C433.922 221.192 431.776 221.385 429.856 221.779L430.258 223.738C432.02 223.377 434.027 223.192 436.288 223.192V221.192ZM389.879 268.437L412.606 236.364L410.975 235.207L388.248 267.28L389.879 268.437ZM412.599 236.374C415.337 232.615 418.141 229.753 421.001 227.755L419.856 226.116C416.768 228.272 413.814 231.31 410.982 235.197L412.599 236.374ZM421.003 227.754C423.917 225.705 426.997 224.372 430.248 223.74L429.866 221.777C426.321 222.466 422.981 223.918 419.853 226.118L421.003 227.754ZM429.067 222.617C428.656 225.493 427.81 228.403 426.521 231.349L428.354 232.151C429.708 229.055 430.608 225.971 431.047 222.9L429.067 222.617ZM426.518 231.356C425.277 234.254 423.424 237.524 420.946 241.171L422.601 242.295C425.126 238.579 427.05 235.194 428.357 232.144L426.518 231.356ZM420.943 241.176L403.314 267.443L404.974 268.557L422.604 242.29L420.943 241.176ZM404.144 267H389.063V269H404.144V267ZM390.063 268V267.858H388.063V268H390.063ZM452.619 242.232C449.805 238.104 447.688 234.517 446.255 231.466L444.445 232.317C445.938 235.496 448.117 239.179 450.967 243.358L452.619 242.232ZM446.26 231.478C444.877 228.433 443.962 225.475 443.506 222.602L441.53 222.915C442.018 225.989 442.991 229.119 444.44 232.305L446.26 231.478ZM442.358 223.745C445.699 224.287 448.792 225.55 451.645 227.543L452.79 225.903C449.697 223.743 446.323 222.362 442.678 221.771L442.358 223.745ZM451.654 227.549C454.506 229.495 457.33 232.376 460.116 236.23L461.737 235.058C458.859 231.077 455.877 228.01 452.782 225.897L451.654 227.549ZM460.113 236.226L483.194 268.441L484.82 267.276L461.739 235.062L460.113 236.226ZM483.007 267.858V268H485.007V267.858H483.007ZM484.007 267H469.21V269H484.007V267ZM470.033 267.432L452.616 242.226L450.97 243.363L468.387 268.568L470.033 267.432Z" fill="#FF3E12"/>
<path d="M102.767 35.561C105.599 30.4634 109.139 26.5693 113.387 23.8789C117.682 21.1413 122.638 19.7725 128.255 19.7725C139.583 19.7725 147.607 24.7521 152.327 34.7114C148.787 33.3426 144.893 32.3278 140.645 31.667C136.444 30.959 132.125 30.605 127.688 30.605C123.204 30.605 118.838 31.0298 114.59 31.8794C110.342 32.6818 106.401 33.909 102.767 35.561ZM156.717 53.2612C156.245 46.0868 154.782 39.9035 152.327 34.7114C157.189 36.5994 161.201 39.1011 164.363 42.2163C167.573 45.2843 169.65 48.966 170.594 53.2612H156.717ZM103.475 108.911C96.3001 105.748 90.7069 101.099 86.6948 94.9629C82.73 88.7796 80.7476 81.1567 80.7476 72.0942C80.7476 63.0789 82.7064 55.5505 86.624 49.5088C90.5417 43.4199 95.9225 38.7707 102.767 35.561C97.9521 44.6707 95.5449 56.8485 95.5449 72.0942C95.5449 78.8911 96.1821 85.5228 97.4565 91.9893C98.7782 98.4557 100.784 104.096 103.475 108.911ZM154.664 108.769C157.496 103.105 158.912 96.4025 158.912 88.6616V79.8115H129.175V70.8198H171.373V83.1392C171.373 88.9448 169.98 94.0425 167.195 98.4321C164.41 102.775 160.233 106.22 154.664 108.769ZM128.396 124.77C122.827 124.77 117.965 123.378 113.812 120.593C109.705 117.808 106.259 113.914 103.475 108.911C110.46 112.026 118.673 113.583 128.113 113.583C138.781 113.583 147.631 111.979 154.664 108.769C152.351 113.772 148.976 117.69 144.539 120.522C140.102 123.354 134.721 124.77 128.396 124.77ZM200.259 65.2974C195.775 64.8254 192.613 63.4329 190.772 61.1201C188.978 58.7601 188.082 55.1729 188.082 50.3584V21.4717H254.068V31.9502H200.259V65.2974ZM200.259 65.2974C201.109 65.3918 202.596 65.439 204.72 65.439H251.307V75.5635H204.72C203.445 75.5635 201.958 75.6579 200.259 75.8467V65.2974ZM188.082 90.9272C188.082 86.7736 189.026 83.3988 190.914 80.8027C192.802 78.2067 195.917 76.5547 200.259 75.8467V112.592H255.484V123H188.082V90.9272ZM265.75 21.4717H288.689C292.749 21.4717 295.958 22.3213 298.318 24.0205C300.678 25.6725 302 28.2214 302.283 31.667H265.75V21.4717ZM314.603 31.667C314.886 28.2214 316.207 25.6725 318.567 24.0205C320.927 22.3213 324.161 21.4717 328.267 21.4717H351.136V31.667H314.603ZM302.283 31.667H314.603V123H302.283V31.667ZM428.45 72.6606C422.361 71.1974 417.665 67.7282 414.361 62.2529L390.289 21.6133V21.4717H404.095L423.636 57.2969C425.524 60.7897 426.775 63.5509 427.388 65.5806C428.002 67.563 428.356 69.923 428.45 72.6606ZM439.849 72.6606C439.944 69.8758 440.274 67.4922 440.84 65.5098C441.454 63.4801 442.728 60.7425 444.664 57.2969L465.125 21.4717H478.86V21.6133L453.372 62.3945C451.578 65.2266 449.572 67.4922 447.354 69.1914C445.183 70.8906 442.681 72.047 439.849 72.6606ZM428.45 72.6606C430.149 73.0854 432.085 73.2979 434.256 73.2979C436.285 73.2979 438.15 73.0854 439.849 72.6606V123H428.45V72.6606ZM506.048 36.1274C512.137 25.2241 521.317 19.7725 533.589 19.7725C539.584 19.7725 544.752 21.1649 549.095 23.9497C553.484 26.6873 557.119 30.605 559.998 35.7026C552.776 32.3986 543.973 30.7466 533.589 30.7466C523.205 30.7466 514.025 32.5402 506.048 36.1274ZM559.998 108.627C562.5 104.049 564.34 98.6209 565.521 92.3433C566.748 86.0184 567.361 79.0799 567.361 71.5278C567.361 64.3534 566.748 57.7217 565.521 51.6328C564.34 45.5439 562.5 40.2339 559.998 35.7026C567.125 38.8651 572.601 43.4671 576.424 49.5088C580.247 55.5505 582.159 62.8901 582.159 71.5278C582.159 80.5903 580.247 88.2604 576.424 94.5381C572.601 100.769 567.125 105.465 559.998 108.627ZM507.181 108.627C499.817 105.371 494.106 100.627 490.047 94.3965C486.035 88.1188 484.029 80.4959 484.029 71.5278C484.029 63.2205 485.94 56.0697 489.764 50.0752C493.634 44.0335 499.062 39.3843 506.048 36.1274C503.641 40.6587 501.823 45.9215 500.596 51.916C499.416 57.9105 498.826 64.4478 498.826 71.5278C498.826 78.8911 499.534 85.7352 500.95 92.0601C502.366 98.3849 504.443 103.907 507.181 108.627ZM533.589 124.77C527.831 124.77 522.733 123.378 518.296 120.593C513.86 117.761 510.154 113.772 507.181 108.627C514.544 111.931 523.347 113.583 533.589 113.583C543.973 113.583 552.776 111.931 559.998 108.627C557.213 113.819 553.602 117.808 549.166 120.593C544.776 123.378 539.584 124.77 533.589 124.77ZM612.32 108.911C607.883 106.739 604.532 103.813 602.266 100.131C600 96.4025 598.868 91.9893 598.868 86.8916V21.4717H611.329V102.539C611.329 104.946 611.659 107.07 612.32 108.911ZM662.942 108.911C663.603 107.07 663.934 104.946 663.934 102.539V21.4717H676.749V86.8916C676.749 91.9893 675.569 96.4025 673.208 100.131C670.896 103.813 667.474 106.739 662.942 108.911ZM637.596 124.77C633.253 124.77 629.336 124.086 625.843 122.717C622.397 121.301 619.518 119.413 617.205 117.053C614.939 114.646 613.311 111.931 612.32 108.911C618.692 112.026 627.117 113.583 637.596 113.583C648.121 113.583 656.57 112.026 662.942 108.911C661.998 111.931 660.394 114.646 658.128 117.053C655.862 119.413 652.983 121.301 649.49 122.717C645.997 124.086 642.033 124.77 637.596 124.77ZM699.971 21.4717H742.452C747.597 21.4717 751.632 22.4157 754.559 24.3037C757.532 26.1445 759.585 28.8822 760.718 32.5166C757.414 31.5726 753.544 31.1006 749.107 31.1006H712.432V69.4746H755.337C757.367 69.4746 759.491 69.2386 761.709 68.7666V80.3779C759.68 79.9059 757.556 79.6699 755.337 79.6699H712.432V123H699.971V21.4717ZM761.709 41.0835C761.709 37.6851 761.379 34.8294 760.718 32.5166C765.344 33.791 768.908 35.9622 771.409 39.0303C773.958 42.0511 775.232 45.9688 775.232 50.7832C775.232 55.4561 774.029 59.3501 771.622 62.4653C769.262 65.5334 765.958 67.6338 761.709 68.7666V41.0835ZM761.709 80.3779C765.91 81.3691 769.144 83.3988 771.409 86.4668C773.675 89.4876 774.808 93.5469 774.808 98.6445V122.858H761.709V80.3779ZM21.3457 178.508C22.8089 174.401 25.4285 171.097 29.2046 168.596C33.0278 166.047 37.7951 164.772 43.5063 164.772C54.5985 164.772 61.8201 169.304 65.1714 178.366C58.7521 176.053 51.3888 174.897 43.0815 174.897C34.255 174.897 27.0098 176.101 21.3457 178.508ZM66.8706 197.128C67.0594 194.58 67.1538 192.786 67.1538 191.748C67.1538 186.65 66.493 182.189 65.1714 178.366C69.9858 180.16 73.7855 182.661 76.5703 185.871C79.3551 189.034 80.8184 192.786 80.96 197.128H66.8706ZM68.9238 255.397C69.7734 253.037 70.1982 250.465 70.1982 247.68C70.1982 243.385 69.4666 239.774 68.0034 236.848C66.5874 233.921 64.4634 231.443 61.6313 229.414C58.8465 227.384 55.1885 225.496 50.6572 223.75L31.0454 216.245C24.0125 213.507 18.6317 210.486 14.9028 207.182C11.174 203.878 9.30957 199.842 9.30957 195.075C9.30957 191.205 10.348 187.877 12.4248 185.092C14.5016 182.307 17.4753 180.113 21.3457 178.508C20.5905 180.679 20.2129 182.921 20.2129 185.234C20.2129 188.916 20.8737 191.984 22.1953 194.438C23.5641 196.845 25.6174 198.922 28.355 200.668C31.1398 202.415 34.9395 204.232 39.7539 206.12L59.3657 213.767C66.3042 216.551 71.6615 219.879 75.4375 223.75C79.2135 227.573 81.1016 232.128 81.1016 237.414C81.1016 241.426 80.0632 244.966 77.9863 248.034C75.9567 251.055 72.9359 253.509 68.9238 255.397ZM23.1157 256.105C12.2124 252.235 6.68994 244.99 6.54834 234.37H20.6377C20.4489 235.833 20.3545 237.957 20.3545 240.742C20.3545 246.972 21.2749 252.093 23.1157 256.105ZM45.9844 269.77C40.5091 269.77 35.8363 268.614 31.9658 266.301C28.0954 263.941 25.1453 260.542 23.1157 256.105C29.4406 258.324 37.3703 259.433 46.9048 259.433C55.9201 259.433 63.2598 258.088 68.9238 255.397C67.4134 259.74 64.6994 263.233 60.7817 265.876C56.8641 268.472 51.9316 269.77 45.9844 269.77ZM115.511 181.127C121.6 170.224 130.78 164.772 143.052 164.772C149.047 164.772 154.215 166.165 158.558 168.95C162.947 171.687 166.582 175.605 169.461 180.703C162.239 177.399 153.436 175.747 143.052 175.747C132.668 175.747 123.488 177.54 115.511 181.127ZM169.461 253.627C171.963 249.049 173.803 243.621 174.983 237.343C176.211 231.018 176.824 224.08 176.824 216.528C176.824 209.353 176.211 202.722 174.983 196.633C173.803 190.544 171.963 185.234 169.461 180.703C176.588 183.865 182.063 188.467 185.887 194.509C189.71 200.55 191.622 207.89 191.622 216.528C191.622 225.59 189.71 233.26 185.887 239.538C182.063 245.769 176.588 250.465 169.461 253.627ZM116.644 253.627C109.28 250.371 103.569 245.627 99.5098 239.396C95.4977 233.119 93.4917 225.496 93.4917 216.528C93.4917 208.221 95.4033 201.07 99.2266 195.075C103.097 189.034 108.525 184.384 115.511 181.127C113.104 185.659 111.286 190.922 110.059 196.916C108.879 202.91 108.289 209.448 108.289 216.528C108.289 223.891 108.997 230.735 110.413 237.06C111.829 243.385 113.906 248.907 116.644 253.627ZM143.052 269.77C137.294 269.77 132.196 268.378 127.759 265.593C123.322 262.761 119.617 258.772 116.644 253.627C124.007 256.931 132.81 258.583 143.052 258.583C153.436 258.583 162.239 256.931 169.461 253.627C166.676 258.819 163.065 262.808 158.628 265.593C154.239 268.378 149.047 269.77 143.052 269.77ZM221.783 253.911C217.346 251.739 213.995 248.813 211.729 245.131C209.463 241.403 208.331 236.989 208.331 231.892V166.472H220.792V247.539C220.792 249.946 221.122 252.07 221.783 253.911ZM272.405 253.911C273.066 252.07 273.396 249.946 273.396 247.539V166.472H286.211V231.892C286.211 236.989 285.031 241.403 282.671 245.131C280.359 248.813 276.937 251.739 272.405 253.911ZM247.059 269.77C242.716 269.77 238.799 269.086 235.306 267.717C231.86 266.301 228.981 264.413 226.668 262.053C224.402 259.646 222.774 256.931 221.783 253.911C228.155 257.026 236.58 258.583 247.059 258.583C257.584 258.583 266.033 257.026 272.405 253.911C271.461 256.931 269.856 259.646 267.591 262.053C265.325 264.413 262.446 266.301 258.953 267.717C255.46 269.086 251.495 269.77 247.059 269.77ZM309.434 166.472H321.612V257.734H377.544V268H309.434V166.472ZM551.006 172.419C551.006 170.248 551.596 168.431 552.776 166.967C554.004 165.504 555.679 164.772 557.803 164.772C559.738 164.772 561.272 165.339 562.405 166.472C563.585 167.604 564.388 169.068 564.812 170.861L566.229 177.233C564.293 176.95 562.311 176.809 560.281 176.809C556.741 176.809 553.65 177.281 551.006 178.225V172.419ZM613.523 166.472H625.984V240.458C625.984 244.329 624.852 247.609 622.586 250.3C620.368 252.99 617.347 254.973 613.523 256.247V166.472ZM598.301 257.097C593.628 256.436 589.805 254.666 586.832 251.787C583.858 248.907 581.734 244.636 580.459 238.972L566.229 177.233C570.807 177.894 574.536 179.664 577.415 182.543C580.341 185.375 582.465 189.647 583.787 195.358L598.301 257.097ZM538.545 196.35C538.545 191.582 539.655 187.712 541.873 184.738C544.091 181.717 547.136 179.546 551.006 178.225V268H538.545V196.35ZM606.656 269.77C604.673 269.77 603.116 269.18 601.983 268C600.897 266.82 600.095 265.121 599.576 262.902L598.301 257.097C600.472 257.427 602.455 257.592 604.249 257.592C607.505 257.592 610.597 257.144 613.523 256.247V261.911C613.523 264.366 612.91 266.301 611.683 267.717C610.503 269.086 608.827 269.77 606.656 269.77ZM664.783 181.127C670.872 170.224 680.053 164.772 692.325 164.772C698.319 164.772 703.488 166.165 707.83 168.95C712.22 171.687 715.854 175.605 718.733 180.703C711.512 177.399 702.709 175.747 692.325 175.747C681.941 175.747 672.76 177.54 664.783 181.127ZM718.733 253.627C721.235 249.049 723.076 243.621 724.256 237.343C725.483 231.018 726.097 224.08 726.097 216.528C726.097 209.353 725.483 202.722 724.256 196.633C723.076 190.544 721.235 185.234 718.733 180.703C725.861 183.865 731.336 188.467 735.159 194.509C738.982 200.55 740.894 207.89 740.894 216.528C740.894 225.59 738.982 233.26 735.159 239.538C731.336 245.769 725.861 250.465 718.733 253.627ZM665.916 253.627C658.553 250.371 652.841 245.627 648.782 239.396C644.77 233.119 642.764 225.496 642.764 216.528C642.764 208.221 644.676 201.07 648.499 195.075C652.369 189.034 657.798 184.384 664.783 181.127C662.376 185.659 660.559 190.922 659.332 196.916C658.152 202.91 657.562 209.448 657.562 216.528C657.562 223.891 658.27 230.735 659.686 237.06C661.102 243.385 663.178 248.907 665.916 253.627ZM692.325 269.77C686.566 269.77 681.469 268.378 677.032 265.593C672.595 262.761 668.89 258.772 665.916 253.627C673.279 256.931 682.082 258.583 692.325 258.583C702.709 258.583 711.512 256.931 718.733 253.627C715.949 258.819 712.338 262.808 707.901 265.593C703.511 268.378 698.319 269.77 692.325 269.77ZM813.252 171.145C813.488 169.257 814.196 167.722 815.376 166.542C816.556 165.362 818.067 164.772 819.908 164.772C821.749 164.772 823.259 165.362 824.439 166.542C825.666 167.722 826.398 169.257 826.634 171.145L827.342 178.508C824.746 178.036 822.268 177.8 819.908 177.8C817.595 177.8 815.14 178.036 812.544 178.508L813.252 171.145ZM776.861 256.955C772.424 255.917 768.955 253.793 766.453 250.583C763.999 247.373 762.347 243.078 761.497 237.697L751.089 166.472H764.542L776.861 256.955ZM875.345 166.472H888.797L878.389 237.697C877.54 243.078 875.864 247.373 873.362 250.583C870.908 253.793 867.462 255.917 863.025 256.955L875.345 166.472ZM797.464 196.633C797.889 191.63 799.399 187.618 801.995 184.597C804.591 181.576 808.108 179.546 812.544 178.508L806.739 236.989C806.22 242.229 804.756 246.524 802.349 249.875C799.942 253.179 796.567 255.445 792.225 256.672L797.464 196.633ZM847.662 256.672C843.319 255.445 839.944 253.179 837.537 249.875C835.13 246.524 833.667 242.229 833.147 236.989L827.342 178.508C831.779 179.546 835.295 181.576 837.891 184.597C840.487 187.618 841.998 191.63 842.422 196.633L847.662 256.672ZM784.72 269.77C780.755 269.77 778.371 267.198 777.569 262.053L776.861 256.955C779.551 257.474 781.935 257.734 784.012 257.734C787.033 257.734 789.77 257.38 792.225 256.672L791.8 262.336C791.611 264.79 790.879 266.655 789.605 267.929C788.331 269.156 786.702 269.77 784.72 269.77ZM855.167 269.77C853.184 269.77 851.556 269.156 850.281 267.929C849.007 266.655 848.275 264.79 848.086 262.336L847.662 256.672C850.069 257.38 852.806 257.734 855.875 257.734C857.951 257.734 860.335 257.474 863.025 256.955L862.247 262.053C861.491 267.198 859.131 269.77 855.167 269.77Z" fill="#FF3E12"/>
</svg>
