<svg width="680" height="389" viewBox="0 0 680 389" fill="none" xmlns="http://www.w3.org/2000/svg">
<path d="M0.0400013 170H111.9V153.102H20.032V3.39999H0.0400013V170ZM182.129 22.202C186.175 21.012 190.697 20.298 195.695 20.298C200.693 20.298 205.215 21.012 209.261 22.202L206.643 11.254C204.977 4.828 202.121 0.543997 195.695 0.543997C189.269 0.543997 186.413 4.828 184.747 11.254L182.129 22.202ZM123.819 170H145.239L157.853 119.068H233.537L246.389 170H267.809L234.727 49.096C230.919 35.292 222.113 26.01 209.261 22.202L229.491 102.408H162.137L182.129 22.202C169.277 26.01 160.471 35.292 156.663 49.096L123.819 170ZM307.443 23.154C316.725 19.108 328.863 17.204 343.143 17.204C356.471 17.204 369.085 19.108 379.319 22.916C373.845 7.92199 361.945 0.543997 343.857 0.543997C324.341 0.543997 311.965 10.302 307.443 23.154ZM382.175 53.618H405.261C404.785 38.862 394.551 28.628 379.319 22.916C381.461 28.866 382.651 36.244 382.651 44.812C382.651 47.668 382.413 50.524 382.175 53.618ZM385.507 149.294C398.835 143.106 405.499 132.872 405.499 119.782C405.499 101.694 391.457 89.556 369.799 80.988L337.669 68.374C315.535 59.806 305.539 52.666 305.539 34.102C305.539 30.294 306.253 26.486 307.443 23.154C294.829 28.39 287.689 37.434 287.689 50.286C287.689 67.184 302.683 76.942 323.389 85.034L355.519 97.41C376.701 105.502 387.649 115.022 387.649 136.68C387.649 141.202 386.935 145.486 385.507 149.294ZM310.299 150.484C307.205 143.582 305.777 135.252 305.777 125.256C305.777 121.924 305.777 118.354 306.253 114.784H283.167C283.405 133.348 293.639 144.534 310.299 150.484ZM347.903 172.856C368.133 172.856 380.747 162.86 385.507 149.294C376.463 153.578 364.325 155.958 349.331 155.958C334.575 155.958 321.247 154.292 310.299 150.484C316.963 165.002 329.815 172.856 347.903 172.856ZM422.248 20.06H482.224C481.272 8.63599 472.942 3.39999 459.852 3.39999H422.248V20.06ZM502.454 20.06H562.43V3.39999H524.826C511.736 3.39999 503.406 8.63599 502.454 20.06ZM482.224 170H502.454V20.06H482.224V170ZM20.508 238.678C25.03 237.012 30.266 236.298 35.74 236.298C39.31 236.298 42.404 236.536 45.498 237.012L43.118 226.54C41.928 221.066 38.358 216.544 31.694 216.544C24.316 216.544 20.508 222.256 20.508 229.158V238.678ZM123.086 366.722C135.224 362.676 143.554 353.87 143.554 340.78V219.4H123.086V366.722ZM98.096 368.15L74.296 266.762C69.774 247.484 60.016 239.154 45.498 237.012L68.822 338.4C73.106 357.678 83.34 366.008 98.096 368.15ZM0.0400013 386H20.508V238.678C8.37 242.724 0.0400013 252.006 0.0400013 268.428V386ZM111.9 388.856C119.04 388.856 123.086 383.858 123.086 376.004V366.722C118.564 368.15 113.328 368.864 107.854 368.864C104.284 368.864 101.19 368.626 98.096 368.15L100.238 377.67C101.904 384.334 104.998 388.856 111.9 388.856ZM201.553 291.276V236.536H289.851V219.4H181.561V266.762C181.561 282.232 186.559 289.61 201.553 291.276ZM201.553 308.65C203.695 308.412 206.313 308.174 208.931 308.174H285.329V291.514H208.931C206.313 291.514 203.695 291.514 201.553 291.276V308.65ZM181.561 386H292.231V368.864H201.553V308.65C186.559 311.03 181.561 320.55 181.561 333.402V386ZM413.308 239.154C417.116 238.44 421.162 237.964 425.446 237.964C429.73 237.964 433.776 238.44 437.584 239.154L436.394 227.016C435.68 220.828 431.396 216.544 425.446 216.544C419.258 216.544 415.212 220.828 414.498 227.016L413.308 239.154ZM354.76 367.912L334.53 219.4H312.396L329.532 336.258C332.15 353.394 339.766 364.342 354.76 367.912ZM496.132 367.912C511.126 364.342 518.742 353.394 521.36 336.258L538.496 219.4H516.362L496.132 367.912ZM379.988 367.436C394.268 363.39 402.122 352.204 403.788 335.068L413.308 239.154C399.266 242.486 389.984 252.006 388.556 268.904L379.988 367.436ZM470.904 367.436L462.336 268.904C460.908 252.006 451.626 242.486 437.584 239.154L447.104 335.068C448.77 352.204 456.624 363.39 470.904 367.436ZM367.612 388.856C373.8 388.856 378.56 385.048 379.274 376.718L379.988 367.436C375.942 368.626 371.42 369.102 366.422 369.102C362.138 369.102 358.33 368.626 354.76 367.912L355.95 376.242C357.14 384.334 360.948 388.856 367.612 388.856ZM483.28 388.856C489.944 388.856 493.752 384.334 494.942 376.242L496.132 367.912C492.562 368.626 488.754 369.102 484.47 369.102C479.472 369.102 474.95 368.626 470.904 367.436L471.618 376.718C472.332 385.048 477.092 388.856 483.28 388.856ZM581.701 239.154C590.983 235.108 603.121 233.204 617.401 233.204C630.729 233.204 643.343 235.108 653.577 238.916C648.103 223.922 636.203 216.544 618.115 216.544C598.599 216.544 586.223 226.302 581.701 239.154ZM656.433 269.618H679.519C679.043 254.862 668.809 244.628 653.577 238.916C655.719 244.866 656.909 252.244 656.909 260.812C656.909 263.668 656.671 266.524 656.433 269.618ZM659.765 365.294C673.093 359.106 679.757 348.872 679.757 335.782C679.757 317.694 665.715 305.556 644.057 296.988L611.927 284.374C589.793 275.806 579.797 268.666 579.797 250.102C579.797 246.294 580.511 242.486 581.701 239.154C569.087 244.39 561.947 253.434 561.947 266.286C561.947 283.184 576.941 292.942 597.647 301.034L629.777 313.41C650.959 321.502 661.907 331.022 661.907 352.68C661.907 357.202 661.193 361.486 659.765 365.294ZM584.557 366.484C581.463 359.582 580.035 351.252 580.035 341.256C580.035 337.924 580.035 334.354 580.511 330.784H557.425C557.663 349.348 567.897 360.534 584.557 366.484ZM622.161 388.856C642.391 388.856 655.005 378.86 659.765 365.294C650.721 369.578 638.583 371.958 623.589 371.958C608.833 371.958 595.505 370.292 584.557 366.484C591.221 381.002 604.073 388.856 622.161 388.856Z" fill="#FF3E12"/>
</svg>
