<svg xmlns="http://www.w3.org/2000/svg" fill="none" viewBox="0 0 1321 61">
  <path fill="#FF3E12" d="M945.5 45v-6a9.5 9.5 0 0 0 3.4-18.3 9.4 9.4 0 0 0-12.8 8.8h-6c0-10 9.7-18 20.3-14.7a15 15 0 0 1 9.6 9.8 15.5 15.5 0 0 1-14.5 20.3Z"/>
  <path fill="#FF3E12" fill-rule="evenodd" d="M939.6 33h5.9v6h-6v-6ZM935 43.5V39h4.6v4.6H935Zm-3.8-8.4h3.8V39h-3.8v-3.8Z" clip-rule="evenodd"/>
  <path fill="#FF3E12" d="M984.7 23a11 11 0 0 0-6.5-1.8h-5.5v17.7h5.5c2.6 0 4.8-.7 6.5-2 1-.7 1.8-1.6 2.3-2.8.5-1.2.8-2.6.8-4.2s-.3-3-.8-4.1a6.3 6.3 0 0 0-2.3-2.8Zm-8.8 1.2h1.8c2 0 3.6.4 4.8 1 1.3 1 2 2.5 2 4.7 0 2.3-.7 4-2 4.8a8.6 8.6 0 0 1-4.8 1.2H976V24.2Zm15.8-3.2c-.6 0-1 .1-1.4.5a1.8 1.8 0 0 0 0 2.7c.4.4.8.6 1.4.6.5 0 1-.2 1.3-.6.4-.4.6-.9.6-1.4 0-.5-.2-1-.6-1.3-.3-.4-.8-.6-1.3-.6Zm-1.7 5.4h3.2v12.5H990V26.4Zm14.5 1c-.9-.8-2-1.3-3-1.3-1.8 0-3.2.6-4.4 1.8a6.2 6.2 0 0 0-1.6 4.4c0 1.8.5 3.3 1.6 4.5a5.7 5.7 0 0 0 4.3 1.8c1.2 0 2.3-.4 3.1-1v.3c0 1-.3 1.8-.8 2.4a3 3 0 0 1-2.3.8c-1.4 0-2.3-.6-3.4-2l-2.1 2c.5.7 1.2 1.3 2.1 2 1 .6 2.1.9 3.5.9a6 6 0 0 0 4.5-1.7 6.1 6.1 0 0 0 1.6-4.6V26.4h-3v1Zm-.8 7.4c-.5.6-1.2 1-2.1 1-1 0-1.6-.4-2.1-1-.6-.6-.9-1.4-.9-2.4s.3-1.9.9-2.5a2.7 2.7 0 0 1 4.2 0c.6.6.8 1.5.8 2.5s-.3 1.8-.8 2.4Zm6.6-8.4h3.1v12.5h-3.1V26.4Zm1.6-5.4c-.6 0-1 .1-1.4.5-.3.4-.5.8-.5 1.3 0 .6.1 1 .5 1.4.4.4.8.6 1.4.6.5 0 1-.2 1.4-.6.3-.4.5-.9.5-1.4 0-.5-.1-1-.5-1.3a2 2 0 0 0-1.4-.6Zm8.4 2h-3.1v3.4h-1.8v2.9h1.8v5.2c0 1.6.3 2.7 1 3.4.6.7 1.7 1 3.3 1h1.7v-3l-1 .2c-.8 0-1.3-.2-1.5-.4-.3-.3-.4-.9-.4-1.7v-4.7h3v-3h-3V23Zm17.5-1.8h3.2v17.7h-3.2V21.2Zm34.7 13.2c-.5.6-1 1.2-1.5 1.5a3 3 0 0 1-1.7.4c-.9 0-1.6-.3-2.2-1a4 4 0 0 1-1-2.7c0-1 .4-2 1-2.6.5-.7 1.3-1 2.2-1 1 0 2 .6 3 1.7l2-2a6.1 6.1 0 0 0-5.1-2.6 6 6 0 0 0-4.4 1.8 6.4 6.4 0 0 0-1.9 4.7c0 1.9.6 3.4 1.9 4.7a6 6 0 0 0 4.4 1.8c2.3 0 4-1 5.3-2.7l-2-2Zm12.9-6.3a5 5 0 0 0-1.8-1.5 7 7 0 0 0-2.6-.5 5 5 0 0 0-4.3 2 7.2 7.2 0 0 0-1.5 4.6c0 1.9.5 3.4 1.7 4.7a6 6 0 0 0 4.5 1.8 6 6 0 0 0 5.1-2.6h.1l-2-2-.7.7a2 2 0 0 1-1 .6c-.4.3-1 .4-1.5.4a3 3 0 0 1-2.1-.8 3 3 0 0 1-1-1.9h8.4v-1.1a6.7 6.7 0 0 0-1.3-4.3Zm-6.9 3c.2-.6.5-1.1.8-1.5.5-.4 1-.6 1.7-.6.8 0 1.3.2 1.7.6.4.4.6.9.7 1.5h-4.9Zm18.9-3.8c-1-.8-2.3-1.2-4-1.2-1 0-2 .3-2.8.7-.8.4-1.6 1-2.1 2l2 2c.8-1.4 1.8-1.8 3-1.8a3 3 0 0 1 1.6.5c.4.3.6.8.6 1.3v.7c-.8-.3-1.6-.4-2.3-.4a6 6 0 0 0-3.8 1c-1 .8-1.4 1.9-1.4 3.2 0 1.1.4 2.1 1.2 2.8.8.7 1.8 1 3 1s2.3-.4 3.3-1.3v1h3v-8c.1-1.5-.4-2.6-1.3-3.5Zm-5.6 6.8c.4-.2.9-.4 1.5-.4.8 0 1.5.2 2.4.5v1.2c-.7.7-1.6 1-2.7 1-.6 0-1-.2-1.3-.4-.2-.3-.4-.5-.4-1 0-.3.2-.7.5-.9Zm19-6.5c-.8-1-2-1.5-3.6-1.5a5 5 0 0 0-3 1v-.7h-3V39h3v-7c0-1 .3-1.7.7-2.2.5-.6 1-.8 1.9-.8a2 2 0 0 1 1.6.7c.4.5.6 1.1.6 2v7.2h3.2v-7.3c0-1.7-.5-3-1.4-4Zm-76.9-.3c-1-.8-2.2-1.2-3.9-1.2-1 0-2 .3-2.8.7-.9.4-1.7 1-2.2 2l2 2c.9-1.4 1.8-1.8 3-1.8.7 0 1.2.2 1.6.5.4.3.6.8.6 1.3v.7c-.8-.3-1.5-.4-2.3-.4a6 6 0 0 0-3.8 1c-.9.8-1.4 1.9-1.4 3.2 0 1.1.4 2.1 1.2 2.8.8.7 1.9 1 3 1 1.2 0 2.3-.4 3.3-1.3v1h3.1v-8c0-1.5-.5-2.6-1.4-3.5Zm-5.5 6.8c.3-.2.8-.4 1.4-.4.8 0 1.6.2 2.4.5v1.2c-.7.7-1.6 1-2.7 1-.5 0-1-.2-1.2-.4-.3-.3-.5-.5-.5-1 0-.3.2-.7.6-.9Zm23.9 5a9.1 9.1 0 0 1 0-18.3 9.1 9.1 0 0 1 0 18.3Zm0-15a6 6 0 0 0 0 11.8 5.9 5.9 0 0 0 0-11.8Z"/>
  <path fill="#FF3E12" d="m249 22.2-18.5 8.4 18.5 11 18.5-11-18.5-8.4Z" opacity=".6"/>
  <path fill="#FF3E12" d="M230.5 30.6 249 41.5V0l-18.5 30.6Z" opacity=".5"/>
  <path fill="#FF3E12" d="M249 0v41.5l18.5-10.9L249 0Z" opacity=".8"/>
  <path fill="#FF3E12" d="m230.5 34.1 18.5 26V45l-18.5-10.9Z" opacity=".5"/>
  <path fill="#FF3E12" d="M249 45v15l18.5-25.9L249 45Z" opacity=".8"/>
  <path fill="url(#a)" d="m7 17.2 25.8 17.6-6.4 9.5L.6 26.5l6.3-9.3Z"/>
  <path fill="url(#b)" d="M32.8 34.8c-2.2 3.2-9.7 2-16.8-3-7.3-4.9-11.1-11.4-9-14.6 2.2-3.2 9.7-2 16.7 3C31 25 35 31.6 32.7 34.8Z"/>
  <path fill="url(#c)" d="M26.4 44.1c-2.2 3.2-9.7 2-16.8-3-7.1-5-11.1-11.4-9-14.7 2.3-3.2 9.8-2 16.9 3 7 5 11 11.5 8.9 14.7Z"/>
  <path fill="#FF3E12" d="m32.8 34.8-6.4 9.5c-2.2 3.2-9.7 1.8-16.8-3l-4-3.1A6 6 0 0 0 9.3 36c2.2-2.4 3.3-3 4.3-2.8 1 0 2 1 3.9 3.3 1.8 2.4 4.3 3 5.8 1.8l.4-.2c1.3-1 1.7-1.4 4-5.9.6-1 2.5-2.9 5.2-2 .7 1.8.7 3.3 0 4.5Z"/>
  <path fill="#ECECEC" fill-rule="evenodd" d="M31.8 34.3c-2 2.8-8.7 1.4-15.3-3.2C10 26.5 6 20.7 8 17.9c2-2.8 8.8-1.4 15.3 3.2s10.4 10.4 8.6 13.2ZM25.7 30c-1 1.4-4.3.7-7.6-1.5-3.2-2.2-5.2-5.2-4.2-6.5 1-1.4 4.3-.7 7.6 1.5 3.2 2.2 5.2 5.1 4.2 6.5Z" clip-rule="evenodd"/>
  <path fill="#ECECEC" d="M6.4 20.4c0-.2-.2-.3-.3-.2l-.3.3.3 1c0 .1.1.3.3.1.1 0 .3-.1.1-.2l-.1-1Zm.6 2.2c0-.1 0-.3-.2-.1l-.1.3a25 25 0 0 0 8.9 10h.4v-.5a24.1 24.1 0 0 1-9-9.7Zm16.9 13.6c-.2 0-.3 0-.3.2l.1.2 1.4.5c.2 0 .3 0 .3-.2l-.1-.3-1.4-.4Zm2.5.6c-.2 0-.3.1-.3.3 0 0 .1.2.3.2 1.1.2 2.3.3 3.3.2.2 0 .3-.2.3-.3 0-.1-.1-.3-.3-.3-1 .2-2.2 0-3.3-.1Z"/>
  <path fill="#FF3E12" d="M51.8 33c0-.7-.2-1.2-.7-1.6-.5-.4-1.4-.7-2.6-1.1-1.2-.4-2.2-.8-3-1.3-1.4-.9-2-2-2-3.4 0-1.3.4-2.3 1.4-3.1 1-.8 2.4-1.2 4-1.2 1 0 2 .2 2.9.6.8.4 1.5 1 2 1.7.4.7.7 1.5.7 2.4h-2.7c0-.8-.3-1.4-.8-1.9-.5-.4-1.2-.7-2.1-.7-.9 0-1.6.2-2 .6-.6.4-.8.9-.8 1.6 0 .5.3 1 .8 1.4.5.4 1.4.7 2.6 1 1.2.4 2.1.8 2.9 1.3a6 6 0 0 1 1.6 1.6c.3.6.5 1.2.5 2 0 1.3-.5 2.4-1.5 3.1-1 .8-2.3 1.2-4 1.2-1.1 0-2.2-.3-3.1-.7-1-.4-1.7-1-2.2-1.7-.5-.7-.8-1.6-.8-2.5h2.7c0 .9.3 1.5.9 2 .6.5 1.4.7 2.5.7 1 0 1.6-.2 2-.5.6-.4.8-1 .8-1.5Zm11.7 2.8a4 4 0 0 1-3.2 1.4c-1.2 0-2.2-.4-2.8-1.1a5 5 0 0 1-1-3.2v-7.4h2.6v7.4c0 1.4.6 2.2 1.8 2.2 1.3 0 2.1-.5 2.6-1.4v-8.2H66v11.4h-2.4v-1Zm11.6-2c0-.4-.2-.8-.6-1a6 6 0 0 0-1.9-.7c-.8-.1-1.6-.4-2.1-.7-1.3-.6-2-1.5-2-2.7a3 3 0 0 1 1.3-2.5 5 5 0 0 1 3.2-1c1.3 0 2.4.4 3.3 1 .8.7 1.3 1.6 1.3 2.7H75c0-.5-.2-.9-.6-1.2-.3-.4-.8-.5-1.4-.5-.6 0-1 .1-1.4.4-.4.2-.6.6-.6 1s.2.7.5 1l2 .6c1 .2 1.9.5 2.4.8.6.3 1 .7 1.3 1.1.3.4.4 1 .4 1.6a3 3 0 0 1-1.2 2.5c-.9.6-2 1-3.4 1a6 6 0 0 1-2.5-.6c-.8-.3-1.3-.8-1.7-1.4-.5-.6-.7-1.2-.7-1.9h2.5c0 .6.3 1.1.7 1.4.5.4 1 .5 1.7.5s1.2-.1 1.6-.4c.3-.2.5-.6.5-1Zm7.3-7a4 4 0 0 1 3.2-1.6c2.5 0 3.7 1.4 3.7 4.2V37h-2.5v-7.4c0-.8-.2-1.3-.5-1.6-.4-.4-.9-.5-1.6-.5-1 0-1.8.4-2.3 1.3V37H80V20.6h2.5v6.1Zm12.3 10.1h-2.6V25.5h2.6v11.4ZM92 22.5c0-.4 0-.7.3-1 .3-.3.7-.4 1.1-.4.5 0 .9.1 1.1.4.3.3.4.6.4 1s-.1.7-.4 1c-.2.2-.6.3-1 .3-.5 0-.9 0-1.2-.3-.2-.3-.3-.6-.3-1ZM105.8 33c0-.7-.2-1.2-.7-1.6-.4-.4-1.3-.7-2.6-1.1-1.2-.4-2.2-.8-3-1.3-1.3-.9-2-2-2-3.4 0-1.3.5-2.3 1.5-3.1 1-.8 2.3-1.2 4-1.2 1 0 2 .2 2.8.6.9.4 1.5 1 2 1.7s.7 1.5.7 2.4h-2.7c0-.8-.2-1.4-.7-1.9-.5-.4-1.2-.7-2.2-.7a3 3 0 0 0-2 .6c-.5.4-.7.9-.7 1.6 0 .5.2 1 .7 1.4.6.4 1.4.7 2.6 1 1.2.4 2.2.8 3 1.3.7.5 1.2 1 1.5 1.6.4.6.5 1.2.5 2 0 1.3-.5 2.4-1.5 3.1-1 .8-2.3 1.2-4 1.2-1 0-2.1-.3-3-.7-1-.4-1.7-1-2.2-1.7-.6-.7-.8-1.6-.8-2.5h2.7c0 .9.3 1.5.8 2 .6.5 1.5.7 2.5.7s1.7-.2 2.1-.5c.5-.4.7-1 .7-1.5Zm15 .4 1.7-8h2.6L121.9 37h-2l-2.6-7.8-2.4 7.8h-2l-3.2-11.4h2.5l1.8 7.8 2.4-7.8h2l2.3 7.9Zm12.8 3.5a4 4 0 0 1-.3-1 4 4 0 0 1-3 1.3 4 4 0 0 1-2.8-1c-.7-.7-1-1.5-1-2.5 0-1.2.4-2.1 1.3-2.8a7 7 0 0 1 3.9-1h1.6v-.7c0-.6-.2-1-.5-1.4-.4-.4-.9-.6-1.6-.6-.5 0-1 .2-1.4.5-.4.2-.6.6-.6 1h-2.5c0-.6.2-1.1.6-1.7.4-.5 1-1 1.7-1.3a6 6 0 0 1 2.4-.5c1.3 0 2.4.4 3.2 1 .8.7 1.2 1.7 1.2 3v5c0 1.1.2 2 .5 2.6v.1h-2.7Zm-2.8-1.8c.5 0 1-.1 1.4-.4a2 2 0 0 0 1-1v-2.1H132c-1 0-1.7.1-2.2.5-.5.3-.7.8-.7 1.4 0 .5.2.9.5 1.1.3.3.8.5 1.3.5Zm17.8-3.8a7 7 0 0 1-1.2 4.3 4.2 4.2 0 0 1-6.3.3v5.5h-2.6v-16h2.4l.1 1.2a4 4 0 0 1 3.1-1.4 4 4 0 0 1 3.3 1.6 7 7 0 0 1 1.2 4.4v.1Zm-2.6-.2c0-1.2-.2-2-.7-2.7-.4-.7-1-1-2-1s-1.7.4-2.2 1.3v5c.5 1 1.2 1.4 2.3 1.4.8 0 1.5-.3 2-1 .4-.7.6-1.7.6-3Z"/>
  <path fill="url(#d)" d="M388.5 51a22.5 22.5 0 1 0 0-45 22.5 22.5 0 0 0 0 45Z"/>
  <path fill="url(#e)" fill-rule="evenodd" d="M382 20.6v16.9h14l-14-16.9Z" clip-rule="evenodd"/>
  <path fill="#ECECEC" fill-rule="evenodd" d="M367.9 37.5h14V20.6l-14 16.9Z" clip-rule="evenodd"/>
  <path fill="#FF603C" fill-opacity=".6" fill-rule="evenodd" d="M370.5 42a23 23 0 0 0 4.5 4.5h27a23 23 0 0 0 4.5-4.5h-36Z" clip-rule="evenodd"/>
  <path fill="#FF9180" fill-rule="evenodd" d="M375 46.5a22.4 22.4 0 0 0 27 0h-27Z" clip-rule="evenodd"/>
  <path fill="url(#f)" fill-rule="evenodd" d="M396.2 29.6V42h10.3l-10.3-12.4Z" clip-rule="evenodd"/>
  <path fill="#FF3E12" fill-opacity=".6" fill-rule="evenodd" d="M396.2 37.5h-28.3a25 25 0 0 0 2.6 4.5h25.7v-4.5Z" clip-rule="evenodd"/>
  <path fill="#ECECEC" fill-rule="evenodd" d="M385.9 42h10.3V29.6L385.9 42Z" clip-rule="evenodd"/>
  <path fill="#ECECEC" d="M396.2 26.3a5.6 5.6 0 1 0 0-11.3 5.6 5.6 0 0 0 0 11.3Zm-14.2-9a2.8 2.8 0 1 0 0-5.7 2.8 2.8 0 0 0 0 5.7Z"/>
  <path fill="#FF3E12" d="M814.4 30.9c-1-.7-2-1.1-3.1-1.7-.7-.4-1.4-.7-2-1.2-1-.8-.8-2.4.3-3.1 1.4-1 3.9-.4 4.2 1.6h2.3a4.4 4.4 0 0 0-1.6-3.3c-1-.7-2-1.1-3.1-1.1-6 0-6.5 6.2-3.3 8.2l4.6 2.5c1 .7 1.4 1.9 1 2.9-.5.9-1.6 1.5-2.7 1.4-1.3 0-2.2-.7-2.6-1.7v-.8h-2.6c0 1.8.4 2.8 1.6 3.7 1 .8 2.3 1.1 3.6 1.1 3.3 0 5-1.8 5.3-3.8.4-1.9-.2-3.6-2-4.7ZM709 22.4h-2.2l-2 6.6h-.2l-2-6.5v-.1h-3.8v17h2.5v-13c0-.1.2-.1.2 0l2 6.6.1.4h2l.2-.4 2-6.6c0-.1.2-.1.2 0v12.9h2.6v-17H709Zm68.3 0h-.1l-2 6.6h-.2l-2-6.5v-.1h-3.8v17h2.5v-13c0-.1.2-.1.2 0l2 6.6.2.4h2l.1-.4 2-6.6c0-.1.2-.1.2 0v12.7l.1.1h2.5V22.3h-3.7Zm-31.3 0h-11.5v2.2h4.4v14.6l.1.1h2.5V24.6h4.5v-2.2Zm14.3 16.9h2.2v-.1L758 22.4h-3.4L750 39.2l.1.1h2.2l1.4-5h5l1.4 5Zm-5.8-7.4 1.8-6.5c0-.1.1-.1.1 0l1.8 6.5v.1h-3.6l-.1-.1Zm43.5 7.4h2.1l.1-.1-4.5-16.8h-3.3l-4.6 16.8v.1h2.3l1.4-5h5l1.3 5h.1Zm-5.9-7.4 1.8-6.5c0-.1.1-.1.2 0l1.7 6.5v.1h-3.6Zm-71.7 4.9v-5.2h6.6v-2.4h-6.5v-4.6h7.4v-2.2h-10v16.8h10.3V37h-7.7v-.2Zm116.1 2.4-8.3-8.7v-.1l7.5-7.8v-.2h-3.2l-6.4 6.7h-.2v-6.6h-2.5v16.8h2.5v-7.4c0-.1.1-.2.2-.1l7.3 7.5h3.1s.1-.1 0-.1ZM682.2 13.4l-14.7 10.9 2.7-6.4 12-4.5Z"/>
  <path fill="#FF3E12" fill-rule="evenodd" d="M682.5 13.2c.2.2.1.4 0 .6l-14.8 10.8a.5.5 0 0 1-.6-.5l2.7-6.4.2-.3 12-4.4c.2-.1.4 0 .5.2Zm-12 5-2 4.7 10.8-8-8.8 3.3Z" clip-rule="evenodd"/>
  <path fill="#FF3E12" d="m648.3 13.4 14.5 11-2.6-6.5-12-4.5Z"/>
  <path fill="#FF3E12" fill-rule="evenodd" d="M647.9 13.2c.1-.2.3-.3.5-.2l12 4.4.3.3 2.6 6.5a.5.5 0 0 1-.7.5l-14.6-11a.5.5 0 0 1-.1-.5Zm3.1 1.7 10.8 8.1-2-4.8L651 15Z" clip-rule="evenodd"/>
  <path fill="#FF3E12" d="m676.9 38.6-4 6 8.4 2.3 2.4-8.2-6.8-.1Z"/>
  <path fill="#FF3E12" fill-rule="evenodd" d="M676.5 38.4c0-.2.2-.3.4-.2h6.8a.5.5 0 0 1 .4.7l-2.3 8.1c-.1.2-.4.4-.6.3l-8.4-2.3a.5.5 0 0 1-.2-.7l3.9-6Zm.6.7-3.4 5.2 7.3 2 2.1-7.1-6-.1Z" clip-rule="evenodd"/>
  <path fill="#FF3E12" d="m646.7 38.7 2.4 8.2 8.4-2.3-4-6-6.8.1Z"/>
  <path fill="#FF3E12" fill-rule="evenodd" d="M653.6 38.2c.1 0 .3 0 .3.2l4 6a.5.5 0 0 1-.3.6l-8.4 2.3c-.2 0-.5 0-.5-.3l-2.4-8.1a.5.5 0 0 1 .4-.6l6.9-.1Zm-6.3 1 2.1 7.1 7.3-2-3.4-5.2h-6Z" clip-rule="evenodd"/>
  <path fill="#FF3E12" d="m657 28.5-2.3 3.5 8.3.4-.3-9-5.7 5.1Z"/>
  <path fill="#FF3E12" fill-rule="evenodd" d="m662.9 23 .2.5.3 8.9a.5.5 0 0 1-.5.4l-8.2-.3a.5.5 0 0 1-.4-.7l2.3-3.5.1-.1 5.7-5c.1-.2.3-.2.5-.1Zm-5.5 5.8-1.9 2.8 7 .3-.2-7.4-5 4.3Z" clip-rule="evenodd"/>
  <path fill="#FF3E12" d="m673.4 28.5-5.7-5.1-.2 9 8.2-.4-2.3-3.5Z"/>
  <path fill="#FF3E12" fill-rule="evenodd" d="M667.5 23h.5l5.7 5.2h.1l2.3 3.6a.5.5 0 0 1-.3.7l-8.3.4a.5.5 0 0 1-.5-.5l.2-9c0-.2.1-.4.3-.4Zm.6 1.4-.2 7.5 7-.3-1.8-2.8-5-4.4Z" clip-rule="evenodd"/>
  <path fill="#FF3E12" d="m657.5 44.6 5-2.4-4.3-3.4-.7 5.8Z"/>
  <path fill="#FF3E12" fill-rule="evenodd" d="M658 38.4h.4l4.4 3.4a.5.5 0 0 1-.1.8l-5 2.4a.5.5 0 0 1-.7-.5l.7-5.8c0-.1.1-.3.3-.3Zm.5 1.2-.5 4.2 3.6-1.7-3-2.5Z" clip-rule="evenodd"/>
  <path fill="#FF3E12" d="m668 42.2 5 2.4-.7-5.8-4.3 3.4Z"/>
  <path fill="#FF3E12" fill-rule="evenodd" d="M672.4 38.4c.2 0 .3.2.3.3l.7 5.8a.5.5 0 0 1-.6.5l-5-2.4a.5.5 0 0 1 0-.8l4.2-3.4h.4Zm-3.6 3.7 3.6 1.7-.5-4.2-3 2.5Z" clip-rule="evenodd"/>
  <path fill="#FFE2DC" d="m673 44.6-5-2.4.4 3.2v1.4l4.6-2.2Z"/>
  <path fill="#FFE2DC" fill-rule="evenodd" d="M667.7 41.8h.5l5 2.4.2.4c0 .1 0 .3-.2.4l-4.7 2.2a.5.5 0 0 1-.6-.4v-1.4l-.4-3.2c0-.2 0-.3.2-.4Zm.8 1.1.3 2.4v.8l3.1-1.5-3.4-1.7Z" clip-rule="evenodd"/>
  <path fill="#FFE2DC" d="m657.5 44.6 4.6 2.2v-1.4l.4-3.2-5 2.4Z"/>
  <path fill="#FFE2DC" fill-rule="evenodd" d="M662.7 41.8c.2 0 .2.2.2.4l-.4 3.2v1.4a.5.5 0 0 1-.6.4l-4.6-2.2a.5.5 0 0 1 0-.8l5-2.5h.4Zm-4.2 2.8 3.1 1.5v-.7l.3-2.5-3.4 1.7Z" clip-rule="evenodd"/>
  <path fill="#FF5027" d="m662.2 36.6-4.2-1.2 3-1.3 1.2 2.5Z"/>
  <path fill="#FF5027" fill-rule="evenodd" d="M660.8 33.7c.2-.1.5 0 .6.2l1.2 2.6v.4c-.2.2-.4.2-.5.2l-4.2-1.2a.5.5 0 0 1 0-.9l2.9-1.3Zm-1.5 1.6 2 .6-.5-1.2-1.5.6Z" clip-rule="evenodd"/>
  <path fill="#FF5027" d="m668.2 36.6 1.3-2.5 2.9 1.3-4.2 1.2Z"/>
  <path fill="#FF5027" fill-rule="evenodd" d="M669 33.9c.2-.2.4-.3.6-.2l3 1.3a.5.5 0 0 1 0 .9l-4.2 1.2a.5.5 0 0 1-.6-.6l1.2-2.6Zm.7.8-.6 1.2 2-.6-1.4-.6Z" clip-rule="evenodd"/>
  <path fill="#FF6A48" d="m657.5 44.6.7-6-4.6.1 3.9 5.9Z"/>
  <path fill="#FF6A48" fill-rule="evenodd" d="M658.5 38.3c.1.1.2.2.1.4l-.7 6a.5.5 0 0 1-.8.1l-3.9-5.8a.5.5 0 0 1 .4-.7l4.6-.1.3.1Zm-4.1.9 2.8 4.1.5-4.2h-3.3Z" clip-rule="evenodd"/>
  <path fill="#FF6A48" d="m672.2 38.6.8 6 3.9-5.9h-4.7Z"/>
  <path fill="#FF6A48" fill-rule="evenodd" d="m672 38.3.3-.1h4.6a.5.5 0 0 1 .3.8l-3.9 5.8a.5.5 0 0 1-.8-.2l-.7-6 .1-.3Zm.8.8.5 4.2 2.7-4.1-3.2-.1Z" clip-rule="evenodd"/>
  <path fill="#FF6A48" d="m675.7 32-8.2.4.7 4.2 1.3-2.5 2.9 1.3 3.3-3.4Z"/>
  <path fill="#FF6A48" fill-rule="evenodd" d="m676.2 31.8-.1.5-3.4 3.4c-.1.2-.3.2-.5.1l-2.5-1.1-1 2.1a.5.5 0 0 1-1 0l-.7-4.3a.5.5 0 0 1 .4-.6l8.3-.3c.2 0 .4 0 .5.2Zm-8.2 1 .4 2.4.6-1.3c.2-.2.4-.3.6-.2l2.7 1.2 2.3-2.4-6.6.3Z" clip-rule="evenodd"/>
  <path fill="#FF6A48" d="m658 35.4 3-1.3 1.2 2.5.8-4.2-8.3-.4 3.3 3.4Z"/>
  <path fill="#FF6A48" fill-rule="evenodd" d="m654.3 31.8.4-.2 8.3.3a.5.5 0 0 1 .4.6l-.8 4.2a.5.5 0 0 1-.8.1l-1-2.1-2.6 1.1h-.5l-3.3-3.5a.5.5 0 0 1-.1-.5Zm1.5.7 2.3 2.4 2.7-1.2c.2-.1.5 0 .6.2l.6 1.3.4-2.4-6.6-.3Z" clip-rule="evenodd"/>
  <path fill="#FF9D87" d="m654.7 32 3.5 6.8-.2-3.4-3.3-3.4Z"/>
  <path fill="#FF9D87" fill-rule="evenodd" d="M654.4 31.7c.2-.2.5-.2.6 0l3.4 3.4.1.3.1 3.4a.5.5 0 0 1-.8.2l-3.5-6.8c-.1-.2 0-.4.1-.5Zm2 2.7 1.2 2.4v-1.2l-1.2-1.2Z" clip-rule="evenodd"/>
  <path fill="#FF9D87" d="m672.4 35.4-.1 3.4 3.4-6.8-3.3 3.4Z"/>
  <path fill="#FF9D87" fill-rule="evenodd" d="M676 31.7c.2 0 .2.3.1.5l-3.4 6.8a.5.5 0 0 1-.9-.2l.2-3.4v-.3l3.4-3.4c.2-.2.4-.2.6 0Zm-3.2 4v1l1.2-2.2-1.2 1.1Z" clip-rule="evenodd"/>
  <path fill="#FF9D87" d="m663 32.4-.8 4.2 1 5 .2-6.6-.4-2.6Z"/>
  <path fill="#FF9D87" fill-rule="evenodd" d="M663 32c.2 0 .4.1.4.3l.4 2.7-.2 6.7a.5.5 0 0 1-.9 0l-1-5v-.1l.8-4.3c0-.2.3-.4.5-.4Zm-.3 4.6.1 1 .1-2.5-.2 1.5Z" clip-rule="evenodd"/>
  <path fill="#FF9D87" d="M667.5 32.4 667 35l.2 6.7 1-5-.8-4.3Z"/>
  <path fill="#FF9D87" fill-rule="evenodd" d="M667.5 32c.2 0 .4.1.4.3l.8 4.3v.1l-1 5a.5.5 0 0 1-.9 0l-.2-6.7.4-2.7c0-.2.2-.4.5-.4Zm0 3.2v2.4l.3-1-.3-1.4Z" clip-rule="evenodd"/>
  <path fill="#FFAB98" d="m668.2 36.6-1 5 .8.6 4.3-3.4.1-3.4-4.2 1.2Z"/>
  <path fill="#FFAB98" fill-rule="evenodd" d="m672.7 35 .2.4-.2 3.4-.1.3-4.4 3.4h-.5l-.7-.5a.5.5 0 0 1-.2-.4l1-5c0-.2.2-.3.3-.4l4.2-1.2h.4Zm-4 2-1 4.5h.3l3.8-3 .1-2.5-3.3 1Z" clip-rule="evenodd"/>
  <path fill="#FFAB98" d="m658 35.4.2 3.4 4.3 3.4.7-.5-1-5-4.2-1.3Z"/>
  <path fill="#FFAB98" fill-rule="evenodd" d="M657.8 35h.4l4.1 1.2c.2 0 .3.2.3.4l1 5c0 .1 0 .3-.2.4l-.7.5h-.5l-4.3-3.4a.5.5 0 0 1-.2-.3l-.1-3.4c0-.1 0-.2.2-.3Zm.7 1 .1 2.6 3.9 3 .2-.1-.9-4.5-3.3-1Z" clip-rule="evenodd"/>
  <path fill="#FFDBD2" d="M668.3 46.8v-1.4l-.3-.3h-5.6l-.3.3v1.4l-4.6-2.2 1.6 1.3 3.3 2.3h5.6l3.3-2.3 1.7-1.3-4.7 2.2Z"/>
  <path fill="#FFDBD2" fill-rule="evenodd" d="M657 44.3c.2-.2.5-.2.7-.1l4 1.9v-1l.4-.4h6.2l.4.4.1.3v.7l4-2a.5.5 0 0 1 .4.8l-1.6 1.4-3.3 2.3H662l-3.3-2.3-1.6-1.4a.5.5 0 0 1-.1-.6Zm4.3 2.6 1.2.8h5.4l1.2-.8-.6.3a.5.5 0 0 1-.6-.4v-1.2h-5.3v1.2a.5.5 0 0 1-.7.4l-.6-.3Z" clip-rule="evenodd"/>
  <path fill="#FF3E12" d="m668 42.2-.7-.5h-4.1l-.7.5-.4 3.2.3-.3h5.6l.4.3-.4-3.2Z"/>
  <path fill="#FF3E12" fill-rule="evenodd" d="M663 41.3h4.5l.7.5.2.3.4 3.2a.5.5 0 0 1-.7.4l-.3-.2h-5.2l-.2.2a.5.5 0 0 1-.8-.4l.4-3.2.2-.3.7-.5Zm-.4 3.3h5.2l-.3-2.2-.4-.3h-3.8l-.4.3-.3 2.2Z" clip-rule="evenodd"/>
  <path fill="#C72F0C" d="m682.8 25 1.2-6-1.9-5.6L668 23.9l5.4 4.6 7.7 2.3 1.7-2-.7-.6 1.2-1-1-.7 1.2-1-.7-.5Z"/>
  <path fill="#C72F0C" fill-rule="evenodd" d="m682.3 13 .3.3 1.8 5.5v.3l-1.1 5.7.5.4a.5.5 0 0 1 0 .7l-.7.6.4.3a.4.4 0 0 1 0 .7l-.7.7.3.2a.5.5 0 0 1 0 .7l-1.6 2h-.5l-7.7-2.2h-.2l-5.4-4.7a.5.5 0 0 1 0-.7L681.9 13h.4Zm-.1 15.9-.4-.3a.5.5 0 0 1 0-.7l.8-.7-.5-.4a.5.5 0 0 1 0-.7l.7-.5-.3-.3a.5.5 0 0 1-.2-.4l1.2-5.9-1.6-4.9-13.2 9.8 5 4.2 7.3 2.1 1.2-1.3Z" clip-rule="evenodd"/>
  <path fill="#C72F0C" d="m646.4 19 1.3 6-.8.6 1.2.9-1 .7 1.2 1-.7.6 1.7 2 7.7-2.3 5.5-4.6-14.2-10.5-1.9 5.6Z"/>
  <path fill="#C72F0C" fill-rule="evenodd" d="M648.1 13h.5l14.1 10.5a.4.4 0 0 1 0 .7l-5.4 4.7h-.2l-7.7 2.3-.4-.1-1.7-2a.5.5 0 0 1 0-.7l.3-.2-.7-.7a.5.5 0 0 1-.2-.4s0-.2.2-.3l.4-.3-.7-.6a.5.5 0 0 1 0-.7l.6-.4L646 19v-.3l1.9-5.5c0-.2.1-.3.2-.3Zm.2 15.9 1.2 1.3 7.3-2 5-4.3-13.3-9.8L647 19l1.2 5.9c0 .2 0 .3-.2.4l-.3.3.7.5c.2 0 .2.2.2.4 0 .1 0 .2-.2.3l-.4.4.7.7a.5.5 0 0 1 0 .7l-.3.3Z" clip-rule="evenodd"/>
  <path fill="#FFAB98" d="m681.1 30.8-7.7-2.3 2.3 3.5-3.4 6.8h11.4l-2.6-8Z"/>
  <path fill="#FFAB98" fill-rule="evenodd" d="M673 28.2c.2-.1.4-.2.5-.1l7.8 2.2.3.3 2.5 8a.5.5 0 0 1-.4.6h-11.4a.5.5 0 0 1-.4-.6l3.3-6.6-2.2-3.2a.5.5 0 0 1 0-.6Zm1.5 1 1.6 2.6c.1.1.1.3 0 .4l-3 6.1h10l-2.3-7.2-6.3-1.8Z" clip-rule="evenodd"/>
  <path fill="#FFAB98" d="m657 28.5-7.7 2.3-2.6 8h11.5l-3.5-6.8 2.3-3.5Z"/>
  <path fill="#FFAB98" fill-rule="evenodd" d="M657.4 28.2v.6l-2.2 3.2 3.4 6.6a.5.5 0 0 1-.4.6h-11.5a.5.5 0 0 1-.4-.6l2.6-8 .3-.3 7.7-2.2.5.1Zm-7.7 3-2.4 7h6.3l3.8.1-3.1-6v-.5l1.7-2.5-6.3 1.8Z" clip-rule="evenodd"/>
  <path fill="#FFAB98" d="m667.5 32.4.5-8.5 2.2-6h-10l2.3 6 .5 8.5.2 2.7v6.6h4V35l.3-2.7Z"/>
  <path fill="#FFAB98" fill-rule="evenodd" d="m659.9 17.6.3-.2h10a.5.5 0 0 1 .4.6l-2.2 6-.5 8.4-.2 2.7v6.6c0 .2-.2.4-.4.4h-4.1a.5.5 0 0 1-.5-.4V35l-.2-2.7-.5-8.4-2.2-6v-.4Zm1 .7 2 5.4v.2l.5 8.5.2 2.6v6.2h3.2v-6.1l.2-2.7.5-8.5v-.2l2-5.4H661Z" clip-rule="evenodd"/>
  <path fill="#FF3E12" d="m1202.5 41.8.2-.3 11-21v-.1l-4.8-9.2c-.4-.7-1.5-.5-1.7.3l-4.7 30.3Z"/>
  <path fill="#FFA712" d="m1202.6 41.6.2-.4 11-20.7-5-9.1c-.3-.8-1.3-.6-1.5.3l-4.7 29.9Z"/>
  <path fill="#FF3E12" d="m1202.6 41.6.2-.4 11-20.7-5-9.1c-.3-.8-1.3-.6-1.5.3l-4.7 29.9Z"/>
  <path fill="#FF3E12" d="m1217.3 27.3 3.6-3.7-3.6-7a1 1 0 0 0-1.6 0l-2 3.7v.4l3.6 6.6Z"/>
  <path fill="#FFA50E" d="m1217.3 27.1 3.5-3.6-3.5-6.7c-.4-.6-1.2-.7-1.5 0l-2 3.7v.2l3.5 6.4Z"/>
  <path fill="#FF3E12" d="m1217.3 27.1 3.5-3.6-3.5-6.7c-.4-.6-1.2-.7-1.5 0l-2 3.7v.2l3.5 6.4Z"/>
  <path fill="#FF6E4D" d="m1213.8 20.3-11.3 21.5h.1l.4-.2 14-14 .3-.6-3.5-6.7Z"/>
  <path fill="#FF8366" d="m1217.8 48.9 12.7-7.1-3.6-22.5c-.1-.7-1-1-1.5-.4l-22.9 23 12.7 7a2.7 2.7 0 0 0 2.6 0"/>
  <path fill="#FF8366" d="m1230.4 41.7-3.6-22.2c-.1-.7-.8-1-1.3-.5l-22.8 22.8 12.5 7a3 3 0 0 0 2.6 0l12.6-7Z"/>
  <path fill="#EEAB37" d="M1217.8 48.7a3 3 0 0 1-2.6 0l-12.6-7-.1.1 12.7 7.1a3 3 0 0 0 2.6 0l12.7-7.1v-.2l-12.7 7Z"/>
  <path fill="#FF3E12" d="M1240.2 38.5h-2.2V21.6h9.9v2.1h-7.7v5.5h7v2h-7v7.3Zm11.5-14.4c-.3.2-.7.4-1 .4l-.7-.1c-.2 0-.3-.2-.5-.3a1.5 1.5 0 0 1-.4-1.1v-.6l.4-.5a1.4 1.4 0 0 1 1.1-.5 1.5 1.5 0 0 1 1.1.5c.1.1.3.3.3.5a1.5 1.5 0 0 1 0 1.2l-.3.5Zm0 14.4h-2.2V27h2.2v11.5Zm4.7 0h-2.2V27h2v1.8h.2a3 3 0 0 1 1.3-1.5 4.1 4.1 0 0 1 3.6-.3l-.8 2a3 3 0 0 0-1.1-.2c-.8 0-1.5.3-2.1 1-.6.6-1 1.4-1 2.4v6.3Zm10.7.4c-1.8 0-3.2-.6-4.3-1.8a6.2 6.2 0 0 1-1.6-4.4c0-1.7.5-3.1 1.5-4.3a5.4 5.4 0 0 1 4.1-1.8c1.7 0 3.1.5 4.2 1.6 1 1.2 1.5 2.7 1.5 4.5v.4h-9.2c.1 1.2.5 2.1 1.2 2.8a3.4 3.4 0 0 0 2.5 1c1.6 0 2.6-.7 3.2-2l2 .8a5 5 0 0 1-2 2.3c-.8.6-1.9.9-3.1.9Zm3-7.6a3 3 0 0 0-.8-1.8 3.4 3.4 0 0 0-4.6-.2c-.6.5-1 1.2-1.2 2h6.7Zm10.3 7.6a5 5 0 0 1-2.4-.6c-.7-.4-1.2-.8-1.6-1.4v1.6h-2.2V21.6h2.2v7c.4-.6.9-1 1.6-1.5a5 5 0 0 1 2.4-.5 5 5 0 0 1 3.8 1.7 6.4 6.4 0 0 1 1.7 4.4c0 1.8-.6 3.2-1.7 4.4a5.1 5.1 0 0 1-3.8 1.8Zm-.4-2c1 0 1.9-.4 2.6-1.1.7-.8 1-1.8 1-3 0-1.3-.3-2.3-1-3.1a3.5 3.5 0 0 0-2.6-1.2 3.4 3.4 0 0 0-2.6 1.2c-.7.7-1 1.8-1 3 0 1.3.3 2.3 1 3 .7.8 1.6 1.2 2.6 1.2Zm11.6 2c-1.2 0-2.3-.4-3.1-1a3.5 3.5 0 0 1-1.3-2.9c0-1.2.5-2.2 1.5-3a6 6 0 0 1 3.6-1 6 6 0 0 1 3.2.7v-.3c0-.9-.3-1.6-.9-2-.6-.6-1.3-.8-2.1-.8-.7 0-1.3.1-1.8.4-.5.3-.8.7-1 1.2l-2-.8c.3-.7.8-1.3 1.6-2a5 5 0 0 1 3.1-.8c1.5 0 2.7.4 3.7 1.3 1 .8 1.4 2 1.4 3.6v7h-2V37h-.1c-.9 1.3-2.2 2-3.8 2Zm.3-2c1 0 1.8-.3 2.5-1s1-1.5 1-2.4c-.5-.5-1.5-.7-2.7-.7-1 0-1.8.2-2.4.7a2 2 0 0 0-.8 1.6c0 .5.3 1 .8 1.3.5.3 1 .5 1.6.5Zm12 2a5.2 5.2 0 0 1-5-3.3l1.9-.8c.6 1.4 1.6 2.2 3.1 2.2.7 0 1.2-.2 1.7-.5.4-.3.6-.7.6-1.2 0-.7-.5-1.2-1.6-1.5l-2.3-.6c-.8-.2-1.5-.5-2.1-1-.7-.6-1-1.3-1-2.2a3 3 0 0 1 1.4-2.5c.9-.6 2-1 3.2-1 1 0 2 .3 2.7.8a4 4 0 0 1 1.8 2l-2 .7c-.4-1-1.3-1.5-2.6-1.5a3 3 0 0 0-1.6.4c-.5.3-.7.6-.7 1.1 0 .7.5 1.1 1.6 1.3l2.3.6c1 .2 1.8.7 2.4 1.3.5.6.7 1.3.7 2 0 1.1-.4 2-1.2 2.7-.9.7-2 1-3.3 1Zm11.5 0c-1.7 0-3.1-.6-4.2-1.8a6.2 6.2 0 0 1-1.7-4.4c0-1.7.6-3.1 1.6-4.3a5 5 0 0 1 4-1.8c1.8 0 3.2.5 4.2 1.6 1 1.2 1.5 2.7 1.5 4.5v.4h-9c0 1.2.4 2.1 1 2.8a3.5 3.5 0 0 0 2.6 1c1.6 0 2.6-.7 3.2-2l2 .8a5 5 0 0 1-2 2.3c-.8.6-1.9.9-3.1.9Zm3.1-7.6a3 3 0 0 0-.9-1.8 3 3 0 0 0-2.4-1 3 3 0 0 0-2.1.8c-.6.5-1 1.2-1.3 2h6.7ZM558 36.8h-2.5V35a4 4 0 0 1-2.5 1.8c-2.3.6-4.4-.4-5.3-2.6-1-2.5-1-5 .6-7.2a4.3 4.3 0 0 1 6-1l1.1 1.2V21h2.6v15.8Zm-2.6-5.5a5 5 0 0 0-.6-2.6 2.6 2.6 0 0 0-4.5 0 4.7 4.7 0 0 0 0 4.8c1 1.8 3.5 1.8 4.5 0 .5-.7.6-1.5.6-2.2ZM426 22h3.2l3.9.1c3.2.4 5.3 2.5 5.8 5.6.2 1.8.2 3.6-.5 5.3a6 6 0 0 1-5.2 3.9H426V22Zm2.7 12.7h3.8a4 4 0 0 0 3.4-3.2 7 7 0 0 0 .1-3.8 4 4 0 0 0-2.6-3.1c-1.5-.5-3.1-.3-4.7-.3v10.4Zm86.3 2.2h-2.5v-2l-.7 1a4.5 4.5 0 0 1-5.5.3c-1.7-1.2-2-4.4.5-5.5.9-.4 1.9-.5 2.8-.6 1-.2 1.9-.2 2.8-.2.2-1.5-.2-2.4-1.3-2.7-1.4-.4-2.6.1-3.1 1.4h-2.4a3.3 3.3 0 0 1 1.1-2.4c1.4-1.1 3-1.3 4.6-1.1.8 0 1.6.4 2.3.9.8.6 1.3 1.4 1.4 2.5v8.4Zm-2.6-5.3-1.7.1-1.9.3c-.8.2-1.2.8-1.2 1.5s.6 1.2 1.4 1.4c2.1.5 3.6-1 3.4-3.3Zm19.6 5.2h-2.5v-1.7a4.4 4.4 0 0 1-5.8 1.4 3.2 3.2 0 0 1-1.7-3.2c0-1.3.8-2.2 2-2.7.8-.3 1.7-.4 2.6-.5 1-.2 1.8-.2 2.7-.2.5-1.8-.7-3.1-2.6-2.8-.7.2-1.4.5-1.7 1.4a.4.4 0 0 1-.2.2h-2.2c0-1.2.5-2 1.4-2.7a6 6 0 0 1 6.5 0c.9.5 1.5 1.4 1.5 2.5v8.3Zm-2.6-5.2-2.3.2a3 3 0 0 0-1.3.2c-.8.2-1.2.8-1.2 1.5s.5 1.2 1.3 1.4c2.2.5 3.7-1 3.5-3.3Zm-53.4 0h-8.3c-.3 2 1.5 3.6 3.5 3.3.9-.1 1.6-.5 2-1.3a.5.5 0 0 1 .4-.2h2.2l-.1.6a4 4 0 0 1-1.5 2 6.4 6.4 0 0 1-7.2-.2 5.3 5.3 0 0 1-2-3.8c-.1-1.9 0-3.7 1.4-5.2 1.5-1.8 3.5-2 5.7-1.6 2 .5 3.2 2 3.6 4 .2.7.2 1.5.3 2.4Zm-8.3-1.8h5.6c0-1.6-1.2-2.7-2.8-2.7a2.8 2.8 0 0 0-2.8 2.7Zm-15.9 3.6c0 .8-.5 1.6-1 2.1-2.1 2-6.3 2-8.2 0a6 6 0 0 1-1.6-4.3c0-1.7.3-3.4 1.7-4.7 1.6-1.6 3.7-1.8 5.8-1.1 2 .6 3 2.2 3.4 4.2l.1 2h-8.2c-.3 1.2.4 2.5 1.5 3 1.5.7 3 .3 4-1a.4.4 0 0 1 .3-.2h2.2Zm-2.5-3.5c0-1.8-1.3-3-3-2.8-1.4 0-2.7 1.5-2.5 2.8h5.5ZM488 37h-2.6v-7.3c0-1.4-.7-2.2-1.9-2.4-1.3-.2-2.4.5-2.8 1.8l-.1 1.4V37H478V25.2h2.4v2l.3-.3c.9-1.6 2.5-2.2 4.4-1.8 1.6.3 2.7 1.5 2.8 3.3.2 2.9 0 5.7 0 8.6Zm57 0h-2.6v-7.3c0-1.6-.8-2.4-2.2-2.4-1.4 0-2.4.8-2.6 2.3v7.3H535V25.3h2.4v2l.3-.4c.9-1.5 2.5-2 4.4-1.7 1.5.3 2.6 1.6 2.8 3.3v1.4l.1 6.6v.6Zm-81-7.7h-2.4l-.2-.3c-.5-1.2-1.3-1.8-2.6-1.8-1.2 0-2.2.5-2.6 1.7a5.4 5.4 0 0 0 0 4.2c.4 1 1.2 1.6 2.3 1.7 1 0 2-.1 2.5-1l.5-1h2.5a4.3 4.3 0 0 1-1.5 3c-2.2 1.9-6.3 1.5-8.2-.7a6 6 0 0 1-1.3-4 6 6 0 0 1 1.8-4.7c2.2-2 6.4-1.8 8.2.4a4 4 0 0 1 1 2.5Zm26.7-1.8H489v-2h1.7V23h2.9v2.5h1.9c.4 0 .5.1.5.5v1.5h-2.4v5.8c0 1.3.4 1.7 2 1.6h.3v2c-1.2.2-2.4.2-3.6-.2-1.2-.4-1.6-1.4-1.6-2.5v-6.7ZM520 21v16h-3V21h3Zm-19.5 16H498V25.2h2.4v2c1-2 2.1-2.5 3.6-2v2.3h-.5c-1.7-.3-3 .7-3 2.6V37Z"/>
  <defs>
    <linearGradient id="a" x1="12" x2="17.1" y1="14.7" y2="32.3" gradientUnits="userSpaceOnUse">
      <stop stop-color="#FF3E12" stop-opacity=".6"/>
      <stop offset="1" stop-color="#FF3E12" stop-opacity=".6"/>
    </linearGradient>
    <linearGradient id="b" x1="16.2" x2="21.3" y1="13.5" y2="31" gradientUnits="userSpaceOnUse">
      <stop stop-color="#FF3E12" stop-opacity=".6"/>
      <stop offset="1" stop-color="#FF3E12" stop-opacity=".6"/>
    </linearGradient>
    <linearGradient id="c" x1="7.8" x2="12.9" y1="15.9" y2="33.5" gradientUnits="userSpaceOnUse">
      <stop stop-color="#FF3E12" stop-opacity=".6"/>
      <stop offset="1" stop-color="#FF3E12" stop-opacity=".6"/>
    </linearGradient>
    <linearGradient id="d" x1="404.4" x2="372.6" y1="12.6" y2="44.4" gradientUnits="userSpaceOnUse">
      <stop stop-color="#F9380B"/>
      <stop offset="1" stop-color="#FF3E12" stop-opacity=".6"/>
    </linearGradient>
    <linearGradient id="e" x1="389" x2="389" y1="20.6" y2="37.5" gradientUnits="userSpaceOnUse">
      <stop stop-color="#FF3E12"/>
      <stop offset="1" stop-color="#FF3E12" stop-opacity=".6"/>
    </linearGradient>
    <linearGradient id="f" x1="401.3" x2="401.3" y1="29.6" y2="42" gradientUnits="userSpaceOnUse">
      <stop stop-color="#FF3E12"/>
      <stop offset="1" stop-color="#FF3E12" stop-opacity=".6"/>
    </linearGradient>
  </defs>
</svg>