<svg width="1335" height="174" viewBox="0 0 1335 174" fill="none" xmlns="http://www.w3.org/2000/svg">
<path d="M36.5088 27.4092C46.5029 9.5127 61.5716 0.564453 81.7148 0.564453C91.554 0.564453 100.037 2.84993 107.165 7.4209C114.37 11.9144 120.336 18.3447 125.062 26.7119C113.208 21.2887 98.7591 18.5771 81.7148 18.5771C64.6706 18.5771 49.6019 21.5212 36.5088 27.4092ZM125.294 146.409C133.196 131.844 137.147 111.546 137.147 85.5146C137.147 73.7386 136.14 62.8535 134.126 52.8594C132.189 42.8652 129.168 34.1494 125.062 26.7119C136.76 31.9027 145.747 39.4564 152.022 49.373C158.298 59.2897 161.436 71.3369 161.436 85.5146C161.436 100.312 158.298 112.824 152.022 123.051C145.825 133.277 136.915 141.063 125.294 146.409ZM38.3682 146.409C26.2822 141.063 16.9079 133.277 10.2451 123.051C3.65983 112.747 0.367188 100.235 0.367188 85.5146C0.367188 71.8792 3.50488 60.1419 9.78027 50.3027C16.1331 40.3861 25.0426 32.7549 36.5088 27.4092C32.5576 34.8467 29.5749 43.485 27.5605 53.3242C25.6237 63.1634 24.6553 73.8936 24.6553 85.5146C24.6553 97.6006 25.8174 108.834 28.1416 119.216C30.4658 129.597 33.8747 138.662 38.3682 146.409ZM81.7148 172.905C72.263 172.905 63.8958 170.62 56.6133 166.049C49.3307 161.4 43.249 154.854 38.3682 146.409C50.4541 151.832 64.903 154.544 81.7148 154.544C98.6816 154.544 113.208 151.832 125.294 146.409C115.842 164.073 101.316 172.905 81.7148 172.905ZM167.827 172.905C157.678 173.138 148.73 171.201 140.982 167.095C133.235 162.911 128.083 156.093 125.526 146.642C134.591 150.593 145.36 152.568 157.833 152.568C160.157 152.568 163.489 152.413 167.827 152.104V172.905ZM217.449 146.874C210.167 143.31 204.666 138.507 200.947 132.464C197.229 126.343 195.369 119.1 195.369 110.732V3.35352H215.822V136.415C215.822 140.366 216.365 143.853 217.449 146.874ZM300.54 146.874C301.625 143.853 302.167 140.366 302.167 136.415V3.35352H323.201V110.732C323.201 119.1 321.264 126.343 317.391 132.464C313.594 138.507 307.978 143.31 300.54 146.874ZM258.937 172.905C251.809 172.905 245.379 171.782 239.646 169.535C233.99 167.211 229.264 164.112 225.468 160.238C221.749 156.287 219.076 151.832 217.449 146.874C227.908 151.987 241.737 154.544 258.937 154.544C276.213 154.544 290.081 151.987 300.54 146.874C298.991 151.832 296.356 156.287 292.638 160.238C288.919 164.112 284.193 167.211 278.46 169.535C272.727 171.782 266.219 172.905 258.937 172.905ZM381.307 75.2881C373.947 74.5133 368.756 72.2279 365.734 68.4316C362.79 64.5579 361.318 58.6699 361.318 50.7676V3.35352H469.627V20.5527H381.307V75.2881ZM381.307 75.2881C382.701 75.443 385.142 75.5205 388.628 75.5205H465.095V92.1387H388.628C386.536 92.1387 384.096 92.2936 381.307 92.6035V75.2881ZM361.318 117.356C361.318 110.539 362.868 104.999 365.967 100.738C369.066 96.4772 374.179 93.7656 381.307 92.6035V152.917H471.951V170H361.318V117.356ZM519.017 23.1094C521.418 16.3691 525.718 10.946 531.916 6.83984C538.191 2.65625 546.016 0.564453 555.391 0.564453C573.597 0.564453 585.451 8.00195 590.951 22.877C580.415 19.0807 568.329 17.1826 554.693 17.1826C540.206 17.1826 528.313 19.1582 519.017 23.1094ZM593.74 53.6729C594.05 49.4893 594.205 46.5452 594.205 44.8408C594.205 36.4736 593.12 29.1523 590.951 22.877C598.854 25.821 605.09 29.9271 609.661 35.1953C614.232 40.3861 616.634 46.5452 616.866 53.6729H593.74ZM597.11 149.314C598.505 145.441 599.202 141.218 599.202 136.647C599.202 129.597 598.001 123.671 595.6 118.867C593.275 114.064 589.789 109.996 585.141 106.665C580.57 103.334 574.565 100.235 567.128 97.3682L534.938 85.0498C523.394 80.5563 514.562 75.598 508.441 70.1748C502.321 64.7516 499.261 58.1276 499.261 50.3027C499.261 43.9499 500.965 38.488 504.374 33.917C507.783 29.346 512.664 25.7435 519.017 23.1094C517.777 26.6732 517.157 30.3532 517.157 34.1494C517.157 40.1924 518.242 45.2282 520.411 49.2568C522.658 53.208 526.028 56.6169 530.521 59.4834C535.092 62.3499 541.329 65.3327 549.231 68.4316L581.422 80.9824C592.811 85.5534 601.604 91.0153 607.802 97.3682C614 103.644 617.099 111.12 617.099 119.797C617.099 126.382 615.394 132.193 611.985 137.229C608.654 142.187 603.696 146.215 597.11 149.314ZM521.922 150.477C504.025 144.124 494.961 132.231 494.729 114.8H517.854C517.545 117.201 517.39 120.688 517.39 125.259C517.39 135.485 518.9 143.891 521.922 150.477ZM559.458 172.905C550.471 172.905 542.801 171.007 536.448 167.211C530.095 163.337 525.253 157.759 521.922 150.477C532.303 154.118 545.319 155.938 560.969 155.938C575.766 155.938 587.813 153.73 597.11 149.314C594.631 156.442 590.176 162.175 583.746 166.514C577.316 170.775 569.22 172.905 559.458 172.905ZM633.833 3.35352H671.485C678.148 3.35352 683.416 4.74805 687.29 7.53711C691.164 10.2487 693.333 14.4323 693.798 20.0879H633.833V3.35352ZM714.019 20.0879C714.483 14.4323 716.653 10.2487 720.526 7.53711C724.4 4.74805 729.707 3.35352 736.447 3.35352H773.983V20.0879H714.019ZM693.798 20.0879H714.019V170H693.798V20.0879ZM799.898 3.35352H819.887V170H799.898V3.35352ZM886.011 27.4092C896.005 9.5127 911.074 0.564453 931.217 0.564453C941.056 0.564453 949.539 2.84993 956.667 7.4209C963.872 11.9144 969.838 18.3447 974.563 26.7119C962.71 21.2887 948.261 18.5771 931.217 18.5771C914.173 18.5771 899.104 21.5212 886.011 27.4092ZM974.563 146.409C978.67 138.894 981.691 129.985 983.628 119.681C985.642 109.299 986.649 97.9105 986.649 85.5146C986.649 73.7386 985.642 62.8535 983.628 52.8594C981.691 42.8652 978.67 34.1494 974.563 26.7119C986.262 31.9027 995.249 39.4564 1001.52 49.373C1007.8 59.2897 1010.94 71.3369 1010.94 85.5146C1010.94 100.39 1007.8 112.979 1001.52 123.283C995.249 133.51 986.262 141.218 974.563 146.409ZM887.87 146.409C875.784 141.063 866.41 133.277 859.747 123.051C853.162 112.747 849.869 100.235 849.869 85.5146C849.869 71.8792 853.007 60.1419 859.282 50.3027C865.635 40.3861 874.545 32.7549 886.011 27.4092C882.06 34.8467 879.077 43.485 877.062 53.3242C875.126 63.1634 874.157 73.8936 874.157 85.5146C874.157 97.6006 875.319 108.834 877.644 119.216C879.968 129.597 883.377 138.662 887.87 146.409ZM931.217 172.905C921.765 172.905 913.398 170.62 906.115 166.049C898.833 161.4 892.751 154.854 887.87 146.409C899.956 151.832 914.405 154.544 931.217 154.544C948.261 154.544 962.71 151.832 974.563 146.409C969.993 154.931 964.066 161.478 956.783 166.049C949.578 170.62 941.056 172.905 931.217 172.905ZM1058.82 13.1152C1058.82 9.55143 1059.78 6.56868 1061.72 4.16699C1063.74 1.7653 1066.49 0.564453 1069.97 0.564453C1073.15 0.564453 1075.67 1.49414 1077.53 3.35352C1079.46 5.21289 1080.78 7.61458 1081.48 10.5586L1083.8 21.0176C1080.63 20.5527 1077.37 20.3203 1074.04 20.3203C1068.23 20.3203 1063.15 21.0951 1058.82 22.6445V13.1152ZM1161.43 3.35352H1181.88V124.794C1181.88 131.147 1180.02 136.531 1176.31 140.947C1172.66 145.363 1167.71 148.617 1161.43 150.709V3.35352ZM1136.45 152.104C1128.78 151.019 1122.5 148.114 1117.62 143.388C1112.74 138.662 1109.25 131.65 1107.16 122.354L1083.8 21.0176C1091.32 22.1022 1097.44 25.0075 1102.16 29.7334C1106.97 34.3818 1110.45 41.3932 1112.62 50.7676L1136.45 152.104ZM1038.36 52.3945C1038.36 44.5697 1040.18 38.2168 1043.83 33.3359C1047.47 28.3776 1052.46 24.8138 1058.82 22.6445V170H1038.36V52.3945ZM1150.16 172.905C1146.9 172.905 1144.35 171.937 1142.49 170C1140.71 168.063 1139.39 165.274 1138.54 161.633L1136.45 152.104C1140.01 152.646 1143.26 152.917 1146.21 152.917C1151.55 152.917 1156.63 152.181 1161.43 150.709V160.006C1161.43 164.035 1160.42 167.211 1158.41 169.535C1156.47 171.782 1153.72 172.905 1150.16 172.905ZM1236.04 23.1094C1238.44 16.3691 1242.74 10.946 1248.94 6.83984C1255.21 2.65625 1263.04 0.564453 1272.41 0.564453C1290.62 0.564453 1302.47 8.00195 1307.97 22.877C1297.44 19.0807 1285.35 17.1826 1271.71 17.1826C1257.23 17.1826 1245.33 19.1582 1236.04 23.1094ZM1310.76 53.6729C1311.07 49.4893 1311.23 46.5452 1311.23 44.8408C1311.23 36.4736 1310.14 29.1523 1307.97 22.877C1315.88 25.821 1322.11 29.9271 1326.68 35.1953C1331.25 40.3861 1333.66 46.5452 1333.89 53.6729H1310.76ZM1314.13 149.314C1315.53 145.441 1316.22 141.218 1316.22 136.647C1316.22 129.597 1315.02 123.671 1312.62 118.867C1310.3 114.064 1306.81 109.996 1302.16 106.665C1297.59 103.334 1291.59 100.235 1284.15 97.3682L1251.96 85.0498C1240.42 80.5563 1231.58 75.598 1225.46 70.1748C1219.34 64.7516 1216.28 58.1276 1216.28 50.3027C1216.28 43.9499 1217.99 38.488 1221.4 33.917C1224.8 29.346 1229.69 25.7435 1236.04 23.1094C1234.8 26.6732 1234.18 30.3532 1234.18 34.1494C1234.18 40.1924 1235.26 45.2282 1237.43 49.2568C1239.68 53.208 1243.05 56.6169 1247.54 59.4834C1252.11 62.3499 1258.35 65.3327 1266.25 68.4316L1298.44 80.9824C1309.83 85.5534 1318.63 91.0153 1324.82 97.3682C1331.02 103.644 1334.12 111.12 1334.12 119.797C1334.12 126.382 1332.42 132.193 1329.01 137.229C1325.68 142.187 1320.72 146.215 1314.13 149.314ZM1238.94 150.477C1221.05 144.124 1211.98 132.231 1211.75 114.8H1234.88C1234.57 117.201 1234.41 120.688 1234.41 125.259C1234.41 135.485 1235.92 143.891 1238.94 150.477ZM1276.48 172.905C1267.49 172.905 1259.82 171.007 1253.47 167.211C1247.12 163.337 1242.27 157.759 1238.94 150.477C1249.32 154.118 1262.34 155.938 1277.99 155.938C1292.79 155.938 1304.83 153.73 1314.13 149.314C1311.65 156.442 1307.2 162.175 1300.77 166.514C1294.34 170.775 1286.24 172.905 1276.48 172.905Z" fill="#FF3E12"/>
</svg>
