<svg width="1164" height="604" viewBox="0 0 1164 604" fill="none" xmlns="http://www.w3.org/2000/svg">
<path d="M11.0586 3.35352H31.2793V75.7529H46.7354C51.1514 75.7529 54.3278 75.598 56.2646 75.2881C56.1097 76.9925 56.0322 79.9365 56.0322 84.1201C56.0322 87.0641 56.2646 90.0469 56.7295 93.0684C54.4827 92.7585 51.1514 92.6035 46.7354 92.6035H31.2793V170H11.0586V3.35352ZM56.2646 75.2881C56.8844 68.0055 58.6663 61.3428 61.6104 55.2998C64.6318 49.1794 69.9001 42.2067 77.415 34.3818L106.933 3.35352H132.383V3.81836L81.4824 59.1348C76.6016 64.4805 72.2243 68.3542 68.3506 70.7559C64.4769 73.1576 60.4482 74.6683 56.2646 75.2881ZM86.0146 139.553C77.1826 130.643 70.4036 122.547 65.6777 115.265C61.0293 107.982 58.0465 100.583 56.7295 93.0684C61.6104 93.6107 66.2201 95.0052 70.5586 97.252C74.9746 99.4212 79.5068 102.946 84.1553 107.827L143.423 169.535V170H116.462L86.0146 139.553ZM178.17 13.1152C178.17 9.55143 179.138 6.56868 181.075 4.16699C183.09 1.7653 185.84 0.564453 189.326 0.564453C192.503 0.564453 195.021 1.49414 196.88 3.35352C198.817 5.21289 200.134 7.61458 200.831 10.5586L203.155 21.0176C199.979 20.5527 196.725 20.3203 193.394 20.3203C187.583 20.3203 182.508 21.0951 178.17 22.6445V13.1152ZM280.784 3.35352H301.237V124.794C301.237 131.147 299.378 136.531 295.659 140.947C292.018 145.363 287.06 148.617 280.784 150.709V3.35352ZM255.799 152.104C248.129 151.019 241.854 148.114 236.973 143.388C232.092 138.662 228.605 131.65 226.514 122.354L203.155 21.0176C210.67 22.1022 216.791 25.0075 221.517 29.7334C226.32 34.3818 229.806 41.3932 231.976 50.7676L255.799 152.104ZM157.717 52.3945C157.717 44.5697 159.537 38.2168 163.179 33.3359C166.82 28.3776 171.817 24.8138 178.17 22.6445V170H157.717V52.3945ZM269.512 172.905C266.258 172.905 263.701 171.937 261.842 170C260.06 168.063 258.743 165.274 257.891 161.633L255.799 152.104C259.363 152.646 262.617 152.917 265.561 152.917C270.906 152.917 275.981 152.181 280.784 150.709V160.006C280.784 164.035 279.777 167.211 277.763 169.535C275.826 171.782 273.076 172.905 269.512 172.905ZM364.921 27.4092C374.915 9.5127 389.984 0.564453 410.127 0.564453C419.966 0.564453 428.45 2.84993 435.577 7.4209C442.782 11.9144 448.748 18.3447 453.474 26.7119C441.62 21.2887 427.171 18.5771 410.127 18.5771C393.083 18.5771 378.014 21.5212 364.921 27.4092ZM453.474 146.409C457.58 138.894 460.601 129.985 462.538 119.681C464.552 109.299 465.56 97.9105 465.56 85.5146C465.56 73.7386 464.552 62.8535 462.538 52.8594C460.601 42.8652 457.58 34.1494 453.474 26.7119C465.172 31.9027 474.159 39.4564 480.435 49.373C486.71 59.2897 489.848 71.3369 489.848 85.5146C489.848 100.39 486.71 112.979 480.435 123.283C474.159 133.51 465.172 141.218 453.474 146.409ZM366.78 146.409C354.694 141.063 345.32 133.277 338.657 123.051C332.072 112.747 328.779 100.235 328.779 85.5146C328.779 71.8792 331.917 60.1419 338.192 50.3027C344.545 40.3861 353.455 32.7549 364.921 27.4092C360.97 34.8467 357.987 43.485 355.973 53.3242C354.036 63.1634 353.067 73.8936 353.067 85.5146C353.067 97.6006 354.229 108.834 356.554 119.216C358.878 129.597 362.287 138.662 366.78 146.409ZM410.127 172.905C400.675 172.905 392.308 170.62 385.025 166.049C377.743 161.4 371.661 154.854 366.78 146.409C378.866 151.832 393.315 154.544 410.127 154.544C427.171 154.544 441.62 151.832 453.474 146.409C448.903 154.931 442.976 161.478 435.693 166.049C428.488 170.62 419.966 172.905 410.127 172.905ZM608.615 11.0234C609.003 7.92448 610.165 5.40658 612.102 3.46973C614.038 1.53288 616.518 0.564453 619.539 0.564453C622.561 0.564453 625.04 1.53288 626.977 3.46973C628.991 5.40658 630.192 7.92448 630.579 11.0234L631.741 23.1094C627.48 22.3346 623.413 21.9473 619.539 21.9473C615.743 21.9473 611.714 22.3346 607.453 23.1094L608.615 11.0234ZM548.883 151.871C541.6 150.167 535.906 146.68 531.8 141.412C527.771 136.144 525.06 129.094 523.665 120.262L506.582 3.35352H528.662L548.883 151.871ZM710.532 3.35352H732.612L715.529 120.262C714.135 129.094 711.384 136.144 707.278 141.412C703.25 146.68 697.594 150.167 690.312 151.871L710.532 3.35352ZM582.7 52.8594C583.397 44.6471 585.877 38.0618 590.138 33.1035C594.399 28.1452 600.171 24.8138 607.453 23.1094L597.924 119.1C597.072 127.699 594.67 134.749 590.719 140.25C586.768 145.673 581.228 149.392 574.101 151.406L582.7 52.8594ZM665.094 151.406C657.966 149.392 652.427 145.673 648.476 140.25C644.524 134.749 642.123 127.699 641.271 119.1L631.741 23.1094C639.024 24.8138 644.796 28.1452 649.057 33.1035C653.318 38.0618 655.797 44.6471 656.494 52.8594L665.094 151.406ZM561.782 172.905C555.274 172.905 551.362 168.683 550.045 160.238L548.883 151.871C553.299 152.723 557.211 153.149 560.62 153.149C565.578 153.149 570.072 152.568 574.101 151.406L573.403 160.703C573.093 164.732 571.893 167.792 569.801 169.884C567.709 171.898 565.036 172.905 561.782 172.905ZM677.412 172.905C674.158 172.905 671.485 171.898 669.394 169.884C667.302 167.792 666.101 164.732 665.791 160.703L665.094 151.406C669.045 152.568 673.538 153.149 678.574 153.149C681.983 153.149 685.896 152.723 690.312 151.871L689.033 160.238C687.794 168.683 683.92 172.905 677.412 172.905ZM36.5088 243.409C46.5029 225.513 61.5716 216.564 81.7148 216.564C91.554 216.564 100.037 218.85 107.165 223.421C114.37 227.914 120.336 234.345 125.062 242.712C113.208 237.289 98.7591 234.577 81.7148 234.577C64.6706 234.577 49.6019 237.521 36.5088 243.409ZM125.062 362.409C129.168 354.894 132.189 345.985 134.126 335.681C136.14 325.299 137.147 313.91 137.147 301.515C137.147 289.739 136.14 278.854 134.126 268.859C132.189 258.865 129.168 250.149 125.062 242.712C136.76 247.903 145.747 255.456 152.022 265.373C158.298 275.29 161.436 287.337 161.436 301.515C161.436 316.39 158.298 328.979 152.022 339.283C145.747 349.51 136.76 357.218 125.062 362.409ZM38.3682 362.409C26.2822 357.063 16.9079 349.277 10.2451 339.051C3.65983 328.747 0.367188 316.235 0.367188 301.515C0.367188 287.879 3.50488 276.142 9.78027 266.303C16.1331 256.386 25.0426 248.755 36.5088 243.409C32.5576 250.847 29.5749 259.485 27.5605 269.324C25.6237 279.163 24.6553 289.894 24.6553 301.515C24.6553 313.601 25.8174 324.834 28.1416 335.216C30.4658 345.597 33.8747 354.662 38.3682 362.409ZM81.7148 388.905C72.263 388.905 63.8958 386.62 56.6133 382.049C49.3307 377.4 43.249 370.854 38.3682 362.409C50.4541 367.832 64.903 370.544 81.7148 370.544C98.7591 370.544 113.208 367.832 125.062 362.409C120.491 370.931 114.564 377.478 107.281 382.049C100.076 386.62 91.554 388.905 81.7148 388.905ZM210.941 362.874C203.659 359.31 198.158 354.507 194.439 348.464C190.721 342.343 188.861 335.1 188.861 326.732V219.354H209.314V352.415C209.314 356.366 209.857 359.853 210.941 362.874ZM294.032 362.874C295.117 359.853 295.659 356.366 295.659 352.415V219.354H316.693V326.732C316.693 335.1 314.757 342.343 310.883 348.464C307.087 354.507 301.47 359.31 294.032 362.874ZM252.429 388.905C245.301 388.905 238.871 387.782 233.138 385.535C227.482 383.211 222.756 380.112 218.96 376.238C215.241 372.287 212.568 367.832 210.941 362.874C221.4 367.987 235.229 370.544 252.429 370.544C269.705 370.544 283.573 367.987 294.032 362.874C292.483 367.832 289.849 372.287 286.13 376.238C282.411 380.112 277.685 383.211 271.952 385.535C266.219 387.782 259.711 388.905 252.429 388.905ZM354.811 219.354H424.537C432.982 219.354 439.606 220.903 444.409 224.002C449.29 227.023 452.66 231.517 454.52 237.482C449.096 235.933 442.743 235.158 435.461 235.158H375.264V298.145H445.688C449.019 298.145 452.505 297.757 456.146 296.982V316.041C452.815 315.266 449.329 314.879 445.688 314.879H375.264V386H354.811V219.354ZM456.146 251.544C456.146 245.966 455.604 241.279 454.52 237.482C462.112 239.574 467.961 243.138 472.067 248.174C476.251 253.132 478.343 259.562 478.343 267.465C478.343 275.135 476.367 281.526 472.416 286.64C468.542 291.675 463.119 295.123 456.146 296.982V251.544ZM456.146 316.041C463.042 317.668 468.349 320.999 472.067 326.035C475.786 330.993 477.646 337.656 477.646 346.023V385.768H456.146V316.041ZM11.0586 434.354H80.7852C89.2298 434.354 95.8538 435.903 100.657 439.002C105.538 442.023 108.908 446.517 110.768 452.482C105.344 450.933 98.9915 450.158 91.709 450.158H31.5117V513.145H101.936C105.267 513.145 108.753 512.757 112.395 511.982V531.041C109.063 530.266 105.577 529.879 101.936 529.879H31.5117V601H11.0586V434.354ZM112.395 466.544C112.395 460.966 111.852 456.279 110.768 452.482C118.36 454.574 124.209 458.138 128.315 463.174C132.499 468.132 134.591 474.562 134.591 482.465C134.591 490.135 132.615 496.526 128.664 501.64C124.79 506.675 119.367 510.123 112.395 511.982V466.544ZM112.395 531.041C119.29 532.668 124.597 535.999 128.315 541.035C132.034 545.993 133.894 552.656 133.894 561.023V600.768H112.395V531.041ZM190.372 458.409C200.366 440.513 215.435 431.564 235.578 431.564C245.417 431.564 253.901 433.85 261.028 438.421C268.233 442.914 274.199 449.345 278.925 457.712C267.071 452.289 252.622 449.577 235.578 449.577C218.534 449.577 203.465 452.521 190.372 458.409ZM278.925 577.409C283.031 569.894 286.052 560.985 287.989 550.681C290.004 540.299 291.011 528.91 291.011 516.515C291.011 504.739 290.004 493.854 287.989 483.859C286.052 473.865 283.031 465.149 278.925 457.712C290.623 462.903 299.61 470.456 305.886 480.373C312.161 490.29 315.299 502.337 315.299 516.515C315.299 531.39 312.161 543.979 305.886 554.283C299.61 564.51 290.623 572.218 278.925 577.409ZM192.231 577.409C180.146 572.063 170.771 564.277 164.108 554.051C157.523 543.747 154.23 531.235 154.23 516.515C154.23 502.879 157.368 491.142 163.644 481.303C169.996 471.386 178.906 463.755 190.372 458.409C186.421 465.847 183.438 474.485 181.424 484.324C179.487 494.163 178.519 504.894 178.519 516.515C178.519 528.601 179.681 539.834 182.005 550.216C184.329 560.597 187.738 569.662 192.231 577.409ZM235.578 603.905C226.126 603.905 217.759 601.62 210.477 597.049C203.194 592.4 197.112 585.854 192.231 577.409C204.317 582.832 218.766 585.544 235.578 585.544C252.622 585.544 267.071 582.832 278.925 577.409C274.354 585.931 268.427 592.478 261.145 597.049C253.939 601.62 245.417 603.905 235.578 603.905ZM389.325 442.256C390.255 438.77 391.533 436.135 393.16 434.354C394.865 432.494 397.228 431.564 400.249 431.564C403.271 431.564 405.633 432.494 407.338 434.354C409.042 436.135 410.359 438.77 411.289 442.256L413.846 453.18C409.507 451.94 404.975 451.32 400.249 451.32C395.601 451.32 391.107 451.94 386.769 453.18L389.325 442.256ZM361.318 480.141C363.178 473.245 366.277 467.512 370.615 462.941C374.954 458.37 380.338 455.117 386.769 453.18L366.78 533.365H434.066L413.846 453.18C420.276 455.117 425.66 458.37 429.999 462.941C434.338 467.512 437.437 473.245 439.296 480.141L472.416 601H451.033L438.134 550.1H362.48L349.813 601H328.431L361.318 480.141ZM496.355 434.354H549.929C561.162 434.354 570.808 436.174 578.865 439.815C586.923 443.379 593.43 449.5 598.389 458.177C588.007 453.451 575.728 451.088 561.55 451.088H517.273V584.382H563.874C574.643 584.382 584.676 582.716 593.973 579.385C588.549 586.745 582.08 592.207 574.565 595.771C567.05 599.257 558.838 601 549.929 601H496.355V434.354ZM593.973 579.385C604.587 564.432 609.894 543.321 609.894 516.05C609.894 490.328 606.059 471.037 598.389 458.177C609.777 463.135 618.571 470.534 624.769 480.373C631.044 490.135 634.182 502.027 634.182 516.05C634.182 532.242 630.618 545.684 623.49 556.375C616.363 566.989 606.523 574.659 593.973 579.385ZM682.061 444.115C682.061 440.164 683.106 437.104 685.198 434.935C687.29 432.688 689.963 431.564 693.217 431.564C696.548 431.564 699.26 432.572 701.352 434.586C703.443 436.6 704.799 439.622 705.419 443.65L706.581 452.25C703.792 451.63 700.383 451.32 696.354 451.32C691.086 451.32 686.322 452.018 682.061 453.412V444.115ZM830.578 453.412C826.24 452.018 821.475 451.32 816.284 451.32C812.256 451.32 808.847 451.63 806.058 452.25L807.22 443.65C807.762 439.622 809.079 436.6 811.171 434.586C813.34 432.572 816.09 431.564 819.422 431.564C822.676 431.564 825.349 432.688 827.44 434.935C829.532 437.104 830.578 440.164 830.578 444.115V453.412ZM743.652 581.012C736.757 579.307 731.257 576.015 727.15 571.134C723.044 566.175 720.488 559.629 719.48 551.494L706.581 452.25C721.069 455.814 729.475 466.854 731.799 485.37L743.652 581.012ZM780.84 485.37C783.164 466.854 791.57 455.814 806.058 452.25L793.158 551.494C792.151 559.629 789.556 566.175 785.372 571.134C781.188 576.015 775.688 579.307 768.87 581.012L780.84 485.37ZM661.607 484.092C661.607 476.189 663.351 469.604 666.837 464.336C670.401 459.068 675.475 455.426 682.061 453.412V601H661.607V484.092ZM830.578 453.412C837.163 455.426 842.199 459.068 845.686 464.336C849.249 469.604 851.031 476.189 851.031 484.092V601H830.578V453.412ZM756.319 603.905C753.375 603.905 750.896 603.014 748.882 601.232C746.868 599.451 745.705 597.088 745.396 594.144L743.652 581.012C747.449 581.941 751.671 582.406 756.319 582.406C760.968 582.406 765.151 581.941 768.87 581.012L767.243 594.144C766.856 597.165 765.694 599.528 763.757 601.232C761.82 603.014 759.341 603.905 756.319 603.905ZM930.868 442.256C931.798 438.77 933.076 436.135 934.703 434.354C936.408 432.494 938.771 431.564 941.792 431.564C944.813 431.564 947.176 432.494 948.881 434.354C950.585 436.135 951.902 438.77 952.832 442.256L955.389 453.18C951.05 451.94 946.518 451.32 941.792 451.32C937.144 451.32 932.65 451.94 928.312 453.18L930.868 442.256ZM902.861 480.141C904.721 473.245 907.82 467.512 912.158 462.941C916.497 458.37 921.881 455.117 928.312 453.18L908.323 533.365H975.609L955.389 453.18C961.819 455.117 967.203 458.37 971.542 462.941C975.881 467.512 978.979 473.245 980.839 480.141L1013.96 601H992.576L979.677 550.1H904.023L891.356 601H869.974L902.861 480.141ZM1037.9 434.354H1097.17C1115.76 434.354 1128.85 440.706 1136.45 453.412C1130.25 452.018 1123.24 451.32 1115.41 451.32H1058.82V521.977H1115.41C1124.01 521.977 1131.33 521.124 1137.38 519.42C1130.71 533.055 1117.77 539.873 1098.56 539.873H1058.82V601H1037.9V434.354ZM1137.38 519.42C1141.48 511.208 1143.53 500.168 1143.53 486.3C1143.53 472.742 1141.17 461.779 1136.45 453.412C1154.5 457.983 1163.52 468.946 1163.52 486.3C1163.52 495.674 1161.12 502.995 1156.32 508.264C1151.51 513.532 1145.2 517.251 1137.38 519.42Z" fill="#FF3E12"/>
</svg>
