<svg xmlns="http://www.w3.org/2000/svg" viewBox="0 0 407 304">
  <path d="M 21.535 18.063 C 23.664 12.663 27.477 8.318 32.972 5.028 C 38.536 1.676 45.474 0 53.786 0 C 69.928 0 80.438 5.959 85.316 17.876 C 75.973 14.835 65.257 13.314 53.168 13.314 C 40.322 13.314 29.778 14.897 21.535 18.063 Z M 87.788 42.55 C 88.063 39.198 88.201 36.839 88.201 35.474 C 88.201 28.77 87.239 22.904 85.316 17.876 C 92.322 20.235 97.852 23.525 101.905 27.746 C 105.957 31.905 108.087 36.839 108.293 42.55 L 87.788 42.55 Z M 90.776 119.177 C 92.013 116.073 92.631 112.691 92.631 109.028 C 92.631 103.38 91.566 98.631 89.437 94.783 C 87.376 90.934 84.285 87.676 80.163 85.007 C 76.111 82.338 70.787 79.855 64.193 77.558 L 35.651 67.689 C 25.416 64.089 17.585 60.116 12.158 55.771 C 6.732 51.426 4.018 46.119 4.018 39.85 C 4.018 34.76 5.53 30.384 8.552 26.722 C 11.575 23.06 15.902 20.173 21.535 18.063 C 20.436 20.918 19.886 23.866 19.886 26.908 C 19.886 31.749 20.848 35.784 22.771 39.012 C 24.763 42.178 27.752 44.909 31.736 47.205 C 35.788 49.502 41.318 51.892 48.325 54.375 L 76.866 64.43 C 86.964 68.092 94.761 72.468 100.256 77.558 C 105.751 82.586 108.499 88.576 108.499 95.528 C 108.499 100.804 106.988 105.459 103.965 109.494 C 101.011 113.466 96.615 116.694 90.776 119.177 Z M 24.111 120.108 C 8.243 115.018 0.206 105.49 0 91.524 L 20.504 91.524 C 20.23 93.448 20.092 96.242 20.092 99.904 C 20.092 108.097 21.432 114.832 24.111 120.108 Z M 57.392 138.078 C 49.424 138.078 42.623 136.557 36.991 133.515 C 31.358 130.412 27.064 125.943 24.111 120.108 C 33.316 123.025 44.856 124.484 58.732 124.484 C 71.852 124.484 82.533 122.715 90.776 119.177 C 88.578 124.888 84.628 129.481 78.927 132.957 C 73.226 136.371 66.047 138.078 57.392 138.078 Z M 158.575 21.508 C 167.437 7.169 180.797 0 198.657 0 C 207.381 0 214.903 1.831 221.223 5.493 C 227.611 9.093 232.9 14.245 237.09 20.949 C 226.581 16.604 213.769 14.432 198.657 14.432 C 183.545 14.432 170.184 16.79 158.575 21.508 Z M 237.09 116.849 C 240.731 110.828 243.41 103.69 245.127 95.435 C 246.913 87.117 247.806 77.993 247.806 68.061 C 247.806 58.626 246.913 49.905 245.127 41.898 C 243.41 33.891 240.731 26.908 237.09 20.949 C 247.463 25.108 255.431 31.16 260.995 39.105 C 266.559 47.05 269.341 56.702 269.341 68.061 C 269.341 79.979 266.559 90.065 260.995 98.321 C 255.431 106.514 247.463 112.691 237.09 116.849 Z M 160.224 116.849 C 149.508 112.566 141.196 106.328 135.289 98.135 C 129.45 89.879 126.531 79.855 126.531 68.061 C 126.531 57.137 129.313 47.733 134.877 39.85 C 140.51 31.905 148.409 25.791 158.575 21.508 C 155.072 27.467 152.428 34.388 150.642 42.271 C 148.924 50.154 148.066 58.75 148.066 68.061 C 148.066 77.744 149.096 86.745 151.157 95.062 C 153.217 103.38 156.24 110.642 160.224 116.849 Z M 198.657 138.078 C 190.277 138.078 182.858 136.247 176.401 132.584 C 169.944 128.86 164.552 123.615 160.224 116.849 C 170.94 121.194 183.751 123.367 198.657 123.367 C 213.769 123.367 226.581 121.194 237.09 116.849 C 233.038 123.677 227.783 128.922 221.326 132.584 C 214.937 136.247 207.381 138.078 198.657 138.078 Z M 313.235 117.222 C 306.777 114.366 301.902 110.518 298.604 105.676 C 295.307 100.773 293.658 94.969 293.658 88.265 L 293.658 2.235 L 311.792 2.235 L 311.792 108.842 C 311.792 112.008 312.273 114.801 313.235 117.222 Z M 386.906 117.222 C 387.868 114.801 388.349 112.008 388.349 108.842 L 388.349 2.235 L 407 2.235 L 407 88.265 C 407 94.969 405.284 100.773 401.849 105.676 C 398.482 110.518 393.501 114.366 386.906 117.222 Z M 350.021 138.078 C 343.7 138.078 337.999 137.178 332.916 135.378 C 327.901 133.515 323.712 131.033 320.344 127.929 C 317.049 124.763 314.678 121.194 313.235 117.222 C 322.507 121.318 334.772 123.367 350.021 123.367 C 365.339 123.367 377.634 121.318 386.906 117.222 C 385.535 121.194 383.198 124.763 379.902 127.929 C 376.604 131.033 372.414 133.515 367.331 135.378 C 362.248 137.178 356.476 138.078 350.021 138.078 Z M 7.419 170.485 L 25.141 170.485 L 25.141 290.501 L 106.541 290.501 L 106.541 304 L 7.419 304 L 7.419 170.485 Z M 147.241 237.802 C 138.38 235.875 131.545 231.313 126.737 224.115 L 91.704 170.67 L 91.704 170.485 L 111.796 170.485 L 140.235 217.598 C 142.982 222.191 144.803 225.82 145.696 228.489 C 146.589 231.097 147.104 234.201 147.241 237.802 Z M 163.831 237.802 C 163.968 234.14 164.449 231.005 165.273 228.397 C 166.166 225.727 168.021 222.127 170.837 217.598 L 200.615 170.485 L 220.604 170.485 L 220.604 170.67 L 183.511 224.3 C 180.9 228.024 177.981 231.005 174.752 233.24 C 171.593 235.472 167.952 236.994 163.831 237.802 Z M 147.241 237.802 C 149.714 238.36 152.531 238.638 155.69 238.638 C 158.644 238.638 161.358 238.36 163.831 237.802 L 163.831 304 L 147.241 304 L 147.241 237.802 Z" fill="#FF3E12"/>
  <path d="M 282.621 227.37 L 282.489 227.917 L 283.318 228.083 L 283.239 227.317 L 282.621 227.37 Z M 262.426 214.987 L 262.939 214.673 L 262.937 214.67 L 262.935 214.668 L 262.426 214.987 Z M 228.011 170.297 L 227.39 170.297 L 227.39 170.471 L 227.501 170.617 L 228.011 170.297 Z M 228.011 169.924 L 228.011 169.364 L 227.39 169.364 L 227.39 169.924 L 228.011 169.924 Z M 250.37 169.924 L 250.893 169.622 L 250.709 169.364 L 250.37 169.364 L 250.37 169.924 Z M 272.73 201.393 L 273.253 201.093 L 273.252 201.09 L 272.73 201.393 Z M 300.55 227.37 L 299.936 227.286 L 299.807 228.041 L 300.643 227.926 L 300.55 227.37 Z M 311.575 201.581 L 312.093 201.889 L 312.093 201.886 L 311.575 201.581 Z M 334.551 169.924 L 334.551 169.364 L 334.216 169.364 L 334.033 169.616 L 334.551 169.924 Z M 355.262 169.924 L 355.883 169.924 L 355.883 169.364 L 355.262 169.364 L 355.262 169.924 Z M 355.262 170.109 L 355.778 170.424 L 355.883 170.28 L 355.883 170.109 L 355.262 170.109 Z M 321.673 214.987 L 321.158 214.673 L 321.158 214.676 L 321.673 214.987 Z M 312.503 223.366 L 312.164 222.895 L 312.161 222.898 L 312.161 222.898 L 312.503 223.366 Z M 282.415 243.943 L 281.8 243.867 L 281.682 244.653 L 282.54 244.493 L 282.415 243.943 Z M 282.621 227.37 L 282.756 226.824 L 281.892 226.65 L 282.006 227.443 L 282.621 227.37 Z M 300.55 227.37 L 301.166 227.438 L 301.272 226.647 L 300.411 226.824 L 300.55 227.37 Z M 300.55 243.943 L 300.418 244.493 L 301.284 244.661 L 301.163 243.867 L 300.55 243.943 Z M 222.756 303.254 L 222.25 302.929 L 222.135 303.074 L 222.135 303.254 L 222.756 303.254 Z M 255.831 261.077 L 255.33 260.746 L 255.327 260.748 L 255.325 260.751 L 255.831 261.077 Z M 268.402 249.436 L 268.757 249.896 L 268.759 249.896 L 268.402 249.436 Z M 282.415 243.943 L 283.029 244.022 L 283.153 243.242 L 282.297 243.393 L 282.415 243.943 Z M 278.603 255.768 L 278.034 255.544 L 278.033 255.547 L 278.032 255.547 L 278.603 255.768 Z M 270.36 268.897 L 269.846 268.58 L 269.844 268.583 L 270.36 268.897 Z M 244.703 303.439 L 244.703 304 L 245.034 304 L 245.219 303.75 L 244.703 303.439 Z M 222.756 303.439 L 222.135 303.439 L 222.135 304 L 222.756 304 L 222.756 303.439 Z M 314.048 270.294 L 313.536 270.608 L 313.536 270.611 L 314.048 270.294 Z M 304.67 255.953 L 304.105 256.186 L 304.108 256.189 L 304.108 256.192 L 304.67 255.953 Z M 300.55 243.943 L 300.649 243.391 L 299.802 243.267 L 299.937 244.033 L 300.55 243.943 Z M 314.666 249.159 L 314.312 249.619 L 314.312 249.619 L 314.315 249.622 L 314.666 249.159 Z M 327.339 260.889 L 327.845 260.563 L 327.842 260.561 L 327.339 260.889 Z M 360.929 303.254 L 361.55 303.254 L 361.55 303.072 L 361.435 302.926 L 360.929 303.254 Z M 360.929 303.439 L 360.929 304 L 361.55 304 L 361.55 303.439 L 360.929 303.439 Z M 339.395 303.439 L 338.883 303.759 L 339.07 304 L 339.395 304 L 339.395 303.439 Z M 282.753 226.824 C 274.392 225.178 267.796 221.134 262.939 214.673 L 261.912 215.301 C 266.946 222 273.814 226.212 282.489 227.917 L 282.753 226.824 Z M 262.935 214.668 L 228.521 169.975 L 227.501 170.617 L 261.916 215.307 L 262.935 214.668 Z M 228.632 170.297 L 228.632 169.924 L 227.39 169.924 L 227.39 170.297 L 228.632 170.297 Z M 228.011 170.485 L 250.37 170.485 L 250.37 169.364 L 228.011 169.364 L 228.011 170.485 Z M 249.848 170.227 L 272.207 201.696 L 273.252 201.09 L 250.893 169.622 L 249.848 170.227 Z M 272.206 201.696 C 277.786 209.629 281.051 218.201 282.003 227.424 L 283.239 227.317 C 282.268 217.918 278.938 209.174 273.253 201.093 L 272.206 201.696 Z M 301.163 227.457 C 302.73 218.288 306.37 209.766 312.093 201.889 L 311.056 201.272 C 305.238 209.284 301.529 217.957 299.936 227.286 L 301.163 227.457 Z M 312.093 201.886 L 335.073 170.23 L 334.033 169.616 L 311.056 201.272 L 312.093 201.886 Z M 334.551 170.485 L 355.262 170.485 L 355.262 169.364 L 334.551 169.364 L 334.551 170.485 Z M 354.642 169.924 L 354.642 170.109 L 355.883 170.109 L 355.883 169.924 L 354.642 169.924 Z M 354.747 169.795 L 321.158 214.673 L 322.188 215.301 L 355.778 170.424 L 354.747 169.795 Z M 321.158 214.676 C 318.588 218.159 315.587 220.896 312.164 222.895 L 312.841 223.837 C 316.422 221.743 319.538 218.893 322.188 215.299 L 321.158 214.676 Z M 312.161 222.898 C 308.81 224.897 304.912 226.207 300.457 226.815 L 300.643 227.926 C 305.256 227.295 309.325 225.932 312.844 223.834 L 312.161 222.898 Z M 283.03 244.019 C 283.446 241.265 283.654 238.57 283.654 235.937 L 282.413 235.937 C 282.413 238.517 282.208 241.161 281.8 243.867 L 283.03 244.019 Z M 283.654 235.937 C 283.654 232.143 283.517 229.26 283.237 227.298 L 282.006 227.443 C 282.275 229.331 282.413 232.157 282.413 235.937 L 283.654 235.937 Z M 282.487 227.917 C 285.016 228.425 288.017 228.677 291.482 228.677 L 291.482 227.556 C 288.078 227.556 285.172 227.309 282.756 226.824 L 282.487 227.917 Z M 291.482 228.677 C 295.15 228.677 298.223 228.428 300.688 227.917 L 300.411 226.824 C 298.068 227.309 295.096 227.556 291.482 227.556 L 291.482 228.677 Z M 299.934 227.303 C 299.519 230.363 299.311 233.242 299.311 235.937 L 300.552 235.937 C 300.552 233.293 300.756 230.461 301.166 227.438 L 299.934 227.303 Z M 299.311 235.937 C 299.311 238.57 299.519 241.265 299.935 244.019 L 301.163 243.867 C 300.756 241.161 300.552 238.517 300.552 235.937 L 299.311 235.937 Z M 300.681 243.396 C 298.084 242.889 295.016 242.639 291.482 242.639 L 291.482 243.761 C 294.956 243.761 297.932 244.005 300.418 244.493 L 300.681 243.396 Z M 291.482 242.639 C 288.084 242.639 285.018 242.889 282.29 243.393 L 282.54 244.493 C 285.17 244.005 288.149 243.761 291.482 243.761 L 291.482 242.639 Z M 223.262 303.576 L 256.338 261.399 L 255.325 260.751 L 222.25 302.929 L 223.262 303.576 Z M 256.333 261.405 C 260.357 256.413 264.5 252.583 268.757 249.896 L 268.046 248.977 C 263.648 251.753 259.411 255.681 255.33 260.746 L 256.333 261.405 Z M 268.759 249.896 C 273.089 247.145 277.679 245.348 282.533 244.495 L 282.297 243.393 C 277.259 244.28 272.508 246.142 268.045 248.979 L 268.759 249.896 Z M 281.801 243.865 C 281.191 247.72 279.937 251.612 278.034 255.544 L 279.171 255.993 C 281.115 251.98 282.402 247.989 283.029 244.022 L 281.801 243.865 Z M 278.032 255.547 C 276.198 259.416 273.472 263.76 269.846 268.58 L 270.873 269.211 C 274.528 264.352 277.298 259.944 279.173 255.99 L 278.032 255.547 Z M 269.844 268.583 L 244.188 303.128 L 245.219 303.75 L 270.875 269.209 L 269.844 268.583 Z M 244.703 302.878 L 222.756 302.878 L 222.756 304 L 244.703 304 L 244.703 302.878 Z M 223.377 303.439 L 223.377 303.254 L 222.135 303.254 L 222.135 303.439 L 223.377 303.439 Z M 314.56 269.977 C 310.451 264.528 307.345 259.775 305.232 255.715 L 304.108 256.192 C 306.259 260.325 309.402 265.131 313.536 270.608 L 314.56 269.977 Z M 305.235 255.723 C 303.196 251.666 301.84 247.709 301.163 243.856 L 299.937 244.033 C 300.633 247.998 302.026 252.05 304.105 256.186 L 305.235 255.723 Z M 300.45 244.498 C 305.44 245.227 310.057 246.932 314.312 249.619 L 315.022 248.699 C 310.619 245.92 305.827 244.148 300.649 243.391 L 300.45 244.498 Z M 314.315 249.622 C 318.569 252.243 322.743 256.102 326.837 261.217 L 327.842 260.561 C 323.693 255.373 319.42 251.411 315.016 248.693 L 314.315 249.622 Z M 326.837 261.217 L 360.426 303.579 L 361.435 302.926 L 327.845 260.563 L 326.837 261.217 Z M 360.308 303.254 L 360.308 303.439 L 361.55 303.439 L 361.55 303.254 L 360.308 303.254 Z M 360.929 302.878 L 339.395 302.878 L 339.395 304 L 360.929 304 L 360.929 302.878 Z M 339.904 303.119 L 314.557 269.974 L 313.536 270.611 L 338.883 303.759 L 339.904 303.119 Z" fill="#FF3E12"/>
</svg>