<svg width="856" height="29" viewBox="0 0 868 29" fill="none" xmlns="http://www.w3.org/2000/svg">
<path d="M4.58496 4.54688C4.96842 3.4707 5.65495 2.60482 6.64453 1.94922C7.64648 1.28125 8.89583 0.947266 10.3926 0.947266C13.2995 0.947266 15.1921 2.13477 16.0703 4.50977C14.388 3.90365 12.4583 3.60059 10.2812 3.60059C7.9681 3.60059 6.06934 3.91602 4.58496 4.54688ZM16.5156 9.42676C16.5651 8.75879 16.5898 8.28874 16.5898 8.0166C16.5898 6.68066 16.4167 5.51172 16.0703 4.50977C17.332 4.97982 18.3278 5.63542 19.0576 6.47656C19.7874 7.30534 20.1709 8.28874 20.208 9.42676H16.5156ZM17.0537 24.6973C17.2764 24.0788 17.3877 23.4046 17.3877 22.6748C17.3877 21.5492 17.196 20.6029 16.8125 19.8359C16.4414 19.069 15.8848 18.4196 15.1426 17.8877C14.4128 17.3558 13.4541 16.861 12.2666 16.4033L7.12695 14.4365C5.28385 13.7191 3.8737 12.9274 2.89648 12.0615C1.91927 11.1956 1.43066 10.138 1.43066 8.88867C1.43066 7.87435 1.7028 7.00228 2.24707 6.27246C2.79134 5.54264 3.57064 4.96745 4.58496 4.54688C4.38704 5.11589 4.28809 5.70345 4.28809 6.30957C4.28809 7.27441 4.46126 8.07845 4.80762 8.72168C5.16634 9.35254 5.70443 9.89681 6.42188 10.3545C7.15169 10.8122 8.14746 11.2884 9.40918 11.7832L14.5488 13.7871C16.3672 14.5169 17.7712 15.389 18.7607 16.4033C19.7503 17.4053 20.2451 18.599 20.2451 19.9844C20.2451 21.0358 19.973 21.9635 19.4287 22.7676C18.8968 23.5592 18.1051 24.2025 17.0537 24.6973ZM5.04883 24.8828C2.19141 23.8685 0.744141 21.9697 0.707031 19.1865H4.39941C4.34993 19.57 4.3252 20.1266 4.3252 20.8564C4.3252 22.4893 4.56641 23.8314 5.04883 24.8828ZM11.042 28.4639C9.6071 28.4639 8.38249 28.1608 7.36816 27.5547C6.35384 26.9362 5.58073 26.0456 5.04883 24.8828C6.70638 25.4642 8.78451 25.7549 11.2832 25.7549C13.6458 25.7549 15.5693 25.4023 17.0537 24.6973C16.6579 25.8353 15.9466 26.7507 14.9199 27.4434C13.8932 28.1237 12.6006 28.4639 11.042 28.4639ZM29.2627 5.2334C30.8584 2.37598 33.2643 0.947266 36.4805 0.947266C38.0514 0.947266 39.4059 1.31217 40.5439 2.04199C41.6943 2.75944 42.6468 3.78613 43.4014 5.12207C41.5088 4.25618 39.2018 3.82324 36.4805 3.82324C33.7591 3.82324 31.3532 4.29329 29.2627 5.2334ZM43.4014 24.2334C44.057 23.0335 44.5394 21.611 44.8486 19.9658C45.1702 18.3083 45.3311 16.4899 45.3311 14.5107C45.3311 12.6305 45.1702 10.8926 44.8486 9.29688C44.5394 7.70117 44.057 6.30957 43.4014 5.12207C45.2692 5.95085 46.7041 7.1569 47.7061 8.74023C48.708 10.3236 49.209 12.2471 49.209 14.5107C49.209 16.8857 48.708 18.8958 47.7061 20.541C46.7041 22.1738 45.2692 23.4046 43.4014 24.2334ZM29.5596 24.2334C27.6299 23.3799 26.1331 22.1367 25.0693 20.5039C24.0179 18.8587 23.4922 16.861 23.4922 14.5107C23.4922 12.3337 23.9932 10.4596 24.9951 8.88867C26.0094 7.30534 27.432 6.08691 29.2627 5.2334C28.6318 6.4209 28.1556 7.80013 27.834 9.37109C27.5247 10.9421 27.3701 12.6553 27.3701 14.5107C27.3701 16.4404 27.5557 18.234 27.9268 19.8916C28.2979 21.5492 28.8421 22.9964 29.5596 24.2334ZM36.4805 28.4639C34.9714 28.4639 33.6354 28.099 32.4727 27.3691C31.3099 26.627 30.3389 25.5817 29.5596 24.2334C31.4893 25.0993 33.7962 25.5322 36.4805 25.5322C39.2018 25.5322 41.5088 25.0993 43.4014 24.2334C42.6715 25.5941 41.7253 26.6393 40.5625 27.3691C39.4121 28.099 38.0514 28.4639 36.4805 28.4639ZM57.1133 24.3076C55.9505 23.7386 55.0723 22.9717 54.4785 22.0068C53.8848 21.0296 53.5879 19.873 53.5879 18.5371V1.39258H56.8535V22.6377C56.8535 23.2686 56.9401 23.8252 57.1133 24.3076ZM70.3799 24.3076C70.5531 23.8252 70.6396 23.2686 70.6396 22.6377V1.39258H73.998V18.5371C73.998 19.873 73.6888 21.0296 73.0703 22.0068C72.4642 22.9717 71.5674 23.7386 70.3799 24.3076ZM63.7373 28.4639C62.5993 28.4639 61.5726 28.2845 60.6572 27.9258C59.7542 27.5547 58.9997 27.0599 58.3936 26.4414C57.7998 25.8105 57.373 25.0993 57.1133 24.3076C58.7832 25.124 60.9912 25.5322 63.7373 25.5322C66.4958 25.5322 68.71 25.124 70.3799 24.3076C70.1325 25.0993 69.7119 25.8105 69.1182 26.4414C68.5244 27.0599 67.7699 27.5547 66.8545 27.9258C65.9391 28.2845 64.9001 28.4639 63.7373 28.4639ZM80.084 1.39258H83.2754V25.3096H97.9336V28H80.084V1.39258ZM107.749 16.5332C106.698 16.3724 105.77 16.026 104.966 15.4941C104.174 14.9622 103.494 14.2015 102.925 13.2119L100.494 9H104.205L106.376 13.3789L106.617 13.8613C106.926 14.4922 107.168 15.0055 107.341 15.4014C107.514 15.7972 107.65 16.1745 107.749 16.5332ZM110.903 16.5332C110.99 16.1126 111.138 15.6611 111.349 15.1787C111.559 14.6839 111.843 14.0964 112.202 13.416L114.559 9H118.307L115.765 13.2119C115.146 14.2386 114.435 15.0117 113.631 15.5312C112.827 16.0508 111.918 16.3848 110.903 16.5332ZM110.94 19.5947C110.458 19.4958 109.926 19.4463 109.345 19.4463C108.8 19.4463 108.281 19.4834 107.786 19.5576C107.91 19.0257 107.972 18.5186 107.972 18.0361C107.972 17.5166 107.897 17.0156 107.749 16.5332C108.281 16.6074 108.813 16.6445 109.345 16.6445C109.877 16.6445 110.396 16.6074 110.903 16.5332C110.804 16.9661 110.755 17.4548 110.755 17.999C110.755 18.4814 110.817 19.0133 110.94 19.5947ZM102.925 22.8232C103.42 21.9202 104.081 21.1966 104.91 20.6523C105.751 20.1081 106.71 19.7432 107.786 19.5576C107.687 19.9658 107.551 20.374 107.378 20.7822C107.205 21.1781 106.939 21.7347 106.58 22.4521C106.555 22.514 106.524 22.5882 106.487 22.6748C106.45 22.7614 106.401 22.8542 106.339 22.9531L103.908 28H100.03L102.925 22.8232ZM112.388 23.1387C111.992 22.3594 111.676 21.6976 111.441 21.1533C111.206 20.5967 111.039 20.0771 110.94 19.5947C111.967 19.7803 112.901 20.1452 113.742 20.6895C114.583 21.2337 115.257 21.945 115.765 22.8232L118.696 28H114.855L112.388 23.1387ZM129.903 1.39258H135.915C136.979 1.39258 137.82 1.61523 138.438 2.06055C139.057 2.49349 139.403 3.16146 139.478 4.06445H129.903V1.39258ZM142.706 4.06445C142.78 3.16146 143.127 2.49349 143.745 2.06055C144.364 1.61523 145.211 1.39258 146.287 1.39258H152.28V4.06445H142.706ZM139.478 4.06445H142.706V28H139.478V4.06445ZM159.35 12.7666C158.323 12.5934 157.519 12.1667 156.938 11.4863C156.368 10.806 156.084 9.92773 156.084 8.85156V1.39258H159.35V12.7666ZM173.377 1.39258H176.643V8.85156C176.643 9.92773 176.352 10.806 175.771 11.4863C175.189 12.1667 174.391 12.5934 173.377 12.7666V1.39258ZM159.35 12.7666C159.745 12.8161 160.086 12.8408 160.37 12.8408H172.338C172.561 12.8408 172.907 12.8161 173.377 12.7666V15.5684C172.907 15.5189 172.561 15.4941 172.338 15.4941H160.37C160.086 15.4941 159.745 15.5189 159.35 15.5684V12.7666ZM156.084 19.3721C156.084 18.333 156.368 17.4857 156.938 16.8301C157.519 16.1621 158.323 15.7415 159.35 15.5684V28H156.084V19.3721ZM173.377 15.5684C174.391 15.7415 175.189 16.1621 175.771 16.8301C176.352 17.4857 176.643 18.3206 176.643 19.335V28H173.377V15.5684ZM185.92 12.8779C184.745 12.7542 183.916 12.3893 183.434 11.7832C182.964 11.1647 182.729 10.2246 182.729 8.96289V1.39258H200.021V4.13867H185.92V12.8779ZM185.92 12.8779C186.143 12.9027 186.532 12.915 187.089 12.915H199.298V15.5684H187.089C186.755 15.5684 186.365 15.5931 185.92 15.6426V12.8779ZM182.729 19.5947C182.729 18.5062 182.976 17.6217 183.471 16.9414C183.965 16.2611 184.782 15.8281 185.92 15.6426V25.2725H200.393V28H182.729V19.5947ZM218.131 2.95117C218.131 2.38216 218.285 1.90592 218.595 1.52246C218.916 1.139 219.355 0.947266 219.912 0.947266C220.419 0.947266 220.821 1.0957 221.118 1.39258C221.427 1.68945 221.638 2.07292 221.749 2.54297L222.12 4.21289C221.613 4.13867 221.093 4.10156 220.562 4.10156C219.634 4.10156 218.824 4.22526 218.131 4.47266V2.95117ZM234.515 1.39258H237.78V20.7822C237.78 21.7965 237.483 22.6562 236.89 23.3613C236.308 24.0664 235.517 24.5859 234.515 24.9199V1.39258ZM230.525 25.1426C229.301 24.9694 228.299 24.5055 227.52 23.751C226.74 22.9964 226.184 21.877 225.85 20.3926L222.12 4.21289C223.32 4.38607 224.297 4.84993 225.052 5.60449C225.819 6.34668 226.375 7.46615 226.722 8.96289L230.525 25.1426ZM214.865 9.22266C214.865 7.97331 215.156 6.95898 215.737 6.17969C216.319 5.38802 217.117 4.81901 218.131 4.47266V28H214.865V9.22266ZM232.715 28.4639C232.195 28.4639 231.787 28.3092 231.49 28C231.206 27.6908 230.995 27.2454 230.859 26.6641L230.525 25.1426C231.094 25.2292 231.614 25.2725 232.084 25.2725C232.938 25.2725 233.748 25.1549 234.515 24.9199V26.4043C234.515 27.0475 234.354 27.5547 234.032 27.9258C233.723 28.2845 233.284 28.4639 232.715 28.4639ZM247.076 12.8779C245.901 12.7542 245.072 12.3893 244.59 11.7832C244.12 11.1647 243.885 10.2246 243.885 8.96289V1.39258H261.178V4.13867H247.076V12.8779ZM247.076 12.8779C247.299 12.9027 247.688 12.915 248.245 12.915H260.454V15.5684H248.245C247.911 15.5684 247.521 15.5931 247.076 15.6426V12.8779ZM243.885 19.5947C243.885 18.5062 244.132 17.6217 244.627 16.9414C245.122 16.2611 245.938 15.8281 247.076 15.6426V25.2725H261.549V28H243.885V19.5947ZM281.105 2.61719C281.167 2.1224 281.353 1.72038 281.662 1.41113C281.971 1.10189 282.367 0.947266 282.85 0.947266C283.332 0.947266 283.728 1.10189 284.037 1.41113C284.359 1.72038 284.55 2.1224 284.612 2.61719L284.798 4.54688C284.118 4.42318 283.468 4.36133 282.85 4.36133C282.243 4.36133 281.6 4.42318 280.92 4.54688L281.105 2.61719ZM271.568 25.1055C270.406 24.8333 269.496 24.2767 268.841 23.4355C268.198 22.5944 267.765 21.4688 267.542 20.0586L264.814 1.39258H268.34L271.568 25.1055ZM297.378 1.39258H300.903L298.176 20.0586C297.953 21.4688 297.514 22.5944 296.858 23.4355C296.215 24.2767 295.312 24.8333 294.149 25.1055L297.378 1.39258ZM276.968 9.29688C277.079 7.98568 277.475 6.93424 278.155 6.14258C278.836 5.35091 279.757 4.81901 280.92 4.54688L279.398 19.873C279.262 21.2461 278.879 22.3717 278.248 23.25C277.617 24.1159 276.733 24.7096 275.595 25.0312L276.968 9.29688ZM290.123 25.0312C288.985 24.7096 288.101 24.1159 287.47 23.25C286.839 22.3717 286.455 21.2461 286.319 19.873L284.798 4.54688C285.961 4.81901 286.882 5.35091 287.562 6.14258C288.243 6.93424 288.639 7.98568 288.75 9.29688L290.123 25.0312ZM273.628 28.4639C272.589 28.4639 271.964 27.7897 271.754 26.4414L271.568 25.1055C272.273 25.2415 272.898 25.3096 273.442 25.3096C274.234 25.3096 274.951 25.2168 275.595 25.0312L275.483 26.5156C275.434 27.1589 275.242 27.6475 274.908 27.9814C274.574 28.3031 274.147 28.4639 273.628 28.4639ZM292.09 28.4639C291.57 28.4639 291.144 28.3031 290.81 27.9814C290.476 27.6475 290.284 27.1589 290.234 26.5156L290.123 25.0312C290.754 25.2168 291.471 25.3096 292.275 25.3096C292.82 25.3096 293.444 25.2415 294.149 25.1055L293.945 26.4414C293.747 27.7897 293.129 28.4639 292.09 28.4639ZM312.519 1.39258H318.53C319.594 1.39258 320.435 1.61523 321.054 2.06055C321.672 2.49349 322.019 3.16146 322.093 4.06445H312.519V1.39258ZM325.321 4.06445C325.396 3.16146 325.742 2.49349 326.36 2.06055C326.979 1.61523 327.826 1.39258 328.902 1.39258H334.896V4.06445H325.321ZM322.093 4.06445H325.321V28H322.093V4.06445ZM341.241 5.2334C342.837 2.37598 345.243 0.947266 348.459 0.947266C350.03 0.947266 351.384 1.31217 352.522 2.04199C353.673 2.75944 354.625 3.78613 355.38 5.12207C353.487 4.25618 351.18 3.82324 348.459 3.82324C345.738 3.82324 343.332 4.29329 341.241 5.2334ZM355.38 24.2334C356.035 23.0335 356.518 21.611 356.827 19.9658C357.149 18.3083 357.31 16.4899 357.31 14.5107C357.31 12.6305 357.149 10.8926 356.827 9.29688C356.518 7.70117 356.035 6.30957 355.38 5.12207C357.248 5.95085 358.683 7.1569 359.685 8.74023C360.687 10.3236 361.188 12.2471 361.188 14.5107C361.188 16.8857 360.687 18.8958 359.685 20.541C358.683 22.1738 357.248 23.4046 355.38 24.2334ZM341.538 24.2334C339.608 23.3799 338.112 22.1367 337.048 20.5039C335.996 18.8587 335.471 16.861 335.471 14.5107C335.471 12.3337 335.972 10.4596 336.974 8.88867C337.988 7.30534 339.41 6.08691 341.241 5.2334C340.61 6.4209 340.134 7.80013 339.812 9.37109C339.503 10.9421 339.349 12.6553 339.349 14.5107C339.349 16.4404 339.534 18.234 339.905 19.8916C340.276 21.5492 340.821 22.9964 341.538 24.2334ZM348.459 28.4639C346.95 28.4639 345.614 28.099 344.451 27.3691C343.288 26.627 342.317 25.5817 341.538 24.2334C343.468 25.0993 345.775 25.5322 348.459 25.5322C351.18 25.5322 353.487 25.0993 355.38 24.2334C354.65 25.5941 353.704 26.6393 352.541 27.3691C351.391 28.099 350.03 28.4639 348.459 28.4639ZM365.566 1.39258H368.795V12.9521H371.263C371.968 12.9521 372.475 12.9274 372.784 12.8779C372.759 13.1501 372.747 13.6201 372.747 14.2881C372.747 14.7581 372.784 15.2344 372.858 15.7168C372.5 15.6673 371.968 15.6426 371.263 15.6426H368.795V28H365.566V1.39258ZM372.784 12.8779C372.883 11.7152 373.168 10.6514 373.638 9.68652C374.12 8.70931 374.961 7.59603 376.161 6.34668L380.874 1.39258H384.938V1.4668L376.811 10.2988C376.031 11.1523 375.332 11.7708 374.714 12.1543C374.095 12.5378 373.452 12.779 372.784 12.8779ZM377.534 23.1387C376.124 21.7161 375.042 20.4235 374.287 19.2607C373.545 18.098 373.069 16.9167 372.858 15.7168C373.638 15.8034 374.374 16.026 375.066 16.3848C375.771 16.7311 376.495 17.2939 377.237 18.0732L386.7 27.9258V28H382.396L377.534 23.1387ZM392.174 12.8779C390.999 12.7542 390.17 12.3893 389.688 11.7832C389.217 11.1647 388.982 10.2246 388.982 8.96289V1.39258H406.275V4.13867H392.174V12.8779ZM392.174 12.8779C392.396 12.9027 392.786 12.915 393.343 12.915H405.552V15.5684H393.343C393.009 15.5684 392.619 15.5931 392.174 15.6426V12.8779ZM388.982 19.5947C388.982 18.5062 389.23 17.6217 389.725 16.9414C390.219 16.2611 391.036 15.8281 392.174 15.6426V25.2725H406.646V28H388.982V19.5947ZM414.885 2.95117C414.885 2.38216 415.039 1.90592 415.349 1.52246C415.67 1.139 416.109 0.947266 416.666 0.947266C417.173 0.947266 417.575 1.0957 417.872 1.39258C418.181 1.68945 418.392 2.07292 418.503 2.54297L418.874 4.21289C418.367 4.13867 417.847 4.10156 417.315 4.10156C416.388 4.10156 415.577 4.22526 414.885 4.47266V2.95117ZM431.269 1.39258H434.534V20.7822C434.534 21.7965 434.237 22.6562 433.644 23.3613C433.062 24.0664 432.271 24.5859 431.269 24.9199V1.39258ZM427.279 25.1426C426.055 24.9694 425.053 24.5055 424.273 23.751C423.494 22.9964 422.938 21.877 422.604 20.3926L418.874 4.21289C420.074 4.38607 421.051 4.84993 421.806 5.60449C422.573 6.34668 423.129 7.46615 423.476 8.96289L427.279 25.1426ZM411.619 9.22266C411.619 7.97331 411.91 6.95898 412.491 6.17969C413.073 5.38802 413.87 4.81901 414.885 4.47266V28H411.619V9.22266ZM429.469 28.4639C428.949 28.4639 428.541 28.3092 428.244 28C427.96 27.6908 427.749 27.2454 427.613 26.6641L427.279 25.1426C427.848 25.2292 428.368 25.2725 428.838 25.2725C429.691 25.2725 430.502 25.1549 431.269 24.9199V26.4043C431.269 27.0475 431.108 27.5547 430.786 27.9258C430.477 28.2845 430.038 28.4639 429.469 28.4639ZM454.202 5.2334C455.798 2.37598 458.204 0.947266 461.42 0.947266C462.991 0.947266 464.345 1.31217 465.483 2.04199C466.634 2.75944 467.586 3.78613 468.341 5.12207C466.448 4.25618 464.141 3.82324 461.42 3.82324C458.699 3.82324 456.293 4.29329 454.202 5.2334ZM468.341 24.2334C468.996 23.0335 469.479 21.611 469.788 19.9658C470.11 18.3083 470.271 16.4899 470.271 14.5107C470.271 12.6305 470.11 10.8926 469.788 9.29688C469.479 7.70117 468.996 6.30957 468.341 5.12207C470.209 5.95085 471.644 7.1569 472.646 8.74023C473.647 10.3236 474.148 12.2471 474.148 14.5107C474.148 16.8857 473.647 18.8958 472.646 20.541C471.644 22.1738 470.209 23.4046 468.341 24.2334ZM454.499 24.2334C452.569 23.3799 451.073 22.1367 450.009 20.5039C448.957 18.8587 448.432 16.861 448.432 14.5107C448.432 12.3337 448.933 10.4596 449.935 8.88867C450.949 7.30534 452.371 6.08691 454.202 5.2334C453.571 6.4209 453.095 7.80013 452.773 9.37109C452.464 10.9421 452.31 12.6553 452.31 14.5107C452.31 16.4404 452.495 18.234 452.866 19.8916C453.237 21.5492 453.782 22.9964 454.499 24.2334ZM461.42 28.4639C459.911 28.4639 458.575 28.099 457.412 27.3691C456.249 26.627 455.278 25.5817 454.499 24.2334C456.429 25.0993 458.736 25.5322 461.42 25.5322C464.141 25.5322 466.448 25.0993 468.341 24.2334C467.611 25.5941 466.665 26.6393 465.502 27.3691C464.352 28.099 462.991 28.4639 461.42 28.4639ZM481.83 12.8779C479.628 12.6676 478.527 11.542 478.527 9.50098V1.39258H495.746V4.10156H481.83V12.8779ZM481.83 12.8779C482.003 12.9027 482.269 12.915 482.628 12.915H495.06V15.6055H482.628C482.269 15.6055 482.003 15.6178 481.83 15.6426V12.8779ZM478.527 19.1494C478.527 18.0238 478.787 17.1826 479.307 16.626C479.826 16.0693 480.667 15.7415 481.83 15.6426V28H478.527V19.1494ZM511.981 4.54688C512.365 3.4707 513.051 2.60482 514.041 1.94922C515.043 1.28125 516.292 0.947266 517.789 0.947266C520.696 0.947266 522.589 2.13477 523.467 4.50977C521.785 3.90365 519.855 3.60059 517.678 3.60059C515.365 3.60059 513.466 3.91602 511.981 4.54688ZM523.912 9.42676C523.962 8.75879 523.986 8.28874 523.986 8.0166C523.986 6.68066 523.813 5.51172 523.467 4.50977C524.729 4.97982 525.724 5.63542 526.454 6.47656C527.184 7.30534 527.567 8.28874 527.604 9.42676H523.912ZM524.45 24.6973C524.673 24.0788 524.784 23.4046 524.784 22.6748C524.784 21.5492 524.592 20.6029 524.209 19.8359C523.838 19.069 523.281 18.4196 522.539 17.8877C521.809 17.3558 520.851 16.861 519.663 16.4033L514.523 14.4365C512.68 13.7191 511.27 12.9274 510.293 12.0615C509.316 11.1956 508.827 10.138 508.827 8.88867C508.827 7.87435 509.099 7.00228 509.644 6.27246C510.188 5.54264 510.967 4.96745 511.981 4.54688C511.784 5.11589 511.685 5.70345 511.685 6.30957C511.685 7.27441 511.858 8.07845 512.204 8.72168C512.563 9.35254 513.101 9.89681 513.818 10.3545C514.548 10.8122 515.544 11.2884 516.806 11.7832L521.945 13.7871C523.764 14.5169 525.168 15.389 526.157 16.4033C527.147 17.4053 527.642 18.599 527.642 19.9844C527.642 21.0358 527.369 21.9635 526.825 22.7676C526.293 23.5592 525.502 24.2025 524.45 24.6973ZM512.445 24.8828C509.588 23.8685 508.141 21.9697 508.104 19.1865H511.796C511.746 19.57 511.722 20.1266 511.722 20.8564C511.722 22.4893 511.963 23.8314 512.445 24.8828ZM518.438 28.4639C517.004 28.4639 515.779 28.1608 514.765 27.5547C513.75 26.9362 512.977 26.0456 512.445 24.8828C514.103 25.4642 516.181 25.7549 518.68 25.7549C521.042 25.7549 522.966 25.4023 524.45 24.6973C524.054 25.8353 523.343 26.7507 522.316 27.4434C521.29 28.1237 519.997 28.4639 518.438 28.4639ZM536.121 24.3076C534.958 23.7386 534.08 22.9717 533.486 22.0068C532.893 21.0296 532.596 19.873 532.596 18.5371V1.39258H535.861V22.6377C535.861 23.2686 535.948 23.8252 536.121 24.3076ZM549.388 24.3076C549.561 23.8252 549.647 23.2686 549.647 22.6377V1.39258H553.006V18.5371C553.006 19.873 552.697 21.0296 552.078 22.0068C551.472 22.9717 550.575 23.7386 549.388 24.3076ZM542.745 28.4639C541.607 28.4639 540.58 28.2845 539.665 27.9258C538.762 27.5547 538.007 27.0599 537.401 26.4414C536.808 25.8105 536.381 25.0993 536.121 24.3076C537.791 25.124 539.999 25.5322 542.745 25.5322C545.504 25.5322 547.718 25.124 549.388 24.3076C549.14 25.0993 548.72 25.8105 548.126 26.4414C547.532 27.0599 546.778 27.5547 545.862 27.9258C544.947 28.2845 543.908 28.4639 542.745 28.4639ZM561.634 4.54688C562.017 3.4707 562.704 2.60482 563.693 1.94922C564.695 1.28125 565.945 0.947266 567.441 0.947266C570.348 0.947266 572.241 2.13477 573.119 4.50977C571.437 3.90365 569.507 3.60059 567.33 3.60059C565.017 3.60059 563.118 3.91602 561.634 4.54688ZM573.564 9.42676C573.614 8.75879 573.639 8.28874 573.639 8.0166C573.639 6.68066 573.465 5.51172 573.119 4.50977C574.381 4.97982 575.377 5.63542 576.106 6.47656C576.836 7.30534 577.22 8.28874 577.257 9.42676H573.564ZM574.103 24.6973C574.325 24.0788 574.437 23.4046 574.437 22.6748C574.437 21.5492 574.245 20.6029 573.861 19.8359C573.49 19.069 572.934 18.4196 572.191 17.8877C571.462 17.3558 570.503 16.861 569.315 16.4033L564.176 14.4365C562.333 13.7191 560.923 12.9274 559.945 12.0615C558.968 11.1956 558.479 10.138 558.479 8.88867C558.479 7.87435 558.752 7.00228 559.296 6.27246C559.84 5.54264 560.619 4.96745 561.634 4.54688C561.436 5.11589 561.337 5.70345 561.337 6.30957C561.337 7.27441 561.51 8.07845 561.856 8.72168C562.215 9.35254 562.753 9.89681 563.471 10.3545C564.201 10.8122 565.196 11.2884 566.458 11.7832L571.598 13.7871C573.416 14.5169 574.82 15.389 575.81 16.4033C576.799 17.4053 577.294 18.599 577.294 19.9844C577.294 21.0358 577.022 21.9635 576.478 22.7676C575.946 23.5592 575.154 24.2025 574.103 24.6973ZM562.098 24.8828C559.24 23.8685 557.793 21.9697 557.756 19.1865H561.448C561.399 19.57 561.374 20.1266 561.374 20.8564C561.374 22.4893 561.615 23.8314 562.098 24.8828ZM568.091 28.4639C566.656 28.4639 565.431 28.1608 564.417 27.5547C563.403 26.9362 562.63 26.0456 562.098 24.8828C563.755 25.4642 565.833 25.7549 568.332 25.7549C570.695 25.7549 572.618 25.4023 574.103 24.6973C573.707 25.8353 572.995 26.7507 571.969 27.4434C570.942 28.1237 569.649 28.4639 568.091 28.4639ZM582.248 1.39258H591.711C594.68 1.39258 596.77 2.4069 597.982 4.43555C596.993 4.21289 595.873 4.10156 594.624 4.10156H585.588V15.3828H594.624C595.997 15.3828 597.166 15.2467 598.131 14.9746C597.067 17.1517 595.001 18.2402 591.934 18.2402H585.588V28H582.248V1.39258ZM598.131 14.9746C598.786 13.6634 599.114 11.9007 599.114 9.68652C599.114 7.52181 598.737 5.77148 597.982 4.43555C600.865 5.16536 602.306 6.91569 602.306 9.68652C602.306 11.1833 601.922 12.3522 601.155 13.1934C600.388 14.0345 599.38 14.6283 598.131 14.9746ZM609.301 12.8779C608.126 12.7542 607.297 12.3893 606.814 11.7832C606.344 11.1647 606.109 10.2246 606.109 8.96289V1.39258H623.402V4.13867H609.301V12.8779ZM609.301 12.8779C609.523 12.9027 609.913 12.915 610.47 12.915H622.679V15.5684H610.47C610.136 15.5684 609.746 15.5931 609.301 15.6426V12.8779ZM606.109 19.5947C606.109 18.5062 606.357 17.6217 606.852 16.9414C607.346 16.2611 608.163 15.8281 609.301 15.6426V25.2725H623.773V28H606.109V19.5947ZM632.012 2.95117C632.012 2.38216 632.166 1.90592 632.476 1.52246C632.797 1.139 633.236 0.947266 633.793 0.947266C634.3 0.947266 634.702 1.0957 634.999 1.39258C635.308 1.68945 635.519 2.07292 635.63 2.54297L636.001 4.21289C635.494 4.13867 634.974 4.10156 634.442 4.10156C633.515 4.10156 632.704 4.22526 632.012 4.47266V2.95117ZM648.396 1.39258H651.661V20.7822C651.661 21.7965 651.364 22.6562 650.771 23.3613C650.189 24.0664 649.397 24.5859 648.396 24.9199V1.39258ZM644.406 25.1426C643.182 24.9694 642.18 24.5055 641.4 23.751C640.621 22.9964 640.064 21.877 639.73 20.3926L636.001 4.21289C637.201 4.38607 638.178 4.84993 638.933 5.60449C639.7 6.34668 640.256 7.46615 640.603 8.96289L644.406 25.1426ZM628.746 9.22266C628.746 7.97331 629.037 6.95898 629.618 6.17969C630.2 5.38802 630.997 4.81901 632.012 4.47266V28H628.746V9.22266ZM646.596 28.4639C646.076 28.4639 645.668 28.3092 645.371 28C645.087 27.6908 644.876 27.2454 644.74 26.6641L644.406 25.1426C644.975 25.2292 645.495 25.2725 645.965 25.2725C646.818 25.2725 647.629 25.1549 648.396 24.9199V26.4043C648.396 27.0475 648.235 27.5547 647.913 27.9258C647.604 28.2845 647.165 28.4639 646.596 28.4639ZM657.766 1.39258H666.319C668.113 1.39258 669.653 1.68327 670.939 2.26465C672.226 2.83366 673.265 3.81087 674.057 5.19629C672.399 4.44173 670.438 4.06445 668.175 4.06445H661.105V25.3467H668.546C670.265 25.3467 671.867 25.0807 673.352 24.5488C672.486 25.724 671.453 26.596 670.253 27.165C669.053 27.7217 667.742 28 666.319 28H657.766V1.39258ZM673.352 24.5488C675.046 22.1615 675.894 18.7907 675.894 14.4365C675.894 10.3298 675.281 7.24967 674.057 5.19629C675.875 5.98796 677.279 7.16927 678.269 8.74023C679.271 10.2988 679.771 12.1976 679.771 14.4365C679.771 17.0218 679.202 19.168 678.064 20.875C676.926 22.5697 675.355 23.7943 673.352 24.5488ZM687.342 12.8779C686.167 12.7542 685.338 12.3893 684.855 11.7832C684.385 11.1647 684.15 10.2246 684.15 8.96289V1.39258H701.443V4.13867H687.342V12.8779ZM687.342 12.8779C687.564 12.9027 687.954 12.915 688.511 12.915H700.72V15.5684H688.511C688.177 15.5684 687.787 15.5931 687.342 15.6426V12.8779ZM684.15 19.5947C684.15 18.5062 684.398 17.6217 684.893 16.9414C685.387 16.2611 686.204 15.8281 687.342 15.6426V25.2725H701.814V28H684.15V19.5947ZM706.787 1.39258H715.341C717.134 1.39258 718.674 1.68327 719.961 2.26465C721.247 2.83366 722.286 3.81087 723.078 5.19629C721.421 4.44173 719.46 4.06445 717.196 4.06445H710.127V25.3467H717.567C719.287 25.3467 720.889 25.0807 722.373 24.5488C721.507 25.724 720.474 26.596 719.274 27.165C718.075 27.7217 716.763 28 715.341 28H706.787V1.39258ZM722.373 24.5488C724.068 22.1615 724.915 18.7907 724.915 14.4365C724.915 10.3298 724.303 7.24967 723.078 5.19629C724.896 5.98796 726.3 7.16927 727.29 8.74023C728.292 10.2988 728.793 12.1976 728.793 14.4365C728.793 17.0218 728.224 19.168 727.086 20.875C725.948 22.5697 724.377 23.7943 722.373 24.5488ZM745.214 4.54688C745.597 3.4707 746.284 2.60482 747.273 1.94922C748.275 1.28125 749.525 0.947266 751.021 0.947266C753.928 0.947266 755.821 2.13477 756.699 4.50977C755.017 3.90365 753.087 3.60059 750.91 3.60059C748.597 3.60059 746.698 3.91602 745.214 4.54688ZM757.145 9.42676C757.194 8.75879 757.219 8.28874 757.219 8.0166C757.219 6.68066 757.046 5.51172 756.699 4.50977C757.961 4.97982 758.957 5.63542 759.687 6.47656C760.416 7.30534 760.8 8.28874 760.837 9.42676H757.145ZM757.683 24.6973C757.905 24.0788 758.017 23.4046 758.017 22.6748C758.017 21.5492 757.825 20.6029 757.441 19.8359C757.07 19.069 756.514 18.4196 755.771 17.8877C755.042 17.3558 754.083 16.861 752.896 16.4033L747.756 14.4365C745.913 13.7191 744.503 12.9274 743.525 12.0615C742.548 11.1956 742.06 10.138 742.06 8.88867C742.06 7.87435 742.332 7.00228 742.876 6.27246C743.42 5.54264 744.2 4.96745 745.214 4.54688C745.016 5.11589 744.917 5.70345 744.917 6.30957C744.917 7.27441 745.09 8.07845 745.437 8.72168C745.795 9.35254 746.333 9.89681 747.051 10.3545C747.781 10.8122 748.776 11.2884 750.038 11.7832L755.178 13.7871C756.996 14.5169 758.4 15.389 759.39 16.4033C760.379 17.4053 760.874 18.599 760.874 19.9844C760.874 21.0358 760.602 21.9635 760.058 22.7676C759.526 23.5592 758.734 24.2025 757.683 24.6973ZM745.678 24.8828C742.82 23.8685 741.373 21.9697 741.336 19.1865H745.028C744.979 19.57 744.954 20.1266 744.954 20.8564C744.954 22.4893 745.195 23.8314 745.678 24.8828ZM751.671 28.4639C750.236 28.4639 749.011 28.1608 747.997 27.5547C746.983 26.9362 746.21 26.0456 745.678 24.8828C747.335 25.4642 749.413 25.7549 751.912 25.7549C754.275 25.7549 756.198 25.4023 757.683 24.6973C757.287 25.8353 756.576 26.7507 755.549 27.4434C754.522 28.1237 753.229 28.4639 751.671 28.4639ZM769.892 5.2334C771.487 2.37598 773.893 0.947266 777.109 0.947266C778.68 0.947266 780.035 1.31217 781.173 2.04199C782.323 2.75944 783.276 3.78613 784.03 5.12207C782.138 4.25618 779.831 3.82324 777.109 3.82324C774.388 3.82324 771.982 4.29329 769.892 5.2334ZM784.03 24.2334C784.686 23.0335 785.168 21.611 785.478 19.9658C785.799 18.3083 785.96 16.4899 785.96 14.5107C785.96 12.6305 785.799 10.8926 785.478 9.29688C785.168 7.70117 784.686 6.30957 784.03 5.12207C785.898 5.95085 787.333 7.1569 788.335 8.74023C789.337 10.3236 789.838 12.2471 789.838 14.5107C789.838 16.8857 789.337 18.8958 788.335 20.541C787.333 22.1738 785.898 23.4046 784.03 24.2334ZM770.188 24.2334C768.259 23.3799 766.762 22.1367 765.698 20.5039C764.647 18.8587 764.121 16.861 764.121 14.5107C764.121 12.3337 764.622 10.4596 765.624 8.88867C766.638 7.30534 768.061 6.08691 769.892 5.2334C769.261 6.4209 768.785 7.80013 768.463 9.37109C768.154 10.9421 767.999 12.6553 767.999 14.5107C767.999 16.4404 768.185 18.234 768.556 19.8916C768.927 21.5492 769.471 22.9964 770.188 24.2334ZM777.109 28.4639C775.6 28.4639 774.264 28.099 773.102 27.3691C771.939 26.627 770.968 25.5817 770.188 24.2334C772.118 25.0993 774.425 25.5322 777.109 25.5322C779.831 25.5322 782.138 25.0993 784.03 24.2334C783.3 25.5941 782.354 26.6393 781.191 27.3691C780.041 28.099 778.68 28.4639 777.109 28.4639ZM797.742 24.3076C796.579 23.7386 795.701 22.9717 795.107 22.0068C794.514 21.0296 794.217 19.873 794.217 18.5371V1.39258H797.482V22.6377C797.482 23.2686 797.569 23.8252 797.742 24.3076ZM811.009 24.3076C811.182 23.8252 811.269 23.2686 811.269 22.6377V1.39258H814.627V18.5371C814.627 19.873 814.318 21.0296 813.699 22.0068C813.093 22.9717 812.196 23.7386 811.009 24.3076ZM804.366 28.4639C803.228 28.4639 802.201 28.2845 801.286 27.9258C800.383 27.5547 799.629 27.0599 799.022 26.4414C798.429 25.8105 798.002 25.0993 797.742 24.3076C799.412 25.124 801.62 25.5322 804.366 25.5322C807.125 25.5322 809.339 25.124 811.009 24.3076C810.761 25.0993 810.341 25.8105 809.747 26.4414C809.153 27.0599 808.399 27.5547 807.483 27.9258C806.568 28.2845 805.529 28.4639 804.366 28.4639ZM820.713 1.39258H823.904V25.3096H838.562V28H820.713V1.39258ZM851.105 13.3418H855.225V17.4424H851.105V13.3418Z" fill="#FF3E12"/>
</svg>
