<svg width="1105" height="584" viewBox="0 0 1105 584" fill="none" xmlns="http://www.w3.org/2000/svg">
<path d="M1093.64 392.124C1094.69 392.124 1095.54 392.365 1096.17 392.848C1096.81 393.33 1097.13 393.978 1097.13 394.79C1097.13 395.658 1096.82 396.328 1096.21 396.802L1097 396.859L1097 397.938L1087.25 397.938L1087.25 396.764L1090.89 396.764C1090.3 396.29 1090 395.636 1090 394.803C1090 393.969 1090.32 393.315 1090.95 392.841C1091.58 392.363 1092.44 392.124 1093.54 392.124L1093.64 392.124ZM1093.51 393.298C1092.71 393.298 1092.09 393.453 1091.66 393.762C1091.22 394.071 1091 394.515 1091 395.095C1091 395.869 1091.36 396.426 1092.08 396.764L1095.05 396.764C1095.77 396.404 1096.13 395.844 1096.13 395.082C1096.13 394.519 1095.91 394.081 1095.48 393.768C1095.04 393.455 1094.38 393.298 1093.51 393.298ZM1095.28 388.468L1090.13 386.868L1090.13 385.611L1098.06 388.373C1099.2 388.8 1099.77 389.479 1099.77 390.41L1099.75 390.632L1099.67 391.07L1098.72 391.07L1098.75 390.753C1098.75 390.355 1098.67 390.046 1098.5 389.826C1098.34 389.602 1098.05 389.418 1097.62 389.274L1096.92 389.014L1090.13 391.464L1090.13 390.182L1095.28 388.468ZM1092.88 378.426C1092.58 379.471 1092.21 380.233 1091.78 380.711C1091.34 381.185 1090.79 381.422 1090.15 381.422C1089.42 381.422 1088.82 381.132 1088.35 380.552C1087.87 379.968 1087.63 379.211 1087.63 378.28C1087.63 377.645 1087.75 377.08 1088 376.585C1088.24 376.086 1088.58 375.701 1089.01 375.43C1089.45 375.155 1089.92 375.017 1090.43 375.017L1090.43 376.242C1089.87 376.242 1089.43 376.42 1089.12 376.775C1088.79 377.131 1088.63 377.632 1088.63 378.28C1088.63 378.881 1088.77 379.35 1089.03 379.689C1089.3 380.023 1089.66 380.19 1090.13 380.19C1090.51 380.19 1090.83 380.032 1091.09 379.714C1091.35 379.393 1091.59 378.849 1091.8 378.083C1092.02 377.313 1092.26 376.712 1092.52 376.28C1092.78 375.844 1093.08 375.523 1093.43 375.315C1093.77 375.104 1094.18 374.998 1094.65 374.998C1095.4 374.998 1096 375.29 1096.45 375.874C1096.9 376.458 1097.13 377.239 1097.13 378.216C1097.13 378.851 1097.01 379.444 1096.77 379.994C1096.52 380.544 1096.19 380.969 1095.76 381.27C1095.34 381.566 1094.86 381.714 1094.32 381.714L1094.32 380.489C1094.88 380.489 1095.32 380.284 1095.65 379.873C1095.97 379.458 1096.13 378.906 1096.13 378.216C1096.13 377.573 1096 377.08 1095.74 376.737C1095.47 376.395 1095.12 376.223 1094.66 376.223C1094.21 376.223 1093.86 376.382 1093.62 376.699C1093.37 377.017 1093.12 377.592 1092.88 378.426ZM1096.32 369.374C1096.86 369.831 1097.13 370.502 1097.13 371.386C1097.13 372.118 1096.92 372.677 1096.49 373.062C1096.06 373.443 1095.43 373.635 1094.6 373.64L1090.13 373.64L1090.13 372.465L1094.57 372.465C1095.61 372.465 1096.13 372.042 1096.13 371.196C1096.13 370.299 1095.8 369.702 1095.13 369.406L1090.13 369.406L1090.13 368.231L1097 368.231L1097 369.349L1096.32 369.374ZM1095.18 362.442C1094.86 362.442 1094.62 362.563 1094.44 362.804C1094.26 363.041 1094.11 363.458 1093.98 364.055C1093.86 364.647 1093.71 365.119 1093.53 365.47C1093.35 365.817 1093.14 366.075 1092.89 366.245C1092.65 366.41 1092.36 366.492 1092.02 366.492C1091.45 366.492 1090.98 366.255 1090.59 365.781C1090.2 365.303 1090 364.694 1090 363.953C1090 363.174 1090.21 362.544 1090.61 362.062C1091.01 361.575 1091.52 361.332 1092.15 361.332L1092.15 362.512C1091.83 362.512 1091.55 362.65 1091.32 362.925C1091.09 363.196 1090.97 363.538 1090.97 363.953C1090.97 364.381 1091.06 364.715 1091.25 364.956C1091.44 365.197 1091.68 365.318 1091.98 365.318C1092.26 365.318 1092.48 365.206 1092.62 364.981C1092.76 364.757 1092.9 364.353 1093.03 363.769C1093.16 363.181 1093.32 362.705 1093.5 362.341C1093.68 361.977 1093.9 361.708 1094.16 361.535C1094.42 361.357 1094.73 361.268 1095.1 361.268C1095.71 361.268 1096.2 361.514 1096.57 362.004C1096.94 362.495 1097.13 363.132 1097.13 363.915C1097.13 364.465 1097.03 364.952 1096.83 365.375C1096.64 365.798 1096.37 366.13 1096.02 366.372C1095.67 366.609 1095.29 366.727 1094.89 366.727L1094.89 365.553C1095.28 365.532 1095.59 365.375 1095.83 365.083C1096.05 364.787 1096.17 364.397 1096.17 363.915C1096.17 363.471 1096.08 363.115 1095.9 362.849C1095.72 362.578 1095.48 362.442 1095.18 362.442ZM1093.64 353.937C1094.69 353.937 1095.53 354.176 1096.17 354.654C1096.81 355.132 1097.13 355.779 1097.13 356.596C1097.13 357.43 1096.86 358.086 1096.33 358.564L1099.64 358.564L1099.64 359.738L1090.13 359.738L1090.13 358.666L1090.89 358.608C1090.3 358.13 1090 357.466 1090 356.615C1090 355.79 1090.32 355.138 1090.94 354.66C1091.56 354.178 1092.43 353.937 1093.53 353.937L1093.64 353.937ZM1093.51 355.111C1092.73 355.111 1092.12 355.276 1091.67 355.606C1091.23 355.936 1091 356.389 1091 356.964C1091 357.675 1091.32 358.208 1091.95 358.564L1095.23 358.564C1095.86 358.213 1096.17 357.675 1096.17 356.952C1096.17 356.389 1095.95 355.942 1095.5 355.612C1095.05 355.278 1094.39 355.111 1093.51 355.111ZM1097.13 349.588C1097.13 350.519 1096.82 351.277 1096.21 351.861C1095.6 352.445 1094.78 352.737 1093.76 352.737L1093.54 352.737C1092.86 352.737 1092.25 352.608 1091.72 352.35C1091.18 352.087 1090.76 351.723 1090.46 351.258C1090.16 350.788 1090 350.28 1090 349.734C1090 348.841 1090.3 348.147 1090.89 347.652C1091.48 347.157 1092.32 346.91 1093.41 346.91L1093.9 346.91L1093.9 351.562C1094.58 351.546 1095.13 351.349 1095.55 350.972C1095.96 350.591 1096.17 350.109 1096.17 349.525C1096.17 349.11 1096.08 348.759 1095.91 348.471C1095.75 348.183 1095.52 347.932 1095.24 347.716L1095.8 346.999C1096.68 347.574 1097.13 348.437 1097.13 349.588ZM1090.97 349.734C1090.97 350.208 1091.14 350.606 1091.49 350.928C1091.83 351.249 1092.32 351.448 1092.94 351.524L1092.94 348.084L1092.85 348.084C1092.25 348.118 1091.79 348.279 1091.46 348.566C1091.13 348.854 1090.97 349.243 1090.97 349.734ZM1090.13 344.434L1091 344.396C1090.33 343.871 1090 343.186 1090 342.339C1090 340.888 1090.82 340.156 1092.46 340.143L1097 340.143L1097 341.317L1092.46 341.317C1091.96 341.322 1091.59 341.436 1091.36 341.66C1091.12 341.88 1091 342.225 1091 342.695C1091 343.076 1091.1 343.41 1091.31 343.698C1091.51 343.986 1091.78 344.21 1092.11 344.371L1097 344.371L1097 345.545L1090.13 345.545L1090.13 344.434ZM1093.51 338.658C1092.46 338.658 1091.61 338.408 1090.97 337.909C1090.33 337.409 1090 336.756 1090 335.947C1090 335.143 1090.28 334.506 1090.83 334.037L1087.25 334.037L1087.25 332.862L1097 332.862L1097 333.941L1096.26 333.999C1096.84 334.468 1097.13 335.122 1097.13 335.96C1097.13 336.756 1096.8 337.405 1096.15 337.909C1095.5 338.408 1094.65 338.658 1093.6 338.658L1093.51 338.658ZM1093.64 337.483C1094.42 337.483 1095.03 337.323 1095.47 337.001C1095.91 336.679 1096.13 336.235 1096.13 335.668C1096.13 334.923 1095.8 334.379 1095.13 334.037L1091.97 334.037C1091.33 334.388 1091 334.927 1091 335.655C1091 336.231 1091.22 336.679 1091.67 337.001C1092.11 337.323 1092.77 337.483 1093.64 337.483ZM1097.13 328.184C1097.13 329.115 1096.82 329.873 1096.21 330.457C1095.6 331.041 1094.78 331.333 1093.76 331.333L1093.54 331.333C1092.86 331.333 1092.25 331.203 1091.72 330.945C1091.18 330.683 1090.76 330.319 1090.46 329.854C1090.16 329.384 1090 328.876 1090 328.33C1090 327.437 1090.3 326.743 1090.89 326.248C1091.48 325.753 1092.32 325.505 1093.41 325.505L1093.9 325.505L1093.9 330.158C1094.58 330.141 1095.13 329.944 1095.55 329.568C1095.96 329.187 1096.17 328.705 1096.17 328.121C1096.17 327.706 1096.08 327.355 1095.91 327.067C1095.75 326.779 1095.52 326.527 1095.24 326.312L1095.8 325.594C1096.68 326.17 1097.13 327.033 1097.13 328.184ZM1090.97 328.33C1090.97 328.804 1091.14 329.202 1091.49 329.523C1091.83 329.845 1092.32 330.044 1092.94 330.12L1092.94 326.68L1092.85 326.68C1092.25 326.714 1091.79 326.874 1091.46 327.162C1091.13 327.45 1090.97 327.839 1090.97 328.33ZM1093.51 324.426C1092.46 324.426 1091.61 324.177 1090.97 323.677C1090.33 323.178 1090 322.524 1090 321.716C1090 320.912 1090.28 320.275 1090.83 319.805L1087.25 319.805L1087.25 318.631L1097 318.631L1097 319.71L1096.26 319.767C1096.84 320.237 1097.13 320.891 1097.13 321.729C1097.13 322.524 1096.8 323.174 1096.15 323.677C1095.5 324.177 1094.65 324.426 1093.6 324.426L1093.51 324.426ZM1093.64 323.252C1094.42 323.252 1095.03 323.091 1095.47 322.77C1095.91 322.448 1096.13 322.004 1096.13 321.437C1096.13 320.692 1095.8 320.148 1095.13 319.805L1091.97 319.805C1091.33 320.156 1091 320.696 1091 321.424C1091 321.999 1091.22 322.448 1091.67 322.77C1092.11 323.091 1092.77 323.252 1093.64 323.252ZM1092.88 310.671C1092.58 311.716 1092.21 312.478 1091.78 312.956C1091.34 313.43 1090.79 313.667 1090.15 313.667C1089.42 313.667 1088.82 313.377 1088.35 312.797C1087.87 312.213 1087.63 311.456 1087.63 310.525C1087.63 309.89 1087.75 309.325 1088 308.83C1088.24 308.331 1088.58 307.946 1089.01 307.675C1089.45 307.4 1089.92 307.262 1090.43 307.262L1090.43 308.487C1089.87 308.487 1089.43 308.665 1089.12 309.021C1088.79 309.376 1088.63 309.877 1088.63 310.525C1088.63 311.126 1088.77 311.596 1089.03 311.934C1089.3 312.268 1089.66 312.436 1090.13 312.436C1090.51 312.436 1090.83 312.277 1091.09 311.959C1091.35 311.638 1091.59 311.094 1091.8 310.328C1092.02 309.558 1092.26 308.957 1092.52 308.525C1092.78 308.09 1093.08 307.768 1093.43 307.561C1093.77 307.349 1094.18 307.243 1094.65 307.243C1095.4 307.243 1096 307.535 1096.45 308.119C1096.9 308.703 1097.13 309.484 1097.13 310.461C1097.13 311.096 1097.01 311.689 1096.77 312.239C1096.52 312.789 1096.19 313.214 1095.76 313.515C1095.34 313.811 1094.86 313.959 1094.32 313.959L1094.32 312.734C1094.88 312.734 1095.32 312.529 1095.65 312.118C1095.97 311.703 1096.13 311.151 1096.13 310.461C1096.13 309.818 1096 309.325 1095.74 308.982C1095.47 308.64 1095.12 308.468 1094.66 308.468C1094.21 308.468 1093.86 308.627 1093.62 308.944C1093.37 309.262 1093.12 309.837 1092.88 310.671ZM1093.5 306.17C1092.83 306.17 1092.22 306.039 1091.69 305.777C1091.15 305.51 1090.73 305.142 1090.44 304.672C1090.15 304.198 1090 303.659 1090 303.054C1090 302.118 1090.33 301.363 1090.98 300.788C1091.62 300.208 1092.48 299.918 1093.56 299.918L1093.64 299.918C1094.31 299.918 1094.91 300.047 1095.44 300.305C1095.97 300.559 1096.39 300.925 1096.68 301.403C1096.98 301.877 1097.13 302.423 1097.13 303.041C1097.13 303.972 1096.8 304.727 1096.16 305.307C1095.51 305.883 1094.65 306.17 1093.58 306.17L1093.5 306.17ZM1093.64 304.99C1094.4 304.99 1095.02 304.814 1095.48 304.463C1095.94 304.107 1096.17 303.633 1096.17 303.041C1096.17 302.444 1095.94 301.97 1095.47 301.619C1095 301.268 1094.34 301.092 1093.5 301.092C1092.75 301.092 1092.14 301.272 1091.67 301.632C1091.2 301.987 1090.97 302.461 1090.97 303.054C1090.97 303.633 1091.2 304.101 1091.66 304.457C1092.12 304.812 1092.78 304.99 1093.64 304.99ZM1096.32 294.205C1096.86 294.662 1097.13 295.333 1097.13 296.217C1097.13 296.949 1096.92 297.508 1096.49 297.893C1096.06 298.274 1095.43 298.466 1094.6 298.471L1090.13 298.471L1090.13 297.296L1094.57 297.296C1095.61 297.296 1096.13 296.873 1096.13 296.027C1096.13 295.13 1095.8 294.533 1095.13 294.237L1090.13 294.237L1090.13 293.062L1097 293.062L1097 294.18L1096.32 294.205ZM1097 289.997L1097 291.171L1087.25 291.171L1087.25 289.997L1097 289.997Z" fill="#FF3E12"/>
<path d="M49.4551 45.8828C52.6943 36.792 58.4937 29.4775 66.853 23.9395C75.3169 18.2969 85.8706 15.4756 98.5142 15.4756C123.07 15.4756 139.057 25.5068 146.476 45.5693C132.265 40.4492 115.964 37.8892 97.5737 37.8892C78.0337 37.8892 61.9941 40.5537 49.4551 45.8828ZM150.238 87.105C150.656 81.4624 150.865 77.4917 150.865 75.1929C150.865 63.9077 149.402 54.0332 146.476 45.5693C157.134 49.54 165.546 55.0781 171.711 62.1836C177.876 69.1846 181.115 77.4917 181.429 87.105H150.238ZM154.783 216.101C156.664 210.876 157.604 205.181 157.604 199.016C157.604 189.507 155.985 181.514 152.746 175.035C149.611 168.557 144.909 163.071 138.639 158.578C132.474 154.084 124.376 149.905 114.345 146.039L70.9282 129.424C55.3589 123.364 43.4468 116.676 35.1919 109.362C26.937 102.047 22.8096 93.1133 22.8096 82.5596C22.8096 73.9912 25.1084 66.6245 29.7061 60.4595C34.3037 54.2944 40.8867 49.4355 49.4551 45.8828C47.7832 50.6895 46.9473 55.6528 46.9473 60.7729C46.9473 68.9233 48.4102 75.7153 51.3359 81.1489C54.3662 86.478 58.9116 91.0757 64.9722 94.9419C71.1372 98.8081 79.5488 102.831 90.207 107.011L133.624 123.938C148.984 130.104 160.844 137.47 169.203 146.039C177.562 154.502 181.742 164.586 181.742 176.289C181.742 185.171 179.443 193.008 174.846 199.8C170.353 206.487 163.665 211.921 154.783 216.101ZM53.3735 217.668C29.2358 209.1 17.0103 193.06 16.6968 169.549H47.8877C47.4697 172.789 47.2607 177.491 47.2607 183.656C47.2607 197.449 49.2983 208.786 53.3735 217.668ZM104 247.918C91.8789 247.918 81.5342 245.358 72.9658 240.238C64.3975 235.014 57.8667 227.49 53.3735 217.668C67.3755 222.579 84.9302 225.035 106.038 225.035C125.996 225.035 142.244 222.057 154.783 216.101C151.439 225.714 145.431 233.446 136.758 239.298C128.085 245.045 117.166 247.918 104 247.918ZM257.917 51.6821C271.396 27.5444 291.72 15.4756 318.888 15.4756C332.159 15.4756 343.601 18.5581 353.214 24.7231C362.932 30.7837 370.978 39.4565 377.352 50.7417C361.364 43.4272 341.876 39.77 318.888 39.77C295.9 39.77 275.576 43.7407 257.917 51.6821ZM377.352 212.182C382.89 202.046 386.965 190.03 389.577 176.132C392.294 162.13 393.652 146.77 393.652 130.051C393.652 114.168 392.294 99.4873 389.577 86.0078C386.965 72.5283 382.89 60.7729 377.352 50.7417C393.13 57.7427 405.251 67.9307 413.715 81.3057C422.179 94.6807 426.411 110.929 426.411 130.051C426.411 150.114 422.179 167.094 413.715 180.991C405.251 194.784 393.13 205.181 377.352 212.182ZM260.425 212.182C244.124 204.972 231.48 194.471 222.494 180.678C213.612 166.78 209.171 149.905 209.171 130.051C209.171 111.661 213.403 95.8301 221.867 82.5596C230.436 69.1846 242.452 58.8921 257.917 51.6821C252.588 61.7134 248.565 73.3643 245.848 86.6348C243.236 99.9053 241.93 114.377 241.93 130.051C241.93 146.352 243.497 161.503 246.632 175.505C249.767 189.507 254.364 201.733 260.425 212.182ZM318.888 247.918C306.14 247.918 294.855 244.836 285.033 238.671C275.21 232.401 267.008 223.572 260.425 212.182C276.726 219.497 296.213 223.154 318.888 223.154C341.876 223.154 361.364 219.497 377.352 212.182C371.187 223.676 363.193 232.506 353.371 238.671C343.653 244.836 332.159 247.918 318.888 247.918ZM493.181 212.809C483.359 208.002 475.94 201.524 470.924 193.374C465.909 185.119 463.401 175.349 463.401 164.063V19.2373H490.987V198.703C490.987 204.032 491.718 208.734 493.181 212.809ZM605.249 212.809C606.712 208.734 607.443 204.032 607.443 198.703V19.2373H635.813V164.063C635.813 175.349 633.201 185.119 627.976 193.374C622.856 201.524 615.28 208.002 605.249 212.809ZM549.137 247.918C539.523 247.918 530.851 246.403 523.118 243.373C515.49 240.238 509.116 236.059 503.996 230.834C498.98 225.505 495.375 219.497 493.181 212.809C507.288 219.706 525.939 223.154 549.137 223.154C572.438 223.154 591.143 219.706 605.249 212.809C603.159 219.497 599.606 225.505 594.591 230.834C589.575 236.059 583.201 240.238 575.469 243.373C567.736 246.403 558.959 247.918 549.137 247.918ZM687.223 19.2373H714.182V221.273H838.005V244H687.223V19.2373Z" fill="#FF3E12"/>
<path d="M946.05 115.945L945.838 116.922L947.173 117.213L947.046 115.852L946.05 115.945ZM915.33 95.0986L916.157 94.5367L916.15 94.5275L915.33 95.0986ZM862.979 19.8643H861.979V20.1779L862.158 20.4354L862.979 19.8643ZM862.979 19.2373V18.2373H861.979V19.2373H862.979ZM896.991 19.2373L897.833 18.6971L897.538 18.2373H896.991V19.2373ZM931.003 72.2148L931.847 71.6784L931.845 71.6746L931.003 72.2148ZM973.323 115.945L972.334 115.792L972.127 117.137L973.473 116.934L973.323 115.945ZM990.094 72.5283L990.93 73.077L990.93 73.0768L990.094 72.5283ZM1025.05 19.2373V18.2373H1024.51L1024.21 18.6889L1025.05 19.2373ZM1056.55 19.2373H1057.55V18.2373H1056.55V19.2373ZM1056.55 19.5508L1057.38 20.111L1057.55 19.8572V19.5508H1056.55ZM1005.45 95.0986L1004.63 94.5384L1004.62 94.5439L1005.45 95.0986ZM991.504 109.205L990.961 108.365L990.954 108.37L991.504 109.205ZM945.737 143.844L944.746 143.709L944.555 145.107L945.938 144.824L945.737 143.844ZM946.05 115.945L946.267 114.969L944.876 114.66L945.059 116.073L946.05 115.945ZM973.323 115.945L974.315 116.066L974.488 114.653L973.1 114.97L973.323 115.945ZM973.323 143.844L973.111 144.822L974.506 145.123L974.314 143.709L973.323 143.844ZM854.985 243.687L854.169 243.108L853.985 243.368V243.687H854.985ZM905.298 172.684L904.49 172.095L904.482 172.106L905.298 172.684ZM924.42 153.092L924.993 153.912L924.996 153.91L924.42 153.092ZM945.737 143.844L946.727 143.986L946.926 142.594L945.546 142.863L945.737 143.844ZM939.938 163.75L939.021 163.349L939.018 163.356L939.938 163.75ZM927.398 185.85L926.571 185.288L926.568 185.293L927.398 185.85ZM888.371 244V245H888.904L889.201 244.557L888.371 244ZM854.985 244H853.985V245H854.985V244ZM993.855 188.201L993.029 188.765L993.033 188.77L993.855 188.201ZM979.592 164.063L978.682 164.477L978.687 164.489L979.592 164.063ZM973.323 143.844L973.483 142.857L972.118 142.636L972.335 144.001L973.323 143.844ZM994.796 152.622L994.223 153.441L994.232 153.448L994.796 152.622ZM1014.07 172.371L1014.89 171.788L1014.89 171.785L1014.07 172.371ZM1065.17 243.687H1066.17V243.365L1065.98 243.104L1065.17 243.687ZM1065.17 244V245H1066.17V244H1065.17ZM1032.41 244L1031.59 244.568L1031.89 245H1032.41V244ZM946.263 114.968C933.559 112.202 923.538 105.403 916.157 94.5368L914.502 95.6605C922.168 106.946 932.627 114.046 945.838 116.922L946.263 114.968ZM916.15 94.5275L863.8 19.2931L862.158 20.4354L914.509 95.6698L916.15 94.5275ZM863.979 19.8643V19.2373H861.979V19.8643H863.979ZM862.979 20.2373H896.991V18.2373H862.979V20.2373ZM896.15 19.7776L930.162 72.7551L931.845 71.6746L897.833 18.6971L896.15 19.7776ZM930.159 72.7513C938.644 86.0991 943.607 100.524 945.055 116.038L947.046 115.852C945.568 100.018 940.499 85.2896 931.847 71.6784L930.159 72.7513ZM974.311 116.097C976.692 100.672 982.23 86.3343 990.93 73.077L989.258 71.9797C980.403 85.4724 974.76 100.079 972.334 115.792L974.311 116.097ZM990.93 73.0768L1025.88 19.7857L1024.21 18.6889L989.258 71.9799L990.93 73.0768ZM1025.05 20.2373H1056.55V18.2373H1025.05V20.2373ZM1055.55 19.2373V19.5508H1057.55V19.2373H1055.55ZM1055.72 18.9905L1004.63 94.5384L1006.28 95.6589L1057.38 20.111L1055.72 18.9905ZM1004.62 94.5439C1000.72 100.401 996.162 105 990.961 108.366L992.048 110.045C997.505 106.513 1002.25 101.709 1006.29 95.6533L1004.62 94.5439ZM990.954 108.37C985.863 111.73 979.943 113.93 973.173 114.956L973.473 116.934C980.496 115.869 986.697 113.576 992.055 110.04L990.954 108.37ZM946.728 143.979C947.36 139.339 947.677 134.801 947.677 130.365H945.677C945.677 134.706 945.367 139.154 944.746 143.709L946.728 143.979ZM947.677 130.365C947.677 123.98 947.468 119.122 947.042 115.817L945.059 116.073C945.468 119.247 945.677 124.001 945.677 130.365H947.677ZM945.833 116.921C949.686 117.777 954.256 118.199 959.53 118.199V116.199C954.354 116.199 949.938 115.784 946.267 114.969L945.833 116.921ZM959.53 118.199C965.111 118.199 969.79 117.778 973.546 116.92L973.1 114.97C969.541 115.783 965.025 116.199 959.53 116.199V118.199ZM972.33 115.823C971.699 120.978 971.382 125.826 971.382 130.365H973.382C973.382 125.918 973.693 121.152 974.315 116.066L972.33 115.823ZM971.382 130.365C971.382 134.801 971.699 139.339 972.332 143.979L974.314 143.709C973.692 139.154 973.382 134.706 973.382 130.365H971.382ZM973.534 142.867C969.579 142.012 964.907 141.59 959.53 141.59V143.59C964.811 143.59 969.334 144.005 973.111 144.822L973.534 142.867ZM959.53 141.59C954.357 141.59 949.69 142.012 945.536 142.865L945.938 144.824C949.934 144.004 954.462 143.59 959.53 143.59V141.59ZM855.801 244.265L906.114 173.262L904.482 172.106L854.169 243.108L855.801 244.265ZM906.107 173.273C912.225 164.873 918.524 158.43 924.993 153.912L923.848 152.272C917.151 156.949 910.702 163.568 904.49 172.095L906.107 173.273ZM924.996 153.91C931.576 149.283 938.552 146.26 945.928 144.826L945.546 142.863C937.875 144.354 930.64 147.496 923.845 152.274L924.996 153.91ZM944.747 143.703C943.82 150.188 941.914 156.736 939.021 163.349L940.854 164.151C943.812 157.389 945.772 150.666 946.727 143.986L944.747 143.703ZM939.018 163.356C936.23 169.863 932.086 177.172 926.571 185.288L928.226 186.412C933.787 178.227 938.003 170.803 940.857 164.144L939.018 163.356ZM926.568 185.293L887.54 243.443L889.201 244.557L928.229 186.407L926.568 185.293ZM888.371 243H854.985V245H888.371V243ZM855.985 244V243.687H853.985V244H855.985ZM994.682 187.638C988.43 178.468 983.706 170.47 980.497 163.638L978.687 164.489C981.957 171.45 986.742 179.543 993.029 188.765L994.682 187.638ZM980.503 163.65C977.4 156.824 975.339 150.171 974.31 143.687L972.335 144.001C973.396 150.684 975.515 157.51 978.682 164.477L980.503 163.65ZM973.163 144.831C980.743 146.061 987.76 148.928 994.223 153.441L995.368 151.802C988.665 147.12 981.367 144.136 973.483 142.857L973.163 144.831ZM994.232 153.448C1000.69 157.857 1007.04 164.347 1013.26 172.956L1014.89 171.785C1008.57 163.048 1002.06 156.372 995.36 151.796L994.232 153.448ZM1013.26 172.953L1064.36 244.269L1065.98 243.104L1014.89 171.788L1013.26 172.953ZM1064.17 243.687V244H1066.17V243.687H1064.17ZM1065.17 243H1032.41V245H1065.17V243ZM1033.24 243.432L994.678 187.633L993.033 188.77L1031.59 244.568L1033.24 243.432Z" fill="#FF3E12"/>
<path d="M6.42676 307.237H57.21C66.1963 307.237 73.3018 309.118 78.5264 312.88C83.751 316.537 86.6768 322.18 87.3037 329.808H6.42676V307.237ZM114.576 329.808C115.203 322.18 118.129 316.537 123.354 312.88C128.578 309.118 135.736 307.237 144.827 307.237H195.453V329.808H114.576ZM87.3037 329.808H114.576V532H87.3037V329.808ZM249.058 339.682C262.537 315.544 282.861 303.476 310.029 303.476C323.299 303.476 334.741 306.558 344.354 312.723C354.072 318.784 362.118 327.457 368.492 338.742C352.505 331.427 333.017 327.77 310.029 327.77C287.041 327.77 266.717 331.741 249.058 339.682ZM368.492 500.182C374.03 490.046 378.105 478.03 380.718 464.132C383.435 450.13 384.793 434.77 384.793 418.051C384.793 402.168 383.435 387.487 380.718 374.008C378.105 360.528 374.03 348.773 368.492 338.742C384.271 345.743 396.392 355.931 404.855 369.306C413.319 382.681 417.551 398.929 417.551 418.051C417.551 438.114 413.319 455.094 404.855 468.991C396.392 482.784 384.271 493.181 368.492 500.182ZM251.565 500.182C235.265 492.972 222.621 482.471 213.635 468.678C204.753 454.78 200.312 437.905 200.312 418.051C200.312 399.661 204.544 383.83 213.008 370.56C221.576 357.185 233.593 346.892 249.058 339.682C243.729 349.713 239.706 361.364 236.989 374.635C234.376 387.905 233.07 402.377 233.07 418.051C233.07 434.352 234.638 449.503 237.772 463.505C240.907 477.507 245.505 489.733 251.565 500.182ZM310.029 535.918C297.281 535.918 285.996 532.836 276.173 526.671C266.351 520.401 258.148 511.572 251.565 500.182C267.866 507.497 287.354 511.154 310.029 511.154C333.017 511.154 352.505 507.497 368.492 500.182C362.327 511.676 354.333 520.506 344.511 526.671C334.793 532.836 323.299 535.918 310.029 535.918ZM454.542 307.237H481.814V404.885H502.66C508.616 404.885 512.9 404.676 515.513 404.258C515.304 406.557 515.199 410.528 515.199 416.17C515.199 420.141 515.513 424.164 516.14 428.239C513.109 427.821 508.616 427.612 502.66 427.612H481.814V532H454.542V307.237ZM515.513 404.258C516.349 394.436 518.752 385.45 522.723 377.299C526.798 369.044 533.903 359.64 544.039 349.086L583.851 307.237H618.176V307.864L549.525 382.472C542.942 389.682 537.038 394.906 531.813 398.146C526.589 401.385 521.155 403.422 515.513 404.258ZM555.638 490.935C543.726 478.918 534.583 467.999 528.208 458.176C521.939 448.354 517.916 438.375 516.14 428.239C522.723 428.971 528.94 430.852 534.792 433.882C540.748 436.808 546.86 441.562 553.13 448.145L633.066 531.373V532H596.703L555.638 490.935ZM679.304 404.258C669.377 403.213 662.376 400.131 658.301 395.011C654.331 389.786 652.345 381.845 652.345 371.187V307.237H798.425V330.435H679.304V404.258ZM679.304 404.258C681.185 404.467 684.477 404.572 689.179 404.572H792.312V426.985H689.179C686.357 426.985 683.066 427.194 679.304 427.612V404.258ZM652.345 460.998C652.345 451.802 654.435 444.331 658.615 438.584C662.794 432.837 669.691 429.18 679.304 427.612V508.959H801.56V532H652.345V460.998ZM871.152 320.403C871.152 315.597 872.458 311.574 875.07 308.334C877.787 305.095 881.497 303.476 886.199 303.476C890.483 303.476 893.879 304.729 896.387 307.237C898.999 309.745 900.775 312.984 901.716 316.955L904.851 331.062C900.566 330.435 896.178 330.121 891.685 330.121C883.848 330.121 877.003 331.166 871.152 333.256V320.403ZM1009.55 307.237H1037.14V471.029C1037.14 479.597 1034.63 486.859 1029.61 492.815C1024.7 498.771 1018.02 503.16 1009.55 505.981V307.237ZM975.853 507.862C965.508 506.399 957.044 502.481 950.461 496.107C943.878 489.733 939.176 480.276 936.355 467.737L904.851 331.062C914.986 332.524 923.241 336.443 929.615 342.817C936.094 349.086 940.796 358.543 943.722 371.187L975.853 507.862ZM843.566 373.381C843.566 362.827 846.021 354.259 850.933 347.676C855.844 340.988 862.583 336.182 871.152 333.256V532H843.566V373.381ZM994.348 535.918C989.959 535.918 986.511 534.612 984.003 532C981.6 529.388 979.824 525.626 978.674 520.715L975.853 507.862C980.66 508.594 985.048 508.959 989.019 508.959C996.229 508.959 1003.07 507.967 1009.55 505.981V518.521C1009.55 523.954 1008.19 528.238 1005.48 531.373C1002.86 534.403 999.155 535.918 994.348 535.918Z" fill="#FF3E12"/>
</svg>
