<svg width="1366.8" height="340.3" viewBox="0 0 1366.8 340.3" fill="none" xmlns="http://www.w3.org/2000/svg">
<path class="st0" d="M40.8,72.2c13.6-5.9,31.4-8.7,52.3-8.7c18.8,0,36.6,2.8,51.3,8.4c-6.6-18.8-19.9-29.3-39.8-32.1V0H83.8v39.8
	C61.4,42.6,46.4,55.8,40.8,72.2z M148.7,116.9h33.9c-0.7-21.6-15.7-36.6-38-45c3.1,8.7,4.9,19.2,4.9,31.8
	C149.4,107.8,149,112.4,148.7,116.9z M150.8,256.9c19.5-9.1,29.3-24.1,29.3-42.9c0-26.5-17.4-44-49.2-56.9l-45-18.1
	C52.7,125.6,38,115.5,38,88.3c0-5.6,1-11.2,2.8-16.1c-18.5,7.7-29,20.9-29,39.8c0,24.8,22,39.1,52.3,51l45.7,18.1
	c31.1,12.2,44,25.8,44,57.6C153.9,245,152.9,251.3,150.8,256.9z M39.8,259.3c-4.5-10.1-6.6-22.7-6.6-37.3c0-4.9,0-10.1,0.7-15.4H0
	C0.3,234.2,15.7,250.6,39.8,259.3z M83.8,340.3h20.9v-49.2c24.4-3.1,40.1-16.8,46.1-34.2c-14,6.6-32.8,10.1-56.5,10.1
	c-20.6,0-39.1-2.4-54.4-7.7c8,18.1,23,29,44,31.8V340.3z M254.6,72.2c13.6-5.9,31.4-8.7,52.4-8.7c19.5,0,38,2.8,53,8.4
	c-8-22-25.5-32.8-52-32.8C279.4,39.1,261.3,53.4,254.6,72.2z M364.2,116.9h33.9c-0.7-21.6-15.7-36.6-38-45
	c3.1,8.7,4.9,19.5,4.9,32.1C364.9,108.2,364.6,112.4,364.2,116.9z M369.1,257.2c19.5-9.1,29.3-24.1,29.3-43.3
	c0-26.5-20.6-44.3-52.4-56.9l-47.1-18.5c-32.5-12.6-47.1-23-47.1-50.3c0-5.6,1-11.2,2.8-16.1c-18.5,7.7-29,20.9-29,39.8
	c0,24.8,22,39.1,52.4,51l47.1,18.1c31.1,11.9,47.1,25.8,47.1,57.6C372.2,245.3,371.2,251.6,369.1,257.2z M258.8,259
	c-4.5-10.1-6.6-22.3-6.6-37c0-4.9,0-10.1,0.7-15.4H219C219.4,233.8,234.4,250.2,258.8,259z M314,291.8c29.7,0,48.2-14.7,55.1-34.6
	c-13.3,6.3-31.1,9.8-53,9.8c-21.6,0-41.2-2.4-57.2-8C268.6,280.2,287.4,291.8,314,291.8z M481.3,78.5c18.5-8.4,41.2-12.9,66.3-12.9
	c24.4,0,46.1,3.8,63.5,11.9c-13.3-23.7-33.9-38.4-63.5-38.4C516.2,39.1,494.9,54.1,481.3,78.5z M611.1,253
	c33.9-15,53.4-45,53.4-89.3c0-42.2-19.5-71.2-53.4-86.2c12.2,22.3,17.8,52.7,17.8,86.2C628.9,198.9,623.3,230.3,611.1,253z M484,253
	c-13.3-22.7-20.2-54.1-20.2-89.3c0-33.2,5.6-62.8,17.5-85.2c-32.8,15.4-53,44.3-53,85.2C428.2,208,449.5,237.7,484,253z
	 M547.6,291.8c29.7,0,50.6-14.7,63.5-38.7c-17.5,8-39.1,11.9-63.5,11.9c-24.1,0-45.7-3.8-63.5-11.9
	C498,277.1,519.3,291.8,547.6,291.8z M737.1,253.7c-1.7-4.9-2.4-10.1-2.4-15.4V43.3h-30v157.4C704.6,225.5,715.8,243.3,737.1,253.7z
	 M858.9,253.7c22-10.5,33.2-28.6,33.2-53V43.3h-30.7v195.1C861.3,243.6,860.6,248.8,858.9,253.7z M797.8,291.8
	c33.2,0,54.4-16.8,61.1-38c-15,7.3-35.6,11.2-61.1,11.2c-25.1,0-45.7-3.8-60.7-11.2C744.1,275,765.4,291.8,797.8,291.8z M948,287.6
	h164v-24.8H977.3V43.3H948V287.6z" fill="#FF3E12"/>
<path class="st0" d="M1235.7,148.3l-0.3,1.6l2.2,0.5l-0.2-2.2L1235.7,148.3z M1219.3,100.9l-1.4,0.9v0L1219.3,100.9z M1182.3,43.3
	l1.4-0.9l-0.5-0.8h-0.9V43.3z M1145.3,43.3v-1.6h-1.7v1.6H1145.3z M1145.3,44h-1.7v0.5l0.3,0.4L1145.3,44z M1202.2,125.6l1.4-0.9
	l0,0l0,0L1202.2,125.6z M1265.4,148.3l-1.6-0.2l-0.3,2.2l2.2-0.4L1265.4,148.3z M1300.2,125.6l-1.4-0.9v0L1300.2,125.6z
	 M1355.7,43.6l1.4,0.9l0.3-0.4v-0.5H1355.7z M1355.7,43.3h1.6v-1.6h-1.6V43.3z M1321.5,43.3v-1.6h-0.9l-0.5,0.7L1321.5,43.3z
	 M1283.5,101.2l1.4,0.9l0,0L1283.5,101.2z M1235.3,178.7l-1.6-0.2l-0.3,2.3l2.3-0.5L1235.3,178.7z M1265.4,178.7l-0.3,1.6l2.3,0.5
	l-0.3-2.3L1265.4,178.7z M1265.4,148.3l1.6,0.2l0.3-2.3l-2.3,0.5L1265.4,148.3z M1235.7,148.3l0.4-1.6l-2.3-0.5l0.3,2.4
	L1235.7,148.3z M1136.6,287.6h-1.7v1.6h1.7V287.6z M1172.9,287.6v1.6h0.9l0.5-0.7L1172.9,287.6z M1215.4,224.4l1.4,0.9v0
	L1215.4,224.4z M1235.3,178.7l1.6,0.2l0.3-2.3l-2.3,0.4L1235.3,178.7z M1191.4,210.1l-1.3-1l0,0L1191.4,210.1z M1136.6,287.2l-1.3-1
	l-0.3,0.4v0.5H1136.6z M1329.6,287.6l-1.4,0.9l0.5,0.7h0.9V287.6z M1365.2,287.6v1.6h1.6v-1.6H1365.2z M1365.2,287.2h1.6v-0.5
	l-0.3-0.4L1365.2,287.2z M1309.7,209.7l-1.3,1l0,0L1309.7,209.7z M1265.4,178.7l0.3-1.6l-2.2-0.4l0.3,2.2L1265.4,178.7z
	 M1287.7,226.8l-1.4,0.9L1287.7,226.8z M1237.3,148.2c-1.4-15.2-5.7-31.2-16.7-48.2l-2.8,1.8c10.7,16.5,14.8,31.9,16.2,46.7
	L1237.3,148.2z M1220.7,100l-37-57.6l-2.8,1.8l37,57.6L1220.7,100z M1182.3,41.6h-37v3.3h37V41.6z M1143.7,43.3V44h3.3v-0.7H1143.7z
	 M1143.9,44.9l56.9,81.7l2.7-1.9L1146.7,43L1143.9,44.9z M1200.8,126.6c8.2,12.2,19.4,20.1,34.5,23.4l0.7-3.2
	c-14.2-3-24.7-10.5-32.5-22L1200.8,126.6z M1265.6,149.9c15.5-2.5,27-10.1,36-23.4l-2.7-1.8c-8.5,12.6-19.3,19.6-33.8,22
	L1265.6,149.9z M1301.6,126.6l55.5-82l-2.7-1.8l-55.5,82L1301.6,126.6z M1357.4,43.6v-0.3h-3.3v0.3H1357.4z M1355.7,41.6h-34.2v3.3
	h34.2V41.6z M1320.2,42.4l-38,57.9l2.8,1.8l38-57.9L1320.2,42.4z M1282.1,100.3c-11,16.6-16.3,32.9-18.4,47.8l3.3,0.5
	c2.1-14.4,7.2-30.3,17.9-46.4L1282.1,100.3z M1235.7,180.3c4.7-1,9.5-1.4,14.7-1.4v-3.3c-5.3,0-10.3,0.4-15.3,1.4L1235.7,180.3z
	 M1250.3,178.9c5.2,0,9.9,0.3,14.7,1.4l0.7-3.2c-5-1.1-10.1-1.4-15.4-1.4V178.9z M1267,178.5c-0.7-4.8-1-9.6-1-14.4h-3.3
	c0,5,0.3,9.9,1.1,14.9L1267,178.5z M1266,164c0-4.8,0.3-10,1-15.5l-3.3-0.4c-0.7,5.6-1.1,10.9-1.1,15.9H1266z M1265,146.7
	c-4.4,1-9.5,1.4-14.6,1.4v3.3c5.3,0,10.7-0.4,15.4-1.4L1265,146.7z M1250.3,148.1c-5.2,0-9.9-0.3-14.3-1.4l-0.7,3.2
	c4.7,1.1,9.7,1.4,15,1.4V148.1z M1234.1,148.5c0.7,5.1,0.7,10.2,0.7,15.5h3.3c0-5.2,0-10.6-0.7-15.9L1234.1,148.5z M1234.7,164
	c0,5.2-0.4,9.6-1,14.4l3.3,0.5c0.7-5,1.1-9.6,1.1-14.9H1234.7z M1136.6,289.2h36.3v-3.3h-36.3V289.2z M1174.2,288.5l42.6-63.2
	l-2.7-1.8l-42.6,63.2L1174.2,288.5z M1216.8,225.3c12.3-18.3,18-32.1,20.2-46.4l-3.3-0.5c-2.1,13.6-7.5,27-19.6,45L1216.8,225.3z
	 M1235,177.1c-16.5,3.2-31.2,13-45,32.1l2.7,1.9c13.4-18.6,27.4-27.7,42.9-30.8L1235,177.1z M1190,209.1l-54.8,77.1l2.7,1.9
	l54.8-77.1L1190,209.1z M1134.9,287.2v0.3h3.3v-0.3H1134.9z M1329.6,289.2h35.6v-3.3h-35.6V289.2z M1366.8,287.6v-0.3h-3.3v0.3
	H1366.8z M1366.5,286.3l-55.5-77.5l-2.7,1.9l55.5,77.5L1366.5,286.3z M1311,208.8c-14.1-19.8-28.5-28.8-45.4-31.7l-0.6,3.2
	c15.9,2.7,29.5,11.1,43.3,30.4L1311,208.8z M1263.7,178.9c2.2,14.3,8.6,28.5,22.6,48.9l2.7-1.9c-13.9-20.1-20-33.9-22.1-47.5
	L1263.7,178.9z M1286.3,227.8l41.9,60.7l2.7-1.9l-41.9-60.7L1286.3,227.8z" fill="#FF3E12"/>
</svg>
