<svg width="375" height="198" viewBox="0 0 375 198" fill="none" xmlns="http://www.w3.org/2000/svg">
<path d="M17.3295 29.7774L16.8993 29.6287L16.5578 30.6167L17.5138 30.1937L17.3295 29.7774ZM97.7533 29.0598L97.5969 29.4874L98.5236 29.8263L98.18 28.9013L97.7533 29.0598ZM101.142 63.3957L100.688 63.3634L100.653 63.8537L101.144 63.851L101.142 63.3957ZM126.974 63.2508L126.976 63.706L127.446 63.7034L127.429 63.2336L126.974 63.2508ZM97.7533 29.0598L97.9107 28.6327L96.9873 28.2923L97.3258 29.2164L97.7533 29.0598ZM105.471 170.431L105.044 170.273L104.659 171.316L105.665 170.843L105.471 170.431ZM87.4655 94.0989L87.6306 93.6747L87.6295 93.6742L87.4655 94.0989ZM51.4346 80.1863L51.5986 79.7616L51.5966 79.7608L51.4346 80.1863ZM17.3295 29.7774L17.7591 29.9281L18.0992 28.9588L17.1527 29.3579L17.3295 29.7774ZM35.5607 98.9175L35.3974 99.3424L35.3995 99.3432L35.5607 98.9175ZM71.5901 112.564L71.4288 112.99L71.43 112.99L71.5901 112.564ZM21.3246 172.235L21.1739 172.664L22.181 173.017L21.739 172.046L21.3246 172.235ZM16.5732 132.314L17.0248 132.371L17.0906 131.856L16.5707 131.858L16.5732 132.314ZM-9.2587 132.459L-9.26126 132.003L-9.72236 132.006L-9.71386 132.467L-9.2587 132.459ZM105.471 170.431L105.901 170.579L106.256 169.548L105.273 170.021L105.471 170.431ZM21.3246 172.235L21.4717 171.804L20.4609 171.459L20.9119 172.427L21.3246 172.235ZM17.5138 30.1937C27.7954 25.6431 41.2959 23.4402 57.241 23.3508L57.2359 22.4403C41.2241 22.5301 27.5849 24.7406 17.1453 29.3611L17.5138 30.1937ZM57.241 23.3508C72.1154 23.2673 86.1852 25.3139 97.5969 29.4874L97.9096 28.6323C86.3709 24.4124 72.1881 22.3564 57.2359 22.4403L57.241 23.3508ZM98.18 28.9013C95.0401 20.4482 90.0854 14.1307 83.3406 9.94656C76.601 5.76567 68.1101 3.73711 57.9303 3.79422L57.9354 4.70468C67.995 4.64824 76.3047 6.65333 82.8607 10.7202C89.4114 14.7839 94.2472 20.9284 97.3265 29.2183L98.18 28.9013ZM57.9303 3.79422C35.923 3.91769 21.9488 15.0161 16.8993 29.6287L17.7598 29.926C22.6687 15.7206 36.2681 4.82624 57.9354 4.70468L57.9303 3.79422ZM101.144 63.851L126.976 63.706L126.971 62.7956L101.139 62.9405L101.144 63.851ZM127.429 63.2336C126.794 46.4727 115.089 34.9647 97.9107 28.6327L97.5958 29.487C114.577 35.7465 125.903 47.0126 126.519 63.268L127.429 63.2336ZM97.3258 29.2164C99.738 35.8007 101.11 43.9946 101.164 53.5419L102.074 53.5368C102.02 43.9098 100.637 35.6075 98.1807 28.9032L97.3258 29.2164ZM101.164 53.5419C101.182 56.7162 100.935 59.8936 100.688 63.3634L101.596 63.4281C101.842 59.9708 102.092 56.7538 102.074 53.5368L101.164 53.5419ZM105.665 170.843C113.163 167.31 118.8 162.635 122.551 156.973C126.303 151.31 128.152 144.684 128.111 137.281L127.2 137.286C127.241 144.529 125.434 150.973 121.792 156.47C118.149 161.969 112.653 166.544 105.277 170.019L105.665 170.843ZM128.111 137.281C127.995 116.742 111.957 103.141 87.6306 93.6747L87.3004 94.5232C111.55 103.959 127.088 117.345 127.2 137.286L128.111 137.281ZM87.6295 93.6742L51.5986 79.7616L51.2706 80.6109L87.3015 94.5236L87.6295 93.6742ZM51.5966 79.7608C39.1872 75.0371 30.2554 70.7204 24.4045 65.0329C18.5844 59.3753 15.7808 52.3267 15.723 42.037L14.8126 42.0421C14.8714 52.5244 17.7409 59.8251 23.7699 65.6858C29.7682 71.5166 38.8615 75.8873 51.2727 80.6117L51.5966 79.7608ZM15.723 42.037C15.6994 37.8307 16.4649 33.617 17.7591 29.9281L16.9 29.6267C15.5729 33.4093 14.7884 37.7265 14.8126 42.0421L15.723 42.037ZM17.1527 29.3579C10.0556 32.3507 4.47817 36.4212 0.685227 41.5834C-3.11077 46.7498 -5.09982 52.9835 -5.05897 60.2631L-4.14852 60.258C-4.18836 53.157 -2.25151 47.118 1.41894 42.1225C5.09245 37.1228 10.522 33.1421 17.5064 30.1968L17.1527 29.3579ZM-5.05897 60.2631C-5.00504 69.8755 -0.689054 77.4253 6.51247 83.6766C13.6991 89.9149 23.774 94.875 35.3974 99.3424L35.724 98.4926C24.1278 94.0355 14.1735 89.1211 7.1093 82.989C0.0600411 76.8699 -4.09636 69.5535 -4.14852 60.258L-5.05897 60.2631ZM35.3995 99.3432L71.4288 112.99L71.7513 112.138L35.7219 98.4918L35.3995 99.3432ZM71.43 112.99C83.2856 117.443 92.2168 122.288 98.2057 128.994C104.179 135.684 107.266 144.273 107.333 156.306L108.243 156.301C108.175 144.099 105.038 135.279 98.8848 128.388C92.7467 121.514 83.6468 116.606 71.7501 112.138L71.43 112.99ZM107.333 156.306C107.361 161.319 106.596 166.061 105.044 170.273L105.898 170.588C107.493 166.261 108.272 161.407 108.243 156.301L107.333 156.306ZM21.739 172.046C18.2685 164.419 16.6241 155.176 16.5616 144.032L15.6511 144.037C15.7141 155.262 17.37 164.643 20.9103 172.423L21.739 172.046ZM16.5616 144.032C16.5406 140.299 16.519 136.334 17.0248 132.371L16.1217 132.256C15.607 136.288 15.6302 140.313 15.6511 144.037L16.5616 144.032ZM16.5707 131.858L-9.26126 132.003L-9.25615 132.914L16.5758 132.769L16.5707 131.858ZM-9.71386 132.467C-9.52082 142.94 -6.51705 151.347 -1.1825 157.964C4.14799 164.576 11.7789 169.368 21.1739 172.664L21.4753 171.805C12.1914 168.548 4.72203 163.837 -0.47368 157.392C-5.66533 150.953 -8.61373 142.748 -8.80354 132.45L-9.71386 132.467ZM63.5444 197.487C86.353 197.359 100.591 185.99 105.901 170.579L105.04 170.283C99.8688 185.29 86.0031 196.45 63.5393 196.576L63.5444 197.487ZM105.273 170.021C95.26 174.833 81.7654 177.566 65.031 177.659L65.0361 178.57C81.8567 178.475 95.4956 175.73 105.668 170.841L105.273 170.021ZM65.031 177.659C48.5494 177.752 33.6809 175.974 21.4717 171.804L21.1775 172.665C33.5165 176.88 48.4955 178.663 65.0361 178.57L65.031 177.659ZM20.9119 172.427C28.5439 188.811 43.1495 197.601 63.5444 197.487L63.5393 196.576C43.4552 196.689 29.2009 188.065 21.7373 172.042L20.9119 172.427ZM190.291 33.6007L189.892 33.3813L189.227 34.5906L190.481 34.0143L190.291 33.6007ZM289.353 32.2459L289.165 32.6606L290.437 33.2372L289.749 32.0216L289.353 32.2459ZM290.104 166.199L289.702 165.986L289.079 167.16L290.291 166.614L290.104 166.199ZM289.353 32.2459L289.535 31.8287L288.303 31.2909L288.955 32.4666L289.353 32.2459ZM193.168 166.743L192.986 167.16L194.28 167.727L193.56 166.511L193.168 166.743ZM190.291 33.6007L190.694 33.812L191.327 32.6047L190.095 33.1895L190.291 33.6007ZM290.104 166.199L290.507 166.412L291.141 165.213L289.912 165.787L290.104 166.199ZM193.168 166.743L193.353 166.327L192.058 165.752L192.776 166.974L193.168 166.743ZM190.481 34.0143C204.49 27.5755 221.715 24.0259 240.837 23.9186L240.831 23.0081C221.605 23.116 204.248 26.6847 190.1 33.187L190.481 34.0143ZM240.837 23.9186C259.435 23.8143 275.892 26.6452 289.165 32.6606L289.541 31.8313C276.114 25.7459 259.517 22.9033 240.831 23.0081L240.837 23.9186ZM289.749 32.0216C279.458 13.8461 263.541 2.64064 240.718 2.76869L240.723 3.67915C263.172 3.5532 278.805 14.5414 288.957 32.4702L289.749 32.0216ZM240.718 2.76869C216.568 2.90418 200.244 14.5524 189.892 33.3813L190.69 33.82C200.9 15.2492 216.937 3.8126 240.723 3.67915L240.718 2.76869ZM290.291 166.614C303.251 160.782 313.464 152.077 320.41 140.567C327.354 129.059 331.018 114.771 330.922 97.793L330.012 97.7981C330.106 114.642 326.472 128.758 319.63 140.097C312.789 151.434 302.726 160.02 289.918 165.784L290.291 166.614ZM330.922 97.793C330.832 81.61 327.009 67.9615 319.937 56.9312C312.863 45.9 302.555 37.5133 289.535 31.8287L289.171 32.6631C302.047 38.2849 312.206 46.5614 319.17 57.4226C326.135 68.2846 329.922 81.7578 330.012 97.7981L330.922 97.793ZM288.955 32.4666C298.32 49.3656 302.705 72.4252 302.848 97.9505L303.759 97.9454C303.615 72.3395 299.219 49.1092 289.751 32.0253L288.955 32.4666ZM302.848 97.9505C302.999 124.811 298.876 148.717 289.702 165.986L290.507 166.413C299.78 148.957 303.91 124.879 303.759 97.9454L302.848 97.9505ZM193.56 166.511C183.397 149.349 177.946 125.498 177.795 98.6521L176.885 98.6572C177.036 125.606 182.506 149.631 192.776 166.975L193.56 166.511ZM177.795 98.6521C177.653 73.3957 181.782 50.8174 190.694 33.812L189.887 33.3894C180.882 50.5731 176.742 73.315 176.885 98.6572L177.795 98.6521ZM190.095 33.1895C164.971 45.1219 149.545 67.4717 149.721 98.8096L150.631 98.8045C150.458 67.8262 165.675 45.7955 190.486 34.0119L190.095 33.1895ZM149.721 98.8096C149.816 115.795 153.976 129.975 161.451 141.369C168.927 152.763 179.701 161.345 192.986 167.16L193.351 166.326C180.205 160.572 169.578 152.096 162.213 140.87C154.847 129.643 150.726 115.64 150.631 98.8045L149.721 98.8096ZM241.805 196.487C264.626 196.359 280.686 184.975 290.507 166.412L289.702 165.986C280.022 184.284 264.251 195.45 241.8 195.576L241.805 196.487ZM289.912 165.787C276.708 171.951 260.283 174.966 241.685 175.07L241.69 175.981C260.375 175.876 276.939 172.847 290.297 166.612L289.912 165.787ZM241.685 175.07C223.354 175.173 206.895 172.343 193.353 166.327L192.983 167.159C206.674 173.241 223.269 176.084 241.69 175.981L241.685 175.07ZM192.776 166.974C203.599 185.405 220.045 196.609 241.805 196.487L241.8 195.576C220.417 195.696 204.248 184.713 193.561 166.513L192.776 166.974ZM386.264 166.192L386.065 166.602L387.075 167.092L386.691 166.037L386.264 166.192ZM383.498 5.61866L383.954 5.6161L383.951 5.16087L383.496 5.16343L383.498 5.61866ZM360.596 5.74715L360.593 5.29192L360.138 5.29448L360.141 5.74971L360.596 5.74715ZM479.205 165.671L478.776 165.52L478.411 166.56L479.403 166.081L479.205 165.671ZM503.604 4.94481L504.059 4.94225L504.056 4.48702L503.601 4.48958L503.604 4.94481ZM480.169 5.07629L480.166 4.62106L479.711 4.62361L479.713 5.07884L480.169 5.07629ZM479.205 165.671L479.641 165.804L479.949 164.795L479.003 165.263L479.205 165.671ZM386.264 166.192L386.461 165.782L385.49 165.315L385.832 166.337L386.264 166.192ZM386.691 166.037C385.361 162.376 384.811 158.438 384.789 154.483L383.878 154.488C383.901 158.521 384.461 162.567 385.836 166.348L386.691 166.037ZM384.789 154.483L383.954 5.6161L383.043 5.62121L383.878 154.488L384.789 154.483ZM383.496 5.16343L360.593 5.29192L360.598 6.20238L383.501 6.07388L383.496 5.16343ZM360.141 5.74971L360.815 125.855L361.725 125.85L361.051 5.7446L360.141 5.74971ZM360.815 125.855C360.868 135.379 363.061 143.575 367.312 150.392C371.562 157.209 377.855 162.621 386.065 166.602L386.462 165.783C378.383 161.865 372.231 156.561 368.084 149.91C363.937 143.259 361.778 135.234 361.725 125.85L360.815 125.855ZM479.403 166.081C487.837 162.007 494.202 156.457 498.443 149.558C502.684 142.66 504.785 134.439 504.733 125.047L503.822 125.053C503.874 134.303 501.806 142.351 497.668 149.081C493.53 155.812 487.307 161.252 479.007 165.261L479.403 166.081ZM504.733 125.047L504.059 4.94225L503.148 4.94736L503.822 125.053L504.733 125.047ZM503.601 4.48958L480.166 4.62106L480.171 5.53152L503.606 5.40003L503.601 4.48958ZM479.713 5.07884L480.549 153.945L481.459 153.94L480.624 5.07373L479.713 5.07884ZM480.549 153.945C480.571 157.901 480.065 161.845 478.776 165.52L479.635 165.822C480.967 162.026 481.482 157.974 481.459 153.94L480.549 153.945ZM432.767 195.415C458.228 195.272 474.604 182.301 479.641 165.804L478.77 165.538C473.87 181.588 457.899 194.364 432.762 194.505L432.767 195.415ZM479.003 165.263C467.668 170.878 452.049 173.89 432.647 173.999L432.652 174.909C452.13 174.8 467.903 171.778 479.407 166.079L479.003 165.263ZM432.647 173.999C413.511 174.106 397.859 171.269 386.461 165.782L386.066 166.603C397.634 172.172 413.439 175.017 432.652 174.909L432.647 173.999ZM385.832 166.337C391.32 182.764 407.832 195.555 432.767 195.415L432.762 194.505C408.162 194.643 392.042 182.05 386.695 166.048L385.832 166.337ZM547.33 191.121L546.874 191.124L546.877 191.579L547.332 191.577L547.33 191.121ZM672.495 190.419L672.497 190.874L672.953 190.872L672.95 190.417L672.495 190.419ZM672.389 171.511L672.844 171.509L672.841 171.053L672.386 171.056L672.389 171.511ZM569.594 172.088L569.138 172.091L569.141 172.546L569.596 172.543L569.594 172.088ZM568.654 4.57984L569.109 4.57729L569.106 4.12206L568.651 4.12461L568.654 4.57984ZM546.284 4.70535L546.281 4.25012L545.826 4.25267L545.829 4.7079L546.284 4.70535ZM547.332 191.577L672.497 190.874L672.492 189.964L547.327 190.666L547.332 191.577ZM672.95 190.417L672.844 171.509L671.933 171.514L672.04 190.422L672.95 190.417ZM672.386 171.056L569.591 171.633L569.596 172.543L672.391 171.966L672.386 171.056ZM570.049 172.085L569.109 4.57729L568.199 4.5824L569.138 172.091L570.049 172.085ZM568.651 4.12461L546.281 4.25012L546.286 5.16058L568.656 5.03507L568.651 4.12461ZM545.829 4.7079L546.874 191.124L547.785 191.119L546.739 4.70279L545.829 4.7079Z" fill="#FF3E12"/>
</svg>
