<svg width="1129" height="931" viewBox="0 0 1129 931" fill="none" xmlns="http://www.w3.org/2000/svg">
<path d="M59.995 56.055L59.0517 55.7231L58.2895 57.8893L60.3946 56.9717L59.995 56.055ZM236.665 55.47L236.316 56.4072L238.348 57.1631L237.604 55.127L236.665 55.47ZM243.685 130.935L242.688 130.858L242.605 131.935H243.685V130.935ZM300.43 130.935V131.935H301.463L301.43 130.903L300.43 130.935ZM236.665 55.47L237.016 54.5337L234.992 53.7745L235.724 55.8087L236.665 55.47ZM251.875 366.105L250.939 365.754L250.081 368.04L252.296 367.012L251.875 366.105ZM213.265 198.21L213.633 197.28L213.63 197.279L213.265 198.21ZM134.29 167.205L134.655 166.274L134.651 166.272L134.29 167.205ZM59.995 56.055L60.9367 56.3913L61.6957 54.2663L59.6116 55.1314L59.995 56.055ZM99.19 208.155L98.826 209.086L98.8306 209.088L99.19 208.155ZM178.165 238.575L177.806 239.508L177.808 239.509L178.165 238.575ZM67.015 369.03L66.6787 369.972L68.8865 370.76L67.9275 368.621L67.015 369.03ZM57.07 281.28L58.0612 281.412L58.2122 280.28H57.07V281.28ZM0.325001 281.28V280.28H-0.687902L-0.674917 281.293L0.325001 281.28ZM251.875 366.105L252.819 366.436L253.612 364.176L251.447 365.201L251.875 366.105ZM67.015 369.03L67.3435 368.086L65.1273 367.315L66.1062 369.447L67.015 369.03ZM60.3946 56.9717C83.0356 47.1025 112.718 42.43 147.745 42.43V40.43C112.572 40.43 82.5844 45.1175 59.5954 55.1383L60.3946 56.9717ZM147.745 42.43C180.419 42.43 211.3 47.099 236.316 56.4072L237.014 54.5328C211.72 45.121 180.591 40.43 147.745 40.43V42.43ZM237.604 55.127C230.811 36.5199 220.006 22.5816 205.241 13.3076C190.488 4.04064 171.862 -0.520007 149.5 -0.520007V1.47999C171.598 1.47999 189.827 5.98684 204.177 15.0012C218.517 24.0083 229.064 37.5651 235.726 55.8129L237.604 55.127ZM149.5 -0.520007C101.157 -0.520007 70.3237 23.6868 59.0517 55.7231L60.9383 56.3869C71.8963 25.2432 101.903 1.47999 149.5 1.47999V-0.520007ZM243.685 131.935H300.43V129.935H243.685V131.935ZM301.43 130.903C300.242 94.0776 274.671 68.6544 237.016 54.5337L236.314 56.4063C273.539 70.3656 298.278 95.2524 299.431 130.967L301.43 130.903ZM235.724 55.8087C240.942 70.3016 243.855 88.3176 243.855 109.29H245.855C245.855 88.1424 242.918 69.8884 237.606 55.1313L235.724 55.8087ZM243.855 109.29C243.855 116.263 243.274 123.24 242.688 130.858L244.682 131.012C245.266 123.42 245.855 116.357 245.855 109.29H243.855ZM252.296 367.012C268.81 359.345 281.251 349.144 289.561 336.754C297.873 324.36 302.015 309.829 302.015 293.565H300.015C300.015 309.476 295.967 323.61 287.9 335.64C279.829 347.673 267.7 357.655 251.454 365.198L252.296 367.012ZM302.015 293.565C302.015 248.448 266.952 218.373 213.633 197.28L212.897 199.14C266.048 220.167 300.015 249.762 300.015 293.565H302.015ZM213.63 197.279L134.655 166.274L133.925 168.136L212.9 199.141L213.63 197.279ZM134.651 166.272C107.45 155.743 87.8837 146.151 75.1017 133.586C62.3867 121.086 56.315 105.568 56.315 82.965H54.315C54.315 105.992 60.5283 122.064 73.6996 135.012C86.8038 147.894 106.725 157.607 133.929 168.138L134.651 166.272ZM56.315 82.965C56.315 73.7251 58.0484 64.4786 60.9367 56.3913L59.0533 55.7186C56.0916 64.0113 54.315 73.4849 54.315 82.965H56.315ZM59.6116 55.1314C43.985 61.6179 31.6834 70.4906 23.2881 81.7834C14.886 93.0853 10.44 106.754 10.44 122.745H12.44C12.44 107.146 16.769 93.9047 24.8932 82.9766C33.0241 72.0394 45 63.3621 60.3784 56.9786L59.6116 55.1314ZM10.44 122.745C10.44 143.861 19.8276 160.498 35.5696 174.318C51.2791 188.11 73.3488 199.13 98.826 209.086L99.554 207.224C74.1363 197.29 52.3309 186.372 36.8891 172.815C21.4799 159.287 12.44 143.164 12.44 122.745H10.44ZM98.8306 209.088L177.806 239.508L178.524 237.642L99.5495 207.222L98.8306 209.088ZM177.808 239.509C203.796 249.437 223.354 260.189 236.427 274.995C249.466 289.763 256.14 308.667 256.14 335.1H258.14C258.14 308.298 251.359 288.884 237.927 273.671C224.528 258.496 204.599 247.603 178.522 237.641L177.808 239.509ZM256.14 335.1C256.14 346.112 254.401 356.521 250.939 365.754L252.811 366.456C256.369 356.969 258.14 346.318 258.14 335.1H256.14ZM67.9275 368.621C60.3982 351.825 56.9 331.501 56.9 307.02H54.9C54.9 331.679 58.4218 352.305 66.1025 369.439L67.9275 368.621ZM56.9 307.02C56.9 298.82 56.9014 290.111 58.0612 281.412L56.0788 281.148C54.8986 289.999 54.9 298.84 54.9 307.02H56.9ZM57.07 280.28H0.325001V282.28H57.07V280.28ZM-0.674917 281.293C-0.379951 304.3 6.11462 322.804 17.7511 337.405C29.3787 351.995 46.0819 362.616 66.6787 369.972L67.3513 368.088C46.9981 360.819 30.6488 350.38 19.3152 336.159C7.99039 321.949 1.61495 303.89 1.32492 281.267L-0.674917 281.293ZM159.445 425.02C209.549 425.02 240.963 400.223 252.819 366.436L250.931 365.774C239.387 398.677 208.791 423.02 159.445 423.02V425.02ZM251.447 365.201C229.392 375.648 199.715 381.485 162.955 381.485V383.485C199.905 383.485 229.898 377.622 252.303 367.009L251.447 365.201ZM162.955 381.485C126.75 381.485 94.1111 377.396 67.3435 368.086L66.6865 369.974C93.7389 379.384 126.62 383.485 162.955 383.485V381.485ZM66.1062 369.447C82.6689 405.53 114.644 425.02 159.445 425.02V423.02C115.326 423.02 84.1211 403.9 67.9238 368.613L66.1062 369.447ZM439.879 66.585L439.006 66.0983L437.53 68.7464L440.292 67.4959L439.879 66.585ZM657.499 64.83L657.081 65.7385L659.869 67.0208L658.372 64.3421L657.499 64.83ZM657.499 359.085L656.619 358.611L655.234 361.183L657.905 359.999L657.499 359.085ZM657.499 64.83L657.905 63.9158L655.205 62.7191L656.622 65.3098L657.499 64.83ZM444.559 359.085L444.153 359.999L446.989 361.259L445.423 358.58L444.559 359.085ZM439.879 66.585L440.762 67.0541L442.167 64.4099L439.455 65.6793L439.879 66.585ZM657.499 359.085L658.381 359.558L659.789 356.931L657.081 358.177L657.499 359.085ZM444.559 359.085L444.97 358.173L442.133 356.894L443.694 359.587L444.559 359.085ZM440.292 67.4959C471.145 53.5248 509.025 45.94 551.029 45.94V43.94C508.794 43.94 470.624 51.5651 439.467 65.674L440.292 67.4959ZM551.029 45.94C591.884 45.94 628.001 52.3613 657.081 65.7385L657.917 63.9215C628.498 50.3887 592.075 43.94 551.029 43.94V45.94ZM658.372 64.3421C635.99 24.2904 601.165 -0.520007 551.029 -0.520007V1.47999C600.344 1.47999 634.548 25.8096 656.626 65.3178L658.372 64.3421ZM551.029 -0.520007C497.979 -0.520007 461.978 24.8657 439.006 66.0983L440.753 67.0717C463.41 26.4043 498.78 1.47999 551.029 1.47999V-0.520007ZM657.905 359.999C686.444 347.348 708.985 328.353 724.385 303.154C739.781 277.96 748.004 246.62 748.004 209.325H746.004C746.004 246.325 737.848 277.288 722.678 302.111C707.511 326.93 685.299 345.667 657.094 358.171L657.905 359.999ZM748.004 209.325C748.004 173.776 739.777 143.748 724.376 119.431C708.974 95.1126 686.435 76.5631 657.905 63.9158L657.094 65.7442C685.309 78.2518 707.522 96.5574 722.686 120.501C737.852 144.447 746.004 174.089 746.004 209.325H748.004ZM656.622 65.3098C676.986 102.546 686.334 153.253 686.334 209.325H688.334C688.334 153.077 678.963 101.994 658.377 64.3502L656.622 65.3098ZM686.334 209.325C686.334 268.329 676.983 320.792 656.619 358.611L658.38 359.559C678.966 321.328 688.334 268.49 688.334 209.325H686.334ZM445.423 358.58C423.31 320.755 411.629 268.296 411.629 209.325H409.629C409.629 268.524 421.349 321.365 443.696 359.59L445.423 358.58ZM411.629 209.325C411.629 153.844 420.976 104.299 440.762 67.0541L438.996 66.1158C419.003 103.751 409.629 153.656 409.629 209.325H411.629ZM439.455 65.6793C384.12 91.5809 349.959 140.485 349.959 209.325H351.959C351.959 141.275 385.659 93.0691 440.303 67.4907L439.455 65.6793ZM349.959 209.325C349.959 246.637 358.922 277.837 375.202 302.957C391.482 328.077 415.044 347.061 444.153 359.999L444.966 358.171C416.16 345.369 392.922 326.621 376.88 301.869C360.839 277.118 351.959 246.308 351.959 209.325H349.959ZM551.029 425.02C601.16 425.02 636.58 400.213 658.381 359.558L656.618 358.612C635.129 398.687 600.349 423.02 551.029 423.02V425.02ZM657.081 358.177C628.001 371.554 591.884 377.975 551.029 377.975V379.975C592.075 379.975 628.498 373.526 657.917 359.993L657.081 358.177ZM551.029 377.975C510.763 377.975 474.642 371.555 444.97 358.173L444.148 359.997C474.147 373.525 510.566 379.975 551.029 379.975V377.975ZM443.694 359.587C467.242 400.206 503.229 425.02 551.029 425.02V423.02C504.059 423.02 468.677 398.694 445.425 358.583L443.694 359.587ZM868.726 360.255L868.284 361.152L870.496 362.24L869.667 359.919L868.726 360.255ZM864.63 7.49997H865.63V6.49997H864.63V7.49997ZM814.32 7.49997V6.49997H813.32V7.49997H814.32ZM1072.89 360.255L1071.95 359.919L1071.13 362.199L1073.32 361.158L1072.89 360.255ZM1128.47 7.49997H1129.47V6.49997H1128.47V7.49997ZM1076.99 7.49997V6.49997H1075.99V7.49997H1076.99ZM1072.89 360.255L1073.85 360.552L1074.53 358.339L1072.45 359.356L1072.89 360.255ZM868.726 360.255L869.164 359.356L867.038 358.318L867.775 360.567L868.726 360.255ZM869.667 359.919C866.789 351.861 865.63 343.204 865.63 334.515H863.63C863.63 343.376 864.812 352.269 867.784 360.591L869.667 359.919ZM865.63 334.515V7.49997H863.63V334.515H865.63ZM864.63 6.49997H814.32V8.49997H864.63V6.49997ZM813.32 7.49997V271.335H815.32V7.49997H813.32ZM813.32 271.335C813.32 292.256 818.036 310.287 827.29 325.314C836.543 340.342 850.299 352.307 868.284 361.152L869.167 359.358C851.467 350.653 838.02 338.926 828.993 324.265C819.965 309.603 815.32 291.949 815.32 271.335H813.32ZM1073.32 361.158C1091.9 352.313 1105.95 340.2 1115.35 325.099C1124.75 309.998 1129.47 291.965 1129.47 271.335H1127.47C1127.47 291.655 1122.82 309.307 1113.65 324.042C1104.48 338.775 1090.74 350.647 1072.46 359.352L1073.32 361.158ZM1129.47 271.335V7.49997H1127.47V271.335H1129.47ZM1128.47 6.49997H1076.99V8.49997H1128.47V6.49997ZM1075.99 7.49997V334.515H1077.99V7.49997H1075.99ZM1075.99 334.515C1075.99 343.204 1074.83 351.861 1071.95 359.919L1073.83 360.591C1076.8 352.269 1077.99 343.376 1077.99 334.515H1075.99ZM970.516 425.02C1026.45 425.02 1062.58 396.728 1073.85 360.552L1071.94 359.958C1060.97 395.152 1025.73 423.02 970.516 423.02V425.02ZM1072.45 359.356C1047.48 371.55 1013.14 377.975 970.516 377.975V379.975C1013.3 379.975 1047.99 373.53 1073.33 361.154L1072.45 359.356ZM970.516 377.975C928.481 377.975 894.133 371.55 869.164 359.356L868.287 361.154C893.628 373.53 928.31 379.975 970.516 379.975V377.975ZM867.775 360.567C879.629 396.72 915.742 425.02 970.516 425.02V423.02C916.479 423.02 881.222 395.16 869.676 359.943L867.775 360.567ZM20.8 931H19.8V932H20.8V931ZM295.75 931V932H296.75V931H295.75ZM295.75 889.465H296.75V888.465H295.75V889.465ZM69.94 889.465H68.94V890.465H69.94V889.465ZM69.94 521.5H70.94V520.5H69.94V521.5ZM20.8 521.5V520.5H19.8V521.5H20.8ZM20.8 932H295.75V930H20.8V932ZM296.75 931V889.465H294.75V931H296.75ZM295.75 888.465H69.94V890.465H295.75V888.465ZM70.94 889.465V521.5H68.94V889.465H70.94ZM69.94 520.5H20.8V522.5H69.94V520.5ZM19.8 521.5V931H21.8V521.5H19.8ZM408.929 728.005L408.692 728.977L409.964 729.287L409.929 727.978L408.929 728.005ZM389.624 665.995L388.747 666.475L388.748 666.478L389.624 665.995ZM310.649 521.5L311.527 521.02L311.242 520.5H310.649V521.5ZM255.074 521.5V520.5H254.074V521.5H255.074ZM255.074 522.085H254.074V522.359L254.214 522.595L255.074 522.085ZM352.184 685.885L351.324 686.395L351.329 686.403L352.184 685.885ZM455.144 728.005L454.145 727.978L454.11 729.263L455.364 728.981L455.144 728.005ZM509.549 686.47L510.395 687.004L510.397 687.001L509.549 686.47ZM612.509 522.085L613.357 522.616L613.509 522.372V522.085H612.509ZM612.509 521.5H613.509V520.5H612.509V521.5ZM556.934 521.5V520.5H556.354L556.066 521.004L556.934 521.5ZM474.449 665.995L475.317 666.491L475.318 666.491L474.449 665.995ZM408.929 931H407.929V932H408.929V931ZM455.144 931V932H456.144V931H455.144ZM455.144 728.005H456.144V726.724L454.902 727.035L455.144 728.005ZM408.929 728.005L409.172 727.035L407.929 726.724V728.005H408.929ZM409.929 727.978C409.635 717.11 408.752 708.676 405.938 699.344C403.128 690.028 398.408 679.864 390.5 665.512L388.748 666.478C396.635 680.791 401.275 690.809 404.023 699.921C406.766 709.016 407.638 717.255 407.93 728.032L409.929 727.978ZM390.502 665.515L311.527 521.02L309.772 521.98L388.747 666.475L390.502 665.515ZM310.649 520.5H255.074V522.5H310.649V520.5ZM254.074 521.5V522.085H256.074V521.5H254.074ZM254.214 522.595L351.324 686.395L353.044 685.375L255.934 521.575L254.214 522.595ZM351.329 686.403C364.919 708.856 384.444 723.062 408.692 728.977L409.166 727.034C385.444 721.248 366.359 707.374 353.04 685.367L351.329 686.403ZM455.364 728.981C479.085 723.643 496.251 709.398 510.395 687.004L508.704 685.936C494.767 708.002 478.003 721.837 454.925 727.029L455.364 728.981ZM510.397 687.001L613.357 522.616L611.662 521.554L508.702 685.939L510.397 687.001ZM613.509 522.085V521.5H611.509V522.085H613.509ZM612.509 520.5H556.934V522.5H612.509V520.5ZM556.066 521.004L473.581 665.499L475.318 666.491L557.803 521.996L556.066 521.004ZM473.581 665.499C465.376 679.858 460.652 690.027 457.914 699.351C455.173 708.687 454.438 717.123 454.145 727.978L456.144 728.032C456.435 717.242 457.163 709.006 459.833 699.914C462.506 690.81 467.142 680.797 475.317 666.491L473.581 665.499ZM408.929 932H455.144V930H408.929V932ZM456.144 931V728.005H454.144V931H456.144ZM454.902 727.035C447.992 728.762 440.477 729.345 432.329 729.345V731.345C440.561 731.345 448.257 730.758 455.387 728.975L454.902 727.035ZM432.329 729.345C424.176 729.345 416.078 728.761 409.172 727.035L408.687 728.975C415.82 730.759 424.103 731.345 432.329 731.345V729.345ZM407.929 728.005V931H409.929V728.005H407.929ZM772.991 697.585L772.782 698.563L774.113 698.848L773.987 697.492L772.991 697.585ZM745.496 618.025L744.655 618.565L744.656 618.568L745.496 618.025ZM683.486 521.5L684.328 520.959L684.032 520.5H683.486V521.5ZM621.476 521.5V520.5H620.476V521.5H621.476ZM621.476 522.67H620.476V522.984L620.656 523.242L621.476 522.67ZM716.831 659.56L717.66 659L717.652 658.988L716.831 659.56ZM822.716 697.585L821.726 697.444L821.534 698.791L822.877 698.572L822.716 697.585ZM881.216 659.56L880.388 659L880.388 659L881.216 659.56ZM974.231 522.085L975.059 522.645L975.231 522.391V522.085H974.231ZM974.231 521.5H975.231V520.5H974.231V521.5ZM916.901 521.5V520.5H916.362L916.065 520.951L916.901 521.5ZM853.136 618.61L853.971 619.161L853.972 619.159L853.136 618.61ZM772.406 748.48L771.416 748.339L771.213 749.758L772.616 749.458L772.406 748.48ZM822.716 748.48L822.507 749.458L823.909 749.758L823.706 748.339L822.716 748.48ZM822.716 697.585L823.708 697.709L823.886 696.289L822.491 696.611L822.716 697.585ZM772.991 697.585L773.216 696.611L771.809 696.286L772 697.717L772.991 697.585ZM606.851 931H605.851V932H606.851V931ZM667.691 931V932H668.223L668.52 931.559L667.691 931ZM739.061 825.115L739.89 825.674L739.891 825.673L739.061 825.115ZM772.406 748.48L773.395 748.628L773.605 747.226L772.214 747.499L772.406 748.48ZM698.696 801.13L697.885 800.544L697.881 800.551L698.696 801.13ZM606.851 930.415L606.036 929.836L605.851 930.096V930.415H606.851ZM930.356 931L929.533 931.568L929.831 932H930.356V931ZM990.026 931V932H991.026V931H990.026ZM990.026 930.415H991.026V930.094L990.839 929.833L990.026 930.415ZM897.011 800.545L896.197 801.126L896.198 801.127L897.011 800.545ZM822.716 748.48L822.884 747.494L821.522 747.262L821.727 748.628L822.716 748.48ZM860.156 829.21L859.333 829.778L860.156 829.21ZM773.987 697.492C771.634 672.203 764.571 645.718 746.336 617.482L744.656 618.568C762.691 646.492 769.668 672.657 771.995 697.678L773.987 697.492ZM746.338 617.484L684.328 520.959L682.645 522.04L744.655 618.565L746.338 617.484ZM683.486 520.5H621.476V522.5H683.486V520.5ZM620.476 521.5V522.67H622.476V521.5H620.476ZM620.656 523.242L716.011 660.132L717.652 658.988L622.297 522.098L620.656 523.242ZM716.003 660.12C729.597 680.216 747.949 693.242 772.782 698.563L773.201 696.607C748.893 691.398 730.976 678.684 717.659 659L716.003 660.12ZM822.877 698.572C848.316 694.431 867.272 681.983 882.045 660.12L880.388 659C865.91 680.427 847.427 692.549 822.556 696.598L822.877 698.572ZM882.044 660.12L975.059 522.645L973.403 521.525L880.388 659L882.044 660.12ZM975.231 522.085V521.5H973.231V522.085H975.231ZM974.231 520.5H916.901V522.5H974.231V520.5ZM916.065 520.951L852.3 618.061L853.972 619.159L917.737 522.049L916.065 520.951ZM852.301 618.059C834.079 645.687 825.256 672.738 821.726 697.444L823.706 697.726C827.197 673.292 835.923 646.523 853.971 619.161L852.301 618.059ZM772.616 749.458C780.715 747.722 788.83 747.14 797.561 747.14V745.14C788.742 745.14 780.477 745.728 772.197 747.502L772.616 749.458ZM797.561 747.14C806.292 747.14 814.407 747.722 822.507 749.458L822.926 747.502C814.645 745.728 806.38 745.14 797.561 745.14V747.14ZM823.706 748.339C822.543 740.195 821.961 732.052 821.961 723.91H819.961C819.961 732.148 820.55 740.385 821.726 748.621L823.706 748.339ZM821.961 723.91C821.961 715.767 822.543 707.034 823.708 697.709L821.724 697.461C820.549 706.856 819.961 715.673 819.961 723.91H821.961ZM822.491 696.611C814.992 698.341 806.302 698.925 797.561 698.925V700.925C806.371 700.925 815.231 700.339 822.941 698.559L822.491 696.611ZM797.561 698.925C788.826 698.925 780.719 698.342 773.216 696.611L772.766 698.559C780.474 700.338 788.747 700.925 797.561 700.925V698.925ZM772 697.717C773.16 706.416 773.161 715.124 773.161 723.91H775.161C775.161 715.146 775.163 706.304 773.982 697.453L772 697.717ZM773.161 723.91C773.161 732.635 772.58 740.193 771.416 748.339L773.396 748.621C774.573 740.387 775.161 732.734 775.161 723.91H773.161ZM606.851 932H667.691V930H606.851V932ZM668.52 931.559L739.89 825.674L738.232 824.556L666.862 930.441L668.52 931.559ZM739.891 825.673C760.42 795.173 769.857 772.219 773.395 748.628L771.417 748.332C767.936 771.541 758.652 794.217 738.232 824.557L739.891 825.673ZM772.214 747.499C744.999 752.823 720.812 768.8 697.885 800.544L699.507 801.715C722.21 770.28 745.993 754.667 772.598 749.461L772.214 747.499ZM697.881 800.551L606.036 929.836L607.666 930.994L699.511 801.709L697.881 800.551ZM605.851 930.415V931H607.851V930.415H605.851ZM930.356 932H990.026V930H930.356V932ZM991.026 931V930.415H989.026V931H991.026ZM990.839 929.833L897.824 799.963L896.198 801.127L989.213 930.997L990.839 929.833ZM897.825 799.964C874.306 767.037 850.693 752.228 822.884 747.494L822.548 749.466C849.73 754.092 872.916 768.533 896.197 801.126L897.825 799.964ZM821.727 748.628C825.27 772.245 835.895 795.792 859.333 829.778L860.979 828.642C837.618 794.768 827.183 771.515 823.705 748.332L821.727 748.628ZM859.333 829.778L929.533 931.568L931.179 930.432L860.979 828.642L859.333 829.778Z" fill="#FF3E12"/>
</svg>
