<svg width="1129" height="932" viewBox="0 0 1129 932" fill="none" xmlns="http://www.w3.org/2000/svg">
<path d="M59.979 55.9453L59.037 55.6097L58.2717 57.7575L60.3701 56.8656L59.979 55.9453ZM91.6855 15.9551L92.2378 16.7887L92.2402 16.7871L91.6855 15.9551ZM236.793 55.374L236.454 56.3148L238.477 57.0435L237.731 55.0272L236.793 55.374ZM243.648 131.07L242.651 130.996L242.572 132.07H243.648V131.07ZM236.793 55.374L237.142 54.4369L235.155 53.6967L235.848 55.7007L236.793 55.374ZM282.782 85.6523L282.026 86.3077L282.031 86.3132L282.782 85.6523ZM300.492 131.07V132.07H301.525L301.491 131.037L300.492 131.07ZM251.932 366.155L250.991 365.817L250.173 368.088L252.358 367.06L251.932 366.155ZM248.219 291.316L247.319 291.752L247.324 291.764L248.219 291.316ZM222.511 261.324L221.922 262.132L221.928 262.137L222.511 261.324ZM178.236 238.472L178.595 237.539L178.593 237.538L178.236 238.472ZM99.1123 208.194L98.7495 209.126L98.7549 209.128L99.1123 208.194ZM59.979 55.9453L60.9235 56.2738L61.6562 54.1673L59.596 55.0216L59.979 55.9453ZM63.4067 120.215L62.5263 120.689L62.5317 120.7L62.5374 120.71L63.4067 120.215ZM88.2578 145.352L87.72 146.195L87.7265 146.199L88.2578 145.352ZM134.247 167.347L133.882 168.278L133.883 168.278L134.247 167.347ZM213.37 198.196L213.743 197.268L213.733 197.265L213.37 198.196ZM278.211 238.472L277.496 239.171L277.5 239.175L278.211 238.472ZM288.495 336.448L287.667 335.888L287.665 335.891L288.495 336.448ZM67.1201 369.012L66.7856 369.954L69.016 370.746L68.029 368.595L67.1201 369.012ZM0.279297 281.319V280.319H-0.734125L-0.720613 281.332L0.279297 281.319ZM57.1226 281.319L58.1143 281.447L58.2599 280.319H57.1226V281.319ZM102.826 410.145L102.305 410.998L102.313 411.003L102.826 410.145ZM67.1201 369.012L67.4511 368.068L65.2329 367.29L66.2107 369.428L67.1201 369.012ZM251.932 366.155L252.877 366.484L253.662 364.227L251.503 365.252L251.932 366.155ZM219.083 408.431L219.635 409.264L219.642 409.26L219.083 408.431ZM60.921 56.281C66.7487 39.9257 77.1763 26.767 92.2378 16.7887L91.1333 15.1214C75.7261 25.3287 65.0159 38.8301 59.037 55.6097L60.921 56.281ZM92.2402 16.7871C107.465 6.63739 126.493 1.53027 149.386 1.53027V-0.469727C126.194 -0.469727 106.756 4.70636 91.1308 15.123L92.2402 16.7871ZM149.386 1.53027C171.629 1.53027 189.902 6.07351 204.269 15.0883C218.626 24.0962 229.161 37.6177 235.855 55.7209L237.731 55.0272C230.905 36.5679 220.112 22.6675 205.332 13.3941C190.564 4.12767 171.894 -0.469727 149.386 -0.469727V1.53027ZM237.132 54.4332C211.104 45.0555 181.279 40.3774 147.672 40.3774V42.3774C181.096 42.3774 210.685 47.0304 236.454 56.3148L237.132 54.4332ZM147.672 40.3774C111.981 40.3774 82.6045 45.2429 59.5879 55.025L60.3701 56.8656C83.0566 47.2239 112.142 42.3774 147.672 42.3774V40.3774ZM244.646 131.144C245.407 120.861 245.791 113.591 245.791 109.361H243.791C243.791 113.509 243.413 120.712 242.651 130.996L244.646 131.144ZM245.791 109.361C245.791 88.7109 243.115 70.6005 237.738 55.0473L235.848 55.7007C241.135 70.9972 243.791 88.878 243.791 109.361H245.791ZM236.444 56.3111C255.743 63.5011 270.921 73.5088 282.026 86.3077L283.537 84.997C272.171 71.8975 256.69 61.7196 237.142 54.4369L236.444 56.3111ZM282.031 86.3132C293.108 98.892 298.928 113.807 299.492 131.102L301.491 131.037C300.913 113.294 294.926 97.9302 283.532 84.9915L282.031 86.3132ZM300.492 130.07H243.648V132.07H300.492V130.07ZM252.873 366.494C256.344 356.853 258.074 346.358 258.074 335.02H256.074C256.074 346.153 254.376 356.415 250.991 365.817L252.873 366.494ZM258.074 335.02C258.074 317.582 255.104 302.851 249.113 290.869L247.324 291.764C253.14 303.395 256.074 317.799 256.074 335.02H258.074ZM249.119 290.881C243.328 278.913 234.645 268.789 223.093 260.511L221.928 262.137C233.228 270.235 241.684 280.106 247.319 291.752L249.119 290.881ZM223.1 260.516C211.771 252.259 196.928 244.605 178.595 237.539L177.876 239.405C196.106 246.431 210.779 254.011 221.922 262.132L223.1 260.516ZM178.593 237.538L99.4697 207.26L98.7549 209.128L177.878 239.406L178.593 237.538ZM99.4751 207.262C71.1603 196.24 49.5707 184.105 34.6485 170.883L33.3222 172.38C48.4879 185.818 70.3162 198.058 98.7496 209.126L99.4751 207.262ZM34.6485 170.883C19.8078 157.733 12.4194 141.719 12.4194 122.786H10.4194C10.4194 142.32 18.075 158.87 33.3222 172.38L34.6485 170.883ZM12.4194 122.786C12.4194 107.361 16.5539 94.1511 24.7894 83.1081L23.1862 81.9124C14.6638 93.3401 10.4194 106.981 10.4194 122.786H12.4194ZM24.7894 83.1081C33.0404 72.0442 44.8788 63.2889 60.362 56.8691L59.596 55.0216C43.8488 61.5509 31.693 70.499956 23.1862 81.9124L24.7894 83.1081ZM59.0345 55.6168C55.9507 64.4828 54.4087 73.6393 54.4087 83.0815H56.4087C56.4087 73.8616 57.9136 64.9273 60.9235 56.2738L59.0345 55.6168ZM54.4087 83.0815C54.4087 98.0494 57.0946 110.602 62.5263 120.689L64.2872 119.741C59.0548 110.024 56.4087 97.8208 56.4087 83.0815H54.4087ZM62.5374 120.71C68.1532 130.586 76.5616 139.077 87.72 146.195L88.7956 144.509C77.8642 137.536 69.7052 129.269 64.276 119.721L62.5374 120.71ZM87.7265 146.199C99.0355 153.291 114.429 160.649 133.882 168.278L134.612 166.416C115.217 158.81 99.9508 151.505 88.7891 144.505L87.7265 146.199ZM133.883 168.278L213.007 199.128L213.733 197.265L134.61 166.415L133.883 168.278ZM212.998 199.124C240.908 210.326 262.388 223.685 277.496 239.171L278.927 237.774C263.566 222.029 241.819 208.537 213.743 197.268L212.998 199.124ZM277.5 239.175C292.553 254.416 300.063 272.541 300.063 293.602H302.063C302.063 272.006 294.339 253.378 278.923 237.769L277.5 239.175ZM300.063 293.602C300.063 309.606 295.924 323.689 287.667 335.888L289.323 337.009C297.823 324.452 302.063 309.971 302.063 293.602H300.063ZM287.665 335.891C279.597 347.898 267.565 357.693 251.506 365.25L252.358 367.06C268.672 359.383 281.015 349.373 289.325 337.006L287.665 335.891ZM67.4546 368.069C45.5939 360.309 29.2077 349.195 18.2133 334.771C7.22385 320.353 1.56248 302.551 1.27921 281.306L-0.720613 281.332C-0.432602 302.933 5.33181 321.17 16.6227 335.983C27.9086 350.79 44.6571 362.099 66.7856 369.954L67.4546 368.069ZM0.279297 282.319H57.1226V280.319H0.279297V282.319ZM56.1308 281.191C55.3607 287.159 54.98 295.779 54.98 307.027H56.98C56.98 295.804 57.361 287.286 58.1143 281.447L56.1308 281.191ZM54.98 307.027C54.98 332.252 58.705 353.069 66.2112 369.429L68.029 368.595C60.6817 352.581 56.98 332.075 56.98 307.027H54.98ZM159.383 423.141C137.435 423.141 118.769 418.506 103.339 409.286L102.313 411.003C118.113 420.445 137.152 425.141 159.383 425.141V423.141ZM103.346 409.291C87.9146 399.881 76.1416 386.329 68.0295 368.596L66.2107 369.428C74.4756 387.495 86.5063 401.365 102.305 410.998L103.346 409.291ZM66.7891 369.955C92.4477 378.955 124.561 383.437 163.097 383.437V381.437C124.699 381.437 92.8277 376.969 67.4511 368.068L66.7891 369.955ZM163.097 383.437C199.557 383.437 229.33 377.998 252.361 367.059L251.503 365.252C228.831 376.021 199.381 381.437 163.097 381.437V383.437ZM250.988 365.827C244.967 383.136 234.156 397.055 218.524 407.602L219.642 409.26C235.622 398.478 246.71 384.213 252.877 366.484L250.988 365.827ZM218.531 407.597C202.927 417.937 183.233 423.141 159.383 423.141V425.141C183.522 425.141 203.627 419.872 219.635 409.264L218.531 407.597ZM439.886 66.5142L439.013 66.0266L437.539 68.6661L440.296 67.4262L439.886 66.5142ZM613.558 17.3833L613.018 18.2251L613.029 18.2318L613.558 17.3833ZM657.547 64.8003L657.131 65.7096L659.934 66.9917L658.418 64.3085L657.547 64.8003ZM657.547 359.014L656.67 358.535L655.254 361.126L657.953 359.928L657.547 359.014ZM679.828 293.316L678.846 293.125L678.845 293.131L679.828 293.316ZM679.828 129.07L678.846 129.261L678.847 129.268L679.828 129.07ZM657.547 64.8003L657.953 63.8862L655.235 62.6801L656.672 65.2836L657.547 64.8003ZM723.817 302.171L724.669 302.694L724.671 302.691L723.817 302.171ZM444.457 359.014L444.052 359.929L446.865 361.173L445.322 358.512L444.457 359.014ZM375.331 301.6L374.488 302.138L374.493 302.145L375.331 301.6ZM374.188 122.786L373.346 122.247L373.345 122.248L374.188 122.786ZM439.886 66.5142L440.769 66.9833L442.171 64.3459L439.464 65.6078L439.886 66.5142ZM417.892 130.213L416.912 130.012L416.91 130.02L417.892 130.213ZM489.303 407.288L488.765 408.131L488.771 408.135L489.303 407.288ZM444.457 359.014L444.866 358.102L442.042 356.835L443.591 359.515L444.457 359.014ZM657.547 359.014L658.429 359.487L659.833 356.869L657.131 358.105L657.547 359.014ZM613.844 407.288L613.312 406.441L613.308 406.444L613.844 407.288ZM440.759 67.0017C452.971 45.1346 468.256 28.7792 486.6 17.8861C504.943 6.99351 526.398 1.53027 551.002 1.53027V-0.469727C526.094 -0.469727 504.274 5.06435 485.579 16.1664C466.884 27.268 451.367 43.9044 439.013 66.0266L440.759 67.0017ZM551.002 1.53027C575.027 1.53027 595.685 7.10889 613.018 18.2251L614.098 16.5415C596.393 5.18701 575.346 -0.469727 551.002 -0.469727V1.53027ZM613.029 18.2318C630.579 29.1771 645.132 44.8518 656.677 65.2921L658.418 64.3085C646.731 43.6159 631.957 27.6793 614.087 16.5348L613.029 18.2318ZM657.963 63.8909C628.663 50.4857 592.998 43.8052 551.002 43.8052V45.8052C592.795 45.8052 628.16 52.4547 657.131 65.7096L657.963 63.8909ZM551.002 43.8052C508.992 43.8052 471.81 51.0617 439.476 65.6021L440.296 67.4262C472.328 53.0213 509.223 45.8052 551.002 45.8052V43.8052ZM658.425 359.494C668.578 340.912 676.034 318.909 680.81 293.501L678.845 293.131C674.099 318.377 666.702 340.173 656.67 358.535L658.425 359.494ZM680.809 293.506C685.775 267.916 688.254 239.858 688.254 209.336H686.254C686.254 239.752 683.783 267.68 678.846 293.125L680.809 293.506ZM688.254 209.336C688.254 180.335 685.774 153.512 680.808 128.873L678.847 129.268C683.784 153.759 686.254 180.447 686.254 209.336H688.254ZM680.809 128.88C676.033 104.232 668.575 82.7058 658.423 64.317L656.672 65.2836C666.705 83.4573 674.101 104.778 678.846 129.261L680.809 128.88ZM657.142 65.7144C685.733 78.4005 707.662 96.843 722.972 121.036L724.662 119.966C709.122 95.409 686.871 76.7176 657.953 63.8862L657.142 65.7144ZM722.972 121.036C738.276 145.22 745.954 174.637 745.954 209.336H747.954C747.954 174.338 740.207 144.532 724.662 119.966L722.972 121.036ZM745.954 209.336C745.954 245.758 738.272 276.513 722.963 301.651L724.671 302.691C740.211 277.174 747.954 246.04 747.954 209.336H745.954ZM722.965 301.648C707.653 326.6 685.725 345.418 657.142 358.1L657.953 359.928C686.88 347.093 709.131 328.015 724.669 302.694L722.965 301.648ZM444.861 358.1C415.316 345.032 392.431 326.015 376.168 301.054L374.493 302.145C390.984 327.458 414.183 346.717 444.052 359.929L444.861 358.1ZM376.173 301.061C360.109 275.925 352.051 245.366 352.051 209.336H350.051C350.051 245.67 358.179 276.62 374.488 302.138L376.173 301.061ZM352.051 209.336C352.051 175.979 359.725 147.322 375.031 123.324L373.345 122.248C357.801 146.619 350.051 175.663 350.051 209.336H352.051ZM375.03 123.326C390.535 99.1221 412.284 80.4863 440.309 67.4205L439.464 65.6078C411.122 78.8214 389.071 97.7002 373.346 122.247L375.03 123.326ZM439.003 66.045C429.239 84.4251 421.879 105.752 416.912 130.012L418.871 130.413C423.807 106.305 431.11 85.1657 440.769 66.9833L439.003 66.045ZM416.91 130.02C412.135 154.277 409.75 180.717 409.75 209.336H411.75C411.75 180.827 414.126 154.518 418.873 130.406L416.91 130.02ZM409.75 209.336C409.75 239.107 412.613 266.794 418.344 292.392L420.296 291.955C414.601 266.518 411.75 238.98 411.75 209.336H409.75ZM418.344 292.392C424.075 317.991 432.487 340.37 443.592 359.516L445.322 358.512C434.336 339.572 425.99 317.391 420.296 291.955L418.344 292.392ZM551.002 423.141C527.938 423.141 507.56 417.567 489.834 406.441L488.771 408.135C506.846 419.48 527.601 425.141 551.002 425.141V423.141ZM489.841 406.445C472.092 395.116 457.25 379.15 445.322 358.514L443.591 359.515C455.658 380.392 470.713 396.608 488.765 408.131L489.841 406.445ZM444.047 359.927C473.913 373.328 509.574 380.009 551.002 380.009V378.009C509.783 378.009 474.415 371.361 444.866 358.102L444.047 359.927ZM551.002 380.009C592.998 380.009 628.663 373.329 657.963 359.923L657.131 358.105C628.16 371.36 592.795 378.009 551.002 378.009V380.009ZM656.666 358.542C645.502 379.355 631.048 395.309 613.312 406.441L614.375 408.135C632.44 396.796 647.122 380.568 658.429 359.487L656.666 358.542ZM613.308 406.444C595.782 417.563 575.026 423.141 551.002 423.141V425.141C575.347 425.141 596.486 419.484 614.379 408.133L613.308 406.444ZM868.639 360.157L868.199 361.055L870.412 362.138L869.58 359.819L868.639 360.157ZM828.077 324.737L827.223 325.256L827.225 325.261L828.077 324.737ZM814.366 7.38574V6.38574H813.366V7.38574H814.366ZM864.64 7.38574H865.64V6.38574H864.64V7.38574ZM1072.87 360.157L1071.93 359.819L1071.11 362.111L1073.31 361.059L1072.87 360.157ZM1076.87 7.38574V6.38574H1075.87V7.38574H1076.87ZM1128.58 7.38574H1129.58V6.38574H1128.58V7.38574ZM1114.29 324.737L1113.45 324.202L1113.45 324.205L1114.29 324.737ZM923.197 415.857L922.817 416.782L922.824 416.785L922.832 416.788L923.197 415.857ZM888.348 393.006L887.62 393.691L887.627 393.699L887.634 393.706L888.348 393.006ZM868.639 360.157L869.078 359.258L866.95 358.218L867.689 360.469L868.639 360.157ZM1072.87 360.157L1073.83 360.455L1074.52 358.238L1072.44 359.258L1072.87 360.157ZM1053.45 393.006L1054.17 393.698L1054.18 393.691L1053.45 393.006ZM1018.6 415.857L1018.97 416.789L1018.98 416.784L1018.6 415.857ZM869.078 359.259C851.323 350.57 837.957 338.883 828.929 324.213L827.225 325.261C836.479 340.298 850.154 352.224 868.199 361.055L869.078 359.259ZM828.932 324.218C819.901 309.355 815.366 291.736 815.366 271.321H813.366C813.366 292.04 817.972 310.031 827.223 325.256L828.932 324.218ZM815.366 271.321V7.38574H813.366V271.321H815.366ZM814.366 8.38574H864.64V6.38574H814.366V8.38574ZM863.64 7.38574V334.449H865.64V7.38574H863.64ZM863.64 334.449C863.64 344.25 864.985 352.938 867.697 360.495L869.58 359.819C866.961 352.522 865.64 344.071 865.64 334.449H863.64ZM1073.82 360.495C1076.53 352.938 1077.87 344.25 1077.87 334.449H1075.87C1075.87 344.071 1074.55 352.522 1071.93 359.819L1073.82 360.495ZM1077.87 334.449V7.38574H1075.87V334.449H1077.87ZM1076.87 8.38574H1128.58V6.38574H1076.87V8.38574ZM1127.58 7.38574V271.321H1129.58V7.38574H1127.58ZM1127.58 271.321C1127.58 291.728 1122.85 309.342 1113.45 324.202L1115.14 325.272C1124.78 310.044 1129.58 292.047 1129.58 271.321H1127.58ZM1113.45 324.205C1104.23 338.875 1090.58 350.564 1072.44 359.255L1073.31 361.059C1091.73 352.23 1105.69 340.306 1115.14 325.269L1113.45 324.205ZM970.614 423.141C953.2 423.141 937.52 420.397 923.562 414.926L922.832 416.788C937.057 422.363 952.989 425.141 970.614 425.141V423.141ZM923.577 414.932C909.785 409.265 898.287 401.719 889.062 392.306L887.634 393.706C897.071 403.336 908.806 411.024 922.817 416.782L923.577 414.932ZM889.076 392.32C880.032 382.711 873.54 371.888 869.589 359.845L867.689 360.469C871.735 372.801 878.383 383.877 887.62 393.691L889.076 392.32ZM868.199 361.055C894.094 373.715 928.253 380.009 970.614 380.009V378.009C928.424 378.009 894.6 371.736 869.078 359.258L868.199 361.055ZM970.614 380.009C1013.16 380.009 1047.42 373.715 1073.31 361.055L1072.44 359.258C1046.91 371.735 1012.99 378.009 970.614 378.009V380.009ZM1071.92 359.858C1068.16 371.895 1061.76 382.714 1052.72 392.32L1054.18 393.691C1063.42 383.874 1069.97 372.793 1073.83 360.455L1071.92 359.858ZM1052.73 392.313C1043.7 401.719 1032.21 409.263 1018.23 414.931L1018.98 416.784C1033.18 411.026 1044.92 403.336 1054.17 393.698L1052.73 392.313ZM1018.24 414.926C1004.28 420.396 988.412 423.141 970.614 423.141V425.141C988.617 425.141 1004.74 422.364 1018.97 416.788L1018.24 414.926ZM20.8457 522.386V521.386H19.8457V522.386H20.8457ZM69.9766 522.386H70.9766V521.386H69.9766V522.386ZM69.9766 890.582H68.9766V891.582H69.9766V890.582ZM295.636 890.582H296.636V889.582H295.636V890.582ZM295.636 932V933H296.636V932H295.636ZM20.8457 932H19.8457V933H20.8457V932ZM20.8457 523.386H69.9766V521.386H20.8457V523.386ZM68.9766 522.386V890.582H70.9766V522.386H68.9766ZM69.9766 891.582H295.636V889.582H69.9766V891.582ZM294.636 890.582V932H296.636V890.582H294.636ZM295.636 931H20.8457V933H295.636V931ZM21.8457 932V522.386H19.8457V932H21.8457ZM473.592 698.628L473.38 699.606L474.715 699.896L474.588 698.535L473.592 698.628ZM417.606 660.638L418.433 660.076L418.427 660.067L417.606 660.638ZM322.201 523.528H321.201V523.842L321.38 524.099L322.201 523.528ZM322.201 522.386V521.386H321.201V522.386H322.201ZM384.186 522.386L385.027 521.845L384.732 521.386H384.186V522.386ZM446.17 618.934L447.014 618.397L447.012 618.393L446.17 618.934ZM523.294 698.628L522.306 698.476L522.099 699.821L523.444 699.617L523.294 698.628ZM553.858 619.505L554.694 620.054L554.695 620.053L553.858 619.505ZM617.557 522.386V521.386H617.017L616.721 521.837L617.557 522.386ZM674.972 522.386H675.972V521.386H674.972V522.386ZM674.972 522.957L675.8 523.517L675.972 523.263V522.957H674.972ZM581.852 660.638L581.023 660.077L581.02 660.083L581.852 660.638ZM556.429 686.346L555.886 685.506L555.878 685.511L556.429 686.346ZM473.021 749.473L472.03 749.338L471.839 750.736L473.222 750.453L473.021 749.473ZM473.592 698.628L473.809 697.652L472.418 697.343L472.6 698.756L473.592 698.628ZM523.294 698.628L524.287 698.75L524.46 697.336L523.072 697.654L523.294 698.628ZM523.294 749.473L523.083 750.451L524.478 750.752L524.285 749.338L523.294 749.473ZM307.633 931.429L306.817 930.851L306.633 931.11V931.429H307.633ZM399.325 802.032L398.516 801.443L398.509 801.454L399.325 802.032ZM434.173 766.326L434.746 767.146L434.749 767.144L434.173 766.326ZM473.021 749.473L474.011 749.615L474.21 748.223L472.83 748.492L473.021 749.473ZM462.452 785.75L461.536 785.349L461.533 785.356L462.452 785.75ZM439.601 826.026L438.773 825.464L438.77 825.469L439.601 826.026ZM368.475 932V933H369.008L369.305 932.557L368.475 932ZM307.633 932H306.633V933H307.633V932ZM560.714 830.311L559.888 830.874L559.891 830.879L560.714 830.311ZM534.72 786.321L533.81 786.735L533.815 786.746L534.72 786.321ZM523.294 749.473L523.455 748.486L522.09 748.265L522.307 749.63L523.294 749.473ZM562.428 765.469L561.855 766.289L561.864 766.295L562.428 765.469ZM597.562 801.46L598.375 800.878L598.372 800.875L597.562 801.46ZM690.682 931.429H691.682V931.107L691.495 930.846L690.682 931.429ZM690.682 932V933H691.682V932H690.682ZM630.982 932L630.16 932.568L630.458 933H630.982V932ZM473.805 697.651C450.445 692.565 432.002 680.052 418.433 660.076L416.779 661.2C430.632 681.595 449.513 694.409 473.38 699.606L473.805 697.651ZM418.427 660.067L323.022 522.957L321.38 524.099L416.785 661.209L418.427 660.067ZM323.201 523.528V522.386H321.201V523.528H323.201ZM322.201 523.386H384.186V521.386H322.201V523.386ZM383.344 522.926L445.329 619.474L447.012 618.393L385.027 521.845L383.344 522.926ZM445.326 619.47C460.858 643.904 469.946 670.317 472.597 698.721L474.588 698.535C471.907 669.811 462.713 643.094 447.014 618.397L445.326 619.47ZM524.283 698.781C528.64 670.551 538.776 644.311 554.694 620.054L553.022 618.956C536.949 643.449 526.708 669.958 522.306 698.476L524.283 698.781ZM554.695 620.053L618.393 522.934L616.721 521.837L553.022 618.956L554.695 620.053ZM617.557 523.386H674.972V521.386H617.557V523.386ZM673.972 522.386V522.957H675.972V522.386H673.972ZM674.143 522.397L581.023 660.077L582.68 661.198L675.8 523.517L674.143 522.397ZM581.02 660.083C573.849 670.838 565.469 679.305 555.886 685.506L556.972 687.185C566.813 680.818 575.381 672.146 582.684 661.192L581.02 660.083ZM555.878 685.511C546.491 691.707 535.586 695.755 523.145 697.64L523.444 699.617C536.139 697.694 547.324 693.553 556.98 687.18L555.878 685.511ZM474.012 749.608C475.16 741.187 475.735 732.953 475.735 724.908H473.735C473.735 732.858 473.167 741.001 472.03 749.338L474.012 749.608ZM475.735 724.908C475.735 713.281 475.354 704.469 474.584 698.5L472.6 698.756C473.354 704.594 473.735 713.302 473.735 724.908H475.735ZM473.375 699.605C480.322 701.148 488.587 701.914 498.158 701.914V699.914C488.685 699.914 480.573 699.155 473.809 697.652L473.375 699.605ZM498.158 701.914C508.294 701.914 516.753 701.149 523.517 699.603L523.072 697.654C516.505 699.154 508.207 699.914 498.158 699.914V701.914ZM522.302 698.507C521.155 707.872 520.581 716.673 520.581 724.908H522.581C522.581 716.765 523.149 708.046 524.287 698.75L522.302 698.507ZM520.581 724.908C520.581 732.953 521.155 741.187 522.304 749.608L524.285 749.338C523.148 741.001 522.581 732.858 522.581 724.908H520.581ZM523.506 748.496C516.371 746.953 507.918 746.188 498.158 746.188V748.188C507.821 748.188 516.126 748.946 523.083 750.451L523.506 748.496ZM498.158 746.188C488.774 746.188 480.326 746.954 472.82 748.494L473.222 750.453C480.57 748.946 488.879 748.188 498.158 748.188V746.188ZM308.449 932.007L400.141 802.61L398.509 801.454L306.817 930.851L308.449 932.007ZM400.133 802.62C411.322 787.26 422.863 775.445 434.746 767.146L433.601 765.506C421.49 773.965 409.798 785.954 398.516 801.443L400.133 802.62ZM434.749 767.144C446.829 758.65 459.648 753.092 473.212 750.455L472.83 748.492C458.972 751.186 445.893 756.863 433.598 765.508L434.749 767.144ZM472.031 749.332C470.331 761.231 466.835 773.236 461.536 785.349L463.368 786.151C468.733 773.889 472.283 761.709 474.011 749.615L472.031 749.332ZM461.533 785.356C456.424 797.277 448.843 810.645 438.773 825.464L440.428 826.588C450.544 811.7 458.197 798.217 463.371 786.144L461.533 785.356ZM438.77 825.469L367.645 931.443L369.305 932.557L440.431 826.583L438.77 825.469ZM368.475 931H307.633V933H368.475V931ZM308.633 932V931.429H306.633V932H308.633ZM561.54 829.747C550.132 813.015 541.498 798.4 535.625 785.896L533.815 786.746C539.749 799.379 548.444 814.09 559.888 830.874L561.54 829.747ZM535.631 785.907C529.95 773.41 526.171 761.214 524.282 749.316L522.307 749.63C524.227 761.727 528.065 774.096 533.81 786.735L535.631 785.907ZM523.134 750.46C537.074 752.721 549.978 757.994 561.855 766.289L563 764.649C550.883 756.187 537.698 750.796 523.455 748.486L523.134 750.46ZM561.864 766.295C573.739 774.4 585.372 786.304 596.752 802.046L598.372 800.875C586.901 785.005 575.111 772.915 562.991 764.643L561.864 766.295ZM596.749 802.043L689.869 932.011L691.495 930.846L598.375 800.878L596.749 802.043ZM689.682 931.429V932H691.682V931.429H689.682ZM690.682 931H630.982V933H690.682V931ZM631.805 931.432L561.537 829.742L559.891 830.879L630.16 932.568L631.805 931.432Z" fill="#FF3E12"/>
</svg>
