<svg width="375" height="200" viewBox="0 0 375 200" fill="none" xmlns="http://www.w3.org/2000/svg">
<path d="M-228.686 31.5694L-229.116 31.4207L-229.458 32.4087L-228.502 31.9856L-228.686 31.5694ZM-148.262 30.8518L-148.419 31.2794L-147.492 31.6183L-147.836 30.6933L-148.262 30.8518ZM-144.874 65.1877L-145.328 65.1553L-145.363 65.6457L-144.871 65.6429L-144.874 65.1877ZM-119.042 65.0428L-119.039 65.498L-118.569 65.4954L-118.587 65.0256L-119.042 65.0428ZM-148.262 30.8518L-148.105 30.4247L-149.028 30.0843L-148.69 31.0084L-148.262 30.8518ZM-140.545 172.223L-140.972 172.065L-141.357 173.108L-140.351 172.635L-140.545 172.223ZM-158.55 95.8909L-158.385 95.4667L-158.386 95.4662L-158.55 95.8909ZM-194.581 81.9783L-194.417 81.5536L-194.419 81.5528L-194.581 81.9783ZM-228.686 31.5694L-228.257 31.7201L-227.916 30.7508L-228.863 31.1499L-228.686 31.5694ZM-210.455 100.71L-210.618 101.134L-210.616 101.135L-210.455 100.71ZM-174.426 114.356L-174.587 114.782L-174.586 114.782L-174.426 114.356ZM-224.691 174.027L-224.842 174.456L-223.835 174.809L-224.277 173.838L-224.691 174.027ZM-229.442 134.106L-228.991 134.163L-228.925 133.648L-229.445 133.65L-229.442 134.106ZM-255.274 134.251L-255.277 133.795L-255.738 133.798L-255.729 134.259L-255.274 134.251ZM-140.545 172.223L-140.115 172.371L-139.759 171.34L-140.742 171.813L-140.545 172.223ZM-224.691 174.027L-224.544 173.596L-225.555 173.251L-225.104 174.219L-224.691 174.027ZM-228.502 31.9856C-218.22 27.4351 -204.72 25.2322 -188.775 25.1428L-188.78 24.2323C-204.792 24.3221 -218.431 26.5326 -228.87 31.1531L-228.502 31.9856ZM-188.775 25.1428C-173.9 25.0593 -159.83 27.1059 -148.419 31.2794L-148.106 30.4243C-159.645 26.2044 -173.827 24.1484 -188.78 24.2323L-188.775 25.1428ZM-147.836 30.6933C-150.976 22.2402 -155.93 15.9227 -162.675 11.7385C-169.415 7.55766 -177.906 5.5291 -188.085 5.58621L-188.08 6.49667C-178.021 6.44023 -169.711 8.44532 -163.155 12.5122C-156.604 16.5759 -151.768 22.7204 -148.689 31.0103L-147.836 30.6933ZM-188.085 5.58621C-210.093 5.70969 -224.067 16.8081 -229.116 31.4207L-228.256 31.718C-223.347 17.5125 -209.748 6.61824 -188.08 6.49667L-188.085 5.58621ZM-144.871 65.6429L-119.039 65.498L-119.045 64.5876L-144.876 64.7325L-144.871 65.6429ZM-118.587 65.0256C-119.222 48.2647 -130.927 36.7567 -148.105 30.4247L-148.42 31.279C-131.438 37.5385 -120.113 48.8046 -119.497 65.06L-118.587 65.0256ZM-148.69 31.0084C-146.278 37.5927 -144.905 45.7866 -144.852 55.3339L-143.941 55.3288C-143.995 45.7018 -145.379 37.3995 -147.835 30.6952L-148.69 31.0084ZM-144.852 55.3339C-144.834 58.5082 -145.081 61.6856 -145.328 65.1553L-144.42 65.2201C-144.173 61.7628 -143.923 58.5458 -143.941 55.3288L-144.852 55.3339ZM-140.351 172.635C-132.853 169.102 -127.216 164.427 -123.464 158.765C-119.712 153.102 -117.864 146.476 -117.905 139.073L-118.816 139.078C-118.775 146.321 -120.581 152.765 -124.223 158.262C-127.866 163.761 -133.363 168.336 -140.739 171.811L-140.351 172.635ZM-117.905 139.073C-118.02 118.534 -134.059 104.933 -158.385 95.4667L-158.715 96.3152C-134.466 105.751 -118.927 119.137 -118.816 139.078L-117.905 139.073ZM-158.386 95.4662L-194.417 81.5536L-194.745 82.4029L-158.714 96.3156L-158.386 95.4662ZM-194.419 81.5528C-206.828 76.8291 -215.76 72.5124 -221.611 66.8249C-227.431 61.1673 -230.235 54.1187 -230.293 43.829L-231.203 43.8341C-231.144 54.3164 -228.275 61.6171 -222.246 67.4778C-216.247 73.3086 -207.154 77.6793 -194.743 82.4037L-194.419 81.5528ZM-230.293 43.829C-230.316 39.6227 -229.551 35.409 -228.257 31.7201L-229.116 31.4187C-230.443 35.2013 -231.227 39.5185 -231.203 43.8341L-230.293 43.829ZM-228.863 31.1499C-235.96 34.1427 -241.537 38.2132 -245.33 43.3754C-249.126 48.5418 -251.115 54.7754 -251.075 62.0551L-250.164 62.05C-250.204 54.949 -248.267 48.91 -244.597 43.9145C-240.923 38.9148 -235.494 34.934 -228.509 31.9888L-228.863 31.1499ZM-251.075 62.0551C-251.021 71.6675 -246.705 79.2173 -239.503 85.4686C-232.317 91.7069 -222.242 96.667 -210.618 101.134L-210.292 100.285C-221.888 95.8275 -231.842 90.9131 -238.906 84.781C-245.956 78.6619 -250.112 71.3455 -250.164 62.05L-251.075 62.0551ZM-210.616 101.135L-174.587 114.782L-174.264 113.93L-210.294 100.284L-210.616 101.135ZM-174.586 114.782C-162.73 119.235 -153.799 124.08 -147.81 130.786C-141.836 137.476 -138.75 146.065 -138.683 158.098L-137.772 158.093C-137.841 145.891 -140.977 137.071 -147.131 130.18C-153.269 123.306 -162.369 118.398 -174.265 113.93L-174.586 114.782ZM-138.683 158.098C-138.654 163.111 -139.419 167.853 -140.972 172.065L-140.118 172.38C-138.523 168.053 -137.743 163.199 -137.772 158.093L-138.683 158.098ZM-224.277 173.838C-227.747 166.211 -229.392 156.968 -229.454 145.824L-230.364 145.829C-230.302 157.054 -228.646 166.435 -225.105 174.215L-224.277 173.838ZM-229.454 145.824C-229.475 142.091 -229.497 138.126 -228.991 134.163L-229.894 134.048C-230.409 138.08 -230.385 142.105 -230.364 145.829L-229.454 145.824ZM-229.445 133.65L-255.277 133.795L-255.272 134.706L-229.44 134.561L-229.445 133.65ZM-255.729 134.259C-255.536 144.732 -252.533 153.139 -247.198 159.756C-241.868 166.368 -234.237 171.16 -224.842 174.456L-224.54 173.597C-233.824 170.34 -241.294 165.629 -246.489 159.184C-251.681 152.745 -254.629 144.54 -254.819 134.242L-255.729 134.259ZM-182.471 199.279C-159.663 199.151 -145.425 187.782 -140.115 172.371L-140.975 172.075C-146.147 187.082 -160.013 198.242 -182.476 198.368L-182.471 199.279ZM-140.742 171.813C-150.756 176.625 -164.25 179.358 -180.985 179.451L-180.979 180.362C-164.159 180.267 -150.52 177.522 -140.348 172.633L-140.742 171.813ZM-180.985 179.451C-197.466 179.544 -212.335 177.766 -224.544 173.596L-224.838 174.457C-212.499 178.672 -197.52 180.455 -180.979 180.362L-180.985 179.451ZM-225.104 174.219C-217.472 190.603 -202.866 199.393 -182.471 199.279L-182.476 198.368C-202.56 198.481 -216.815 189.857 -224.278 173.834L-225.104 174.219ZM-55.725 35.3927L-56.1239 35.1733L-56.7888 36.3826L-55.5349 35.8063L-55.725 35.3927ZM43.3373 34.0379L43.1494 34.4526L44.4217 35.0292L43.7335 33.8136L43.3373 34.0379ZM44.0889 167.991L43.6868 167.778L43.0629 168.952L44.2757 168.406L44.0889 167.991ZM43.3373 34.0379L43.5195 33.6207L42.2876 33.0829L42.9391 34.2586L43.3373 34.0379ZM-52.8475 168.535L-53.03 168.952L-51.736 169.519L-52.4558 168.303L-52.8475 168.535ZM-55.725 35.3927L-55.3218 35.604L-54.6891 34.3967L-55.9203 34.9815L-55.725 35.3927ZM44.0889 167.991L44.4913 168.204L45.1257 167.005L43.8963 167.579L44.0889 167.991ZM-52.8475 168.535L-52.6627 168.119L-53.9575 167.544L-53.24 168.766L-52.8475 168.535ZM-55.5349 35.8063C-41.5255 29.3675 -24.3009 25.8179 -5.1791 25.7106L-5.1842 24.8001C-24.4109 24.908 -41.7675 28.4767 -55.9151 34.979L-55.5349 35.8063ZM-5.1791 25.7106C13.419 25.6062 29.8768 28.4372 43.1494 34.4526L43.5252 33.6233C30.0983 27.5379 13.5009 24.6953 -5.1842 24.8001L-5.1791 25.7106ZM43.7335 33.8136C33.4423 15.6381 17.5253 4.43263 -5.29776 4.56068L-5.29265 5.47114C17.1567 5.34519 32.7897 16.3333 42.9412 34.2622L43.7335 33.8136ZM-5.29776 4.56068C-29.4478 4.69618 -45.7715 16.3444 -56.1239 35.1733L-55.3261 35.612C-45.1156 17.0412 -29.0782 5.60459 -5.29265 5.47114L-5.29776 4.56068ZM44.2757 168.406C57.2355 162.574 67.4483 153.869 74.3941 142.359C81.3386 130.851 85.0021 116.563 84.9068 99.585L83.9964 99.5901C84.0909 116.434 80.4568 130.55 73.6145 141.889C66.7734 153.226 56.7099 161.812 43.9021 167.576L44.2757 168.406ZM84.9068 99.585C84.816 83.402 80.9939 69.7535 73.9209 58.7231C66.8475 47.692 56.5394 39.3053 43.5195 33.6207L43.1552 34.4551C56.0314 40.0769 66.1901 48.3534 73.1545 59.2146C80.1195 70.0766 83.9064 83.5498 83.9964 99.5901L84.9068 99.585ZM42.9391 34.2586C52.3043 51.1576 56.6897 74.2172 56.8329 99.7425L57.7433 99.7374C57.5997 74.1315 53.2032 50.9012 43.7355 33.8173L42.9391 34.2586ZM56.8329 99.7425C56.9836 126.603 52.8606 150.509 43.6868 167.778L44.4909 168.205C53.7645 150.748 57.8945 126.671 57.7433 99.7374L56.8329 99.7425ZM-52.4558 168.303C-62.6189 151.141 -68.07 127.29 -68.2207 100.444L-69.1311 100.449C-68.9799 127.398 -63.5098 151.423 -53.2392 168.767L-52.4558 168.303ZM-68.2207 100.444C-68.3624 75.1877 -64.2339 52.6094 -55.3218 35.604L-56.1282 35.1813C-65.1338 52.3651 -69.2733 75.107 -69.1311 100.449L-68.2207 100.444ZM-55.9203 34.9815C-81.0443 46.9139 -96.4704 69.2637 -96.2946 100.602L-95.3841 100.597C-95.5579 69.6182 -80.3402 47.5875 -55.5297 35.8039L-55.9203 34.9815ZM-96.2946 100.602C-96.1993 117.587 -92.0396 131.767 -84.5643 143.161C-77.089 154.555 -66.3146 163.137 -53.03 168.952L-52.6649 168.118C-65.8107 162.364 -76.4374 153.888 -83.803 142.662C-91.1685 131.435 -95.2897 117.432 -95.3841 100.597L-96.2946 100.602ZM-4.2109 198.279C18.6101 198.151 34.6707 186.767 44.4913 168.204L43.6865 167.778C34.0063 186.076 18.2355 197.242 -4.21601 197.368L-4.2109 198.279ZM43.8963 167.579C30.692 173.743 14.267 176.758 -4.33106 176.862L-4.32595 177.773C14.3592 177.668 30.9236 174.639 44.2814 168.404L43.8963 167.579ZM-4.33106 176.862C-22.6614 176.965 -39.1211 174.135 -52.6627 168.119L-53.0323 168.951C-39.3417 175.033 -22.7462 177.876 -4.32595 177.773L-4.33106 176.862ZM-53.24 168.766C-42.4168 187.197 -25.9708 198.401 -4.2109 198.279L-4.21601 197.368C-25.5982 197.488 -41.7673 186.505 -52.4549 168.305L-53.24 168.766ZM140.248 167.984L140.049 168.394L141.059 168.884L140.676 167.829L140.248 167.984ZM137.483 7.41065L137.938 7.40809L137.936 6.95287L137.48 6.95542L137.483 7.41065ZM114.58 7.53914L114.578 7.08392L114.123 7.08647L114.125 7.5417L114.58 7.53914ZM233.19 167.463L232.76 167.312L232.395 168.352L233.388 167.873L233.19 167.463ZM257.588 6.7368L258.043 6.73424L258.041 6.27901L257.585 6.28157L257.588 6.7368ZM234.153 6.86828L234.15 6.41305L233.695 6.41561L233.698 6.87083L234.153 6.86828ZM233.19 167.463L233.625 167.596L233.933 166.587L232.988 167.055L233.19 167.463ZM140.248 167.984L140.445 167.574L139.475 167.107L139.816 168.129L140.248 167.984ZM140.676 167.829C139.345 164.168 138.796 160.23 138.773 156.275L137.863 156.28C137.885 160.313 138.446 164.359 139.82 168.14L140.676 167.829ZM138.773 156.275L137.938 7.40809L137.028 7.4132L137.863 156.28L138.773 156.275ZM137.48 6.95542L114.578 7.08392L114.583 7.99437L137.485 7.86588L137.48 6.95542ZM114.125 7.5417L114.799 127.647L115.709 127.642L115.036 7.53659L114.125 7.5417ZM114.799 127.647C114.852 137.171 117.045 145.367 121.296 152.184C125.547 159.001 131.839 164.413 140.049 168.394L140.447 167.575C132.367 163.657 126.216 158.353 122.069 151.702C117.921 145.051 115.762 137.026 115.709 127.642L114.799 127.647ZM233.388 167.873C241.821 163.799 248.186 158.249 252.428 151.35C256.669 144.452 258.77 136.231 258.717 126.839L257.807 126.845C257.859 136.095 255.79 144.143 251.652 150.873C247.514 157.604 241.291 163.044 232.992 167.053L233.388 167.873ZM258.717 126.839L258.043 6.73424L257.133 6.73935L257.807 126.845L258.717 126.839ZM257.585 6.28157L234.15 6.41305L234.155 7.32351L257.591 7.19203L257.585 6.28157ZM233.698 6.87083L234.533 155.737L235.443 155.732L234.608 6.86573L233.698 6.87083ZM234.533 155.737C234.555 159.693 234.05 163.637 232.76 167.312L233.619 167.614C234.951 163.818 235.466 159.766 235.443 155.732L234.533 155.737ZM186.751 197.207C212.213 197.064 228.588 184.093 233.625 167.596L232.754 167.33C227.854 183.38 211.883 196.156 186.746 196.297L186.751 197.207ZM232.988 167.055C221.653 172.67 206.033 175.682 186.631 175.791L186.636 176.701C206.115 176.592 221.887 173.57 233.392 167.871L232.988 167.055ZM186.631 175.791C167.495 175.898 151.843 173.061 140.445 167.574L140.05 168.394C151.618 173.964 167.423 176.809 186.636 176.701L186.631 175.791ZM139.816 168.129C145.305 184.556 161.817 197.347 186.751 197.207L186.746 196.297C162.147 196.435 146.026 183.842 140.68 167.84L139.816 168.129ZM301.314 192.913L300.859 192.916L300.861 193.371L301.317 193.369L301.314 192.913ZM426.479 192.211L426.482 192.666L426.937 192.664L426.934 192.209L426.479 192.211ZM426.373 173.303L426.828 173.301L426.826 172.845L426.37 172.848L426.373 173.303ZM323.578 173.88L323.123 173.883L323.125 174.338L323.58 174.335L323.578 173.88ZM322.638 6.37183L323.093 6.36928L323.091 5.91405L322.636 5.91661L322.638 6.37183ZM300.268 6.49734L300.266 6.04211L299.81 6.04467L299.813 6.49989L300.268 6.49734ZM301.317 193.369L426.482 192.666L426.477 191.756L301.312 192.458L301.317 193.369ZM426.934 192.209L426.828 173.301L425.918 173.306L426.024 192.214L426.934 192.209ZM426.37 172.848L323.575 173.425L323.58 174.335L426.376 173.758L426.37 172.848ZM324.033 173.877L323.093 6.36928L322.183 6.37439L323.123 173.883L324.033 173.877ZM322.636 5.91661L300.266 6.04211L300.271 6.95257L322.641 6.82706L322.636 5.91661ZM299.813 6.49989L300.859 192.916L301.769 192.911L300.723 6.49479L299.813 6.49989ZM477.483 99.513L477.378 99.9559L477.958 100.094L477.938 99.4981L477.483 99.513ZM468.537 71.3336L468.138 71.5542L468.139 71.5555L468.537 71.3336ZM432.216 5.75705L432.614 5.53648L432.483 5.3003L432.213 5.30182L432.216 5.75705ZM406.916 5.89899L406.914 5.44376L406.459 5.44631L406.461 5.90154L406.916 5.89899ZM406.918 6.16529L406.463 6.16785L406.463 6.29265L406.528 6.39964L406.918 6.16529ZM451.544 80.4837L451.153 80.7181L451.155 80.7216L451.544 80.4837ZM498.521 99.395L498.066 99.3852L498.054 99.9702L498.624 99.8385L498.521 99.395ZM523.182 80.3481L523.568 80.589L523.569 80.5876L523.182 80.3481ZM569.633 5.25238L570.02 5.49186L570.089 5.38062L570.088 5.24983L569.633 5.25238ZM569.631 4.98608L570.086 4.98352L570.084 4.52829L569.629 4.53085L569.631 4.98608ZM544.332 5.12802L544.329 4.67279L544.065 4.67427L543.935 4.90455L544.332 5.12802ZM507.151 71.1169L507.548 71.3406L507.548 71.3404L507.151 71.1169ZM478.002 191.922L477.546 191.925L477.549 192.38L478.004 192.377L478.002 191.922ZM499.04 191.804L499.042 192.259L499.498 192.257L499.495 191.802L499.04 191.804ZM498.521 99.395L498.977 99.3924L498.973 98.8094L498.409 98.9539L498.521 99.395ZM477.483 99.513L477.591 99.0707L477.025 98.9325L477.028 99.5156L477.483 99.513ZM477.938 99.4981C477.777 94.5516 477.353 90.7143 476.048 86.4732C474.745 82.2398 472.571 77.6248 468.934 71.1117L468.139 71.5555C471.766 78.0512 473.904 82.5999 475.178 86.741C476.45 90.8744 476.868 94.6224 477.028 99.5279L477.938 99.4981ZM468.935 71.113L432.614 5.53648L431.818 5.97761L468.138 71.5542L468.935 71.113ZM432.213 5.30182L406.914 5.44376L406.919 6.35422L432.218 6.21227L432.213 5.30182ZM406.461 5.90154L406.463 6.16785L407.373 6.16274L407.372 5.89643L406.461 5.90154ZM406.528 6.39964L451.153 80.718L451.934 80.2493L407.308 5.93094L406.528 6.39964ZM451.155 80.7216C457.399 90.9084 466.324 97.3255 477.378 99.9559L477.588 99.0701C466.775 96.4968 458.051 90.2298 451.932 80.2458L451.155 80.7216ZM498.624 99.8385C509.409 97.3482 517.187 90.8193 523.568 80.589L522.796 80.1072C516.508 90.188 508.912 96.5286 498.419 98.9514L498.624 99.8385ZM523.569 80.5876L570.02 5.49186L569.245 5.01291L522.795 80.1086L523.569 80.5876ZM570.088 5.24983L570.086 4.98352L569.176 4.98863L569.177 5.25494L570.088 5.24983ZM569.629 4.53085L544.329 4.67279L544.334 5.58325L569.634 5.44131L569.629 4.53085ZM543.935 4.90455L506.755 70.8935L507.548 71.3404L544.728 5.35149L543.935 4.90455ZM506.755 70.8933C503.056 77.4507 500.932 82.0923 499.709 86.3437C498.485 90.6007 498.172 94.4431 498.066 99.3852L498.977 99.4047C499.082 94.4919 499.392 90.7408 500.584 86.5953C501.778 82.4441 503.863 77.8741 507.548 71.3406L506.755 70.8933ZM478.004 192.377L499.042 192.259L499.037 191.349L477.999 191.467L478.004 192.377ZM499.495 191.802L498.977 99.3924L498.066 99.3975L498.585 191.807L499.495 191.802ZM498.409 98.9539C495.267 99.758 491.848 100.042 488.139 100.063L488.144 100.974C491.891 100.953 495.393 100.666 498.634 99.836L498.409 98.9539ZM488.139 100.063C484.427 100.084 480.739 99.8391 477.591 99.0707L477.375 99.9553C480.627 100.749 484.399 100.995 488.144 100.974L488.139 100.063ZM477.028 99.5156L477.546 191.925L478.457 191.92L477.938 99.5104L477.028 99.5156ZM643.137 84.7351L643.044 85.1808L643.651 85.3072L643.59 84.6904L643.137 84.7351ZM630.417 48.5874L630.035 48.8356L630.036 48.8365L630.417 48.5874ZM601.942 4.8048L602.323 4.5566L602.188 4.34817L601.939 4.34957L601.942 4.8048ZM573.713 4.96317L573.711 4.50795L573.255 4.5105L573.258 4.96573L573.713 4.96317ZM573.716 5.4958L573.261 5.49836L573.262 5.64128L573.344 5.7581L573.716 5.4958ZM617.474 67.5685L617.85 67.3113L617.846 67.3062L617.474 67.5685ZM665.773 84.6081L665.322 84.5463L665.238 85.16L665.849 85.057L665.773 84.6081ZM692.307 67.1486L691.928 66.8956L691.928 66.8959L692.307 67.1486ZM734.299 4.32852L734.677 4.58151L734.755 4.4655L734.754 4.32597L734.299 4.32852ZM734.297 4.06222L734.752 4.05966L734.75 3.60443L734.295 3.60699L734.297 4.06222ZM708.199 4.20864L708.196 3.75341L707.951 3.75479L707.817 3.96091L708.199 4.20864ZM679.419 48.5787L679.801 48.8273L679.801 48.8265L679.419 48.5787ZM643 107.905L642.549 107.844L642.461 108.49L643.098 108.35L643 107.905ZM665.903 107.777L665.81 108.223L666.449 108.356L666.353 107.71L665.903 107.777ZM665.773 84.6081L666.225 84.662L666.302 84.015L665.668 84.1651L665.773 84.6081ZM643.137 84.7351L643.237 84.291L642.595 84.1468L642.686 84.7978L643.137 84.7351ZM568.101 191.417L567.646 191.419L567.649 191.874L568.104 191.872L568.101 191.417ZM595.797 191.261L595.8 191.716L596.042 191.715L596.176 191.514L595.797 191.261ZM628.017 142.877L628.395 143.129L628.396 143.129L628.017 142.877ZM643 107.905L643.451 107.97L643.543 107.332L642.91 107.459L643 107.905ZM609.58 132.061L609.209 131.797L609.207 131.8L609.58 132.061ZM568.1 191.15L567.727 190.889L567.644 191.008L567.645 191.153L568.1 191.15ZM715.37 190.59L714.997 190.851L715.133 191.047L715.373 191.046L715.37 190.59ZM742.533 190.438L742.536 190.893L742.991 190.891L742.989 190.435L742.533 190.438ZM742.532 190.172L742.987 190.169L742.986 190.023L742.901 189.904L742.532 190.172ZM699.857 131.289L699.488 131.555L699.489 131.556L699.857 131.289ZM665.903 107.777L665.977 107.328L665.356 107.226L665.453 107.847L665.903 107.777ZM683.153 144.432L682.78 144.692L683.153 144.432ZM643.59 84.6904C642.454 73.1838 639.171 61.1451 630.798 48.3382L630.036 48.8365C638.317 61.5026 641.56 73.3959 642.684 84.7798L643.59 84.6904ZM630.799 48.3392L602.323 4.5566L601.56 5.053L630.035 48.8356L630.799 48.3392ZM601.939 4.34957L573.711 4.50795L573.716 5.4184L601.944 5.26003L601.939 4.34957ZM573.258 4.96573L573.261 5.49836L574.171 5.49325L574.168 4.96062L573.258 4.96573ZM573.344 5.7581L617.102 67.8308L617.846 67.3062L574.088 5.23351L573.344 5.7581ZM617.098 67.8257C623.338 76.9389 631.726 82.8218 643.044 85.1808L643.23 84.2894C632.151 81.9803 623.962 76.2383 617.85 67.3113L617.098 67.8257ZM665.849 85.057C677.419 83.1068 686.016 77.3918 692.685 67.4014L691.928 66.8959C685.392 76.687 677.009 82.2526 665.697 84.1592L665.849 85.057ZM692.685 67.4016L734.677 4.58151L733.92 4.07554L691.928 66.8956L692.685 67.4016ZM734.754 4.32597L734.752 4.05966L733.842 4.06477L733.843 4.33108L734.754 4.32597ZM734.295 3.60699L708.196 3.75341L708.201 4.66387L734.3 4.51744L734.295 3.60699ZM707.817 3.96091L679.037 48.331L679.801 48.8265L708.581 4.45637L707.817 3.96091ZM679.038 48.3302C670.813 60.9534 666.866 73.2907 665.322 84.5463L666.224 84.67C667.751 73.5376 671.655 61.3297 679.801 48.8273L679.038 48.3302ZM643.098 108.35C646.781 107.539 650.474 107.253 654.448 107.231L654.443 106.321C650.428 106.343 646.668 106.632 642.903 107.461L643.098 108.35ZM654.448 107.231C658.423 107.209 662.119 107.453 665.81 108.223L665.996 107.331C662.222 106.545 658.458 106.298 654.443 106.321L654.448 107.231ZM666.353 107.71C665.803 104.006 665.517 100.3 665.497 96.5939L664.586 96.599C664.607 100.349 664.896 104.097 665.453 107.844L666.353 107.71ZM665.497 96.5939C665.476 92.887 665.718 88.91 666.225 84.662L665.321 84.5542C664.81 88.8341 664.565 92.8493 664.586 96.599L665.497 96.5939ZM665.668 84.1651C662.258 84.9721 658.304 85.26 654.325 85.2824L654.33 86.1928C658.341 86.1703 662.372 85.8808 665.878 85.0511L665.668 84.1651ZM654.325 85.2824C650.348 85.3047 646.657 85.06 643.237 84.291L643.037 85.1793C646.55 85.9692 650.318 86.2153 654.33 86.1928L654.325 85.2824ZM642.686 84.7978C643.236 88.7546 643.259 92.719 643.281 96.7186L644.192 96.7135C644.169 92.7237 644.148 88.6989 643.588 84.6724L642.686 84.7978ZM643.281 96.7186C643.304 100.691 643.058 104.133 642.549 107.844L643.451 107.967C643.966 104.216 644.214 100.731 644.192 96.7135L643.281 96.7186ZM568.104 191.872L595.8 191.716L595.795 190.806L568.099 190.961L568.104 191.872ZM596.176 191.514L628.395 143.129L627.638 142.625L595.418 191.009L596.176 191.514ZM628.396 143.129C637.663 129.192 641.9 118.719 643.451 107.97L642.55 107.84C641.024 118.415 636.856 128.761 627.637 142.625L628.396 143.129ZM642.91 107.459C630.535 109.953 619.565 117.287 609.209 131.797L609.951 132.326C620.206 117.958 630.992 110.789 643.09 108.352L642.91 107.459ZM609.207 131.8L567.727 190.889L568.472 191.412L609.953 132.323L609.207 131.8ZM567.645 191.153L567.646 191.419L568.556 191.414L568.555 191.148L567.645 191.153ZM715.373 191.046L742.536 190.893L742.531 189.983L715.367 190.135L715.373 191.046ZM742.989 190.435L742.987 190.169L742.077 190.174L742.078 190.44L742.989 190.435ZM742.901 189.904L700.226 131.022L699.489 131.556L742.163 190.439L742.901 189.904ZM700.226 131.022C689.436 116.093 678.648 109.411 665.977 107.328L665.829 108.226C678.215 110.263 688.807 116.777 699.488 131.555L700.226 131.022ZM665.453 107.847C667.126 118.589 672.023 129.281 682.78 144.692L683.526 144.171C672.805 128.81 667.995 118.252 666.353 107.707L665.453 107.847ZM682.78 144.692L714.997 190.851L715.743 190.33L683.526 144.171L682.78 144.692Z" fill="#FF3E12"/>
</svg>
