<svg width="1225" height="824" viewBox="0 0 1225 824" fill="none" xmlns="http://www.w3.org/2000/svg">
  <path d="M47.4809 309.883C50.7202 300.792 56.5195 293.478 64.8788 287.939C73.3427 282.297 83.8964 279.476 96.54 279.476C121.096 279.476 137.083 289.507 144.502 309.569C130.291 304.449 113.99 301.889 95.5995 301.889C76.0595 301.889 60.02 304.554 47.4809 309.883ZM148.264 351.105C148.682 345.462 148.891 341.492 148.891 339.193C148.891 327.908 147.428 318.033 144.502 309.569C155.16 313.54 163.572 319.078 169.737 326.184C175.902 333.185 179.141 341.492 179.455 351.105H148.264ZM152.809 480.101C154.69 474.876 155.63 469.181 155.63 463.016C155.63 453.507 154.011 445.514 150.771 439.035C147.637 432.557 142.935 427.071 136.665 422.578C130.5 418.084 122.402 413.905 112.371 410.039L68.954 393.424C53.3847 387.364 41.4726 380.676 33.2177 373.362C24.9628 366.047 20.8354 357.113 20.8354 346.56C20.8354 337.991 23.1342 330.625 27.7319 324.459C32.3295 318.294 38.9125 313.436 47.4809 309.883C45.809 314.689 44.9731 319.653 44.9731 324.773C44.9731 332.923 46.436 339.715 49.3618 345.149C52.392 350.478 56.9374 355.076 62.998 358.942C69.163 362.808 77.5746 366.831 88.2328 371.011L131.649 387.938C147.01 394.104 158.87 401.47 167.229 410.039C175.588 418.502 179.768 428.586 179.768 440.289C179.768 449.171 177.469 457.008 172.872 463.8C168.378 470.487 161.691 475.921 152.809 480.101ZM51.3994 481.668C27.2617 473.1 15.0361 457.06 14.7226 433.549H45.9135C45.4955 436.789 45.2866 441.491 45.2866 447.656C45.2866 461.449 47.3242 472.786 51.3994 481.668ZM102.026 511.918C89.9047 511.918 79.56 509.358 70.9916 504.238C62.4233 499.014 55.8925 491.49 51.3994 481.668C65.4013 486.579 82.956 489.035 104.063 489.035C124.021 489.035 140.27 486.057 152.809 480.101C149.465 489.714 143.457 497.446 134.784 503.298C126.111 509.045 115.192 511.918 102.026 511.918ZM255.943 315.682C269.422 291.544 289.746 279.476 316.914 279.476C330.185 279.476 341.626 282.558 351.24 288.723C360.957 294.784 369.003 303.457 375.377 314.742C359.39 307.427 339.902 303.77 316.914 303.77C293.926 303.77 273.602 307.741 255.943 315.682ZM375.377 476.182C380.915 466.046 384.991 454.03 387.603 440.132C390.32 426.13 391.678 410.77 391.678 394.051C391.678 378.168 390.32 363.487 387.603 350.008C384.991 336.528 380.915 324.773 375.377 314.742C391.156 321.743 403.277 331.931 411.741 345.306C420.205 358.681 424.436 374.929 424.436 394.051C424.436 414.114 420.205 431.094 411.741 444.991C403.277 458.784 391.156 469.181 375.377 476.182ZM258.451 476.182C242.15 468.972 229.506 458.471 220.52 444.678C211.638 430.78 207.197 413.905 207.197 394.051C207.197 375.661 211.429 359.83 219.893 346.56C228.461 333.185 240.478 322.892 255.943 315.682C250.614 325.713 246.591 337.364 243.874 350.635C241.262 363.905 239.956 378.377 239.956 394.051C239.956 410.352 241.523 425.503 244.658 439.505C247.792 453.507 252.39 465.733 258.451 476.182ZM316.914 511.918C304.166 511.918 292.881 508.836 283.059 502.671C273.236 496.401 265.034 487.572 258.451 476.182C274.751 483.497 294.239 487.154 316.914 487.154C339.902 487.154 359.39 483.497 375.377 476.182C369.212 487.676 361.219 496.506 351.396 502.671C341.679 508.836 330.185 511.918 316.914 511.918ZM491.207 476.809C481.385 472.002 473.966 465.524 468.95 457.374C463.935 449.119 461.427 439.349 461.427 428.063V283.237H489.013V462.703C489.013 468.032 489.744 472.734 491.207 476.809ZM603.275 476.809C604.738 472.734 605.469 468.032 605.469 462.703V283.237H633.839V428.063C633.839 439.349 631.227 449.119 626.002 457.374C620.882 465.524 613.306 472.002 603.275 476.809ZM547.163 511.918C537.549 511.918 528.876 510.403 521.144 507.373C513.516 504.238 507.142 500.059 502.022 494.834C497.006 489.505 493.401 483.497 491.207 476.809C505.313 483.706 523.965 487.154 547.163 487.154C570.464 487.154 589.168 483.706 603.275 476.809C601.185 483.497 597.632 489.505 592.617 494.834C587.601 500.059 581.227 504.238 573.495 507.373C565.762 510.403 556.985 511.918 547.163 511.918ZM685.249 283.237H712.208V485.273H836.031V508H685.249V283.237ZM897.943 396.559C884.463 393.32 874.066 385.64 866.752 373.519L813.461 283.551V283.237H844.025L887.285 362.547C891.464 370.279 894.233 376.392 895.592 380.885C896.95 385.274 897.734 390.499 897.943 396.559ZM923.178 396.559C923.387 390.394 924.118 385.117 925.372 380.729C926.73 376.235 929.552 370.175 933.836 362.547L979.133 283.237H1009.54V283.551L953.115 373.832C949.144 380.102 944.703 385.117 939.792 388.879C934.985 392.641 929.447 395.201 923.178 396.559ZM897.943 396.559C901.705 397.5 905.989 397.97 910.795 397.97C915.289 397.97 919.416 397.5 923.178 396.559V508H897.943V396.559Z" fill="#FF3E12" />
  <path d="M1105.05 379.945L1104.84 380.922L1106.17 381.213L1106.05 379.852L1105.05 379.945ZM1074.33 359.099L1075.16 358.537L1075.15 358.527L1074.33 359.099ZM1021.98 283.864H1020.98V284.178L1021.16 284.435L1021.98 283.864ZM1021.98 283.237V282.237H1020.98V283.237H1021.98ZM1055.99 283.237L1056.83 282.697L1056.54 282.237H1055.99V283.237ZM1090 336.215L1090.85 335.678L1090.84 335.675L1090 336.215ZM1132.32 379.945L1131.33 379.792L1131.13 381.137L1132.47 380.934L1132.32 379.945ZM1149.09 336.528L1149.93 337.077L1149.93 337.077L1149.09 336.528ZM1184.05 283.237V282.237H1183.51L1183.21 282.689L1184.05 283.237ZM1215.55 283.237H1216.55V282.237H1215.55V283.237ZM1215.55 283.551L1216.38 284.111L1216.55 283.857V283.551H1215.55ZM1164.45 359.099L1163.63 358.538L1163.62 358.544L1164.45 359.099ZM1150.5 373.205L1149.96 372.365L1149.95 372.37L1150.5 373.205ZM1104.74 407.844L1103.75 407.709L1103.56 409.107L1104.94 408.824L1104.74 407.844ZM1105.05 379.945L1105.27 378.969L1103.88 378.66L1104.06 380.073L1105.05 379.945ZM1132.32 379.945L1133.32 380.066L1133.49 378.653L1132.1 378.97L1132.32 379.945ZM1132.32 407.844L1132.11 408.822L1133.51 409.123L1133.31 407.709L1132.32 407.844ZM1013.99 507.687L1013.17 507.108L1012.99 507.368V507.687H1013.99ZM1064.3 436.684L1063.49 436.095L1063.48 436.106L1064.3 436.684ZM1083.42 417.092L1083.99 417.912L1084 417.91L1083.42 417.092ZM1104.74 407.844L1105.73 407.986L1105.93 406.594L1104.55 406.863L1104.74 407.844ZM1098.94 427.75L1098.02 427.349L1098.02 427.356L1098.94 427.75ZM1086.4 449.85L1085.57 449.288L1085.57 449.293L1086.4 449.85ZM1047.37 508V509H1047.9L1048.2 508.557L1047.37 508ZM1013.99 508H1012.99V509H1013.99V508ZM1152.86 452.201L1152.03 452.765L1152.03 452.77L1152.86 452.201ZM1138.59 428.063L1137.68 428.477L1137.69 428.489L1138.59 428.063ZM1132.32 407.844L1132.48 406.857L1131.12 406.636L1131.34 408.001L1132.32 407.844ZM1153.8 416.622L1153.22 417.441L1153.23 417.448L1153.8 416.622ZM1173.07 436.371L1173.89 435.788L1173.89 435.785L1173.07 436.371ZM1224.17 507.687H1225.17V507.365L1224.98 507.104L1224.17 507.687ZM1224.17 508V509H1225.17V508H1224.17ZM1191.41 508L1190.59 508.568L1190.89 509H1191.41V508ZM1105.26 378.968C1092.56 376.202 1082.54 369.403 1075.16 358.537L1073.5 359.661C1081.17 370.946 1091.63 378.046 1104.84 380.922L1105.26 378.968ZM1075.15 358.527L1022.8 283.293L1021.16 284.435L1073.51 359.67L1075.15 358.527ZM1022.98 283.864V283.237H1020.98V283.864H1022.98ZM1021.98 284.237H1055.99V282.237H1021.98V284.237ZM1055.15 283.778L1089.16 336.755L1090.84 335.675L1056.83 282.697L1055.15 283.778ZM1089.16 336.751C1097.64 350.099 1102.61 364.524 1104.05 380.038L1106.05 379.852C1104.57 364.018 1099.5 349.29 1090.85 335.678L1089.16 336.751ZM1133.31 380.097C1135.69 364.672 1141.23 350.334 1149.93 337.077L1148.26 335.98C1139.4 349.472 1133.76 364.079 1131.33 379.792L1133.31 380.097ZM1149.93 337.077L1184.88 283.786L1183.21 282.689L1148.26 335.98L1149.93 337.077ZM1184.05 284.237H1215.55V282.237H1184.05V284.237ZM1214.55 283.237V283.551H1216.55V283.237H1214.55ZM1214.72 282.991L1163.63 358.538L1165.28 359.659L1216.38 284.111L1214.72 282.991ZM1163.62 358.544C1159.72 364.401 1155.16 369 1149.96 372.366L1151.05 374.045C1156.51 370.513 1161.25 365.709 1165.29 359.653L1163.62 358.544ZM1149.95 372.37C1144.86 375.73 1138.94 377.93 1132.17 378.956L1132.47 380.934C1139.5 379.869 1145.7 377.576 1151.06 374.04L1149.95 372.37ZM1105.73 407.979C1106.36 403.339 1106.68 398.801 1106.68 394.365H1104.68C1104.68 398.706 1104.37 403.154 1103.75 407.709L1105.73 407.979ZM1106.68 394.365C1106.68 387.98 1106.47 383.122 1106.04 379.817L1104.06 380.073C1104.47 383.247 1104.68 388.001 1104.68 394.365H1106.68ZM1104.83 380.921C1108.69 381.777 1113.26 382.199 1118.53 382.199V380.199C1113.35 380.199 1108.94 379.784 1105.27 378.969L1104.83 380.921ZM1118.53 382.199C1124.11 382.199 1128.79 381.778 1132.55 380.92L1132.1 378.97C1128.54 379.783 1124.02 380.199 1118.53 380.199V382.199ZM1131.33 379.823C1130.7 384.978 1130.38 389.826 1130.38 394.365H1132.38C1132.38 389.918 1132.69 385.152 1133.32 380.066L1131.33 379.823ZM1130.38 394.365C1130.38 398.801 1130.7 403.339 1131.33 407.979L1133.31 407.709C1132.69 403.154 1132.38 398.706 1132.38 394.365H1130.38ZM1132.53 406.867C1128.58 406.012 1123.91 405.59 1118.53 405.59V407.59C1123.81 407.59 1128.33 408.005 1132.11 408.822L1132.53 406.867ZM1118.53 405.59C1113.36 405.59 1108.69 406.012 1104.54 406.865L1104.94 408.824C1108.93 408.004 1113.46 407.59 1118.53 407.59V405.59ZM1014.8 508.265L1065.11 437.262L1063.48 436.106L1013.17 507.108L1014.8 508.265ZM1065.11 437.273C1071.23 428.873 1077.52 422.43 1083.99 417.912L1082.85 416.272C1076.15 420.949 1069.7 427.568 1063.49 436.095L1065.11 437.273ZM1084 417.91C1090.58 413.283 1097.55 410.26 1104.93 408.826L1104.55 406.863C1096.88 408.354 1089.64 411.496 1082.85 416.274L1084 417.91ZM1103.75 407.703C1102.82 414.188 1100.91 420.736 1098.02 427.349L1099.85 428.151C1102.81 421.389 1104.77 414.666 1105.73 407.986L1103.75 407.703ZM1098.02 427.356C1095.23 433.863 1091.09 441.172 1085.57 449.288L1087.23 450.412C1092.79 442.227 1097 434.803 1099.86 428.144L1098.02 427.356ZM1085.57 449.293L1046.54 507.443L1048.2 508.557L1087.23 450.407L1085.57 449.293ZM1047.37 507H1013.99V509H1047.37V507ZM1014.99 508V507.687H1012.99V508H1014.99ZM1153.68 451.638C1147.43 442.468 1142.71 434.47 1139.5 427.638L1137.69 428.489C1140.96 435.45 1145.74 443.543 1152.03 452.765L1153.68 451.638ZM1139.5 427.65C1136.4 420.824 1134.34 414.171 1133.31 407.687L1131.34 408.001C1132.4 414.684 1134.51 421.51 1137.68 428.477L1139.5 427.65ZM1132.16 408.831C1139.74 410.061 1146.76 412.928 1153.22 417.441L1154.37 415.802C1147.67 411.12 1140.37 408.136 1132.48 406.857L1132.16 408.831ZM1153.23 417.448C1159.69 421.857 1166.04 428.347 1172.26 436.956L1173.89 435.785C1167.57 427.048 1161.06 420.372 1154.36 415.796L1153.23 417.448ZM1172.26 436.953L1223.36 508.269L1224.98 507.104L1173.89 435.788L1172.26 436.953ZM1223.17 507.687V508H1225.17V507.687H1223.17ZM1224.17 507H1191.41V509H1224.17V507ZM1192.24 507.432L1153.68 451.633L1152.03 452.77L1190.59 508.568L1192.24 507.432Z" fill="#FF3E12" />
  <path d="M1165.64 632.124C1166.69 632.124 1167.54 632.365 1168.17 632.848C1168.81 633.33 1169.13 633.978 1169.13 634.79C1169.13 635.658 1168.82 636.328 1168.21 636.802L1169 636.859L1169 637.938L1159.25 637.938L1159.25 636.764L1162.89 636.764C1162.3 636.29 1162 635.636 1162 634.803C1162 633.969 1162.32 633.315 1162.95 632.841C1163.58 632.363 1164.44 632.124 1165.54 632.124L1165.64 632.124ZM1165.51 633.298C1164.71 633.298 1164.09 633.453 1163.66 633.762C1163.22 634.071 1163 634.515 1163 635.095C1163 635.869 1163.36 636.426 1164.08 636.764L1167.05 636.764C1167.77 636.404 1168.13 635.844 1168.13 635.082C1168.13 634.519 1167.91 634.081 1167.48 633.768C1167.04 633.455 1166.38 633.298 1165.51 633.298ZM1167.28 628.468L1162.13 626.868L1162.13 625.611L1170.06 628.373C1171.2 628.8 1171.77 629.479 1171.77 630.41L1171.75 630.632L1171.67 631.07L1170.72 631.07L1170.75 630.753C1170.75 630.355 1170.67 630.046 1170.5 629.826C1170.34 629.602 1170.05 629.418 1169.62 629.274L1168.92 629.014L1162.13 631.464L1162.13 630.182L1167.28 628.468ZM1164.88 618.426C1164.58 619.471 1164.21 620.233 1163.78 620.711C1163.34 621.185 1162.79 621.422 1162.15 621.422C1161.42 621.422 1160.82 621.132 1160.35 620.552C1159.87 619.968 1159.63 619.211 1159.63 618.28C1159.63 617.645 1159.75 617.08 1160 616.585C1160.24 616.086 1160.58 615.701 1161.01 615.43C1161.45 615.155 1161.92 615.017 1162.43 615.017L1162.43 616.242C1161.87 616.242 1161.43 616.42 1161.12 616.775C1160.79 617.131 1160.63 617.632 1160.63 618.28C1160.63 618.881 1160.77 619.35 1161.03 619.689C1161.3 620.023 1161.66 620.19 1162.13 620.19C1162.51 620.19 1162.83 620.032 1163.09 619.714C1163.35 619.393 1163.59 618.849 1163.8 618.083C1164.02 617.313 1164.26 616.712 1164.52 616.28C1164.78 615.844 1165.08 615.523 1165.43 615.315C1165.77 615.104 1166.18 614.998 1166.65 614.998C1167.4 614.998 1168 615.29 1168.45 615.874C1168.9 616.458 1169.13 617.239 1169.13 618.216C1169.13 618.851 1169.01 619.444 1168.77 619.994C1168.52 620.544 1168.19 620.969 1167.76 621.27C1167.34 621.566 1166.86 621.714 1166.32 621.714L1166.32 620.489C1166.88 620.489 1167.32 620.284 1167.65 619.873C1167.97 619.458 1168.13 618.906 1168.13 618.216C1168.13 617.573 1168 617.08 1167.74 616.737C1167.47 616.395 1167.12 616.223 1166.66 616.223C1166.21 616.223 1165.86 616.382 1165.62 616.699C1165.37 617.017 1165.12 617.592 1164.88 618.426ZM1168.32 609.374C1168.86 609.831 1169.13 610.502 1169.13 611.386C1169.13 612.118 1168.92 612.677 1168.49 613.062C1168.06 613.443 1167.43 613.635 1166.6 613.64L1162.13 613.64L1162.13 612.465L1166.57 612.465C1167.61 612.465 1168.13 612.042 1168.13 611.196C1168.13 610.299 1167.8 609.702 1167.13 609.406L1162.13 609.406L1162.13 608.231L1169 608.231L1169 609.349L1168.32 609.374ZM1167.18 602.442C1166.86 602.442 1166.62 602.563 1166.44 602.804C1166.26 603.041 1166.11 603.458 1165.98 604.055C1165.86 604.647 1165.71 605.119 1165.53 605.47C1165.35 605.817 1165.14 606.075 1164.89 606.245C1164.65 606.41 1164.36 606.492 1164.02 606.492C1163.45 606.492 1162.98 606.255 1162.59 605.781C1162.2 605.303 1162 604.694 1162 603.953C1162 603.174 1162.21 602.544 1162.61 602.062C1163.01 601.575 1163.52 601.332 1164.15 601.332L1164.15 602.512C1163.83 602.512 1163.55 602.65 1163.32 602.925C1163.09 603.196 1162.97 603.538 1162.97 603.953C1162.97 604.381 1163.06 604.715 1163.25 604.956C1163.44 605.197 1163.68 605.318 1163.98 605.318C1164.26 605.318 1164.48 605.206 1164.62 604.981C1164.76 604.757 1164.9 604.353 1165.03 603.769C1165.16 603.181 1165.32 602.705 1165.5 602.341C1165.68 601.977 1165.9 601.708 1166.16 601.535C1166.42 601.357 1166.73 601.268 1167.1 601.268C1167.71 601.268 1168.2 601.514 1168.57 602.004C1168.94 602.495 1169.13 603.132 1169.13 603.915C1169.13 604.465 1169.03 604.952 1168.83 605.375C1168.64 605.798 1168.37 606.13 1168.02 606.372C1167.67 606.609 1167.29 606.727 1166.89 606.727L1166.89 605.553C1167.28 605.532 1167.59 605.375 1167.83 605.083C1168.05 604.787 1168.17 604.397 1168.17 603.915C1168.17 603.471 1168.08 603.115 1167.9 602.849C1167.72 602.578 1167.48 602.442 1167.18 602.442ZM1165.64 593.937C1166.69 593.937 1167.53 594.176 1168.17 594.654C1168.81 595.132 1169.13 595.779 1169.13 596.596C1169.13 597.43 1168.86 598.086 1168.33 598.564L1171.64 598.564L1171.64 599.738L1162.13 599.738L1162.13 598.666L1162.89 598.608C1162.3 598.13 1162 597.466 1162 596.615C1162 595.79 1162.32 595.138 1162.94 594.66C1163.56 594.178 1164.43 593.937 1165.53 593.937L1165.64 593.937ZM1165.51 595.111C1164.73 595.111 1164.12 595.276 1163.67 595.606C1163.23 595.936 1163 596.389 1163 596.964C1163 597.675 1163.32 598.208 1163.95 598.564L1167.23 598.564C1167.86 598.213 1168.17 597.675 1168.17 596.952C1168.17 596.389 1167.95 595.942 1167.5 595.612C1167.05 595.278 1166.39 595.111 1165.51 595.111ZM1169.13 589.588C1169.13 590.519 1168.82 591.277 1168.21 591.861C1167.6 592.445 1166.78 592.737 1165.76 592.737L1165.54 592.737C1164.86 592.737 1164.25 592.608 1163.72 592.35C1163.18 592.087 1162.76 591.723 1162.46 591.258C1162.16 590.788 1162 590.28 1162 589.734C1162 588.841 1162.3 588.147 1162.89 587.652C1163.48 587.157 1164.32 586.91 1165.41 586.91L1165.9 586.91L1165.9 591.562C1166.58 591.546 1167.13 591.349 1167.55 590.972C1167.96 590.591 1168.17 590.109 1168.17 589.525C1168.17 589.11 1168.08 588.759 1167.91 588.471C1167.75 588.183 1167.52 587.932 1167.24 587.716L1167.8 586.999C1168.68 587.574 1169.13 588.437 1169.13 589.588ZM1162.97 589.734C1162.97 590.208 1163.14 590.606 1163.49 590.928C1163.83 591.249 1164.32 591.448 1164.94 591.524L1164.94 588.084L1164.85 588.084C1164.25 588.118 1163.79 588.279 1163.46 588.566C1163.13 588.854 1162.97 589.243 1162.97 589.734ZM1162.13 584.434L1163 584.396C1162.33 583.871 1162 583.186 1162 582.339C1162 580.888 1162.82 580.156 1164.46 580.143L1169 580.143L1169 581.317L1164.46 581.317C1163.96 581.322 1163.59 581.436 1163.36 581.66C1163.12 581.88 1163 582.225 1163 582.695C1163 583.076 1163.1 583.41 1163.31 583.698C1163.51 583.986 1163.78 584.21 1164.11 584.371L1169 584.371L1169 585.545L1162.13 585.545L1162.13 584.434ZM1165.51 578.658C1164.46 578.658 1163.61 578.408 1162.97 577.909C1162.33 577.409 1162 576.756 1162 575.947C1162 575.143 1162.28 574.506 1162.83 574.037L1159.25 574.037L1159.25 572.862L1169 572.862L1169 573.941L1168.26 573.999C1168.84 574.468 1169.13 575.122 1169.13 575.96C1169.13 576.756 1168.8 577.405 1168.15 577.909C1167.5 578.408 1166.65 578.658 1165.6 578.658L1165.51 578.658ZM1165.64 577.483C1166.42 577.483 1167.03 577.323 1167.47 577.001C1167.91 576.679 1168.13 576.235 1168.13 575.668C1168.13 574.923 1167.8 574.379 1167.13 574.037L1163.97 574.037C1163.33 574.388 1163 574.927 1163 575.655C1163 576.231 1163.22 576.679 1163.67 577.001C1164.11 577.323 1164.77 577.483 1165.64 577.483ZM1169.13 568.184C1169.13 569.115 1168.82 569.873 1168.21 570.457C1167.6 571.041 1166.78 571.333 1165.76 571.333L1165.54 571.333C1164.86 571.333 1164.25 571.203 1163.72 570.945C1163.18 570.683 1162.76 570.319 1162.46 569.854C1162.16 569.384 1162 568.876 1162 568.33C1162 567.437 1162.3 566.743 1162.89 566.248C1163.48 565.753 1164.32 565.505 1165.41 565.505L1165.9 565.505L1165.9 570.158C1166.58 570.141 1167.13 569.944 1167.55 569.568C1167.96 569.187 1168.17 568.705 1168.17 568.121C1168.17 567.706 1168.08 567.355 1167.91 567.067C1167.75 566.779 1167.52 566.527 1167.24 566.312L1167.8 565.594C1168.68 566.17 1169.13 567.033 1169.13 568.184ZM1162.97 568.33C1162.97 568.804 1163.14 569.202 1163.49 569.523C1163.83 569.845 1164.32 570.044 1164.94 570.12L1164.94 566.68L1164.85 566.68C1164.25 566.714 1163.79 566.874 1163.46 567.162C1163.13 567.45 1162.97 567.839 1162.97 568.33ZM1165.51 564.426C1164.46 564.426 1163.61 564.177 1162.97 563.677C1162.33 563.178 1162 562.524 1162 561.716C1162 560.912 1162.28 560.275 1162.83 559.805L1159.25 559.805L1159.25 558.631L1169 558.631L1169 559.71L1168.26 559.767C1168.84 560.237 1169.13 560.891 1169.13 561.729C1169.13 562.524 1168.8 563.174 1168.15 563.677C1167.5 564.177 1166.65 564.426 1165.6 564.426L1165.51 564.426ZM1165.64 563.252C1166.42 563.252 1167.03 563.091 1167.47 562.77C1167.91 562.448 1168.13 562.004 1168.13 561.437C1168.13 560.692 1167.8 560.148 1167.13 559.805L1163.97 559.805C1163.33 560.156 1163 560.696 1163 561.424C1163 561.999 1163.22 562.448 1163.67 562.77C1164.11 563.091 1164.77 563.252 1165.64 563.252ZM1164.88 550.671C1164.58 551.716 1164.21 552.478 1163.78 552.956C1163.34 553.43 1162.79 553.667 1162.15 553.667C1161.42 553.667 1160.82 553.377 1160.35 552.797C1159.87 552.213 1159.63 551.456 1159.63 550.525C1159.63 549.89 1159.75 549.325 1160 548.83C1160.24 548.331 1160.58 547.946 1161.01 547.675C1161.45 547.4 1161.92 547.262 1162.43 547.262L1162.43 548.487C1161.87 548.487 1161.43 548.665 1161.12 549.021C1160.79 549.376 1160.63 549.877 1160.63 550.525C1160.63 551.126 1160.77 551.596 1161.03 551.934C1161.3 552.268 1161.66 552.436 1162.13 552.436C1162.51 552.436 1162.83 552.277 1163.09 551.959C1163.35 551.638 1163.59 551.094 1163.8 550.328C1164.02 549.558 1164.26 548.957 1164.52 548.525C1164.78 548.09 1165.08 547.768 1165.43 547.561C1165.77 547.349 1166.18 547.243 1166.65 547.243C1167.4 547.243 1168 547.535 1168.45 548.119C1168.9 548.703 1169.13 549.484 1169.13 550.461C1169.13 551.096 1169.01 551.689 1168.77 552.239C1168.52 552.789 1168.19 553.214 1167.76 553.515C1167.34 553.811 1166.86 553.959 1166.32 553.959L1166.32 552.734C1166.88 552.734 1167.32 552.529 1167.65 552.118C1167.97 551.703 1168.13 551.151 1168.13 550.461C1168.13 549.818 1168 549.325 1167.74 548.982C1167.47 548.64 1167.12 548.468 1166.66 548.468C1166.21 548.468 1165.86 548.627 1165.62 548.944C1165.37 549.262 1165.12 549.837 1164.88 550.671ZM1165.5 546.17C1164.83 546.17 1164.22 546.039 1163.69 545.777C1163.15 545.51 1162.73 545.142 1162.44 544.672C1162.15 544.198 1162 543.659 1162 543.054C1162 542.118 1162.33 541.363 1162.98 540.788C1163.62 540.208 1164.48 539.918 1165.56 539.918L1165.64 539.918C1166.31 539.918 1166.91 540.047 1167.44 540.305C1167.97 540.559 1168.39 540.925 1168.68 541.403C1168.98 541.877 1169.13 542.423 1169.13 543.041C1169.13 543.972 1168.8 544.727 1168.16 545.307C1167.51 545.883 1166.65 546.17 1165.58 546.17L1165.5 546.17ZM1165.64 544.99C1166.4 544.99 1167.02 544.814 1167.48 544.463C1167.94 544.107 1168.17 543.633 1168.17 543.041C1168.17 542.444 1167.94 541.97 1167.47 541.619C1167 541.268 1166.34 541.092 1165.5 541.092C1164.75 541.092 1164.14 541.272 1163.67 541.632C1163.2 541.987 1162.97 542.461 1162.97 543.054C1162.97 543.633 1163.2 544.101 1163.66 544.457C1164.12 544.812 1164.78 544.99 1165.64 544.99ZM1168.32 534.205C1168.86 534.662 1169.13 535.333 1169.13 536.217C1169.13 536.949 1168.92 537.508 1168.49 537.893C1168.06 538.274 1167.43 538.466 1166.6 538.471L1162.13 538.471L1162.13 537.296L1166.57 537.296C1167.61 537.296 1168.13 536.873 1168.13 536.027C1168.13 535.13 1167.8 534.533 1167.13 534.237L1162.13 534.237L1162.13 533.062L1169 533.062L1169 534.18L1168.32 534.205ZM1169 529.997L1169 531.171L1159.25 531.171L1159.25 529.997L1169 529.997Z" fill="#FF3E12" />
  <path d="M98.4267 547.237H149.21C158.196 547.237 165.302 549.118 170.526 552.88C175.751 556.537 178.677 562.18 179.304 569.808H98.4267V547.237ZM206.576 569.808C207.203 562.18 210.129 556.537 215.353 552.88C220.578 549.118 227.736 547.237 236.827 547.237H287.453V569.808H206.576ZM179.304 569.808H206.576V772H179.304V569.808ZM341.058 579.682C354.537 555.544 374.861 543.476 402.029 543.476C415.299 543.476 426.741 546.558 436.354 552.723C446.072 558.784 454.118 567.457 460.492 578.742C444.505 571.427 425.017 567.77 402.029 567.77C379.04 567.77 358.717 571.741 341.058 579.682ZM460.492 740.182C466.03 730.046 470.105 718.03 472.718 704.132C475.435 690.13 476.793 674.77 476.793 658.051C476.793 642.168 475.435 627.487 472.718 614.008C470.105 600.528 466.03 588.773 460.492 578.742C476.27 585.743 488.392 595.931 496.855 609.306C505.319 622.681 509.551 638.929 509.551 658.051C509.551 678.114 505.319 695.094 496.855 708.991C488.392 722.784 476.27 733.181 460.492 740.182ZM343.565 740.182C327.265 732.972 314.621 722.471 305.635 708.678C296.753 694.78 292.312 677.905 292.312 658.051C292.312 639.661 296.544 623.83 305.008 610.56C313.576 597.185 325.593 586.892 341.058 579.682C335.728 589.713 331.706 601.364 328.989 614.635C326.376 627.905 325.07 642.377 325.07 658.051C325.07 674.352 326.638 689.503 329.772 703.505C332.907 717.507 337.505 729.733 343.565 740.182ZM402.029 775.918C389.281 775.918 377.996 772.836 368.173 766.671C358.351 760.401 350.148 751.572 343.565 740.182C359.866 747.497 379.354 751.154 402.029 751.154C425.017 751.154 444.505 747.497 460.492 740.182C454.327 751.676 446.333 760.506 436.511 766.671C426.793 772.836 415.299 775.918 402.029 775.918ZM546.541 547.237H573.814V644.885H594.66C600.616 644.885 604.9 644.676 607.513 644.258C607.304 646.557 607.199 650.528 607.199 656.17C607.199 660.141 607.513 664.164 608.14 668.239C605.109 667.821 600.616 667.612 594.66 667.612H573.814V772H546.541V547.237ZM607.513 644.258C608.349 634.436 610.752 625.45 614.723 617.299C618.798 609.044 625.903 599.64 636.039 589.086L675.851 547.237H710.176V547.864L641.525 622.472C634.942 629.682 629.038 634.906 623.813 638.146C618.589 641.385 613.155 643.422 607.513 644.258ZM647.638 730.935C635.726 718.918 626.582 707.999 620.208 698.176C613.939 688.354 609.916 678.375 608.14 668.239C614.723 668.971 620.94 670.852 626.791 673.882C632.747 676.808 638.86 681.562 645.13 688.145L725.066 771.373V772H688.703L647.638 730.935ZM771.304 644.258C761.377 643.213 754.376 640.131 750.301 635.011C746.331 629.786 744.345 621.845 744.345 611.187V547.237H890.425V570.435H771.304V644.258ZM771.304 644.258C773.185 644.467 776.477 644.572 781.179 644.572H884.312V666.985H781.179C778.357 666.985 775.066 667.194 771.304 667.612V644.258ZM744.345 700.998C744.345 691.802 746.435 684.331 750.615 678.584C754.794 672.837 761.691 669.18 771.304 667.612V748.959H893.56V772H744.345V700.998ZM963.152 560.403C963.152 555.597 964.458 551.574 967.07 548.334C969.787 545.095 973.497 543.476 978.199 543.476C982.483 543.476 985.879 544.729 988.387 547.237C990.999 549.745 992.775 552.984 993.716 556.955L996.851 571.062C992.566 570.435 988.178 570.121 983.685 570.121C975.848 570.121 969.003 571.166 963.152 573.256V560.403ZM1101.55 547.237H1129.14V711.029C1129.14 719.597 1126.63 726.859 1121.61 732.815C1116.7 738.771 1110.02 743.16 1101.55 745.981V547.237ZM1067.85 747.862C1057.51 746.399 1049.04 742.481 1042.46 736.107C1035.88 729.733 1031.18 720.276 1028.35 707.737L996.851 571.062C1006.99 572.524 1015.24 576.443 1021.62 582.817C1028.09 589.086 1032.8 598.543 1035.72 611.187L1067.85 747.862ZM935.566 613.381C935.566 602.827 938.021 594.259 942.933 587.676C947.844 580.988 954.583 576.182 963.152 573.256V772H935.566V613.381ZM1086.35 775.918C1081.96 775.918 1078.51 774.612 1076 772C1073.6 769.388 1071.82 765.626 1070.67 760.715L1067.85 747.862C1072.66 748.594 1077.05 748.959 1081.02 748.959C1088.23 748.959 1095.07 747.967 1101.55 745.981V758.521C1101.55 763.954 1100.19 768.238 1097.48 771.373C1094.86 774.403 1091.15 775.918 1086.35 775.918Z" fill="#FF3E12" />
</svg>