<svg width="1397" height="1200" viewBox="0 0 1397 1200" fill="none" xmlns="http://www.w3.org/2000/svg">
<path d="M99.9414 118.312C106.803 99.0547 119.089 83.5599 136.797 71.8281C154.727 59.875 177.083 53.8984 203.867 53.8984C255.885 53.8984 289.753 75.1484 305.469 117.648C275.365 106.802 240.833 101.379 201.875 101.379C160.482 101.379 126.504 107.023 99.9414 118.312ZM313.438 205.637C314.323 193.684 314.766 185.272 314.766 180.402C314.766 156.496 311.667 135.578 305.469 117.648C328.047 126.06 345.866 137.792 358.926 152.844C371.986 167.674 378.848 185.272 379.512 205.637H313.438ZM323.066 478.898C327.051 467.831 329.043 455.767 329.043 442.707C329.043 422.564 325.612 405.63 318.75 391.906C312.109 378.182 302.148 366.561 288.867 357.043C275.807 347.525 258.652 338.671 237.402 330.48L145.43 295.285C112.448 282.447 87.2135 268.28 69.7266 252.785C52.2396 237.29 43.4961 218.365 43.4961 196.008C43.4961 177.857 48.3659 162.251 58.1055 149.191C67.8451 136.132 81.7904 125.839 99.9414 118.312C96.3997 128.495 94.6289 139.009 94.6289 149.855C94.6289 167.121 97.7279 181.509 103.926 193.02C110.345 204.309 119.974 214.048 132.812 222.238C145.872 230.428 163.691 238.951 186.27 247.805L278.242 283.664C310.781 296.724 335.905 312.329 353.613 330.48C371.322 348.41 380.176 369.771 380.176 394.562C380.176 413.378 375.306 429.979 365.566 444.367C356.048 458.534 341.882 470.044 323.066 478.898ZM108.242 482.219C57.1094 464.068 31.2109 430.09 30.5469 380.285H96.6211C95.7357 387.147 95.293 397.108 95.293 410.168C95.293 439.387 99.6094 463.404 108.242 482.219ZM215.488 546.301C189.811 546.301 167.897 540.878 149.746 530.031C131.595 518.964 117.76 503.026 108.242 482.219C137.904 492.622 175.091 497.824 219.805 497.824C262.083 497.824 296.504 491.516 323.066 478.898C315.983 499.263 303.255 515.643 284.883 528.039C266.51 540.214 243.379 546.301 215.488 546.301ZM541.543 130.598C570.098 79.4648 613.151 53.8984 670.703 53.8984C698.815 53.8984 723.053 60.4284 743.418 73.4883C764.004 86.3268 781.048 104.699 794.551 128.605C760.684 113.111 719.401 105.363 670.703 105.363C622.005 105.363 578.952 113.775 541.543 130.598ZM794.551 470.598C806.283 449.126 814.915 423.671 820.449 394.23C826.204 364.569 829.082 332.03 829.082 296.613C829.082 262.967 826.204 231.867 820.449 203.312C814.915 174.758 806.283 149.855 794.551 128.605C827.975 143.436 853.652 165.018 871.582 193.352C889.512 221.685 898.477 256.105 898.477 296.613C898.477 339.113 889.512 375.083 871.582 404.523C853.652 433.742 827.975 455.767 794.551 470.598ZM546.855 470.598C512.324 455.324 485.54 433.078 466.504 403.859C447.689 374.419 438.281 338.671 438.281 296.613C438.281 257.655 447.246 224.12 465.176 196.008C483.327 167.674 508.783 145.871 541.543 130.598C530.254 151.848 521.732 176.529 515.977 204.641C510.443 232.753 507.676 263.41 507.676 296.613C507.676 331.145 510.996 363.241 517.637 392.902C524.277 422.564 534.017 448.462 546.855 470.598ZM670.703 546.301C643.698 546.301 619.792 539.771 598.984 526.711C578.177 513.43 560.801 494.725 546.855 470.598C581.387 486.092 622.669 493.84 670.703 493.84C719.401 493.84 760.684 486.092 794.551 470.598C781.491 494.947 764.557 513.651 743.75 526.711C723.164 539.771 698.815 546.301 670.703 546.301ZM1039.92 471.926C1019.11 461.743 1003.4 448.02 992.773 430.754C982.148 413.267 976.836 392.57 976.836 368.664V61.8672H1035.27V442.043C1035.27 453.332 1036.82 463.293 1039.92 471.926ZM1277.32 471.926C1280.42 463.293 1281.97 453.332 1281.97 442.043V61.8672H1342.07V368.664C1342.07 392.57 1336.54 413.267 1325.47 430.754C1314.62 448.02 1298.57 461.743 1277.32 471.926ZM1158.46 546.301C1138.09 546.301 1119.72 543.091 1103.34 536.672C1087.18 530.031 1073.68 521.177 1062.83 510.109C1052.21 498.82 1044.57 486.092 1039.92 471.926C1069.8 486.535 1109.32 493.84 1158.46 493.84C1207.82 493.84 1247.44 486.535 1277.32 471.926C1272.9 486.092 1265.37 498.82 1254.75 510.109C1244.12 521.177 1230.62 530.031 1214.24 536.672C1197.86 543.091 1179.26 546.301 1158.46 546.301ZM54.4531 661.867H111.562V1089.86H373.867V1138H54.4531V661.867Z" fill="#FF3E12"/>
<path d="M624.27 862.73L623.844 864.685L626.515 865.266L626.261 862.545L624.27 862.73ZM559.191 818.57L560.846 817.447L560.84 817.437L560.833 817.428L559.191 818.57ZM448.293 659.195H446.293V659.823L446.651 660.338L448.293 659.195ZM448.293 657.867V655.867H446.293V657.867H448.293ZM520.344 657.867L522.027 656.787L521.436 655.867H520.344V657.867ZM592.395 770.094L594.082 769.021L594.078 769.013L592.395 770.094ZM682.043 862.73L680.066 862.425L679.651 865.116L682.343 864.708L682.043 862.73ZM717.57 770.758L719.242 771.855L719.243 771.855L717.57 770.758ZM791.613 657.867V655.867H790.533L789.941 656.77L791.613 657.867ZM858.352 657.867H860.352V655.867H858.352V657.867ZM858.352 658.531L860.008 659.652L860.352 659.144V658.531H858.352ZM750.109 818.57L748.453 817.45L748.445 817.461L750.109 818.57ZM720.559 848.453L719.472 846.774L719.464 846.779L719.457 846.784L720.559 848.453ZM623.605 921.832L621.624 921.562L621.242 924.358L624.007 923.791L623.605 921.832ZM624.27 862.73L624.703 860.778L621.921 860.16L622.286 862.986L624.27 862.73ZM682.043 862.73L684.028 862.974L684.374 860.146L681.597 860.781L682.043 862.73ZM682.043 921.832L681.62 923.787L684.41 924.39L684.025 921.562L682.043 921.832ZM431.359 1133.34L429.728 1132.18L429.359 1132.7V1133.34H431.359ZM537.941 982.926L536.325 981.748L536.317 981.759L536.31 981.769L537.941 982.926ZM578.449 941.422L579.594 943.062L579.6 943.058L578.449 941.422ZM623.605 921.832L625.585 922.115L625.983 919.332L623.224 919.869L623.605 921.832ZM611.32 964L609.488 963.198L609.485 963.205L609.482 963.212L611.32 964ZM584.758 1010.82L583.104 1009.69L583.097 1009.7L584.758 1010.82ZM502.082 1134V1136H503.148L503.743 1135.11L502.082 1134ZM431.359 1134H429.359V1136H431.359V1134ZM725.539 1015.8L723.887 1016.92L723.894 1016.93L725.539 1015.8ZM695.324 964.664L693.503 965.492L693.509 965.503L693.514 965.514L695.324 964.664ZM682.043 921.832L682.363 919.858L679.634 919.415L680.068 922.146L682.043 921.832ZM727.531 940.426L726.386 942.065L726.395 942.072L726.404 942.078L727.531 940.426ZM768.371 982.262L769.997 981.097L769.992 981.09L768.371 982.262ZM876.613 1133.34H878.613V1132.69L878.239 1132.17L876.613 1133.34ZM876.613 1134V1136H878.613V1134H876.613ZM807.219 1134L805.573 1135.14L806.17 1136H807.219V1134ZM624.695 860.776C597.753 854.91 576.498 840.491 560.846 817.447L557.537 819.694C573.759 843.577 595.89 858.598 623.844 864.685L624.695 860.776ZM560.833 817.428L449.935 658.053L446.651 660.338L557.55 819.713L560.833 817.428ZM450.293 659.195V657.867H446.293V659.195H450.293ZM448.293 659.867H520.344V655.867H448.293V659.867ZM518.661 658.948L590.712 771.174L594.078 769.013L522.027 656.787L518.661 658.948ZM590.707 771.167C608.69 799.458 619.209 830.034 622.278 862.916L626.261 862.545C623.132 829.021 612.401 797.839 594.082 769.021L590.707 771.167ZM684.02 863.036C689.066 830.341 700.803 799.953 719.242 771.855L715.898 769.661C697.15 798.229 685.202 829.156 680.066 862.425L684.02 863.036ZM719.243 771.855L793.286 658.964L789.941 656.77L715.898 769.661L719.243 771.855ZM791.613 659.867H858.352V655.867H791.613V659.867ZM856.352 657.867V658.531H860.352V657.867H856.352ZM856.695 657.411L748.453 817.45L751.766 819.691L860.008 659.652L856.695 657.411ZM748.445 817.461C740.166 829.88 730.504 839.636 719.472 846.774L721.645 850.132C733.191 842.661 743.23 832.495 751.773 819.68L748.445 817.461ZM719.457 846.784C708.657 853.912 696.099 858.578 681.743 860.753L682.343 864.708C697.206 862.456 710.324 857.604 721.66 850.122L719.457 846.784ZM625.587 922.102C626.927 912.278 627.598 902.67 627.598 893.277H623.598C623.598 902.479 622.94 911.907 621.624 921.562L625.587 922.102ZM627.598 893.277C627.598 879.753 627.155 869.467 626.253 862.475L622.286 862.986C623.154 869.717 623.598 879.796 623.598 893.277H627.598ZM623.836 864.683C631.987 866.494 641.658 867.387 652.824 867.387V863.387C641.855 863.387 632.49 862.508 624.703 860.778L623.836 864.683ZM652.824 867.387C664.642 867.387 674.544 866.496 682.489 864.68L681.597 860.781C674.047 862.506 664.47 863.387 652.824 863.387V867.387ZM680.058 862.487C678.721 873.403 678.051 883.667 678.051 893.277H682.051C682.051 883.851 682.708 873.751 684.028 862.974L680.058 862.487ZM678.051 893.277C678.051 902.67 678.722 912.278 680.061 922.102L684.025 921.562C682.708 911.907 682.051 902.479 682.051 893.277H678.051ZM682.466 919.877C674.098 918.068 664.21 917.176 652.824 917.176V921.176C664.017 921.176 673.607 922.054 681.62 923.787L682.466 919.877ZM652.824 917.176C641.872 917.176 631.995 918.069 623.204 919.873L624.007 923.791C632.482 922.053 642.083 921.176 652.824 921.176V917.176ZM432.991 1134.49L539.573 984.082L536.31 981.769L429.728 1132.18L432.991 1134.49ZM539.558 984.103C552.525 966.301 565.876 952.642 579.594 943.062L577.304 939.782C563.131 949.681 549.478 963.691 536.325 981.748L539.558 984.103ZM579.6 943.058C593.552 933.248 608.344 926.837 623.987 923.795L623.224 919.869C606.992 923.025 591.68 929.674 577.299 939.786L579.6 943.058ZM621.626 921.549C619.661 935.299 615.621 949.181 609.488 963.198L613.153 964.802C619.416 950.485 623.565 936.255 625.585 922.115L621.626 921.549ZM609.482 963.212C603.571 977.005 594.788 992.496 583.104 1009.69L586.412 1011.94C598.191 994.605 607.117 978.885 613.159 964.788L609.482 963.212ZM583.097 1009.7L500.421 1132.89L503.743 1135.11L586.418 1011.93L583.097 1009.7ZM502.082 1132H431.359V1136H502.082V1132ZM433.359 1134V1133.34H429.359V1134H433.359ZM727.192 1014.67C713.945 995.243 703.936 978.294 697.134 963.814L693.514 965.514C700.437 980.253 710.57 997.393 723.887 1016.92L727.192 1014.67ZM697.145 963.836C690.569 949.369 686.2 935.264 684.018 921.518L680.068 922.146C682.313 936.291 686.798 950.741 693.503 965.492L697.145 963.836ZM681.723 923.806C697.799 926.413 712.681 932.493 726.386 942.065L728.676 938.786C714.491 928.879 699.048 922.563 682.363 919.858L681.723 923.806ZM726.404 942.078C740.105 951.429 753.561 965.188 766.75 983.433L769.992 981.09C756.619 962.59 742.848 948.459 728.659 938.774L726.404 942.078ZM766.745 983.427L874.988 1134.5L878.239 1132.17L769.997 981.097L766.745 983.427ZM874.613 1133.34V1134H878.613V1133.34H874.613ZM876.613 1132H807.219V1136H876.613V1132ZM808.864 1132.86L727.184 1014.66L723.894 1016.93L805.573 1135.14L808.864 1132.86Z" fill="#FF3E12"/>
</svg>
