<svg width="955" height="604" viewBox="0 0 955 604" fill="none" xmlns="http://www.w3.org/2000/svg">
<path d="M24.986 23.154C34.268 19.108 46.406 17.204 60.686 17.204C74.014 17.204 86.628 19.108 96.862 22.916C91.388 7.92199 79.488 0.543997 61.4 0.543997C41.884 0.543997 29.508 10.302 24.986 23.154ZM99.718 53.618H122.804C122.328 38.862 112.094 28.628 96.862 22.916C99.004 28.866 100.194 36.244 100.194 44.812C100.194 47.668 99.956 50.524 99.718 53.618ZM103.05 149.294C116.378 143.106 123.042 132.872 123.042 119.782C123.042 101.694 109 89.556 87.342 80.988L55.212 68.374C33.078 59.806 23.082 52.666 23.082 34.102C23.082 30.294 23.796 26.486 24.986 23.154C12.372 28.39 5.232 37.434 5.232 50.286C5.232 67.184 20.226 76.942 40.932 85.034L73.062 97.41C94.244 105.502 105.192 115.022 105.192 136.68C105.192 141.202 104.478 145.486 103.05 149.294ZM27.842 150.484C24.748 143.582 23.32 135.252 23.32 125.256C23.32 121.924 23.32 118.354 23.796 114.784H0.71C0.948001 133.348 11.182 144.534 27.842 150.484ZM65.446 172.856C85.676 172.856 98.29 162.86 103.05 149.294C94.006 153.578 81.868 155.958 66.874 155.958C52.118 155.958 38.79 154.292 27.842 150.484C34.506 165.002 47.358 172.856 65.446 172.856ZM179.537 27.438C192.151 21.726 207.621 18.632 224.757 18.632C241.417 18.632 256.173 21.25 268.073 26.724C259.029 10.54 244.987 0.543997 224.757 0.543997C203.337 0.543997 188.819 10.778 179.537 27.438ZM268.073 146.438C291.159 136.204 304.487 115.736 304.487 85.51C304.487 56.712 291.159 36.958 268.073 26.724C276.403 41.956 280.211 62.662 280.211 85.51C280.211 109.548 276.403 130.968 268.073 146.438ZM181.441 146.438C172.397 130.968 167.637 109.548 167.637 85.51C167.637 62.9 171.445 42.67 179.537 27.438C157.165 37.91 143.361 57.664 143.361 85.51C143.361 115.736 157.879 135.966 181.441 146.438ZM224.757 172.856C244.987 172.856 259.267 162.86 268.073 146.438C256.173 151.912 241.417 154.53 224.757 154.53C208.335 154.53 193.579 151.912 181.441 146.438C190.961 162.86 205.479 172.856 224.757 172.856ZM354.008 146.914C352.818 143.582 352.342 140.012 352.342 136.442V3.39999H331.874V110.738C331.874 127.636 339.49 139.774 354.008 146.914ZM437.07 146.914C452.064 139.774 459.68 127.398 459.68 110.738V3.39999H438.736V136.442C438.736 140.012 438.26 143.582 437.07 146.914ZM395.42 172.856C418.03 172.856 432.548 161.432 437.07 146.914C426.836 151.912 412.794 154.53 395.42 154.53C378.284 154.53 364.242 151.912 354.008 146.914C358.768 161.432 373.286 172.856 395.42 172.856ZM497.823 170H609.683V153.102H517.815V3.39999H497.823V170ZM682.054 75.038C681.102 64.804 678.246 54.094 670.868 42.67L645.64 3.39999H620.412V3.876L659.206 59.568C664.68 67.66 672.058 72.896 682.054 75.038ZM702.284 75.038C712.518 73.372 720.134 68.374 726.084 59.568L763.926 3.63799V3.39999H740.602L714.66 42.908C707.282 54.094 703.712 65.042 702.284 75.038ZM681.816 95.744C685.148 95.03 688.48 94.792 692.05 94.792C695.62 94.792 698.952 95.03 702.284 95.744C701.808 92.412 701.57 89.08 701.57 85.748C701.57 82.416 701.808 78.846 702.284 75.038C699.19 75.752 695.62 75.99 692.05 75.99C688.48 75.99 685.148 75.752 682.054 75.038C682.53 78.608 682.53 82.178 682.53 85.748C682.53 89.318 682.292 92.412 681.816 95.744ZM614.462 170H639.214L668.25 126.922C676.58 114.546 680.388 105.264 681.816 95.744C670.868 97.886 661.11 104.312 651.828 117.164L614.462 169.762V170ZM746.076 170H770.352V169.762L732.51 116.926C722.99 103.598 713.47 97.648 702.284 95.744C703.712 105.264 707.996 114.784 717.516 128.588L746.076 170ZM805.996 0.067989L801.236 61.472H788.146L783.386 0.067989H805.996ZM856.359 23.154C865.641 19.108 877.779 17.204 892.059 17.204C905.387 17.204 918.001 19.108 928.235 22.916C922.761 7.92199 910.861 0.543997 892.773 0.543997C873.257 0.543997 860.881 10.302 856.359 23.154ZM931.091 53.618H954.177C953.701 38.862 943.467 28.628 928.235 22.916C930.377 28.866 931.567 36.244 931.567 44.812C931.567 47.668 931.329 50.524 931.091 53.618ZM934.423 149.294C947.751 143.106 954.415 132.872 954.415 119.782C954.415 101.694 940.373 89.556 918.715 80.988L886.585 68.374C864.451 59.806 854.455 52.666 854.455 34.102C854.455 30.294 855.169 26.486 856.359 23.154C843.745 28.39 836.605 37.434 836.605 50.286C836.605 67.184 851.599 76.942 872.305 85.034L904.435 97.41C925.617 105.502 936.565 115.022 936.565 136.68C936.565 141.202 935.851 145.486 934.423 149.294ZM859.215 150.484C856.121 143.582 854.693 135.252 854.693 125.256C854.693 121.924 854.693 118.354 855.169 114.784H832.083C832.321 133.348 842.555 144.534 859.215 150.484ZM896.819 172.856C917.049 172.856 929.663 162.86 934.423 149.294C925.379 153.578 913.241 155.958 898.247 155.958C883.491 155.958 870.163 154.292 859.215 150.484C865.879 165.002 878.731 172.856 896.819 172.856ZM9.04 386H120.9V369.102H29.032V219.4H9.04V386ZM191.129 238.202C195.175 237.012 199.697 236.298 204.695 236.298C209.693 236.298 214.215 237.012 218.261 238.202L215.643 227.254C213.977 220.828 211.121 216.544 204.695 216.544C198.269 216.544 195.413 220.828 193.747 227.254L191.129 238.202ZM132.819 386H154.239L166.853 335.068H242.537L255.389 386H276.809L243.727 265.096C239.919 251.292 231.113 242.01 218.261 238.202L238.491 318.408H171.137L191.129 238.202C178.277 242.01 169.471 251.292 165.663 265.096L132.819 386ZM322.631 362.914C321.441 359.582 320.965 356.012 320.965 352.442V219.4H300.497V326.738C300.497 343.636 308.113 355.774 322.631 362.914ZM405.693 362.914C420.687 355.774 428.303 343.398 428.303 326.738V219.4H407.359V352.442C407.359 356.012 406.883 359.582 405.693 362.914ZM364.043 388.856C386.653 388.856 401.171 377.432 405.693 362.914C395.459 367.912 381.417 370.53 364.043 370.53C346.907 370.53 332.865 367.912 322.631 362.914C327.391 377.432 341.909 388.856 364.043 388.856ZM486.914 238.678C491.436 237.012 496.672 236.298 502.146 236.298C505.716 236.298 508.81 236.536 511.904 237.012L509.524 226.54C508.334 221.066 504.764 216.544 498.1 216.544C490.722 216.544 486.914 222.256 486.914 229.158V238.678ZM589.492 366.722C601.63 362.676 609.96 353.87 609.96 340.78V219.4H589.492V366.722ZM564.502 368.15L540.702 266.762C536.18 247.484 526.422 239.154 511.904 237.012L535.228 338.4C539.512 357.678 549.746 366.008 564.502 368.15ZM466.446 386H486.914V238.678C474.776 242.724 466.446 252.006 466.446 268.428V386ZM578.306 388.856C585.446 388.856 589.492 383.858 589.492 376.004V366.722C584.97 368.15 579.734 368.864 574.26 368.864C570.69 368.864 567.596 368.626 564.502 368.15L566.644 377.67C568.31 384.334 571.404 388.856 578.306 388.856ZM671.53 243.438C683.43 237.726 697.234 235.108 711.99 235.108C725.794 235.108 738.884 237.726 750.07 242.724C743.644 227.016 732.22 216.544 713.418 216.544C693.426 216.544 679.86 226.302 671.53 243.438ZM757.686 278.9H783.628C781.248 263.192 768.158 250.34 750.07 242.724C754.354 252.958 756.734 265.334 757.686 278.9ZM672.958 363.152C664.39 346.254 661.534 323.168 661.534 301.51C661.534 277.948 664.628 257.956 671.53 243.438C651.3 253.196 637.258 271.998 637.258 301.51C637.258 334.592 651.062 353.87 672.958 363.152ZM750.546 364.104C768.396 357.44 780.296 345.302 785.77 327.928H758.876C757.686 341.018 755.306 353.632 750.546 364.104ZM713.18 388.856C732.22 388.856 743.644 378.622 750.546 364.104C739.598 367.912 726.746 370.054 711.752 370.054C697.234 370.054 684.144 367.912 672.958 363.152C680.812 378.622 693.426 388.856 713.18 388.856ZM831.131 290.562V219.4H810.663V266.048C810.663 279.614 818.517 288.42 831.131 290.562ZM918.953 290.562C931.567 288.42 939.421 279.614 939.421 266.048V219.4H918.953V290.562ZM831.131 308.174C833.035 307.936 835.415 307.698 837.557 307.698H912.527C914.669 307.698 916.811 307.936 918.953 308.174V290.562C916.811 290.8 914.669 291.038 912.527 291.038H837.557C835.415 291.038 833.035 290.8 831.131 290.562V308.174ZM810.663 386H831.131V308.174C818.517 310.316 810.663 318.884 810.663 331.974V386ZM918.953 386H939.421V331.736C939.421 318.884 931.567 310.316 918.953 308.174V386ZM9.04 601H62.59C79.726 601 95.434 594.574 106.62 579.342C97.576 582.674 87.58 584.34 76.632 584.34H29.984V451.06H74.252C88.056 451.06 100.67 453.44 111.142 458.2C100.67 439.874 83.534 434.4 62.59 434.4H9.04V601ZM106.62 579.342C130.896 570.298 146.842 549.354 146.842 516.034C146.842 487.474 133.276 467.958 111.142 458.2C118.52 470.576 122.566 489.14 122.566 516.034C122.566 545.308 116.378 565.776 106.62 579.342ZM194.284 506.276V451.536H282.582V434.4H174.292V481.762C174.292 497.232 179.29 504.61 194.284 506.276ZM194.284 523.65C196.426 523.412 199.044 523.174 201.662 523.174H278.06V506.514H201.662C199.044 506.514 196.426 506.514 194.284 506.276V523.65ZM174.292 601H284.962V583.864H194.284V523.65C179.29 526.03 174.292 535.55 174.292 548.402V601ZM301.557 451.06H361.533C360.581 439.636 352.251 434.4 339.161 434.4H301.557V451.06ZM381.763 451.06H441.739V434.4H404.135C391.045 434.4 382.715 439.636 381.763 451.06ZM361.533 601H381.763V451.06H361.533V601ZM490.488 453.202C494.534 452.012 499.056 451.298 504.054 451.298C509.052 451.298 513.574 452.012 517.62 453.202L515.002 442.254C513.336 435.828 510.48 431.544 504.054 431.544C497.628 431.544 494.772 435.828 493.106 442.254L490.488 453.202ZM432.178 601H453.598L466.212 550.068H541.896L554.748 601H576.168L543.086 480.096C539.278 466.292 530.472 457.01 517.62 453.202L537.85 533.408H470.496L490.488 453.202C477.636 457.01 468.83 466.292 465.022 480.096L432.178 601ZM601.998 601H621.99V434.4H601.998V601ZM662.378 601H774.238V584.102H682.37V434.4H662.378V601ZM816.382 454.154C825.664 450.108 837.802 448.204 852.082 448.204C865.41 448.204 878.024 450.108 888.258 453.916C882.784 438.922 870.884 431.544 852.796 431.544C833.28 431.544 820.904 441.302 816.382 454.154ZM891.114 484.618H914.2C913.724 469.862 903.49 459.628 888.258 453.916C890.4 459.866 891.59 467.244 891.59 475.812C891.59 478.668 891.352 481.524 891.114 484.618ZM894.446 580.294C907.774 574.106 914.438 563.872 914.438 550.782C914.438 532.694 900.396 520.556 878.738 511.988L846.608 499.374C824.474 490.806 814.478 483.666 814.478 465.102C814.478 461.294 815.192 457.486 816.382 454.154C803.768 459.39 796.628 468.434 796.628 481.286C796.628 498.184 811.622 507.942 832.328 516.034L864.458 528.41C885.64 536.502 896.588 546.022 896.588 567.68C896.588 572.202 895.874 576.486 894.446 580.294ZM819.238 581.484C816.144 574.582 814.716 566.252 814.716 556.256C814.716 552.924 814.716 549.354 815.192 545.784H792.106C792.344 564.348 802.578 575.534 819.238 581.484ZM856.842 603.856C877.072 603.856 889.686 593.86 894.446 580.294C885.402 584.578 873.264 586.958 858.27 586.958C843.514 586.958 830.186 585.292 819.238 581.484C825.902 596.002 838.754 603.856 856.842 603.856Z" fill="#FF3E12"/>
</svg>
