<svg width="1383" height="389" viewBox="0 0 1383 389" fill="none" xmlns="http://www.w3.org/2000/svg">
<path d="M24.986 23.154C34.268 19.108 46.406 17.204 60.686 17.204C74.014 17.204 86.628 19.108 96.862 22.916C91.388 7.92199 79.488 0.543997 61.4 0.543997C41.884 0.543997 29.508 10.302 24.986 23.154ZM99.718 53.618H122.804C122.328 38.862 112.094 28.628 96.862 22.916C99.004 28.866 100.194 36.244 100.194 44.812C100.194 47.668 99.956 50.524 99.718 53.618ZM103.05 149.294C116.378 143.106 123.042 132.872 123.042 119.782C123.042 101.694 109 89.556 87.342 80.988L55.212 68.374C33.078 59.806 23.082 52.666 23.082 34.102C23.082 30.294 23.796 26.486 24.986 23.154C12.372 28.39 5.232 37.434 5.232 50.286C5.232 67.184 20.226 76.942 40.932 85.034L73.062 97.41C94.244 105.502 105.192 115.022 105.192 136.68C105.192 141.202 104.478 145.486 103.05 149.294ZM27.842 150.484C24.748 143.582 23.32 135.252 23.32 125.256C23.32 121.924 23.32 118.354 23.796 114.784H0.71C0.948001 133.348 11.182 144.534 27.842 150.484ZM65.446 172.856C85.676 172.856 98.29 162.86 103.05 149.294C94.006 153.578 81.868 155.958 66.874 155.958C52.118 155.958 38.79 154.292 27.842 150.484C34.506 165.002 47.358 172.856 65.446 172.856ZM176.205 146.914C175.015 143.582 174.539 140.012 174.539 136.442V3.39999H154.071V110.738C154.071 127.636 161.687 139.774 176.205 146.914ZM259.267 146.914C274.261 139.774 281.877 127.398 281.877 110.738V3.39999H260.933V136.442C260.933 140.012 260.457 143.582 259.267 146.914ZM217.617 172.856C240.227 172.856 254.745 161.432 259.267 146.914C249.033 151.912 234.991 154.53 217.617 154.53C200.481 154.53 186.439 151.912 176.205 146.914C180.965 161.432 195.483 172.856 217.617 172.856ZM335.966 23.154C345.248 19.108 357.386 17.204 371.666 17.204C384.994 17.204 397.608 19.108 407.842 22.916C402.368 7.92199 390.468 0.543997 372.38 0.543997C352.864 0.543997 340.488 10.302 335.966 23.154ZM410.698 53.618H433.784C433.308 38.862 423.074 28.628 407.842 22.916C409.984 28.866 411.174 36.244 411.174 44.812C411.174 47.668 410.936 50.524 410.698 53.618ZM414.03 149.294C427.358 143.106 434.022 132.872 434.022 119.782C434.022 101.694 419.98 89.556 398.322 80.988L366.192 68.374C344.058 59.806 334.062 52.666 334.062 34.102C334.062 30.294 334.776 26.486 335.966 23.154C323.352 28.39 316.212 37.434 316.212 50.286C316.212 67.184 331.206 76.942 351.912 85.034L384.042 97.41C405.224 105.502 416.172 115.022 416.172 136.68C416.172 141.202 415.458 145.486 414.03 149.294ZM338.822 150.484C335.728 143.582 334.3 135.252 334.3 125.256C334.3 121.924 334.3 118.354 334.776 114.784H311.69C311.928 133.348 322.162 144.534 338.822 150.484ZM376.426 172.856C396.656 172.856 409.27 162.86 414.03 149.294C404.986 153.578 392.848 155.958 377.854 155.958C363.098 155.958 349.77 154.292 338.822 150.484C345.486 165.002 358.338 172.856 376.426 172.856ZM465.052 170H485.996V108.834H525.742C545.734 108.834 558.11 101.456 564.536 88.366C557.158 90.508 549.304 90.984 542.64 90.984H485.996V20.298H542.64C549.066 20.298 556.444 20.774 563.584 22.44C556.682 10.778 544.306 3.39999 524.314 3.39999H465.052V170ZM564.536 88.366C578.34 84.558 590.716 75.514 590.716 55.284C590.716 34.578 577.864 26.01 563.584 22.44C568.582 31.246 570.724 42.67 570.724 55.284C570.724 68.374 568.82 79.798 564.536 88.366ZM634.491 75.276V20.536H722.789V3.39999H614.499V50.762C614.499 66.232 619.497 73.61 634.491 75.276ZM634.491 92.65C636.633 92.412 639.251 92.174 641.869 92.174H718.267V75.514H641.869C639.251 75.514 636.633 75.514 634.491 75.276V92.65ZM614.499 170H725.169V152.864H634.491V92.65C619.497 95.03 614.499 104.55 614.499 117.402V170ZM776.512 22.678C781.034 21.012 786.27 20.298 791.744 20.298C795.314 20.298 798.408 20.536 801.502 21.012L799.122 10.54C797.932 5.066 794.362 0.543997 787.698 0.543997C780.32 0.543997 776.512 6.25599 776.512 13.158V22.678ZM879.09 150.722C891.228 146.676 899.558 137.87 899.558 124.78V3.39999H879.09V150.722ZM854.1 152.15L830.3 50.762C825.778 31.484 816.02 23.154 801.502 21.012L824.826 122.4C829.11 141.678 839.344 150.008 854.1 152.15ZM756.044 170H776.512V22.678C764.374 26.724 756.044 36.006 756.044 52.428V170ZM867.904 172.856C875.044 172.856 879.09 167.858 879.09 160.004V150.722C874.568 152.15 869.332 152.864 863.858 152.864C860.288 152.864 857.194 152.626 854.1 152.15L856.242 161.67C857.908 168.334 861.002 172.856 867.904 172.856ZM937.565 170H991.115C1008.25 170 1023.96 163.574 1035.15 148.342C1026.1 151.674 1016.11 153.34 1005.16 153.34H958.509V20.06H1002.78C1016.58 20.06 1029.2 22.44 1039.67 27.2C1029.2 8.87399 1012.06 3.39999 991.115 3.39999H937.565V170ZM1035.15 148.342C1059.42 139.298 1075.37 118.354 1075.37 85.034C1075.37 56.474 1061.8 36.958 1039.67 27.2C1047.05 39.576 1051.09 58.14 1051.09 85.034C1051.09 114.308 1044.9 134.776 1035.15 148.342ZM1122.81 75.276V20.536H1211.11V3.39999H1102.82V50.762C1102.82 66.232 1107.82 73.61 1122.81 75.276ZM1122.81 92.65C1124.95 92.412 1127.57 92.174 1130.19 92.174H1206.59V75.514H1130.19C1127.57 75.514 1124.95 75.514 1122.81 75.276V92.65ZM1102.82 170H1213.49V152.864H1122.81V92.65C1107.82 95.03 1102.82 104.55 1102.82 117.402V170ZM1244.36 170H1297.91C1315.05 170 1330.76 163.574 1341.94 148.342C1332.9 151.674 1322.9 153.34 1311.95 153.34H1265.31V20.06H1309.57C1323.38 20.06 1335.99 22.44 1346.46 27.2C1335.99 8.87399 1318.86 3.39999 1297.91 3.39999H1244.36V170ZM1341.94 148.342C1366.22 139.298 1382.16 118.354 1382.16 85.034C1382.16 56.474 1368.6 36.958 1346.46 27.2C1353.84 39.576 1357.89 58.14 1357.89 85.034C1357.89 114.308 1351.7 134.776 1341.94 148.342ZM24.986 239.154C34.268 235.108 46.406 233.204 60.686 233.204C74.014 233.204 86.628 235.108 96.862 238.916C91.388 223.922 79.488 216.544 61.4 216.544C41.884 216.544 29.508 226.302 24.986 239.154ZM99.718 269.618H122.804C122.328 254.862 112.094 244.628 96.862 238.916C99.004 244.866 100.194 252.244 100.194 260.812C100.194 263.668 99.956 266.524 99.718 269.618ZM103.05 365.294C116.378 359.106 123.042 348.872 123.042 335.782C123.042 317.694 109 305.556 87.342 296.988L55.212 284.374C33.078 275.806 23.082 268.666 23.082 250.102C23.082 246.294 23.796 242.486 24.986 239.154C12.372 244.39 5.232 253.434 5.232 266.286C5.232 283.184 20.226 292.942 40.932 301.034L73.062 313.41C94.244 321.502 105.192 331.022 105.192 352.68C105.192 357.202 104.478 361.486 103.05 365.294ZM27.842 366.484C24.748 359.582 23.32 351.252 23.32 341.256C23.32 337.924 23.32 334.354 23.796 330.784H0.71C0.948001 349.348 11.182 360.534 27.842 366.484ZM65.446 388.856C85.676 388.856 98.29 378.86 103.05 365.294C94.006 369.578 81.868 371.958 66.874 371.958C52.118 371.958 38.79 370.292 27.842 366.484C34.506 381.002 47.358 388.856 65.446 388.856ZM179.537 243.438C192.151 237.726 207.621 234.632 224.757 234.632C241.417 234.632 256.173 237.25 268.073 242.724C259.029 226.54 244.987 216.544 224.757 216.544C203.337 216.544 188.819 226.778 179.537 243.438ZM268.073 362.438C291.159 352.204 304.487 331.736 304.487 301.51C304.487 272.712 291.159 252.958 268.073 242.724C276.403 257.956 280.211 278.662 280.211 301.51C280.211 325.548 276.403 346.968 268.073 362.438ZM181.441 362.438C172.397 346.968 167.637 325.548 167.637 301.51C167.637 278.9 171.445 258.67 179.537 243.438C157.165 253.91 143.361 273.664 143.361 301.51C143.361 331.736 157.879 351.966 181.441 362.438ZM224.757 388.856C244.987 388.856 259.267 378.86 268.073 362.438C256.173 367.912 241.417 370.53 224.757 370.53C208.335 370.53 193.579 367.912 181.441 362.438C190.961 378.86 205.479 388.856 224.757 388.856ZM354.008 362.914C352.818 359.582 352.342 356.012 352.342 352.442V219.4H331.874V326.738C331.874 343.636 339.49 355.774 354.008 362.914ZM437.07 362.914C452.064 355.774 459.68 343.398 459.68 326.738V219.4H438.736V352.442C438.736 356.012 438.26 359.582 437.07 362.914ZM395.42 388.856C418.03 388.856 432.548 377.432 437.07 362.914C426.836 367.912 412.794 370.53 395.42 370.53C378.284 370.53 364.242 367.912 354.008 362.914C358.768 377.432 373.286 388.856 395.42 388.856ZM497.823 386H609.683V369.102H517.815V219.4H497.823V386Z" fill="#FF3E12"/>
</svg>
