<svg width="1317" height="1009" viewBox="0 0 1317 1009" fill="none" xmlns="http://www.w3.org/2000/svg">
  <path d="M0.61322 8.86719H108.191C127.228 8.86719 142.28 12.8516 153.348 20.8203C164.415 28.5677 170.613 40.5208 171.941 56.6797H0.61322V8.86719ZM229.715 56.6797C231.043 40.5208 237.241 28.5677 248.309 20.8203C259.376 12.8516 274.539 8.86719 293.797 8.86719H401.043V56.6797H229.715ZM171.941 56.6797H229.715V485H171.941V56.6797ZM527.547 212.402C509.174 209.303 494.786 201.667 484.383 189.492C474.2 177.318 469.109 161.602 469.109 142.344V8.86719H527.547V212.402ZM778.562 8.86719H837V142.344C837 161.602 831.798 177.318 821.394 189.492C810.991 201.667 796.713 209.303 778.562 212.402V8.86719ZM527.547 212.402C534.63 213.288 540.717 213.73 545.809 213.73H759.969C763.953 213.73 770.151 213.288 778.562 212.402V262.539C770.151 261.654 763.953 261.211 759.969 261.211H545.809C540.717 261.211 534.63 261.654 527.547 262.539V212.402ZM469.109 330.605C469.109 312.012 474.2 296.849 484.383 285.117C494.786 273.164 509.174 265.638 527.547 262.539V485H469.109V330.605ZM778.562 262.539C796.713 265.638 810.991 273.164 821.394 285.117C831.798 296.849 837 311.79 837 329.941V485H778.562V262.539ZM1079.05 31.4453C1081.71 21.4844 1085.36 13.9583 1090.01 8.86719C1094.88 3.55469 1101.63 0.898438 1110.26 0.898438C1118.89 0.898438 1125.65 3.55469 1130.52 8.86719C1135.39 13.9583 1139.15 21.4844 1141.8 31.4453L1149.11 62.6562C1136.71 59.1146 1123.76 57.3438 1110.26 57.3438C1096.98 57.3438 1084.14 59.1146 1071.75 62.6562L1079.05 31.4453ZM999.031 139.688C1004.34 119.987 1013.2 103.607 1025.59 90.5469C1037.99 77.487 1053.37 68.1901 1071.75 62.6562L1014.64 291.758H1206.88L1149.11 62.6562C1167.48 68.1901 1182.87 77.487 1195.26 90.5469C1207.66 103.607 1216.51 119.987 1221.82 139.688L1316.45 485H1255.36L1218.5 339.57H1002.35L966.16 485H905.066L999.031 139.688ZM99.8906 551.758C99.8906 541.576 102.657 533.053 108.191 526.191C113.947 519.329 121.805 515.898 131.766 515.898C140.841 515.898 148.035 518.555 153.348 523.867C158.881 529.18 162.644 536.042 164.637 544.453L171.277 574.336C162.202 573.008 152.905 572.344 143.387 572.344C126.785 572.344 112.286 574.557 99.8906 578.984V551.758ZM393.074 523.867H451.512V870.84C451.512 888.991 446.199 904.375 435.574 916.992C425.171 929.609 411.004 938.906 393.074 944.883V523.867ZM321.687 948.867C299.773 945.768 281.844 937.467 267.898 923.965C253.953 910.462 243.992 890.43 238.016 863.867L171.277 574.336C192.749 577.435 210.236 585.736 223.738 599.238C237.462 612.52 247.423 632.552 253.621 659.336L321.687 948.867ZM41.4531 663.984C41.4531 641.628 46.6549 623.477 57.0585 609.531C67.4622 595.365 81.7395 585.182 99.8906 578.984V1000H41.4531V663.984ZM360.867 1008.3C351.57 1008.3 344.266 1005.53 338.953 1000C333.862 994.466 330.099 986.497 327.664 976.094L321.687 948.867C331.87 950.417 341.167 951.191 349.578 951.191C364.852 951.191 379.35 949.089 393.074 944.883V971.445C393.074 982.956 390.197 992.031 384.441 998.672C378.907 1005.09 371.049 1008.3 360.867 1008.3ZM560.75 523.867H618.523V730.723H662.684C675.301 730.723 684.376 730.28 689.91 729.395C689.467 734.264 689.246 742.676 689.246 754.629C689.246 763.04 689.91 771.562 691.238 780.195C684.819 779.31 675.301 778.867 662.684 778.867H618.523V1000H560.75V523.867ZM689.91 729.395C691.681 708.587 696.772 689.551 705.184 672.285C713.816 654.798 728.868 634.876 750.34 612.52L834.676 523.867H907.391V525.195L761.961 683.242C748.016 698.516 735.509 709.583 724.441 716.445C713.374 723.307 701.863 727.624 689.91 729.395ZM774.91 913.008C749.676 887.552 730.307 864.421 716.805 843.613C703.523 822.806 695.001 801.667 691.238 780.195C705.184 781.745 718.354 785.729 730.75 792.148C743.367 798.346 756.316 808.418 769.598 822.363L938.934 998.672V1000H861.902L774.91 913.008ZM1025.26 580.312C1032.12 561.055 1044.41 545.56 1062.12 533.828C1080.05 521.875 1102.4 515.898 1129.19 515.898C1181.21 515.898 1215.07 537.148 1230.79 579.648C1200.68 568.802 1166.15 563.379 1127.2 563.379C1085.8 563.379 1051.82 569.023 1025.26 580.312ZM1238.76 667.637C1239.64 655.684 1240.09 647.272 1240.09 642.402C1240.09 618.496 1236.99 597.578 1230.79 579.648C1253.37 588.06 1271.19 599.792 1284.25 614.844C1297.31 629.674 1304.17 647.272 1304.83 667.637H1238.76ZM1248.39 940.898C1252.37 929.831 1254.36 917.767 1254.36 904.707C1254.36 884.564 1250.93 867.63 1244.07 853.906C1237.43 840.182 1227.47 828.561 1214.19 819.043C1201.13 809.525 1183.97 800.671 1162.72 792.48L1070.75 757.285C1037.77 744.447 1012.53 730.28 995.047 714.785C977.56 699.29 968.816 680.365 968.816 658.008C968.816 639.857 973.686 624.251 983.426 611.191C993.165 598.132 1007.11 587.839 1025.26 580.312C1021.72 590.495 1019.95 601.009 1019.95 611.855C1019.95 629.121 1023.05 643.509 1029.25 655.02C1035.67 666.309 1045.29 676.048 1058.13 684.238C1071.19 692.428 1089.01 700.951 1111.59 709.805L1203.56 745.664C1236.1 758.724 1261.23 774.329 1278.93 792.48C1296.64 810.41 1305.5 831.771 1305.5 856.562C1305.5 875.378 1300.63 891.979 1290.89 906.367C1281.37 920.534 1267.2 932.044 1248.39 940.898ZM1033.56 944.219C982.43 926.068 956.531 892.09 955.867 842.285H1021.94C1021.06 849.147 1020.61 859.108 1020.61 872.168C1020.61 901.387 1024.93 925.404 1033.56 944.219ZM1140.81 1008.3C1115.13 1008.3 1093.22 1002.88 1075.07 992.031C1056.92 980.964 1043.08 965.026 1033.56 944.219C1063.22 954.622 1100.41 959.824 1145.12 959.824C1187.4 959.824 1221.82 953.516 1248.39 940.898C1241.3 961.263 1228.58 977.643 1210.2 990.039C1191.83 1002.21 1168.7 1008.3 1140.81 1008.3Z" fill="#FF3E12" />
</svg>
