<svg width="1880" height="425" viewBox="0 0 1880 425" fill="none" xmlns="http://www.w3.org/2000/svg">
<path d="M0.711426 7.38574V6.38574H-0.288574V7.38574H0.711426ZM132.108 17.6689L131.524 18.4806L131.534 18.4882L132.108 17.6689ZM148.104 48.5186V49.5186H149.19L149.101 48.4366L148.104 48.5186ZM0.711426 48.5186H-0.288574V49.5186H0.711426V48.5186ZM197.806 48.5186L196.81 48.4366L196.721 49.5186H197.806V48.5186ZM213.802 17.6689L214.376 18.4883L214.387 18.4805L213.802 17.6689ZM345.199 7.38574H346.199V6.38574H345.199V7.38574ZM345.199 48.5186V49.5186H346.199V48.5186H345.199ZM148.104 48.5186V47.5186H147.104V48.5186H148.104ZM197.806 48.5186H198.806V47.5186H197.806V48.5186ZM197.806 417V418H198.806V417H197.806ZM148.104 417H147.104V418H148.104V417ZM0.711426 8.38574H93.2603V6.38574H0.711426V8.38574ZM93.2603 8.38574C109.508 8.38574 122.228 11.7875 131.524 18.4805L132.692 16.8574C122.945 9.83944 109.766 6.38574 93.2603 6.38574V8.38574ZM131.534 18.4882C140.763 24.9482 145.984 34.9301 147.107 48.6005L149.101 48.4366C147.939 34.3043 142.496 23.7198 132.681 16.8497L131.534 18.4882ZM148.104 47.5186H0.711426V49.5186H148.104V47.5186ZM1.71143 48.5186V7.38574H-0.288574V48.5186H1.71143ZM198.803 48.6005C199.926 34.9301 205.147 24.9482 214.376 18.4882L213.229 16.8497C203.414 23.7198 197.971 34.3043 196.81 48.4366L198.803 48.6005ZM214.387 18.4805C223.681 11.7887 236.494 8.38574 252.936 8.38574V6.38574C236.242 6.38574 222.967 9.83821 213.218 16.8574L214.387 18.4805ZM252.936 8.38574H345.199V6.38574H252.936V8.38574ZM344.199 7.38574V48.5186H346.199V7.38574H344.199ZM345.199 47.5186H197.806V49.5186H345.199V47.5186ZM148.104 49.5186H197.806V47.5186H148.104V49.5186ZM196.806 48.5186V417H198.806V48.5186H196.806ZM197.806 416H148.104V418H197.806V416ZM149.104 417V48.5186H147.104V417H149.104ZM442.889 66.5142L442.016 66.0266L440.542 68.6661L443.299 67.4262L442.889 66.5142ZM616.561 17.3833L616.021 18.2251L616.032 18.2318L616.561 17.3833ZM660.55 64.8003L660.134 65.7096L662.937 66.9917L661.421 64.3085L660.55 64.8003ZM660.55 359.014L659.673 358.535L658.257 361.126L660.956 359.928L660.55 359.014ZM682.831 293.316L681.849 293.125L681.848 293.131L682.831 293.316ZM682.831 129.07L681.849 129.261L681.85 129.268L682.831 129.07ZM660.55 64.8003L660.956 63.8862L658.237 62.6801L659.675 65.2836L660.55 64.8003ZM726.82 302.171L727.672 302.694L727.674 302.691L726.82 302.171ZM447.459 359.014L447.055 359.929L449.867 361.173L448.324 358.512L447.459 359.014ZM378.333 301.6L377.491 302.138L377.496 302.145L378.333 301.6ZM377.191 122.786L376.349 122.247L376.348 122.248L377.191 122.786ZM442.889 66.5142L443.772 66.9833L445.173 64.3459L442.467 65.6078L442.889 66.5142ZM420.895 130.213L419.915 130.012L419.913 130.02L420.895 130.213ZM492.306 407.288L491.768 408.131L491.774 408.135L492.306 407.288ZM447.459 359.014L447.869 358.102L445.045 356.835L446.594 359.515L447.459 359.014ZM660.55 359.014L661.432 359.487L662.836 356.869L660.134 358.105L660.55 359.014ZM616.847 407.288L616.315 406.441L616.311 406.444L616.847 407.288ZM443.762 67.0017C455.974 45.1346 471.259 28.7792 489.603 17.8861C507.946 6.99351 529.401 1.53027 554.005 1.53027V-0.469727C529.097 -0.469727 507.277 5.06435 488.582 16.1664C469.887 27.268 454.37 43.9044 442.016 66.0266L443.762 67.0017ZM554.005 1.53027C578.03 1.53027 598.688 7.10889 616.021 18.2251L617.101 16.5415C599.396 5.18701 578.349 -0.469727 554.005 -0.469727V1.53027ZM616.032 18.2318C633.582 29.1771 648.135 44.8518 659.68 65.2921L661.421 64.3085C649.734 43.6159 634.96 27.6793 617.09 16.5348L616.032 18.2318ZM660.966 63.8909C631.666 50.4857 596.001 43.8052 554.005 43.8052V45.8052C595.798 45.8052 631.163 52.4547 660.134 65.7096L660.966 63.8909ZM554.005 43.8052C511.995 43.8052 474.812 51.0617 442.479 65.6021L443.299 67.4262C475.331 53.0213 512.226 45.8052 554.005 45.8052V43.8052ZM661.428 359.494C671.581 340.912 679.037 318.909 683.813 293.501L681.848 293.131C677.102 318.377 669.705 340.173 659.673 358.535L661.428 359.494ZM683.812 293.506C688.777 267.916 691.257 239.858 691.257 209.336H689.257C689.257 239.752 686.786 267.68 681.849 293.125L683.812 293.506ZM691.257 209.336C691.257 180.335 688.777 153.512 683.811 128.873L681.85 129.268C686.786 153.759 689.257 180.447 689.257 209.336H691.257ZM683.812 128.88C679.035 104.232 671.578 82.7058 661.426 64.317L659.675 65.2836C669.708 83.4573 677.104 104.778 681.849 129.261L683.812 128.88ZM660.145 65.7144C688.736 78.4005 710.665 96.843 725.975 121.036L727.665 119.966C712.125 95.409 689.874 76.7176 660.956 63.8862L660.145 65.7144ZM725.975 121.036C741.279 145.22 748.957 174.637 748.957 209.336H750.957C750.957 174.338 743.21 144.532 727.665 119.966L725.975 121.036ZM748.957 209.336C748.957 245.758 741.275 276.513 725.966 301.651L727.674 302.691C743.214 277.174 750.957 246.04 750.957 209.336H748.957ZM725.968 301.648C710.656 326.6 688.728 345.418 660.145 358.1L660.956 359.928C689.883 347.093 712.134 328.015 727.672 302.694L725.968 301.648ZM447.864 358.1C418.319 345.032 395.434 326.015 379.171 301.054L377.496 302.145C393.987 327.458 417.186 346.717 447.055 359.929L447.864 358.1ZM379.176 301.061C363.112 275.925 355.054 245.366 355.054 209.336H353.054C353.054 245.67 361.182 276.62 377.491 302.138L379.176 301.061ZM355.054 209.336C355.054 175.979 362.728 147.322 378.034 123.324L376.348 122.248C360.804 146.619 353.054 175.663 353.054 209.336H355.054ZM378.033 123.326C393.538 99.1221 415.287 80.4863 443.312 67.4205L442.467 65.6078C414.125 78.8214 392.074 97.7002 376.349 122.247L378.033 123.326ZM442.006 66.045C432.242 84.4251 424.882 105.752 419.915 130.012L421.874 130.413C426.81 106.305 434.113 85.1657 443.772 66.9833L442.006 66.045ZM419.913 130.02C415.138 154.277 412.753 180.717 412.753 209.336H414.753C414.753 180.827 417.129 154.518 421.876 130.406L419.913 130.02ZM412.753 209.336C412.753 239.107 415.616 266.794 421.347 292.392L423.299 291.955C417.604 266.518 414.753 238.98 414.753 209.336H412.753ZM421.347 292.392C427.078 317.991 435.49 340.37 446.594 359.516L448.324 358.512C437.339 339.572 428.993 317.391 423.299 291.955L421.347 292.392ZM554.005 423.141C530.941 423.141 510.563 417.567 492.837 406.441L491.774 408.135C509.849 419.48 530.604 425.141 554.005 425.141V423.141ZM492.844 406.445C475.095 395.116 460.253 379.15 448.325 358.514L446.594 359.515C458.661 380.392 473.716 396.608 491.768 408.131L492.844 406.445ZM447.05 359.927C476.916 373.328 512.577 380.009 554.005 380.009V378.009C512.786 378.009 477.417 371.361 447.869 358.102L447.05 359.927ZM554.005 380.009C596.001 380.009 631.666 373.329 660.966 359.923L660.134 358.105C631.163 371.36 595.798 378.009 554.005 378.009V380.009ZM659.669 358.542C648.505 379.355 634.051 395.309 616.315 406.441L617.378 408.135C635.443 396.796 650.125 380.568 661.432 359.487L659.669 358.542ZM616.311 406.444C598.785 417.563 578.029 423.141 554.005 423.141V425.141C578.349 425.141 599.489 419.484 617.382 408.133L616.311 406.444ZM817.369 7.38574V6.38574H816.369V7.38574H817.369ZM867.071 7.38574H868.071V6.38574H867.071V7.38574ZM867.071 185.342H866.071V186.342H867.071V185.342ZM928.485 184.2L929.481 184.29L929.597 183.009L928.327 183.212L928.485 184.2ZM929.627 227.903L929.491 228.894L930.82 229.077L930.616 227.751L929.627 227.903ZM867.071 226.761V225.761H866.071V226.761H867.071ZM867.071 417V418H868.071V417H867.071ZM817.369 417H816.369V418H817.369V417ZM928.485 184.2L927.488 184.115L927.381 185.374L928.631 185.189L928.485 184.2ZM941.625 135.069L940.728 134.626L940.726 134.631L941.625 135.069ZM980.472 83.6528L981.193 84.3455L981.197 84.3421L980.472 83.6528ZM1053.03 7.38574V6.38574H1052.6L1052.3 6.6965L1053.03 7.38574ZM1115.58 7.38574H1116.58V6.38574H1115.58V7.38574ZM1115.58 8.52832L1116.32 9.20544L1116.58 8.9184V8.52832H1115.58ZM990.47 144.495L989.734 143.818L989.731 143.821L990.47 144.495ZM1001.61 342.161L1000.9 342.865L1000.9 342.868L1001.61 342.161ZM951.622 282.461L950.779 282.999L950.783 283.006L951.622 282.461ZM929.627 227.903L929.738 226.909L928.412 226.762L928.642 228.076L929.627 227.903ZM963.619 238.187L963.159 239.075L963.169 239.079L963.178 239.084L963.619 238.187ZM997.04 264.18L996.315 264.87L996.318 264.873L997.04 264.18ZM1142.72 415.857H1143.72V415.455L1143.44 415.165L1142.72 415.857ZM1142.72 417V418H1143.72V417H1142.72ZM1076.45 417L1075.74 417.707L1076.03 418H1076.45V417ZM817.369 8.38574H867.071V6.38574H817.369V8.38574ZM866.071 7.38574V185.342H868.071V7.38574H866.071ZM867.071 186.342H905.062V184.342H867.071V186.342ZM905.062 186.342C915.921 186.342 923.797 185.962 928.643 185.187L928.327 183.212C923.651 183.96 915.912 184.342 905.062 184.342V186.342ZM927.489 184.109C927.104 188.349 926.914 195.626 926.914 205.909H928.914C928.914 195.625 929.104 188.43 929.481 184.29L927.489 184.109ZM926.914 205.909C926.914 213.198 927.489 220.58 928.639 228.055L930.616 227.751C929.481 220.373 928.914 213.092 928.914 205.909H926.914ZM929.764 226.913C924.172 226.141 915.928 225.761 905.062 225.761V227.761C915.905 227.761 924.038 228.142 929.491 228.894L929.764 226.913ZM905.062 225.761H867.071V227.761H905.062V225.761ZM866.071 226.761V417H868.071V226.761H866.071ZM867.071 416H817.369V418H867.071V416ZM818.369 417V7.38574H816.369V417H818.369ZM929.481 184.285C930.995 166.496 935.346 150.24 942.523 135.507L940.726 134.631C933.431 149.604 929.021 166.103 927.488 184.115L929.481 184.285ZM942.521 135.512C949.884 120.597 962.756 103.543 981.193 84.3455L979.751 82.9602C961.245 102.229 948.219 119.453 940.728 134.626L942.521 135.512ZM981.197 84.3421L1053.75 8.07499L1052.3 6.6965L979.748 82.9636L981.197 84.3421ZM1053.03 8.38574H1115.58V6.38574H1053.03V8.38574ZM1114.58 7.38574V8.52832H1116.58V7.38574H1114.58ZM1114.85 7.8512L989.734 143.818L991.206 145.172L1116.32 9.20544L1114.85 7.8512ZM989.731 143.821C977.764 156.927 967.076 166.375 957.665 172.21L958.719 173.909C968.351 167.938 979.181 158.342 991.208 145.169L989.731 143.821ZM957.665 172.21C948.25 178.047 938.476 181.709 928.338 183.211L928.631 185.189C939.06 183.644 949.091 179.879 958.719 173.909L957.665 172.21ZM1002.32 341.457C980.64 319.587 964.027 299.741 952.461 281.917L950.783 283.006C962.449 300.983 979.162 320.937 1000.9 342.865L1002.32 341.457ZM952.465 281.923C941.101 264.12 933.824 246.056 930.612 227.731L928.642 228.076C931.905 246.694 939.292 265.003 950.779 282.999L952.465 281.923ZM929.517 228.897C941.393 230.217 952.605 233.609 963.159 239.075L964.079 237.299C953.305 231.719 941.856 228.256 929.738 226.909L929.517 228.897ZM963.178 239.084C973.896 244.349 984.943 252.929 996.315 264.87L997.764 263.491C986.285 251.437 975.052 242.688 964.06 237.289L963.178 239.084ZM996.318 264.873L1142 416.55L1143.44 415.165L997.761 263.487L996.318 264.873ZM1141.72 415.857V417H1143.72V415.857H1141.72ZM1142.72 416H1076.45V418H1142.72V416ZM1077.16 416.293L1002.32 341.454L1000.9 342.868L1075.74 417.707L1077.16 416.293ZM1226.98 184.2L1226.88 185.194L1227.98 185.311V184.2H1226.98ZM1188.71 167.347L1187.91 167.952L1187.92 167.961L1187.92 167.969L1188.71 167.347ZM1177.85 7.38574V6.38574H1176.85V7.38574H1177.85ZM1444.07 7.38574H1445.07V6.38574H1444.07V7.38574ZM1444.07 49.6611V50.6611H1445.07V49.6611H1444.07ZM1226.98 49.6611V48.6611H1225.98V49.6611H1226.98ZM1226.98 184.2L1227.09 183.206L1225.98 183.082V184.2H1226.98ZM1432.93 184.771H1433.93V183.771H1432.93V184.771ZM1432.93 225.618V226.618H1433.93V225.618H1432.93ZM1226.98 226.761H1225.98V227.878L1227.09 227.755L1226.98 226.761ZM1226.98 226.761H1227.98V225.585L1226.82 225.774L1226.98 226.761ZM1226.98 375.01H1225.98V376.01H1226.98V375.01ZM1449.79 375.01H1450.79V374.01H1449.79V375.01ZM1449.79 417V418H1450.79V417H1449.79ZM1177.85 417H1176.85V418H1177.85V417ZM1227.09 183.205C1209.13 181.314 1196.68 175.757 1189.49 166.724L1187.92 167.969C1195.59 177.598 1208.66 183.276 1226.88 185.194L1227.09 183.205ZM1189.5 166.742C1182.46 157.473 1178.85 143.26 1178.85 123.929H1176.85C1176.85 143.445 1180.48 158.177 1187.91 167.952L1189.5 166.742ZM1178.85 123.929V7.38574H1176.85V123.929H1178.85ZM1177.85 8.38574H1444.07V6.38574H1177.85V8.38574ZM1443.07 7.38574V49.6611H1445.07V7.38574H1443.07ZM1444.07 48.6611H1226.98V50.6611H1444.07V48.6611ZM1225.98 49.6611V184.2H1227.98V49.6611H1225.98ZM1226.87 185.194C1230.36 185.581 1236.41 185.771 1244.98 185.771V183.771C1236.41 183.771 1230.46 183.58 1227.09 183.206L1226.87 185.194ZM1244.98 185.771H1432.93V183.771H1244.98V185.771ZM1431.93 184.771V225.618H1433.93V184.771H1431.93ZM1432.93 224.618H1244.98V226.618H1432.93V224.618ZM1244.98 224.618C1239.79 224.618 1233.75 225.002 1226.87 225.767L1227.09 227.755C1233.92 226.996 1239.88 226.618 1244.98 226.618V224.618ZM1227.98 226.761V184.2H1225.98V226.761H1227.98ZM1178.85 287.603C1178.85 270.994 1182.63 257.603 1190.09 247.344L1188.47 246.168C1180.7 256.856 1176.85 270.696 1176.85 287.603H1178.85ZM1190.09 247.344C1197.5 237.152 1209.79 230.578 1227.14 227.748L1226.82 225.774C1209.14 228.657 1196.29 235.412 1188.47 246.168L1190.09 247.344ZM1225.98 226.761V375.01H1227.98V226.761H1225.98ZM1226.98 376.01H1449.79V374.01H1226.98V376.01ZM1448.79 375.01V417H1450.79V375.01H1448.79ZM1449.79 416H1177.85V418H1449.79V416ZM1178.85 417V287.603H1176.85V417H1178.85ZM1583.75 9.38525L1582.99 8.74264L1582.98 8.75001L1582.97 8.7575L1583.75 9.38525ZM1622.6 7.38574L1621.89 8.09285L1621.9 8.10006L1621.91 8.10713L1622.6 7.38574ZM1632.31 25.0957L1633.29 24.8788L1633.29 24.8652L1632.31 25.0957ZM1638.03 50.8037L1637.88 51.7932L1639.32 52.0033L1639 50.5868L1638.03 50.8037ZM1576.61 54.8027H1575.61V56.2217L1576.95 55.7445L1576.61 54.8027ZM1828.84 7.38574V6.38574H1827.84V7.38574H1828.84ZM1879.11 7.38574H1880.11V6.38574H1879.11V7.38574ZM1865.4 345.589L1864.63 344.945L1864.63 344.953L1865.4 345.589ZM1828.84 369.583H1827.84V370.97L1829.15 370.532L1828.84 369.583ZM1767.42 373.011L1767.28 374.001L1768.73 374.206L1768.4 372.782L1767.42 373.011ZM1695.44 299.886L1696.42 299.666L1696.41 299.661L1695.44 299.886ZM1638.03 50.8037L1638.17 49.814L1636.72 49.6054L1637.05 51.0283L1638.03 50.8037ZM1683.16 72.2271L1682.45 72.9342L1682.46 72.94L1682.46 72.9457L1683.16 72.2271ZM1708.87 123.929L1707.89 124.154L1707.89 124.158L1708.87 123.929ZM1539.76 81.082L1540.57 81.68L1540.57 81.6739L1539.76 81.082ZM1576.61 54.8027H1577.61V53.4046L1576.29 53.8564L1576.61 54.8027ZM1576.61 417V418H1577.61V417H1576.61ZM1526.34 417H1525.34V418H1526.34V417ZM1782.28 417L1781.54 417.677L1781.55 417.685L1781.55 417.693L1782.28 417ZM1772.56 396.434L1771.59 396.648L1771.59 396.661L1772.56 396.434ZM1767.42 373.011L1767.57 372.022L1766.13 371.803L1766.45 373.225L1767.42 373.011ZM1828.84 369.583H1829.84V368.231L1828.54 368.627L1828.84 369.583ZM1821.41 415.857L1820.65 415.202L1820.65 415.204L1821.41 415.857ZM1577.61 31.3799C1577.61 22.8113 1579.94 15.7116 1584.53 10.013L1582.97 8.7575C1578.05 14.8656 1575.61 22.4289 1575.61 31.3799H1577.61ZM1584.52 10.0279C1589.26 4.37827 1595.72 1.53027 1604.03 1.53027V-0.469727C1595.21 -0.469727 1588.15 2.58559 1582.99 8.74264L1584.52 10.0279ZM1604.03 1.53027C1611.64 1.53027 1617.55 3.74799 1621.89 8.09285L1623.31 6.67863C1618.51 1.88287 1612.05 -0.469727 1604.03 -0.469727V1.53027ZM1621.91 8.10713C1626.51 12.5278 1629.66 18.2526 1631.34 25.3262L1633.29 24.8652C1631.53 17.4662 1628.21 11.3843 1623.29 6.66436L1621.91 8.10713ZM1631.34 25.3126L1637.05 51.0206L1639 50.5868L1633.29 24.8788L1631.34 25.3126ZM1638.17 49.8142C1630.31 48.6644 1622.27 48.0898 1614.03 48.0898V50.0898C1622.17 50.0898 1630.12 50.6579 1637.88 51.7932L1638.17 49.8142ZM1614.03 48.0898C1599.66 48.0898 1587.07 50.0053 1576.28 53.861L1576.95 55.7445C1587.48 51.983 1599.84 50.0898 1614.03 50.0898V48.0898ZM1577.61 54.8027V31.3799H1575.61V54.8027H1577.61ZM1828.84 8.38574H1879.11V6.38574H1828.84V8.38574ZM1878.11 7.38574V305.884H1880.11V7.38574H1878.11ZM1878.11 305.884C1878.11 321.289 1873.61 334.289 1864.63 344.945L1866.16 346.233C1875.47 335.18 1880.11 321.71 1880.11 305.884H1878.11ZM1864.63 344.953C1855.81 355.641 1843.8 363.543 1828.52 368.634L1829.15 370.532C1844.73 365.34 1857.08 357.246 1866.17 346.225L1864.63 344.953ZM1829.84 369.583V7.38574H1827.84V369.583H1829.84ZM1767.56 372.021C1748.89 369.38 1733.67 362.318 1721.84 350.869L1720.45 352.306C1732.62 364.089 1748.25 371.31 1767.28 374.001L1767.56 372.021ZM1721.84 350.869C1710.03 339.433 1701.53 322.401 1696.42 299.666L1694.46 300.105C1699.63 323.073 1708.27 340.51 1720.45 352.306L1721.84 350.869ZM1696.41 299.661L1639 50.5791L1637.05 51.0283L1694.47 300.11L1696.41 299.661ZM1637.88 51.7935C1656.17 54.433 1671.01 61.491 1682.45 72.9342L1683.86 71.5199C1672.08 59.7307 1656.82 52.5064 1638.17 49.814L1637.88 51.7935ZM1682.46 72.9457C1694.08 84.1906 1702.58 101.222 1707.89 124.154L1709.84 123.703C1704.48 100.552 1695.85 83.1151 1683.85 71.5084L1682.46 72.9457ZM1707.89 124.158L1766.45 373.24L1768.4 372.782L1709.84 123.7L1707.89 124.158ZM1527.34 127.928C1527.34 108.848 1531.78 93.4607 1540.57 81.68L1538.96 80.4841C1529.85 92.6975 1525.34 108.541 1525.34 127.928H1527.34ZM1540.57 81.6739C1549.39 69.6662 1561.5 61.0214 1576.94 55.7491L1576.29 53.8564C1560.5 59.2481 1548.04 68.1228 1538.96 80.4901L1540.57 81.6739ZM1575.61 54.8027V417H1577.61V54.8027H1575.61ZM1576.61 416H1526.34V418H1576.61V416ZM1527.34 417V127.928H1525.34V417H1527.34ZM1801.13 423.141C1793.34 423.141 1787.34 420.831 1783 416.307L1781.55 417.693C1786.35 422.69 1792.92 425.141 1801.13 425.141V423.141ZM1783.01 416.323C1778.79 411.731 1775.61 405.055 1773.54 396.206L1771.59 396.661C1773.71 405.713 1777.01 412.747 1781.54 417.677L1783.01 416.323ZM1773.54 396.219L1768.4 372.796L1766.45 373.225L1771.59 396.648L1773.54 396.219ZM1767.27 373.999C1776.07 375.338 1784.12 376.01 1791.42 376.01V374.01C1784.24 374.01 1776.29 373.349 1767.57 372.022L1767.27 373.999ZM1791.42 376.01C1804.65 376.01 1817.22 374.188 1829.13 370.539L1828.54 368.627C1816.84 372.214 1804.46 374.01 1791.42 374.01V376.01ZM1827.84 369.583V392.435H1829.84V369.583H1827.84ZM1827.84 392.435C1827.84 402.172 1825.4 409.722 1820.65 415.202L1822.17 416.512C1827.32 410.568 1829.84 402.502 1829.84 392.435H1827.84ZM1820.65 415.204C1816.12 420.462 1809.66 423.141 1801.13 423.141V425.141C1810.12 425.141 1817.18 422.298 1822.17 416.51L1820.65 415.204Z" fill="#FF3E12"/>
</svg>
