<svg width="947" height="604" viewBox="0 0 947 604" fill="none" xmlns="http://www.w3.org/2000/svg">
<path d="M0.764648 3.35352H38.417C45.0798 3.35352 50.348 4.74805 54.2217 7.53711C58.0954 10.2487 60.2646 14.4323 60.7295 20.0879H0.764648V3.35352ZM80.9502 20.0879C81.415 14.4323 83.5843 10.2487 87.458 7.53711C91.3317 4.74805 96.6387 3.35352 103.379 3.35352H140.915V20.0879H80.9502ZM60.7295 20.0879H80.9502V170H60.7295V20.0879ZM180.659 27.4092C190.653 9.5127 205.722 0.564453 225.865 0.564453C235.704 0.564453 244.188 2.84993 251.315 7.4209C258.521 11.9144 264.486 18.3447 269.212 26.7119C257.358 21.2887 242.91 18.5771 225.865 18.5771C208.821 18.5771 193.752 21.5212 180.659 27.4092ZM269.212 146.409C273.318 138.894 276.34 129.985 278.276 119.681C280.291 109.299 281.298 97.9105 281.298 85.5146C281.298 73.7386 280.291 62.8535 278.276 52.8594C276.34 42.8652 273.318 34.1494 269.212 26.7119C280.91 31.9027 289.897 39.4564 296.173 49.373C302.448 59.2897 305.586 71.3369 305.586 85.5146C305.586 100.39 302.448 112.979 296.173 123.283C289.897 133.51 280.91 141.218 269.212 146.409ZM182.519 146.409C170.433 141.063 161.058 133.277 154.396 123.051C147.81 112.747 144.518 100.235 144.518 85.5146C144.518 71.8792 147.655 60.1419 153.931 50.3027C160.284 40.3861 169.193 32.7549 180.659 27.4092C176.708 34.8467 173.725 43.485 171.711 53.3242C169.774 63.1634 168.806 73.8936 168.806 85.5146C168.806 97.6006 169.968 108.834 172.292 119.216C174.616 129.597 178.025 138.662 182.519 146.409ZM225.865 172.905C216.413 172.905 208.046 170.62 200.764 166.049C193.481 161.4 187.399 154.854 182.519 146.409C194.604 151.832 209.053 154.544 225.865 154.544C242.91 154.544 257.358 151.832 269.212 146.409C264.641 154.931 258.714 161.478 251.432 166.049C244.227 170.62 235.704 172.905 225.865 172.905ZM333.012 3.35352H353.232V75.7529H368.688C373.104 75.7529 376.281 75.598 378.218 75.2881C378.063 76.9925 377.985 79.9365 377.985 84.1201C377.985 87.0641 378.218 90.0469 378.683 93.0684C376.436 92.7585 373.104 92.6035 368.688 92.6035H353.232V170H333.012V3.35352ZM378.218 75.2881C378.838 68.0055 380.619 61.3428 383.563 55.2998C386.585 49.1794 391.853 42.2067 399.368 34.3818L428.886 3.35352H454.336V3.81836L403.436 59.1348C398.555 64.4805 394.177 68.3542 390.304 70.7559C386.43 73.1576 382.401 74.6683 378.218 75.2881ZM407.968 139.553C399.136 130.643 392.357 122.547 387.631 115.265C382.982 107.982 380 100.583 378.683 93.0684C383.563 93.6107 388.173 95.0052 392.512 97.252C396.928 99.4212 401.46 102.946 406.108 107.827L465.376 169.535V170H438.415L407.968 139.553ZM499.658 75.2881C492.298 74.5133 487.107 72.2279 484.086 68.4316C481.142 64.5579 479.67 58.6699 479.67 50.7676V3.35352H587.979V20.5527H499.658V75.2881ZM499.658 75.2881C501.053 75.443 503.493 75.5205 506.979 75.5205H583.446V92.1387H506.979C504.888 92.1387 502.447 92.2936 499.658 92.6035V75.2881ZM479.67 117.356C479.67 110.539 481.219 104.999 484.318 100.738C487.417 96.4772 492.531 93.7656 499.658 92.6035V152.917H590.303V170H479.67V117.356ZM641.9 13.1152C641.9 9.55143 642.869 6.56868 644.806 4.16699C646.82 1.7653 649.57 0.564453 653.057 0.564453C656.233 0.564453 658.751 1.49414 660.61 3.35352C662.547 5.21289 663.864 7.61458 664.562 10.5586L666.886 21.0176C663.709 20.5527 660.455 20.3203 657.124 20.3203C651.313 20.3203 646.239 21.0951 641.9 22.6445V13.1152ZM744.515 3.35352H764.968V124.794C764.968 131.147 763.108 136.531 759.39 140.947C755.748 145.363 750.79 148.617 744.515 150.709V3.35352ZM719.529 152.104C711.859 151.019 705.584 148.114 700.703 143.388C695.822 138.662 692.336 131.65 690.244 122.354L666.886 21.0176C674.401 22.1022 680.521 25.0075 685.247 29.7334C690.05 34.3818 693.537 41.3932 695.706 50.7676L719.529 152.104ZM621.447 52.3945C621.447 44.5697 623.268 38.2168 626.909 33.3359C630.55 28.3776 635.548 24.8138 641.9 22.6445V170H621.447V52.3945ZM733.242 172.905C729.988 172.905 727.432 171.937 725.572 170C723.79 168.063 722.473 165.274 721.621 161.633L719.529 152.104C723.093 152.646 726.347 152.917 729.291 152.917C734.637 152.917 739.711 152.181 744.515 150.709V160.006C744.515 164.035 743.507 167.211 741.493 169.535C739.556 171.782 736.806 172.905 733.242 172.905ZM15.0586 219.354H35.0469V369.149H126.854V386H15.0586V219.354ZM199.718 227.256C200.647 223.77 201.926 221.135 203.553 219.354C205.257 217.494 207.62 216.564 210.642 216.564C213.663 216.564 216.026 217.494 217.73 219.354C219.435 221.135 220.752 223.77 221.682 227.256L224.238 238.18C219.9 236.94 215.368 236.32 210.642 236.32C205.993 236.32 201.5 236.94 197.161 238.18L199.718 227.256ZM171.711 265.141C173.57 258.245 176.669 252.512 181.008 247.941C185.346 243.37 190.731 240.117 197.161 238.18L177.173 318.365H244.459L224.238 238.18C230.669 240.117 236.053 243.37 240.392 247.941C244.73 252.512 247.829 258.245 249.688 265.141L282.809 386H261.426L248.526 335.1H172.873L160.206 386H138.823L171.711 265.141ZM328.828 362.874C321.546 359.31 316.045 354.507 312.326 348.464C308.607 342.343 306.748 335.1 306.748 326.732V219.354H327.201V352.415C327.201 356.366 327.743 359.853 328.828 362.874ZM411.919 362.874C413.004 359.853 413.546 356.366 413.546 352.415V219.354H434.58V326.732C434.58 335.1 432.643 342.343 428.77 348.464C424.973 354.507 419.356 359.31 411.919 362.874ZM370.315 388.905C363.188 388.905 356.757 387.782 351.024 385.535C345.369 383.211 340.643 380.112 336.847 376.238C333.128 372.287 330.455 367.832 328.828 362.874C339.287 367.987 353.116 370.544 370.315 370.544C387.592 370.544 401.46 367.987 411.919 362.874C410.369 367.832 407.735 372.287 404.017 376.238C400.298 380.112 395.572 383.211 389.839 385.535C384.106 387.782 377.598 388.905 370.315 388.905ZM493.15 229.115C493.15 225.551 494.119 222.569 496.056 220.167C498.07 217.765 500.82 216.564 504.307 216.564C507.483 216.564 510.001 217.494 511.86 219.354C513.797 221.213 515.114 223.615 515.812 226.559L518.136 237.018C514.959 236.553 511.705 236.32 508.374 236.32C502.563 236.32 497.489 237.095 493.15 238.645V229.115ZM595.765 219.354H616.218V340.794C616.218 347.147 614.358 352.531 610.64 356.947C606.998 361.363 602.04 364.617 595.765 366.709V219.354ZM570.779 368.104C563.109 367.019 556.834 364.114 551.953 359.388C547.072 354.662 543.586 347.65 541.494 338.354L518.136 237.018C525.651 238.102 531.771 241.007 536.497 245.733C541.3 250.382 544.787 257.393 546.956 266.768L570.779 368.104ZM472.697 268.395C472.697 260.57 474.518 254.217 478.159 249.336C481.8 244.378 486.798 240.814 493.15 238.645V386H472.697V268.395ZM584.492 388.905C581.238 388.905 578.682 387.937 576.822 386C575.04 384.063 573.723 381.274 572.871 377.633L570.779 368.104C574.343 368.646 577.597 368.917 580.541 368.917C585.887 368.917 590.961 368.181 595.765 366.709V376.006C595.765 380.035 594.757 383.211 592.743 385.535C590.806 387.782 588.056 388.905 584.492 388.905ZM678.042 243.409C686.719 225.513 700.664 216.564 719.878 216.564C737.155 216.564 749.357 225.28 756.484 242.712C745.251 237.676 732.584 235.158 718.483 235.158C702.989 235.158 689.508 237.909 678.042 243.409ZM764.154 278.854C763.147 264.598 760.59 252.551 756.484 242.712C765.781 246.663 773.412 251.776 779.378 258.052C785.343 264.25 788.907 271.184 790.069 278.854H764.154ZM679.437 363.106C668.048 358.303 659.255 350.866 653.057 340.794C646.859 330.645 643.76 317.552 643.76 301.515C643.76 287.337 646.82 275.406 652.94 265.722C659.061 255.96 667.428 248.522 678.042 243.409C671.379 257.277 668.048 276.646 668.048 301.515C668.048 313.368 668.939 324.641 670.721 335.332C672.503 345.946 675.408 355.204 679.437 363.106ZM757.065 364.152C761.249 354.546 763.999 342.46 765.316 327.895H792.277C786.854 345.249 775.117 357.335 757.065 364.152ZM719.646 388.905C701.439 388.905 688.036 380.306 679.437 363.106C690.283 367.755 703.221 370.079 718.251 370.079C732.429 370.079 745.367 368.104 757.065 364.152C749.163 380.654 736.69 388.905 719.646 388.905ZM837.832 290.591C831.402 289.506 826.366 286.833 822.725 282.572C819.161 278.311 817.379 272.811 817.379 266.07V219.354H837.832V290.591ZM925.688 219.354H946.141V266.07C946.141 272.811 944.32 278.311 940.679 282.572C937.037 286.833 932.04 289.506 925.688 290.591V219.354ZM837.832 290.591C840.311 290.901 842.442 291.056 844.224 291.056H919.18C920.574 291.056 922.743 290.901 925.688 290.591V308.139C922.743 307.829 920.574 307.674 919.18 307.674H844.224C842.442 307.674 840.311 307.829 837.832 308.139V290.591ZM817.379 331.962C817.379 325.454 819.161 320.147 822.725 316.041C826.366 311.857 831.402 309.223 837.832 308.139V386H817.379V331.962ZM925.688 308.139C932.04 309.223 937.037 311.857 940.679 316.041C944.32 320.147 946.141 325.377 946.141 331.729V386H925.688V308.139ZM15.0586 434.354H68.6318C79.8656 434.354 89.5111 436.174 97.5684 439.815C105.626 443.379 112.133 449.5 117.092 458.177C106.71 453.451 94.4307 451.088 80.2529 451.088H35.9766V584.382H82.5771C93.346 584.382 103.379 582.716 112.676 579.385C107.253 586.745 100.784 592.207 93.2686 595.771C85.7536 599.257 77.5413 601 68.6318 601H15.0586V434.354ZM112.676 579.385C123.29 564.432 128.597 543.321 128.597 516.05C128.597 490.328 124.762 471.037 117.092 458.177C128.48 463.135 137.274 470.534 143.472 480.373C149.747 490.135 152.885 502.027 152.885 516.05C152.885 532.242 149.321 545.684 142.193 556.375C135.066 566.989 125.227 574.659 112.676 579.385ZM200.299 506.288C192.939 505.513 187.748 503.228 184.727 499.432C181.783 495.558 180.311 489.67 180.311 481.768V434.354H288.619V451.553H200.299V506.288ZM200.299 506.288C201.693 506.443 204.134 506.521 207.62 506.521H284.087V523.139H207.62C205.528 523.139 203.088 523.294 200.299 523.604V506.288ZM180.311 548.356C180.311 541.539 181.86 535.999 184.959 531.738C188.058 527.477 193.171 524.766 200.299 523.604V583.917H290.943V601H180.311V548.356ZM307.794 434.354H345.446C352.109 434.354 357.377 435.748 361.251 438.537C365.125 441.249 367.294 445.432 367.759 451.088H307.794V434.354ZM387.979 451.088C388.444 445.432 390.614 441.249 394.487 438.537C398.361 435.748 403.668 434.354 410.408 434.354H447.944V451.088H387.979ZM367.759 451.088H387.979V601H367.759V451.088ZM499.31 442.256C500.239 438.77 501.518 436.135 503.145 434.354C504.849 432.494 507.212 431.564 510.233 431.564C513.255 431.564 515.618 432.494 517.322 434.354C519.027 436.135 520.344 438.77 521.273 442.256L523.83 453.18C519.492 451.94 514.959 451.32 510.233 451.32C505.585 451.32 501.091 451.94 496.753 453.18L499.31 442.256ZM471.303 480.141C473.162 473.245 476.261 467.512 480.6 462.941C484.938 458.37 490.323 455.117 496.753 453.18L476.765 533.365H544.051L523.83 453.18C530.26 455.117 535.645 458.37 539.983 462.941C544.322 467.512 547.421 473.245 549.28 480.141L582.4 601H561.018L548.118 550.1H472.465L459.798 601H438.415L471.303 480.141ZM608.432 434.354H628.42V601H608.432V434.354ZM669.094 434.354H689.082V584.149H780.889V601H669.094V434.354ZM823.073 454.109C825.475 447.369 829.775 441.946 835.973 437.84C842.248 433.656 850.073 431.564 859.447 431.564C877.654 431.564 889.507 439.002 895.008 453.877C884.471 450.081 872.385 448.183 858.75 448.183C844.262 448.183 832.37 450.158 823.073 454.109ZM897.797 484.673C898.107 480.489 898.262 477.545 898.262 475.841C898.262 467.474 897.177 460.152 895.008 453.877C902.91 456.821 909.147 460.927 913.718 466.195C918.289 471.386 920.69 477.545 920.923 484.673H897.797ZM901.167 580.314C902.562 576.441 903.259 572.218 903.259 567.647C903.259 560.597 902.058 554.671 899.656 549.867C897.332 545.064 893.846 540.996 889.197 537.665C884.626 534.334 878.622 531.235 871.185 528.368L838.994 516.05C827.451 511.556 818.618 506.598 812.498 501.175C806.378 495.752 803.317 489.128 803.317 481.303C803.317 474.95 805.022 469.488 808.431 464.917C811.84 460.346 816.72 456.743 823.073 454.109C821.834 457.673 821.214 461.353 821.214 465.149C821.214 471.192 822.299 476.228 824.468 480.257C826.715 484.208 830.085 487.617 834.578 490.483C839.149 493.35 845.386 496.333 853.288 499.432L885.479 511.982C896.867 516.553 905.66 522.015 911.858 528.368C918.056 534.644 921.155 542.12 921.155 550.797C921.155 557.382 919.451 563.193 916.042 568.229C912.711 573.187 907.752 577.215 901.167 580.314ZM825.979 581.477C808.082 575.124 799.018 563.231 798.785 545.8H821.911C821.601 548.201 821.446 551.688 821.446 556.259C821.446 566.485 822.957 574.891 825.979 581.477ZM863.515 603.905C854.528 603.905 846.858 602.007 840.505 598.211C834.152 594.337 829.31 588.759 825.979 581.477C836.36 585.118 849.376 586.938 865.025 586.938C879.823 586.938 891.87 584.73 901.167 580.314C898.688 587.442 894.233 593.175 887.803 597.514C881.372 601.775 873.276 603.905 863.515 603.905Z" fill="#FF3E12"/>
</svg>
