<svg width="2367" height="425" viewBox="0 0 2367 425" fill="none" xmlns="http://www.w3.org/2000/svg">
<path d="M142.532 371.297L142.256 372.258L143.909 372.733L143.504 371.061L142.532 371.297ZM100.828 347.303L100.109 347.998L100.115 348.004L100.121 348.01L100.828 347.303ZM77.6904 304.742L78.6586 304.491L78.6584 304.491L77.6904 304.742ZM0.566406 7.38574V6.38574H-0.726048L-0.401566 7.6368L0.566406 7.38574ZM54.2676 7.38574L55.2394 7.15003L55.054 6.38574H54.2676V7.38574ZM297.065 7.38574V6.38574H296.278L296.093 7.15147L297.065 7.38574ZM350.767 7.38574L351.735 7.63506L352.057 6.38574H350.767V7.38574ZM274.214 304.742L273.245 304.492L273.245 304.494L274.214 304.742ZM250.791 347.303L250.084 346.596L250.078 346.602L250.791 347.303ZM209.373 371.297L208.4 371.063L207.998 372.732L209.649 372.258L209.373 371.297ZM149.102 397.576L150.073 397.339L150.072 397.334L149.102 397.576ZM142.532 371.297L142.744 370.32L141.171 369.978L141.562 371.539L142.532 371.297ZM209.373 371.297L210.343 371.539L210.733 369.978L209.16 370.32L209.373 371.297ZM202.803 397.576L201.833 397.334L201.829 397.35L201.825 397.366L202.803 397.576ZM142.808 370.336C126.389 365.618 112.64 357.701 101.535 346.596L100.121 348.01C111.486 359.375 125.54 367.455 142.256 372.258L142.808 370.336ZM101.547 346.608C90.6337 335.319 82.9998 321.29 78.6586 304.491L76.7222 304.992C81.1409 322.09 88.9317 336.435 100.109 347.998L101.547 346.608ZM78.6584 304.491L1.53438 7.13468L-0.401566 7.6368L76.7225 304.993L78.6584 304.491ZM0.566406 8.38574H54.2676V6.38574H0.566406V8.38574ZM53.2958 7.62145L141.56 371.533L143.504 371.061L55.2394 7.15003L53.2958 7.62145ZM297.065 8.38574H350.767V6.38574H297.065V8.38574ZM349.798 7.13643L273.245 304.492L275.182 304.991L351.735 7.63506L349.798 7.13643ZM273.245 304.494C268.904 321.479 261.178 335.501 250.084 346.596L251.498 348.01C262.874 336.634 270.764 322.282 275.183 304.989L273.245 304.494ZM250.078 346.602C239.165 357.703 225.514 365.618 209.096 370.336L209.649 372.258C226.366 367.454 240.327 359.373 251.504 348.004L250.078 346.602ZM210.345 371.531L298.038 7.62001L296.093 7.15147L208.4 371.063L210.345 371.531ZM175.952 423.141C168.745 423.141 163.228 420.933 159.265 416.61L157.791 417.961C162.207 422.779 168.305 425.141 175.952 425.141V423.141ZM159.265 416.61C155.227 412.205 152.144 405.81 150.073 397.339L148.13 397.814C150.249 406.481 153.45 413.226 157.791 417.961L159.265 416.61ZM150.072 397.334L143.502 371.054L141.562 371.539L148.131 397.819L150.072 397.334ZM142.319 372.274C155.499 375.139 166.715 376.582 175.952 376.582V374.582C166.908 374.582 155.843 373.167 142.744 370.32L142.319 372.274ZM175.952 376.582C185.189 376.582 196.405 375.139 209.585 372.274L209.16 370.32C196.061 373.167 184.997 374.582 175.952 374.582V376.582ZM208.402 371.054L201.833 397.334L203.773 397.819L210.343 371.539L208.402 371.054ZM201.825 397.366C199.945 406.11 196.819 412.546 192.53 416.789C188.265 421.008 182.769 423.141 175.952 423.141V425.141C183.227 425.141 189.252 422.846 193.937 418.211C198.598 413.599 201.852 406.752 203.78 397.786L201.825 397.366ZM423.32 7.38574V6.38574H422.32V7.38574H423.32ZM472.451 7.38574H473.451V6.38574H472.451V7.38574ZM472.451 417V418H473.451V417H472.451ZM423.32 417H422.32V418H423.32V417ZM423.32 8.38574H472.451V6.38574H423.32V8.38574ZM471.451 7.38574V417H473.451V7.38574H471.451ZM472.451 416H423.32V418H472.451V416ZM424.32 417V7.38574H422.32V417H424.32ZM572.427 7.38574V6.38574H571.427V7.38574H572.427ZM792.659 18.8115L792.117 19.6518L792.124 19.6569L792.132 19.6618L792.659 18.8115ZM817.51 51.9463L817.235 52.9078L819.015 53.4165L818.464 51.6487L817.51 51.9463ZM622.7 46.2334V45.2334H621.7V46.2334H622.7ZM622.7 201.053H621.7V202.053H622.7V201.053ZM821.509 198.196H822.509V196.961L821.301 197.218L821.509 198.196ZM821.509 245.042L821.282 246.016L822.509 246.301V245.042H821.509ZM622.7 242.186V241.186H621.7V242.186H622.7ZM622.7 417V418H623.7V417H622.7ZM572.427 417H571.427V418H572.427V417ZM817.51 51.9463L817.775 50.9822L816.059 50.5094L816.548 52.221L817.51 51.9463ZM860.642 78.2256L859.867 78.8575L859.872 78.864L859.878 78.8705L860.642 78.2256ZM861.499 172.774L860.708 172.162L860.706 172.164L861.499 172.774ZM821.509 198.196H820.509V199.498L821.766 199.163L821.509 198.196ZM821.509 245.042L821.738 244.069L820.509 243.779V245.042H821.509ZM860.642 269.607L859.838 270.201L859.842 270.207L860.642 269.607ZM874.353 416.429V417.429H875.353V416.429H874.353ZM821.509 416.429H820.509V417.429H821.509V416.429ZM572.427 8.38574H743.813V6.38574H572.427V8.38574ZM743.813 8.38574C764.464 8.38574 780.531 12.1775 792.117 19.6518L793.201 17.9712C781.173 10.2112 764.676 6.38574 743.813 6.38574V8.38574ZM792.132 19.6618C803.906 26.9503 812.05 37.7886 816.555 52.2439L818.464 51.6487C813.829 36.7778 805.406 25.5263 793.185 17.9613L792.132 19.6618ZM817.784 50.9848C804.344 47.1445 788.632 45.2334 770.664 45.2334V47.2334C788.497 47.2334 804.016 49.1309 817.235 52.9078L817.784 50.9848ZM770.664 45.2334H622.7V47.2334H770.664V45.2334ZM621.7 46.2334V201.053H623.7V46.2334H621.7ZM622.7 202.053H795.801V200.053H622.7V202.053ZM795.801 202.053C804.067 202.053 812.706 201.092 821.717 199.174L821.301 197.218C812.411 199.11 803.912 200.053 795.801 200.053V202.053ZM820.509 198.196V245.042H822.509V198.196H820.509ZM821.735 244.068C813.468 242.145 804.822 241.186 795.801 241.186V243.186C804.68 243.186 813.173 244.13 821.282 246.016L821.735 244.068ZM795.801 241.186H622.7V243.186H795.801V241.186ZM621.7 242.186V417H623.7V242.186H621.7ZM622.7 416H572.427V418H622.7V416ZM573.427 417V7.38574H571.427V417H573.427ZM822.509 86.5093C822.509 72.7404 821.171 61.1203 818.471 51.6716L816.548 52.221C819.181 61.4344 820.509 72.8562 820.509 86.5093H822.509ZM817.244 52.9104C835.749 58.0087 849.931 66.6721 859.867 78.8575L861.417 77.5937C851.167 65.0232 836.594 56.167 817.775 50.9822L817.244 52.9104ZM859.878 78.8705C869.978 90.8405 875.067 106.401 875.067 125.643H877.067C877.067 106.036 871.873 89.9857 861.406 77.5807L859.878 78.8705ZM875.067 125.643C875.067 144.317 870.26 159.8 860.708 172.162L862.29 173.385C872.162 160.611 877.067 144.674 877.067 125.643H875.067ZM860.706 172.164C851.337 184.344 838.207 192.708 821.251 197.23L821.766 199.163C839.088 194.544 852.618 185.959 862.292 173.384L860.706 172.164ZM822.509 198.196V86.5093H820.509V198.196H822.509ZM821.279 246.015C838.029 249.968 850.856 258.039 859.838 270.201L861.447 269.013C852.147 256.42 838.885 248.115 821.738 244.069L821.279 246.015ZM859.842 270.207C868.814 282.17 873.353 298.313 873.353 318.738H875.353C875.353 298.03 870.751 281.42 861.442 269.007L859.842 270.207ZM873.353 318.738V416.429H875.353V318.738H873.353ZM874.353 415.429H821.509V417.429H874.353V415.429ZM822.509 416.429V245.042H820.509V416.429H822.509ZM915.486 7.38574V6.38574H914.486V7.38574H915.486ZM1046.88 17.6689L1046.3 18.4806L1046.31 18.4882L1046.88 17.6689ZM1062.88 48.5186V49.5186H1063.96L1063.88 48.4366L1062.88 48.5186ZM915.486 48.5186H914.486V49.5186H915.486V48.5186ZM1112.58 48.5186L1111.58 48.4366L1111.49 49.5186H1112.58V48.5186ZM1128.58 17.6689L1129.15 18.4883L1129.16 18.4805L1128.58 17.6689ZM1259.97 7.38574H1260.97V6.38574H1259.97V7.38574ZM1259.97 48.5186V49.5186H1260.97V48.5186H1259.97ZM1062.88 48.5186V47.5186H1061.88V48.5186H1062.88ZM1112.58 48.5186H1113.58V47.5186H1112.58V48.5186ZM1112.58 417V418H1113.58V417H1112.58ZM1062.88 417H1061.88V418H1062.88V417ZM915.486 8.38574H1008.03V6.38574H915.486V8.38574ZM1008.03 8.38574C1024.28 8.38574 1037 11.7875 1046.3 18.4805L1047.47 16.8574C1037.72 9.83944 1024.54 6.38574 1008.03 6.38574V8.38574ZM1046.31 18.4882C1055.54 24.9482 1060.76 34.9301 1061.88 48.6005L1063.88 48.4366C1062.71 34.3043 1057.27 23.7198 1047.46 16.8497L1046.31 18.4882ZM1062.88 47.5186H915.486V49.5186H1062.88V47.5186ZM916.486 48.5186V7.38574H914.486V48.5186H916.486ZM1113.58 48.6005C1114.7 34.9301 1119.92 24.9482 1129.15 18.4882L1128 16.8497C1118.19 23.7198 1112.75 34.3043 1111.58 48.4366L1113.58 48.6005ZM1129.16 18.4805C1138.46 11.7887 1151.27 8.38574 1167.71 8.38574V6.38574C1151.02 6.38574 1137.74 9.83821 1127.99 16.8574L1129.16 18.4805ZM1167.71 8.38574H1259.97V6.38574H1167.71V8.38574ZM1258.97 7.38574V48.5186H1260.97V7.38574H1258.97ZM1259.97 47.5186H1112.58V49.5186H1259.97V47.5186ZM1062.88 49.5186H1112.58V47.5186H1062.88V49.5186ZM1111.58 48.5186V417H1113.58V48.5186H1111.58ZM1112.58 416H1062.88V418H1112.58V416ZM1063.88 417V48.5186H1061.88V417H1063.88ZM1372.8 360.157L1372.36 361.055L1374.58 362.138L1373.74 359.819L1372.8 360.157ZM1332.24 324.737L1331.39 325.256L1331.39 325.261L1332.24 324.737ZM1318.53 7.38574V6.38574H1317.53V7.38574H1318.53ZM1368.8 7.38574H1369.8V6.38574H1368.8V7.38574ZM1577.04 360.157L1576.1 359.819L1575.27 362.111L1577.47 361.059L1577.04 360.157ZM1581.04 7.38574V6.38574H1580.04V7.38574H1581.04ZM1632.74 7.38574H1633.74V6.38574H1632.74V7.38574ZM1618.46 324.737L1617.61 324.202L1617.61 324.205L1618.46 324.737ZM1427.36 415.857L1426.98 416.782L1426.99 416.785L1427 416.788L1427.36 415.857ZM1392.51 393.006L1391.78 393.691L1391.79 393.699L1391.8 393.706L1392.51 393.006ZM1372.8 360.157L1373.24 359.258L1371.11 358.218L1371.85 360.469L1372.8 360.157ZM1577.04 360.157L1577.99 360.455L1578.69 358.238L1576.6 359.258L1577.04 360.157ZM1557.61 393.006L1558.34 393.698L1558.34 393.691L1557.61 393.006ZM1522.77 415.857L1523.13 416.789L1523.14 416.784L1522.77 415.857ZM1373.24 359.259C1355.49 350.57 1342.12 338.883 1333.09 324.213L1331.39 325.261C1340.64 340.298 1354.32 352.224 1372.36 361.055L1373.24 359.259ZM1333.1 324.218C1324.07 309.355 1319.53 291.736 1319.53 271.321H1317.53C1317.53 292.04 1322.14 310.031 1331.39 325.256L1333.1 324.218ZM1319.53 271.321V7.38574H1317.53V271.321H1319.53ZM1318.53 8.38574H1368.8V6.38574H1318.53V8.38574ZM1367.8 7.38574V334.449H1369.8V7.38574H1367.8ZM1367.8 334.449C1367.8 344.25 1369.15 352.938 1371.86 360.495L1373.74 359.819C1371.12 352.522 1369.8 344.071 1369.8 334.449H1367.8ZM1577.98 360.495C1580.69 352.938 1582.04 344.25 1582.04 334.449H1580.04C1580.04 344.071 1578.72 352.522 1576.1 359.819L1577.98 360.495ZM1582.04 334.449V7.38574H1580.04V334.449H1582.04ZM1581.04 8.38574H1632.74V6.38574H1581.04V8.38574ZM1631.74 7.38574V271.321H1633.74V7.38574H1631.74ZM1631.74 271.321C1631.74 291.728 1627.02 309.342 1617.61 324.202L1619.3 325.272C1628.94 310.044 1633.74 292.047 1633.74 271.321H1631.74ZM1617.61 324.205C1608.39 338.875 1594.74 350.564 1576.61 359.255L1577.47 361.059C1595.9 352.23 1609.86 340.306 1619.3 325.269L1617.61 324.205ZM1474.78 423.141C1457.36 423.141 1441.68 420.397 1427.73 414.926L1427 416.788C1441.22 422.363 1457.15 425.141 1474.78 425.141V423.141ZM1427.74 414.932C1413.95 409.265 1402.45 401.719 1393.23 392.306L1391.8 393.706C1401.24 403.336 1412.97 411.024 1426.98 416.782L1427.74 414.932ZM1393.24 392.32C1384.2 382.711 1377.7 371.888 1373.75 359.845L1371.85 360.469C1375.9 372.801 1382.55 383.877 1391.78 393.691L1393.24 392.32ZM1372.36 361.055C1398.26 373.715 1432.42 380.009 1474.78 380.009V378.009C1432.59 378.009 1398.76 371.736 1373.24 359.258L1372.36 361.055ZM1474.78 380.009C1517.33 380.009 1551.58 373.715 1577.48 361.055L1576.6 359.258C1551.08 371.735 1517.16 378.009 1474.78 378.009V380.009ZM1576.08 359.858C1572.32 371.895 1565.93 382.714 1556.89 392.32L1558.34 393.691C1567.58 383.874 1574.14 372.793 1577.99 360.455L1576.08 359.858ZM1556.89 392.313C1547.86 401.719 1536.37 409.263 1522.39 414.931L1523.14 416.784C1537.34 411.026 1549.08 403.336 1558.34 393.698L1556.89 392.313ZM1522.4 414.926C1508.44 420.396 1492.58 423.141 1474.78 423.141V425.141C1492.78 425.141 1508.9 422.364 1523.13 416.788L1522.4 414.926ZM1828.98 26.8096L1828.01 26.5519L1828.01 26.5667L1828 26.5817L1828.98 26.8096ZM1838.4 7.38574L1837.67 6.71001L1837.66 6.71147L1838.4 7.38574ZM1873.25 7.38574L1872.51 8.06147L1872.52 8.06929L1872.53 8.07697L1873.25 7.38574ZM1882.96 26.8096L1883.94 26.5817L1883.93 26.5667L1883.93 26.5519L1882.96 26.8096ZM1889.25 53.6602L1888.97 54.6217L1890.61 55.0892L1890.22 53.4323L1889.25 53.6602ZM1822.69 53.6602L1821.72 53.4323L1821.33 55.0892L1822.97 54.6217L1822.69 53.6602ZM1760.14 119.93L1761.1 120.192L1761.1 120.19L1760.14 119.93ZM1822.69 53.6602L1823.66 53.902L1824.09 52.1954L1822.4 52.7026L1822.69 53.6602ZM1773.56 250.755L1772.59 250.513L1772.28 251.755H1773.56V250.755ZM1938.95 250.755V251.755H1940.23L1939.92 250.51L1938.95 250.755ZM1889.25 53.6602L1889.54 52.7026L1887.85 52.1938L1888.28 53.9047L1889.25 53.6602ZM1951.8 119.93L1950.84 120.19L1950.84 120.194L1951.8 119.93ZM2033.21 417V418H2034.52L2034.18 416.736L2033.21 417ZM1980.65 417L1979.68 417.246L1979.88 418H1980.65V417ZM1948.95 291.888L1949.92 291.642L1949.73 290.888H1948.95V291.888ZM1762.99 291.888V290.888H1762.21L1762.02 291.646L1762.99 291.888ZM1731.86 417V418H1732.64L1732.83 417.241L1731.86 417ZM1679.3 417L1678.33 416.737L1677.99 418H1679.3V417ZM1829.94 27.0672C1832.21 18.5824 1835.29 12.2771 1839.14 8.06001L1837.66 6.71147C1833.52 11.2542 1830.32 17.8981 1828.01 26.5519L1829.94 27.0672ZM1839.14 8.06147C1843.1 3.73837 1848.62 1.53027 1855.83 1.53027V-0.469727C1848.18 -0.469727 1842.08 1.89249 1837.67 6.71002L1839.14 8.06147ZM1855.83 1.53027C1863.03 1.53027 1868.55 3.73837 1872.51 8.06147L1873.99 6.71002C1869.57 1.89249 1863.47 -0.469727 1855.83 -0.469727V1.53027ZM1872.53 8.07697C1876.56 12.2917 1879.74 18.5905 1882 27.0672L1883.93 26.5519C1881.62 17.89 1878.32 11.2396 1873.97 6.69452L1872.53 8.07697ZM1881.99 27.0375L1888.27 53.888L1890.22 53.4323L1883.94 26.5817L1881.99 27.0375ZM1889.52 52.6986C1878.77 49.625 1867.53 48.0898 1855.83 48.0898V50.0898C1867.36 50.0898 1878.4 51.6015 1888.97 54.6217L1889.52 52.6986ZM1855.83 48.0898C1844.31 48.0898 1833.17 49.6255 1822.42 52.6986L1822.97 54.6217C1833.54 51.6011 1844.49 50.0898 1855.83 50.0898V48.0898ZM1823.67 53.888L1829.95 27.0375L1828 26.5817L1821.72 53.4323L1823.67 53.888ZM1761.1 120.19C1765.64 103.381 1773.18 89.4423 1783.71 78.3427L1782.26 76.9659C1771.47 88.337 1763.78 102.582 1759.17 119.669L1761.1 120.19ZM1783.71 78.3427C1794.25 67.2418 1807.33 59.3316 1822.98 54.6177L1822.4 52.7026C1806.44 57.5101 1793.05 65.596 1782.26 76.9659L1783.71 78.3427ZM1821.72 53.4183L1772.59 250.513L1774.53 250.997L1823.66 53.902L1821.72 53.4183ZM1773.56 251.755H1938.95V249.755H1773.56V251.755ZM1939.92 250.51L1890.22 53.4156L1888.28 53.9047L1937.98 250.999L1939.92 250.51ZM1888.96 54.6177C1904.61 59.3316 1917.69 67.2418 1928.23 78.3427L1929.68 76.9659C1918.89 65.596 1905.5 57.5101 1889.54 52.7026L1888.96 54.6177ZM1928.23 78.3427C1938.76 89.4423 1946.31 103.381 1950.84 120.19L1952.77 119.669C1948.16 102.582 1940.47 88.337 1929.68 76.9659L1928.23 78.3427ZM1950.84 120.194L2032.25 417.264L2034.18 416.736L1952.77 119.665L1950.84 120.194ZM2033.21 416H1980.65V418H2033.21V416ZM1981.62 416.754L1949.92 291.642L1947.98 292.133L1979.68 417.246L1981.62 416.754ZM1948.95 290.888H1762.99V292.888H1948.95V290.888ZM1762.02 291.646L1730.89 416.759L1732.83 417.241L1763.96 292.129L1762.02 291.646ZM1731.86 416H1679.3V418H1731.86V416ZM1680.26 417.263L1761.1 120.192L1759.17 119.667L1678.33 416.737L1680.26 417.263ZM2092.06 7.38574V6.38574H2091.06V7.38574H2092.06ZM2141.19 7.38574H2142.19V6.38574H2141.19V7.38574ZM2141.19 375.582H2140.19V376.582H2141.19V375.582ZM2366.85 375.582H2367.85V374.582H2366.85V375.582ZM2366.85 417V418H2367.85V417H2366.85ZM2092.06 417H2091.06V418H2092.06V417ZM2092.06 8.38574H2141.19V6.38574H2092.06V8.38574ZM2140.19 7.38574V375.582H2142.19V7.38574H2140.19ZM2141.19 376.582H2366.85V374.582H2141.19V376.582ZM2365.85 375.582V417H2367.85V375.582H2365.85ZM2366.85 416H2092.06V418H2366.85V416ZM2093.06 417V7.38574H2091.06V417H2093.06Z" fill="#FF3E12"/>
</svg>
